<svg width="16" height="16" viewBox="0 0 16 16" fill="none" xmlns="http://www.w3.org/2000/svg">
<path fill-rule="evenodd" clip-rule="evenodd" d="M15.4793 12.8451C15.8127 12.5117 16 12.0596 16 11.5881V2.69916C16 2.22767 15.8127 1.77548 15.4793 1.44209C15.1459 1.10869 14.6937 0.921387 14.2222 0.921387H1.77778C1.30628 0.921387 0.854097 1.10869 0.520699 1.44209C0.187301 1.77548 0 2.22767 0 2.69916V14.5072C0 15.3981 1.07714 15.8442 1.70711 15.2143L3.55556 13.3658H14.2222C14.6937 13.3658 15.1459 13.1785 15.4793 12.8451ZM4.44444 6.25472C3.95352 6.25472 3.55556 6.65269 3.55556 7.14361C3.55556 7.63453 3.95352 8.0325 4.44444 8.0325C4.93536 8.0325 5.33333 7.63453 5.33333 7.14361C5.33333 6.65269 4.93536 6.25472 4.44444 6.25472ZM7.11198 7.1436C7.11198 6.65268 7.50995 6.25471 8.00087 6.25471C8.49179 6.25471 8.88976 6.65268 8.88976 7.1436C8.88976 7.63452 8.49179 8.03249 8.00087 8.03249C7.50995 8.03249 7.11198 7.63452 7.11198 7.1436ZM11.5564 6.25471C11.0655 6.25471 10.6675 6.65268 10.6675 7.1436C10.6675 7.63452 11.0655 8.03249 11.5564 8.03249C12.0473 8.03249 12.4453 7.63452 12.4453 7.1436C12.4453 6.65268 12.0473 6.25471 11.5564 6.25471Z" fill="white"/>
</svg>
