<svg width="27" height="27" viewBox="0 0 27 27" fill="none" xmlns="http://www.w3.org/2000/svg">
<path d="M5.5612 12.3749C6.62427 12.999 7.80835 13.6529 8.76397 14.1703L8.67133 14.2091C7.72524 14.606 7.68125 15.9302 8.59889 16.389L9.58126 16.8802L9.58128 16.8802C9.74789 16.9635 9.93163 17.0069 10.1179 17.0069L15.5603 17.0069C15.9735 17.1488 17.1024 17.5346 17.5625 17.6721C18.5532 17.9683 19.2955 18.1744 19.9017 18.3414C19.9571 18.3566 20.0112 18.3715 20.0641 18.386C20.5944 18.5319 21.0052 18.6449 21.4029 18.7683C22.2583 19.0338 23.1179 18.8327 23.6229 18.1886C24.0981 17.5826 24.148 16.6491 23.5057 16.0069C23.4763 15.9775 23.4131 15.8961 23.2955 15.7027C23.2652 15.6529 23.2224 15.5803 23.174 15.498C23.0901 15.3555 22.989 15.1839 22.906 15.0514C22.6165 14.5896 22.1539 13.9314 21.4039 13.5853C19.5373 12.7238 12.6773 10.2686 10.8329 9.61194L9.64549 5.91661C9.50907 5.49205 9.14847 5.17815 8.70915 5.10155L8.55098 6.00865L8.70915 5.10155L7.25623 4.8482C6.52215 4.7202 5.8501 5.2852 5.8501 6.03037V8.98297C5.72131 8.98336 5.59036 8.98691 5.46338 8.99512C5.24612 9.00918 4.95795 9.04101 4.69714 9.13409C4.56808 9.18016 4.36902 9.26743 4.19072 9.43911C3.9866 9.63567 3.81838 9.94024 3.83397 10.3193C3.86257 11.0146 4.261 11.4776 4.60548 11.7614C4.86588 11.9759 5.19524 12.1646 5.43081 12.2996C5.47858 12.327 5.5225 12.3522 5.5612 12.3749L6.06748 11.5125L5.5612 12.3749ZM5.8501 9.81235C5.8501 9.8121 5.8501 9.81185 5.8501 9.8116V9.81235L6.6451 9.81235L5.8501 9.81235Z" stroke="#7688A8" stroke-width="2"/>
</svg>
