<svg width="43" height="12" viewBox="0 0 43 12" fill="none" xmlns="http://www.w3.org/2000/svg">
<g clip-path="url(#clip0)">
<path d="M11.2906 6.73525C10.9616 7.05406 10.516 7.14624 10.3304 6.96059C10.1447 6.77366 10.2395 6.31402 10.5659 5.9965C10.8937 5.68153 11.3303 5.5727 11.5185 5.75963C11.7067 5.94656 11.6145 6.42029 11.2906 6.73525" fill="#FAD10A"/>
<path d="M12.6191 6.69138C12.3861 6.94873 12.0673 7.04732 11.9124 6.91672C11.76 6.78485 11.8189 6.44172 12.0519 6.18181C12.2888 5.92574 12.6127 5.80667 12.7664 5.93982C12.9162 6.07298 12.8521 6.43147 12.6191 6.69138Z" fill="#FAD700"/>
<path d="M7.10206 5.05487C6.65907 4.95884 6.0509 5.11376 5.63351 5.52475C5.19691 5.95878 4.87683 6.5503 5.04967 7.03683C5.1188 7.23785 5.40433 7.42862 5.63351 7.43758C6.07907 7.45679 6.59248 7.25321 6.94457 6.928C7.32355 6.58231 7.52202 6.07402 7.53097 5.7168C7.53004 5.62846 7.53004 5.58877 7.50923 5.49146C7.47085 5.28405 7.26596 5.08816 7.10208 5.05487" fill="#F5A819"/>
<path d="M9.49232 6.78575C9.05445 7.20442 8.40787 7.36062 8.1582 7.11095C7.90853 6.86257 8.05705 6.24288 8.49238 5.81909C8.92641 5.3953 9.53841 5.29543 9.78807 5.5451C10.0377 5.78964 9.92764 6.36067 9.49232 6.78575" fill="#F8B817"/>
<path d="M8.7207 5.66089C8.87307 5.53541 9.03695 5.44835 9.18035 5.43555C9.01902 5.49701 8.86282 5.56998 8.7207 5.66089Z" fill="#F5A319"/>
<path d="M12.3639 4.7274C12.095 5.09742 11.6597 5.2549 11.442 5.1051C11.2282 4.9553 11.2269 4.49053 11.4932 4.11923C11.766 3.75306 12.2038 3.56613 12.4164 3.71593C12.6353 3.86829 12.6353 4.36122 12.3639 4.7274" fill="#FAD10A"/>
<path d="M13.4049 5.12097C13.1886 5.418 12.8672 5.55757 12.6956 5.43593C12.5202 5.3143 12.5458 4.95452 12.7635 4.6562C12.9773 4.36173 13.3076 4.19912 13.4792 4.32331C13.652 4.44239 13.6239 4.82777 13.4049 5.12097Z" fill="#FAD700"/>
<path d="M8.86397 3.56375C8.31982 4.21673 7.4889 4.48304 7.12912 4.14503C6.713 3.74556 6.69507 3.10923 7.30579 2.33974C7.9639 1.51264 8.69112 1.4832 9.07522 1.79176C9.45933 2.09904 9.40556 2.9095 8.86397 3.56375" fill="#F8B517"/>
<path d="M10.8954 4.21402C10.4973 4.88876 9.88012 4.90029 9.60229 4.68263C9.32958 4.45985 9.40896 3.82096 9.79948 3.35363C10.1887 2.88503 10.8097 2.70066 11.0619 2.94777C11.2719 3.15646 11.2078 3.6878 10.8954 4.21402" fill="#F8BF11"/>
<path d="M7.16777 1.41406C7.17056 1.51137 7.16219 1.60611 7.15234 1.70214C7.15885 1.60739 7.16777 1.51137 7.16777 1.41406Z" fill="#F5A319"/>
<path d="M6.53612 0.235631C5.11621 -0.362288 3.68736 1.56462 3.80131 2.64651C3.89097 3.48258 4.42228 3.8193 5.16487 3.70151C5.17769 3.6964 5.18921 3.69641 5.19813 3.6938C5.98169 3.58882 6.6398 2.94864 6.93939 2.38529C7.0431 2.18812 7.11481 1.95254 7.15066 1.70927C7.15159 1.70546 7.15066 1.70546 7.15066 1.70546C7.15809 1.60816 7.16729 1.51213 7.16729 1.41483C7.16729 0.910373 6.98292 0.426403 6.53607 0.235632" fill="#F5A11C"/>
<path d="M3.55495 4.54817C3.23103 4.60323 2.92118 4.73766 2.64079 4.92459C2.18371 5.19346 1.80473 5.5494 1.5845 5.97831C1.31308 6.50453 1.34637 6.97826 1.57893 7.30731C1.68392 7.48399 1.83116 7.59282 1.97456 7.65428C2.05269 7.68629 2.13587 7.71189 2.21909 7.72726H2.22189C2.46899 7.78616 2.74811 7.78104 3.05667 7.70037C3.95931 7.45583 4.98102 6.47509 4.97462 5.5494C4.96998 4.64292 4.30372 4.38941 3.55472 4.54817" fill="#F8991C"/>
<path d="M12.3609 8.12052C12.1125 8.36123 11.7898 8.44317 11.6439 8.29977C11.503 8.15765 11.5812 7.8222 11.8295 7.57638C12.0805 7.33567 12.4134 7.23837 12.558 7.38049C12.7014 7.52261 12.6131 7.87726 12.3609 8.12052" fill="#FAD700"/>
<path d="M10.8036 8.58076C10.4631 8.87907 10.0406 8.95846 9.86259 8.75872C9.68846 8.56155 9.82543 8.1608 10.1724 7.86504C10.5181 7.57057 10.924 7.49375 11.102 7.6922C11.2735 7.88809 11.1532 8.285 10.8036 8.58076" fill="#FAD10A"/>
<path d="M8.72908 9.21607C8.26559 9.61041 7.70481 9.7154 7.46922 9.45165C7.23364 9.18662 7.42054 8.65272 7.88021 8.26094C8.34242 7.86531 8.884 7.76288 9.11831 8.02791C9.35261 8.29038 9.19002 8.82044 8.72908 9.21607" fill="#F8BA14"/>
<path d="M6.17221 8.3393C5.25804 8.08067 3.80358 9.24707 4.01484 10.1625C4.06473 10.3699 4.349 10.553 4.57562 10.5799C5.49107 10.6746 6.52174 9.69647 6.57679 9.0038C6.57215 8.92314 6.56935 8.84248 6.56527 8.7631C6.53841 8.5544 6.33609 8.3854 6.17221 8.3393Z" fill="#FAA617"/>
<path d="M3.71032 9.35847C3.54387 8.66453 2.70397 8.71958 2.14062 8.88603C1.93064 8.93469 1.71939 9.01406 1.52221 9.12161H1.5185C1.22786 9.26373 0.988441 9.43658 0.768225 9.64783C0.499352 9.90646 0.0409822 10.4877 0.135732 11.0498C0.233037 11.6426 0.973067 11.8155 1.64269 11.6541C2.44675 11.4685 3.96778 10.4378 3.71043 9.35847" fill="#F8991C"/>
<path d="M17.7747 4.51255C17.6569 4.16173 17.6671 3.65984 17.0782 3.67136C16.4995 3.68545 16.2293 4.06699 16.2293 4.52407C16.2293 5.26283 18.0973 5.40623 18.2382 6.9055C18.3239 7.79918 17.452 9.28438 15.6992 9.30102C14.9887 9.30102 14.1039 8.9835 14.0898 7.4855L15.3497 7.21407C15.3638 7.58921 15.3344 8.26139 16.0539 8.26139C16.6019 8.26139 16.8887 7.74285 16.9322 7.3357C17.0359 6.39849 14.9528 6.12962 14.963 4.93378C14.9772 3.81476 15.6992 2.65862 17.4264 2.67398C19.1395 2.68678 18.9091 4.21807 18.9091 4.21807L17.7747 4.51255Z" fill="#EB1C23"/>
<path d="M20.3567 5.47728L19.687 8.13271C19.8368 8.36573 20.0289 8.48353 20.2645 8.47969C20.413 8.48992 20.5602 8.42079 20.7011 8.26075C20.8432 8.10327 20.9776 7.79086 21.098 7.31969L21.3604 6.28774C21.4731 5.81914 21.4974 5.50673 21.436 5.34925C21.372 5.18921 21.2618 5.11623 21.1056 5.13031C20.8713 5.1252 20.6242 5.2417 20.3566 5.47728H20.3567ZM19.5321 4.38131H20.5423L20.3963 4.96771H20.413C20.5576 4.80767 20.7548 4.65659 21.0032 4.51575C21.2516 4.37747 21.4987 4.29937 21.7548 4.29297C22.1811 4.29297 22.4449 4.45813 22.5563 4.78846C22.6638 5.11367 22.6407 5.59123 22.4756 6.21604L22.1811 7.39395C22.0275 8.0162 21.8137 8.49761 21.5397 8.82409C21.2657 9.15058 20.9162 9.31575 20.4885 9.31703C20.3464 9.31963 20.2017 9.2799 20.0571 9.19668C19.9098 9.11474 19.7331 8.97773 19.5244 8.78184L18.8446 11.4782H17.7422L19.5321 4.38131Z" fill="#EB1C23"/>
<path d="M29.0856 6.05156H27.9922L28.0473 5.83902C28.0921 5.65209 28.0666 5.50997 27.9731 5.41267C27.8847 5.31536 27.7375 5.26671 27.5442 5.26671C27.347 5.26671 27.1793 5.31536 27.041 5.41267C26.8976 5.50997 26.8041 5.65209 26.7555 5.83902L26.2702 7.76081C26.2241 7.94774 26.2497 8.09242 26.3407 8.18844C26.4328 8.28319 26.5775 8.33184 26.7734 8.33184C26.968 8.33184 27.1383 8.28319 27.2779 8.18844C27.4174 8.09242 27.5122 7.94774 27.5621 7.76081L27.6376 7.45993H28.74L28.7344 7.47785C28.568 8.11418 28.2991 8.58023 27.9227 8.87598C27.5437 9.17046 27.0802 9.31642 26.5271 9.31002C25.9715 9.31643 25.5771 9.17046 25.3492 8.87598C25.1188 8.58023 25.0829 8.11418 25.2417 7.47785L25.5797 6.12197C25.7448 5.48692 26.0176 5.01704 26.3927 4.72512C26.7717 4.42936 27.2377 4.28212 27.7908 4.28724C28.3324 4.28213 28.7178 4.42424 28.9483 4.7072C29.1813 4.99271 29.2235 5.43827 29.0852 6.05155" fill="#EB1C23"/>
<path d="M33.0095 7.07259H30.614L30.4527 7.71276C30.3951 7.95474 30.4155 8.12887 30.509 8.24026C30.5987 8.35421 30.7395 8.40799 30.9264 8.40799C31.1582 8.40157 31.3374 8.33885 31.4706 8.21209C31.6063 8.08022 31.6946 7.92402 31.7445 7.72812H32.8444C32.6907 8.23514 32.4359 8.62308 32.071 8.89579C31.71 9.17491 31.2516 9.30935 30.6972 9.31703C30.1659 9.30932 29.7844 9.15954 29.5462 8.85482C29.3081 8.55266 29.2543 8.13271 29.381 7.59625L29.7805 6.01247C29.9226 5.47729 30.1902 5.05733 30.5794 4.75517C30.9687 4.45173 31.427 4.29681 31.9622 4.29297C32.4795 4.29808 32.8597 4.44917 33.103 4.74621C33.3462 5.04325 33.4141 5.43631 33.295 5.94077L33.0095 7.07259ZM30.8432 6.16483H32.1364L32.2042 5.89724C32.258 5.68086 32.2529 5.51186 32.1785 5.3851C32.1043 5.26603 31.9558 5.20201 31.7317 5.20073C31.5115 5.20203 31.331 5.26603 31.1952 5.3851C31.0582 5.51186 30.9661 5.68086 30.9123 5.89724L30.8432 6.16483Z" fill="#EB1C23"/>
<path d="M39.5888 7.07259H37.1971L37.0358 7.71276C36.9808 7.95474 36.9975 8.12887 37.0883 8.24026C37.178 8.35421 37.3188 8.40799 37.507 8.40799C37.7375 8.40157 37.918 8.33885 38.055 8.21209C38.1869 8.08022 38.2739 7.92402 38.3213 7.72812H39.4237C39.2713 8.23514 39.014 8.62308 38.6529 8.89579C38.2918 9.17491 37.836 9.30935 37.2804 9.31703C36.7477 9.30932 36.3649 9.15954 36.1281 8.85482C35.8886 8.55266 35.8336 8.13271 35.9616 7.59625L36.3611 6.01247C36.5058 5.47729 36.7708 5.05733 37.16 4.75517C37.5492 4.45173 38.0102 4.29681 38.5428 4.29297C39.0626 4.29808 39.4429 4.44917 39.6849 4.74621C39.9281 5.04325 39.9921 5.43631 39.8743 5.94077L39.5888 7.07259ZM37.4276 6.16483H38.7195L38.7873 5.89724C38.8424 5.68086 38.8321 5.51186 38.7565 5.3851C38.6823 5.26603 38.5363 5.20201 38.3161 5.20073C38.0946 5.20203 37.9128 5.26603 37.7758 5.3851C37.6388 5.51186 37.5466 5.68086 37.4903 5.89724L37.4276 6.16483Z" fill="#EB1C23"/>
<path d="M40.8388 5.50224H40.2664L40.4943 4.5932H41.0679L41.4866 2.91211H42.5877L42.1703 4.5932H42.8771L42.6491 5.50224H41.9386L41.3176 7.9797C41.2881 8.10005 41.312 8.18968 41.3906 8.24857C41.4624 8.30747 41.575 8.33819 41.7274 8.33819C41.8042 8.33819 41.8759 8.33308 41.9476 8.32667L41.7107 9.27284C41.4918 9.30357 41.2792 9.31894 41.068 9.31637C40.7069 9.31898 40.4316 9.24596 40.2601 9.09743C40.0885 8.94507 40.0412 8.69797 40.1231 8.35356L40.8388 5.50224Z" fill="#EB1C23"/>
<path d="M33.9365 7.7429L34.7201 4.63039L35.1503 2.91602H36.2527L35.8186 4.63039L34.4922 9.78889C34.3232 10.4214 34.053 10.8874 33.6779 11.1768C33.3015 11.4738 32.8329 11.6172 32.2823 11.6159C31.7254 11.6172 31.3323 11.4738 31.107 11.1768C30.8765 10.8823 30.8394 10.4201 30.993 9.77992L32.1057 9.77351L32.0237 10.0641C31.984 10.2536 32.0058 10.3932 32.0954 10.4892C32.1876 10.5852 32.3323 10.6377 32.5282 10.6377C32.7241 10.6377 32.8905 10.5852 33.0326 10.4892C33.176 10.3932 33.2669 10.2536 33.3182 10.0641L33.4167 9.67492L33.9365 7.7429Z" fill="#EB1C23"/>
<path d="M23.8673 4.38086H24.9659L23.7495 9.22823H22.6484L23.8673 4.38086Z" fill="#EB1C23"/>
<path d="M25.0926 3.92998H23.9902L24.2437 2.91211H25.341L25.0926 3.92998Z" fill="#EB1C23"/>
</g>
<defs>
<clipPath id="clip0">
<rect width="43" height="11.8337" fill="white"/>
</clipPath>
</defs>
</svg>
