<svg width="18" height="18" viewBox="0 0 18 18" fill="none" xmlns="http://www.w3.org/2000/svg">
<path opacity="0.8" d="M7.61173 3.34214C7.62665 2.59821 7.96406 1.89746 8.53633 1.4219V1.4219C8.82838 1.1792 9.25519 1.18718 9.53936 1.43907V1.43907C10.0653 1.90525 10.3807 2.56765 10.4089 3.26988L10.5232 6.1206C10.5344 6.39927 10.6703 6.65813 10.8934 6.82554L15.6282 10.3795C15.8606 10.5539 15.9908 10.8326 15.9754 11.1227V11.1227C15.944 11.713 15.3467 12.1015 14.7945 11.8908L10.5409 10.2683L10.1595 13.9027C10.1229 14.2508 10.271 14.5926 10.5499 14.804L11.5049 15.528C11.6742 15.6563 11.7736 15.8565 11.7736 16.0688V16.0688C11.7736 16.529 11.3252 16.8558 10.8871 16.7148L9.34095 16.2175C9.14759 16.1553 8.93988 16.1534 8.74545 16.2122L7.01112 16.7363C6.57651 16.8676 6.13836 16.5423 6.13836 16.0883V16.0883C6.13836 15.8651 6.24836 15.6563 6.4324 15.53L7.49637 14.8002C7.79895 14.5927 7.96357 14.2361 7.92527 13.8712L7.54717 10.2683L3.15116 11.8919C2.59289 12.0981 2 11.685 2 11.0899V11.0899C2 10.8186 2.12876 10.5634 2.34698 10.4022L7.20387 6.81456C7.42034 6.65466 7.55033 6.40333 7.55573 6.13426L7.61173 3.34214Z" stroke="#062862"/>
</svg>
