<svg width="13" height="14" viewBox="0 0 13 14" fill="none" xmlns="http://www.w3.org/2000/svg">
<path d="M1.89145 9.27956L5.27286 8.08744L5.53795 10.4986C5.57498 10.8354 5.41977 11.1644 5.13634 11.35L4.42686 11.8145C4.25508 11.927 4.15157 12.1184 4.15157 12.3238C4.15157 12.7288 4.53982 13.0209 4.92902 12.9087L6.27624 12.5201C6.44424 12.4716 6.62271 12.4731 6.78985 12.5245L7.98974 12.8929C8.38215 13.0134 8.77924 12.7199 8.77924 12.3094C8.77924 12.1136 8.68532 11.9297 8.52671 11.815L7.89474 11.3576C7.63252 11.1679 7.49239 10.8519 7.52776 10.5302L7.79617 8.08877L11.0651 9.279C11.5422 9.45271 12.0516 9.11672 12.0798 8.60978C12.0942 8.35122 11.9754 8.10325 11.7649 7.95243L8.03692 5.28145C7.89278 5.17818 7.80421 5.01431 7.79676 4.83716L7.70881 2.74419C7.68432 2.16142 7.41542 1.61429 6.97031 1.23768C6.71882 1.02489 6.35096 1.01802 6.09249 1.22305C5.6087 1.60681 5.32117 2.18627 5.3082 2.80364L5.26522 4.84921C5.26167 5.0183 5.17798 5.17565 5.03975 5.27311L1.21529 7.96974C1.01759 8.10914 0.9 8.33594 0.9 8.57784C0.9 9.09109 1.40739 9.45021 1.89145 9.27956Z" fill="white" stroke="white" stroke-width="0.2"/>
</svg>
