<svg width="14" height="10" viewBox="0 0 14 10" fill="none" xmlns="http://www.w3.org/2000/svg">
<g opacity="0.9">
<path d="M9 5.99805L7.62907 3.99633L4.5 5.89229L6.88416 6.51567C7.36361 6.64103 7.87254 6.58392 8.31229 6.35541L9 5.99805Z" fill="#1B1F26"/>
<path d="M3.14978 2.71108L5.59483 2.71108C6.17019 2.71108 6.71767 2.95886 7.09739 3.39111L7.62907 3.99633M7.62907 3.99633L9 5.99805L8.31229 6.35541C7.87254 6.58392 7.36361 6.64103 6.88416 6.51567L4.5 5.89229M7.62907 3.99633L4.5 5.89229M3.14973 6.71044L4.5 5.89229" stroke="#1B1F26" stroke-linecap="round"/>
<circle cx="9.64453" cy="2.74609" r="1.5" fill="#1B1F26"/>
<path d="M1 6L2 6.5C2.62952 6.81476 3.37049 6.81476 4 6.5V6.5C4.62951 6.18524 5.37049 6.18524 6 6.5V6.5C6.62951 6.81476 7.37048 6.81476 8 6.5V6.5C8.62951 6.18524 9.37049 6.18524 10 6.5V6.5C10.6295 6.81476 11.3705 6.81476 12 6.5L13 6" stroke="#1B1F26" stroke-linecap="round"/>
<path d="M1 8L2 8.5C2.62952 8.81476 3.37049 8.81476 4 8.5V8.5C4.62951 8.18524 5.37049 8.18524 6 8.5V8.5C6.62951 8.81476 7.37048 8.81476 8 8.5V8.5C8.62951 8.18524 9.37049 8.18524 10 8.5V8.5C10.6295 8.81476 11.3705 8.81476 12 8.5L13 8" stroke="#1B1F26" stroke-linecap="round"/>
</g>
</svg>
