<svg width="14" height="13" viewBox="0 0 14 13" fill="none" xmlns="http://www.w3.org/2000/svg">
<path d="M6.38656 0.908316C6.56997 0.536732 7.09985 0.536731 7.28326 0.908315L8.83067 4.0432C8.90344 4.19062 9.04404 4.29285 9.20671 4.31663L12.6679 4.82254C13.0779 4.88246 13.2413 5.38638 12.9445 5.67546L10.4408 8.11409C10.3228 8.22896 10.269 8.39452 10.2968 8.55679L10.8876 12.0013C10.9577 12.4098 10.5289 12.7213 10.1621 12.5284L7.06764 10.901C6.92194 10.8244 6.74788 10.8244 6.60218 10.901L3.50775 12.5284C3.14094 12.7213 2.71216 12.4098 2.78222 12.0013L3.373 8.55679C3.40083 8.39452 3.347 8.22896 3.22906 8.11409L0.725339 5.67546C0.428542 5.38638 0.591934 4.88246 1.00189 4.82254L4.46311 4.31663C4.62578 4.29285 4.76638 4.19062 4.83915 4.0432L6.38656 0.908316Z" fill="#F3C141"/>
</svg>
