<svg width="15" height="13" viewBox="0 0 15 13" fill="none" xmlns="http://www.w3.org/2000/svg">
<g opacity="0.9">
<path d="M10.7778 12.0007V10.7784C10.7778 10.1301 10.5202 9.50837 10.0618 9.04995C9.60339 8.59152 8.98164 8.33398 8.33333 8.33398H3.44444C2.79614 8.33398 2.17438 8.59152 1.71596 9.04995C1.25754 9.50837 1 10.1301 1 10.7784V12.0007" stroke="#1B1F26" stroke-linecap="round" stroke-linejoin="round"/>
<path d="M5.88585 5.88889C7.23588 5.88889 8.3303 4.79447 8.3303 3.44444C8.3303 2.09442 7.23588 1 5.88585 1C4.53582 1 3.44141 2.09442 3.44141 3.44444C3.44141 4.79447 4.53582 5.88889 5.88585 5.88889Z" stroke="#1B1F26" stroke-linecap="round" stroke-linejoin="round"/>
<path d="M14.4427 11.9993V10.7771C14.4423 10.2355 14.262 9.70936 13.9302 9.2813C13.5984 8.85324 13.1338 8.54751 12.6094 8.41211" stroke="#1B1F26" stroke-linecap="round" stroke-linejoin="round"/>
<path d="M10.168 1.07812C10.6938 1.21275 11.1598 1.51855 11.4926 1.94731C11.8254 2.37608 12.0061 2.90341 12.0061 3.44618C12.0061 3.98895 11.8254 4.51628 11.4926 4.94505C11.1598 5.37381 10.6938 5.67961 10.168 5.81424" stroke="#1B1F26" stroke-linecap="round" stroke-linejoin="round"/>
</g>
</svg>
