<svg width="20" height="21" viewBox="0 0 20 21" fill="none" xmlns="http://www.w3.org/2000/svg">
<path fill-rule="evenodd" clip-rule="evenodd" d="M17.8195 9.84156L14.4794 4.05638C14.2033 3.57809 13.5917 3.41422 13.1134 3.69036L2.54454 9.7923C2.06625 10.0684 1.90237 10.68 2.17852 11.1583L5.51859 16.9435C5.79473 17.4218 6.40632 17.5857 6.88462 17.3095L8.75247 16.2311L8.35799 15.5479L9.04137 15.1533L9.43585 15.8366L17.4535 11.2076C17.9318 10.9314 18.0957 10.3199 17.8195 9.84156ZM5.09585 8.31954L5.4904 9.00292L4.80701 9.39748L4.41246 8.71409L5.09585 8.31954ZM6.2795 10.3696L5.88495 9.68622L5.20157 10.0808L5.59612 10.7642L6.2795 10.3696ZM6.67406 11.0529L7.06861 11.7363L6.38522 12.1308L5.99067 11.4474L6.67406 11.0529ZM7.85771 13.103L7.46316 12.4196L6.77978 12.8141L7.17433 13.4975L7.85771 13.103ZM8.25226 13.7866L8.64682 14.47L7.96343 14.8646L7.56888 14.1812L8.25226 13.7866Z" fill="white"/>
</svg>
