<svg width="14" height="14" viewBox="0 0 14 14" fill="none" xmlns="http://www.w3.org/2000/svg">
<path d="M6.64507 8.53193L3.74541 10.2087C3.68357 10.2445 3.61433 10.1752 3.65009 10.1134L5.32685 7.21372C5.34981 7.17402 5.40416 7.16689 5.43658 7.19931L6.65948 8.4222C6.6919 8.45463 6.68476 8.50898 6.64507 8.53193Z" fill="white" stroke="white" stroke-width="0.139535"/>
<path d="M8.65374 6.61679L10.2778 3.7713C10.3482 3.64795 10.2108 3.51054 10.0875 3.58095L7.24199 5.20505C7.16206 5.25067 7.14742 5.35982 7.2125 5.4249L8.43388 6.64629C8.49896 6.71137 8.60811 6.69672 8.65374 6.61679Z" fill="white"/>
<circle cx="7.01756" cy="6.98067" r="1.33721" transform="rotate(-15 7.01756 6.98067)" stroke="white"/>
<circle cx="6.99955" cy="1.55814" r="0.55814" fill="white"/>
<circle cx="1.55814" cy="7.14017" r="0.55814" fill="white"/>
<circle cx="12.4429" cy="7.14017" r="0.55814" fill="white"/>
<circle cx="7" cy="7" r="6" stroke="white"/>
<circle cx="6.99955" cy="12.4429" r="0.55814" fill="white"/>
</svg>
