<svg width="14" height="14" viewBox="0 0 14 14" fill="none" xmlns="http://www.w3.org/2000/svg">
<mask id="path-2-inside-1" fill="white">
<path d="M6.7931 0C6.7931 0 8.3171 0.798673 9.44828 1.16667C10.5794 1.53466 12.5862 1.88462 12.5862 1.88462V7.55428C12.5862 9.1684 11.7795 10.6757 10.4365 11.5711L6.7931 14L3.14972 11.5711C1.80669 10.6757 1 9.1684 1 7.55429V1.88462C1 1.88462 3.00676 1.53466 4.13793 1.16667C5.2691 0.798673 6.7931 0 6.7931 0Z"/>
</mask>
<path d="M6.7931 0L7.24128 -0.855196L6.7931 -1.09007L6.34493 -0.855196L6.7931 0ZM12.5862 1.88462H13.5517V1.0729L12.7521 0.933453L12.5862 1.88462ZM6.7931 14L6.25753 14.8034L6.7931 15.1604L7.32868 14.8034L6.7931 14ZM1 1.88462L0.834128 0.933453L0.0344828 1.0729L0.0344828 1.88462H1ZM3.14972 11.5711L3.68529 10.7677L3.14972 11.5711ZM11.6207 1.88462V7.55428H13.5517V1.88462H11.6207ZM9.90091 10.7677L6.25753 13.1966L7.32868 14.8034L10.9721 12.3744L9.90091 10.7677ZM7.32868 13.1966L3.68529 10.7677L2.61415 12.3744L6.25753 14.8034L7.32868 13.1966ZM1.96552 7.55429V1.88462H0.0344828V7.55429H1.96552ZM1 1.88462C1.16587 2.83578 1.16592 2.83577 1.16597 2.83576C1.166 2.83576 1.16606 2.83574 1.16612 2.83574C1.16623 2.83572 1.16637 2.83569 1.16655 2.83566C1.16689 2.8356 1.16736 2.83552 1.16795 2.83541C1.16913 2.83521 1.17079 2.83492 1.17292 2.83454C1.17718 2.83379 1.18332 2.83271 1.19125 2.83131C1.20712 2.8285 1.23017 2.82439 1.25969 2.81907C1.31873 2.80843 1.40373 2.79292 1.50903 2.77319C1.71941 2.73378 2.01194 2.67731 2.34101 2.609C2.98766 2.47478 3.8168 2.28646 4.43663 2.08482L3.83924 0.248513C3.32789 0.414866 2.58806 0.585525 1.94854 0.718273C1.63453 0.783455 1.35466 0.837479 1.15343 0.875179C1.05293 0.894009 0.972311 0.908716 0.917181 0.918652C0.889623 0.923618 0.868454 0.92739 0.854374 0.929884C0.847334 0.931131 0.842069 0.932059 0.838665 0.932657C0.836963 0.932957 0.835727 0.933173 0.834967 0.933306C0.834587 0.933373 0.834326 0.933418 0.834186 0.933443C0.834116 0.933455 0.834076 0.933462 0.834066 0.933464C0.834061 0.933465 0.834077 0.933462 0.834075 0.933462C0.834098 0.933458 0.834128 0.933453 1 1.88462ZM4.43663 2.08482C5.06114 1.88165 5.76889 1.56911 6.30059 1.31906C6.57086 1.19196 6.80434 1.07687 6.9706 0.993372C7.05384 0.951571 7.12051 0.917552 7.16683 0.893739C7.19 0.881829 7.2081 0.872462 7.22066 0.86594C7.22694 0.862679 7.23184 0.860127 7.23529 0.858325C7.23702 0.857423 7.23839 0.856708 7.23939 0.856186C7.23989 0.855924 7.2403 0.85571 7.24061 0.855545C7.24077 0.855463 7.24091 0.855392 7.24102 0.855334C7.24107 0.855305 7.24114 0.855271 7.24117 0.855256C7.24123 0.855225 7.24128 0.855196 6.7931 0C6.34493 -0.855196 6.34497 -0.855218 6.34501 -0.855238C6.34501 -0.85524 6.34504 -0.855256 6.34505 -0.855261C6.34507 -0.855271 6.34506 -0.855268 6.34504 -0.855254C6.34498 -0.855225 6.34484 -0.855149 6.3446 -0.855025C6.34412 -0.854777 6.34329 -0.854341 6.3421 -0.85372C6.33972 -0.852478 6.33592 -0.850499 6.33076 -0.847821C6.32045 -0.842464 6.3047 -0.834313 6.28399 -0.823666C6.24255 -0.802363 6.18132 -0.771112 6.104 -0.732287C5.94917 -0.654532 5.73095 -0.546959 5.47882 -0.42839C4.96574 -0.187101 4.3459 0.0836867 3.83924 0.248513L4.43663 2.08482ZM6.7931 0C6.34493 0.855196 6.34498 0.855225 6.34504 0.855256C6.34507 0.855271 6.34513 0.855305 6.34519 0.855334C6.3453 0.855392 6.34544 0.855463 6.34559 0.855545C6.34591 0.85571 6.34632 0.855924 6.34682 0.856186C6.34782 0.856708 6.34918 0.857423 6.35091 0.858325C6.35437 0.860127 6.35927 0.862679 6.36555 0.86594C6.37811 0.872462 6.39621 0.881829 6.41937 0.893739C6.4657 0.917552 6.53237 0.951571 6.6156 0.993372C6.78187 1.07687 7.01535 1.19196 7.28561 1.31906C7.81732 1.56911 8.52507 1.88165 9.14958 2.08482L9.74697 0.248513C9.24031 0.0836867 8.62047 -0.187101 8.10739 -0.42839C7.85526 -0.546959 7.63704 -0.654532 7.4822 -0.732287C7.40489 -0.771112 7.34366 -0.802363 7.30222 -0.823666C7.28151 -0.834313 7.26576 -0.842464 7.25544 -0.847821C7.25029 -0.850499 7.24649 -0.852478 7.24411 -0.85372C7.24292 -0.854341 7.24208 -0.854777 7.24161 -0.855025C7.24137 -0.855149 7.24123 -0.855225 7.24117 -0.855254C7.24114 -0.855268 7.24114 -0.855271 7.24116 -0.855261C7.24117 -0.855256 7.2412 -0.85524 7.2412 -0.855238C7.24124 -0.855218 7.24128 -0.855196 6.7931 0ZM9.14958 2.08482C9.7694 2.28646 10.5985 2.47478 11.2452 2.609C11.5743 2.67731 11.8668 2.73378 12.0772 2.77319C12.1825 2.79292 12.2675 2.80843 12.3265 2.81907C12.356 2.82439 12.3791 2.8285 12.395 2.83131C12.4029 2.83271 12.409 2.83379 12.4133 2.83454C12.4154 2.83492 12.4171 2.83521 12.4183 2.83541C12.4188 2.83552 12.4193 2.8356 12.4197 2.83566C12.4198 2.83569 12.42 2.83572 12.4201 2.83574C12.4201 2.83574 12.4202 2.83576 12.4202 2.83576C12.4203 2.83577 12.4203 2.83578 12.5862 1.88462C12.7521 0.933453 12.7521 0.933458 12.7521 0.933462C12.7521 0.933462 12.7521 0.933465 12.7521 0.933464C12.7521 0.933462 12.7521 0.933455 12.752 0.933443C12.7519 0.933418 12.7516 0.933373 12.7512 0.933306C12.7505 0.933173 12.7492 0.932957 12.7475 0.932657C12.7441 0.932059 12.7389 0.931131 12.7318 0.929884C12.7178 0.92739 12.6966 0.923618 12.669 0.918652C12.6139 0.908716 12.5333 0.894009 12.4328 0.875179C12.2315 0.837479 11.9517 0.783455 11.6377 0.718273C10.9981 0.585525 10.2583 0.414866 9.74697 0.248513L9.14958 2.08482ZM3.68529 10.7677C2.61087 10.0514 1.96552 8.84558 1.96552 7.55429H0.0344828C0.0344828 9.49123 1.00252 11.3 2.61415 12.3744L3.68529 10.7677ZM11.6207 7.55428C11.6207 8.84558 10.9753 10.0514 9.90091 10.7677L10.9721 12.3744C12.5837 11.3 13.5517 9.49123 13.5517 7.55428H11.6207Z" fill="white" mask="url(#path-2-inside-1)"/>
<path d="M8.7234 6.88604H7.39296V8.20582H6.19937V6.88604H4.86133V5.65461H6.19937V4.34375H7.39296V5.65461H8.7234V6.88604Z" fill="white"/>
</svg>
