<svg width="13" height="14" viewBox="0 0 13 14" fill="none" xmlns="http://www.w3.org/2000/svg">
<path d="M2.02444 9.49005L4.93036 8.46557L5.14035 10.3756C5.16092 10.5627 5.07469 10.7455 4.91723 10.8486L4.20775 11.3131C3.9231 11.4995 3.75157 11.8168 3.75157 12.157C3.75157 12.8283 4.39493 13.3123 5.03988 13.1262L6.3871 12.7376C6.48043 12.7107 6.57958 12.7116 6.67244 12.7401L7.87232 13.1085C8.52191 13.308 9.17924 12.8222 9.17924 12.1427C9.17924 11.8186 9.02377 11.5142 8.76122 11.3242L8.12925 10.8668C7.98356 10.7614 7.90571 10.5859 7.92537 10.4071L8.13809 8.4722L10.9282 9.48811C11.6574 9.75362 12.4361 9.24008 12.4792 8.46524C12.5012 8.07005 12.3196 7.69105 11.9979 7.46053L8.26988 4.78954C8.22579 4.75795 8.19869 4.70781 8.19641 4.65361L8.10846 2.56065C8.07926 1.86572 7.75879 1.21411 7.22868 0.765572C6.83243 0.430292 6.25245 0.418855 5.8439 0.742925C5.26677 1.20073 4.92377 1.89199 4.90829 2.62849L4.86531 4.67406C4.86443 4.7161 4.84362 4.75522 4.80925 4.77946L0.984786 7.47609C0.68081 7.69042 0.5 8.03915 0.5 8.41109C0.5 9.20027 1.28017 9.75245 2.02444 9.49005Z" stroke="white"/>
</svg>
