<svg width="12" height="14" viewBox="0 0 12 14" fill="none" xmlns="http://www.w3.org/2000/svg">
<g opacity="0.9">
<path d="M6.19531 7.43301C6.43446 7.29494 6.5164 6.98915 6.37833 6.75C6.24025 6.51085 5.93446 6.42892 5.69531 6.56699L6.19531 7.43301ZM0.49916 9.56699C0.260013 9.70506 0.178076 10.0109 0.316147 10.25C0.454218 10.4891 0.760013 10.5711 0.99916 10.433L0.49916 9.56699ZM5.69531 6.56699L0.49916 9.56699L0.99916 10.433L6.19531 7.43301L5.69531 6.56699Z" fill="#1B1F26"/>
<path d="M0.863281 8.20117L2.47931 9.00021L2.36328 10.7992" stroke="#1B1F26" stroke-linecap="round"/>
<path d="M6.19531 7.43301C5.95617 7.57108 5.65037 7.48915 5.5123 7.25C5.37423 7.01085 5.45617 6.70506 5.69531 6.56699L6.19531 7.43301ZM10.8915 3.56699C11.1306 3.42892 11.4364 3.51085 11.5745 3.75C11.7125 3.98915 11.6306 4.29494 11.3915 4.43301L10.8915 3.56699ZM5.69531 6.56699L10.8915 3.56699L11.3915 4.43301L6.19531 7.43301L5.69531 6.56699Z" fill="#1B1F26"/>
<path d="M9.52734 3.20117L9.41132 5.00021L11.0273 5.79925" stroke="#1B1F26" stroke-linecap="round"/>
<path d="M5.69531 7.43301C5.93446 7.57108 6.24025 7.48915 6.37833 7.25C6.5164 7.01085 6.43446 6.70506 6.19531 6.56699L5.69531 7.43301ZM0.99916 3.56699C0.760014 3.42892 0.454219 3.51085 0.316147 3.75C0.178076 3.98915 0.260014 4.29494 0.49916 4.43301L0.99916 3.56699ZM6.19531 6.56699L0.99916 3.56699L0.49916 4.43301L5.69531 7.43301L6.19531 6.56699Z" fill="#1B1F26"/>
<path d="M2.36328 3.20117L2.47931 5.00021L0.863281 5.79925" stroke="#1B1F26" stroke-linecap="round"/>
<path d="M5.69531 7.43301C5.45617 7.29494 5.37423 6.98915 5.5123 6.75C5.65037 6.51085 5.95617 6.42892 6.19531 6.56699L5.69531 7.43301ZM11.3915 9.56699C11.6306 9.70506 11.7125 10.0109 11.5745 10.25C11.4364 10.4891 11.1306 10.5711 10.8915 10.433L11.3915 9.56699ZM6.19531 6.56699L11.3915 9.56699L10.8915 10.433L5.69531 7.43301L6.19531 6.56699Z" fill="#1B1F26"/>
<path d="M11.0273 8.20117L9.41132 9.00021L9.52734 10.7992" stroke="#1B1F26" stroke-linecap="round"/>
<path d="M6.44531 7C6.44531 6.72386 6.22145 6.5 5.94531 6.5C5.66917 6.5 5.44531 6.72386 5.44531 7L6.44531 7ZM5.44531 13C5.44531 13.2761 5.66917 13.5 5.94531 13.5C6.22146 13.5 6.44531 13.2761 6.44531 13L5.44531 13ZM5.44531 7L5.44531 13L6.44531 13L6.44531 7L5.44531 7Z" fill="#1B1F26"/>
<path d="M4.44531 12L5.94531 11L7.44531 12" stroke="#1B1F26" stroke-linecap="round"/>
<path d="M6.44531 7C6.44531 7.27614 6.22145 7.5 5.94531 7.5C5.66917 7.5 5.44531 7.27614 5.44531 7L6.44531 7ZM5.44531 1C5.44531 0.723857 5.66917 0.5 5.94531 0.5C6.22146 0.5 6.44531 0.723857 6.44531 1L5.44531 1ZM5.44531 7L5.44531 1L6.44531 1L6.44531 7L5.44531 7Z" fill="#1B1F26"/>
<path d="M4.44531 2L5.94531 3L7.44531 2" stroke="#1B1F26" stroke-linecap="round"/>
</g>
</svg>
