<svg width="16" height="8" viewBox="0 0 16 8" fill="none" xmlns="http://www.w3.org/2000/svg">
<path d="M12.6408 0.321583C11.0919 0.892245 5.38826 3.60176 4.61536 3.9697C4.55901 3.99653 4.49587 3.99436 4.44036 3.96585L1.58829 2.50091C1.52218 2.46695 1.44269 2.47246 1.38189 2.5152L0.5325 3.11236C0.430901 3.18379 0.418286 3.32958 0.506105 3.41739L2.46613 5.37742C2.55025 5.46154 2.54355 5.6001 2.45356 5.6779C2.1289 5.95858 1.47 6.57026 1.66793 6.75255C2.00044 7.05879 2.50058 6.88196 2.99797 6.75255C4.41909 6.38281 6.04712 5.88981 6.78885 5.66122C6.95078 5.61131 7.09796 5.77268 7.03382 5.92952L6.59814 6.99494C6.53341 7.15321 6.68428 7.31445 6.8465 7.26038L7.53135 7.0321C7.56081 7.02228 7.58757 7.00574 7.60953 6.98378L10.6001 3.9932C10.6158 3.9775 10.6338 3.96461 10.6538 3.95488C10.8364 3.86581 11.8033 3.39341 12.1477 3.20756C13.5203 2.46673 14.1696 2.06468 14.8144 1.72534C15.5763 1.32435 15.3382 0.540823 14.8144 0.540842C14.2906 0.540861 13.3741 0.0513816 12.6408 0.321583Z" fill="#437ADA"/>
</svg>
