<svg width="34" height="33" viewBox="0 0 34 33" fill="none" xmlns="http://www.w3.org/2000/svg">
<path d="M7.01915 13.1255L13.7225 16.7599L10.7059 19.7765L8.54539 19.4138C8.30143 19.3728 8.05272 19.4524 7.87779 19.6273L6.94604 20.5591C6.58963 20.9155 6.6693 21.5131 7.10663 21.7637L10.1488 23.507L11.8921 26.5492C12.1427 26.9865 12.7403 27.0662 13.0968 26.7098L14.0285 25.778C14.2034 25.6031 14.283 25.3544 14.242 25.1104L13.8793 22.9499L16.8959 19.9333L20.5303 26.6367C20.806 27.1451 21.4934 27.245 21.9024 26.836L23.0868 25.6516C23.2777 25.4607 23.3539 25.1833 23.2872 24.9217L20.9757 15.8535L24.5971 12.2321C25.4662 11.3631 25.3958 9.96898 24.5413 9.11451C23.6868 8.26005 22.2927 8.18966 21.4237 9.05869L17.8023 12.6801L8.73414 10.3686C8.47253 10.3019 8.19514 10.3781 8.00424 10.569L6.81978 11.7534C6.4108 12.1624 6.51068 12.8498 7.01915 13.1255Z" stroke="#181B20" stroke-width="1.33"/>
</svg>
