<svg width="16" height="16" viewBox="0 0 16 16" fill="none" xmlns="http://www.w3.org/2000/svg">
<path d="M13.7025 8.75502C12.2038 8.06334 6.25474 5.94616 5.44805 5.65981C5.38923 5.63893 5.34611 5.59275 5.32702 5.53333L4.34618 2.48076C4.32344 2.41 4.26334 2.35768 4.19012 2.34491L3.16726 2.16656C3.04491 2.14522 2.9329 2.23939 2.9329 2.36358L2.9329 5.13548C2.9329 5.25444 2.83018 5.34768 2.71154 5.33906C2.2835 5.30797 1.38507 5.27457 1.39612 5.54343C1.4147 5.9951 1.89339 6.22371 2.3366 6.48391C3.60293 7.22735 5.10272 8.02994 5.78885 8.39278C5.93865 8.47199 5.92861 8.69017 5.77235 8.75572L4.71091 9.20101C4.55323 9.26716 4.5459 9.48785 4.69884 9.56432L5.34452 9.88716C5.37229 9.90105 5.40291 9.90828 5.43396 9.90828L9.66328 9.90828C9.68549 9.90828 9.70734 9.91191 9.72834 9.91914C9.92046 9.9853 10.9382 10.335 11.3131 10.447C12.8075 10.8938 13.551 11.0686 14.2469 11.2846C15.0692 11.5398 15.4548 10.8174 15.0844 10.447C14.714 10.0767 14.4121 9.08252 13.7025 8.75502Z" fill="#437ADA"/>
</svg>
