<svg width="23" height="20" viewBox="0 0 23 20" fill="none" xmlns="http://www.w3.org/2000/svg">
<path fill-rule="evenodd" clip-rule="evenodd" d="M5.7433 14.7893C6.70178 14.7893 7.47878 14.0123 7.47878 13.0538C7.47878 12.0954 6.70178 11.3184 5.7433 11.3184C4.78481 11.3184 4.00781 12.0954 4.00781 13.0538C4.00781 14.0123 4.78481 14.7893 5.7433 14.7893ZM5.7432 13.6327C6.0627 13.6327 6.3217 13.3737 6.3217 13.0542C6.3217 12.7347 6.0627 12.4757 5.7432 12.4757C5.42371 12.4757 5.16471 12.7347 5.16471 13.0542C5.16471 13.3737 5.42371 13.6327 5.7432 13.6327Z" fill="#181B20"/>
<path fill-rule="evenodd" clip-rule="evenodd" d="M16.7355 14.7893C17.694 14.7893 18.471 14.0123 18.471 13.0538C18.471 12.0954 17.694 11.3184 16.7355 11.3184C15.777 11.3184 15 12.0954 15 13.0538C15 14.0123 15.777 14.7893 16.7355 14.7893ZM16.7368 13.6335C17.0563 13.6335 17.3153 13.3745 17.3153 13.055C17.3153 12.7355 17.0563 12.4765 16.7368 12.4765C16.4173 12.4765 16.1583 12.7355 16.1583 13.055C16.1583 13.3745 16.4173 13.6335 16.7368 13.6335Z" fill="#181B20"/>
<path fill-rule="evenodd" clip-rule="evenodd" d="M12.9744 12.1704C13.0025 12.6488 13.073 13.3046 13.5514 13.2765L16.4439 12.6979C18.1794 12.4087 19.6256 12.1704 19.6256 11.5409C19.6256 11.2517 19.1853 10.9358 18.7069 10.964L13.5531 11.5409C13.0747 11.5691 12.9463 11.692 12.9744 12.1704Z" fill="#181B20"/>
<path fill-rule="evenodd" clip-rule="evenodd" d="M9.50158 12.1704C9.47344 12.6488 9.40299 13.3046 8.92457 13.2765L6.0321 12.6979C4.29662 12.4087 2.85038 12.1704 2.85038 11.5409C2.85038 11.2517 3.29068 10.9358 3.76909 10.964L9 11.5C9.47841 11.5281 9.52972 11.692 9.50158 12.1704Z" fill="#181B20"/>
<path fill-rule="evenodd" clip-rule="evenodd" d="M11.2382 14.26C11.8699 14.26 12.8006 13.5045 12.8006 12.4083C12.8006 11.312 11.8699 10.5566 11.2382 10.5566C10.6065 10.5566 9.6757 11.312 9.6757 12.4083C9.6757 13.5045 10.6065 14.26 11.2382 14.26ZM11.2382 15.59C12.6759 15.59 14.1306 14.1655 14.1306 12.4083C14.1306 10.6511 12.6759 9.22656 11.2382 9.22656C9.80045 9.22656 8.3457 10.6511 8.3457 12.4083C8.3457 14.1655 9.80045 15.59 11.2382 15.59Z" fill="#181B20"/>
<path fill-rule="evenodd" clip-rule="evenodd" d="M11.4431 4.3568C11.3947 4.13888 11.0841 4.13888 11.0357 4.35679L10.2402 7.93896C10.5574 7.84853 10.8923 7.80011 11.2385 7.80011C11.5854 7.80011 11.9209 7.84872 12.2387 7.93951L11.4431 4.3568Z" fill="#181B20"/>
</svg>
