<svg width="11" height="14" viewBox="0 0 11 14" fill="none" xmlns="http://www.w3.org/2000/svg">
<g opacity="0.9">
<circle cx="5.5" cy="2.5" r="2" stroke="#1B1F26"/>
<path d="M5.5 4.5V9.5" stroke="#1B1F26"/>
<path fill-rule="evenodd" clip-rule="evenodd" d="M4.46109 6.52486C4.72358 6.61061 4.86685 6.89292 4.78109 7.15541L3.68836 10.5001H7.30964L6.2169 7.15541C6.13114 6.89292 6.27441 6.61061 6.5369 6.52486C6.79939 6.4391 7.0817 6.58237 7.16746 6.84486L8.38864 10.5827C8.53647 11.0352 8.19928 11.5001 7.72325 11.5001H3.27474C2.79871 11.5001 2.46152 11.0352 2.60935 10.5827L3.83054 6.84486C3.91629 6.58237 4.1986 6.4391 4.46109 6.52486Z" fill="#1B1F26"/>
<path d="M2.875 6L1.1335 10.2402C0.592956 11.5563 1.56074 13 2.98354 13H8.01646C9.43926 13 10.407 11.5563 9.86649 10.2402L8.125 6" stroke="#1B1F26" stroke-linecap="round"/>
</g>
</svg>
