<svg width="14" height="13" viewBox="0 0 14 13" fill="none" xmlns="http://www.w3.org/2000/svg">
<g opacity="0.9">
<path d="M11.8 3.71484H2.2C1.53726 3.71484 1 4.2521 1 4.91484V10.9148C1 11.5776 1.53726 12.1148 2.2 12.1148H11.8C12.4627 12.1148 13 11.5776 13 10.9148V4.91484C13 4.2521 12.4627 3.71484 11.8 3.71484Z" stroke="#1B1F26" stroke-linecap="round" stroke-linejoin="round"/>
<path d="M9.40156 12.1164V2.51641C9.40156 2.19815 9.27513 1.89292 9.05009 1.66788C8.82505 1.44283 8.51982 1.31641 8.20156 1.31641H5.80156C5.4833 1.31641 5.17808 1.44283 4.95303 1.66788C4.72799 1.89292 4.60156 2.19815 4.60156 2.51641V12.1164" stroke="#1B1F26" stroke-linecap="round" stroke-linejoin="round"/>
</g>
</svg>
