<svg width="20" height="10" viewBox="0 0 20 10" fill="none" xmlns="http://www.w3.org/2000/svg">
<path d="M16.1472 0.106767C14.0956 0.862662 6.48974 4.47783 5.58762 4.90741C5.53127 4.93424 5.46742 4.93242 5.4119 4.9039L1.60752 2.94982C1.54141 2.91586 1.46192 2.92136 1.40112 2.96411L0.194609 3.81234C0.0930108 3.88377 0.0803956 4.02955 0.168214 4.11737L2.84248 6.79163C2.92659 6.87575 2.92012 7.0141 2.82965 7.09134C2.42786 7.4344 1.47458 8.29759 1.74564 8.54723C2.18205 8.94917 2.83847 8.71708 3.49128 8.54723C5.44233 8.03962 7.69052 7.35499 8.59362 7.0757C8.75551 7.02564 8.90278 7.1869 8.83864 7.34374L8.16488 8.99135C8.10015 9.14962 8.25102 9.31086 8.41324 9.25678L9.45521 8.90946C9.48466 8.89964 9.51143 8.8831 9.53339 8.86115L13.4763 4.91825C13.492 4.90255 13.5093 4.89 13.5293 4.88026C13.7409 4.77707 15.0413 4.1421 15.5 3.89453C17.3015 2.92221 18.1537 2.39453 19 1.94916C20 1.42287 19.6875 0.394514 19 0.394539C18.3125 0.394564 17.1097 -0.247864 16.1472 0.106767Z" fill="#181B20"/>
</svg>
