<svg width="21" height="21" viewBox="0 0 21 21" fill="none" xmlns="http://www.w3.org/2000/svg">
<path d="M17.9849 11.4933C15.9997 10.5771 8.06522 7.75525 7.12356 7.42111C7.06475 7.40023 7.02088 7.35379 7.00178 7.29437L5.69343 3.22253C5.67069 3.15177 5.61059 3.09945 5.53737 3.08668L4.08446 2.83334C3.96211 2.81201 3.8501 2.90617 3.8501 3.03037L3.8501 6.81235C3.8501 6.9313 3.7477 7.02455 3.6291 7.0152C3.10243 6.97367 1.81798 6.90997 1.83313 7.27816C1.85751 7.87096 2.48578 8.17101 3.06748 8.51252C4.80602 9.53318 6.87983 10.6388 7.71591 11.0799C7.86578 11.159 7.85589 11.3771 7.69964 11.4427L6.05818 12.1313C5.9005 12.1974 5.89316 12.4181 6.0461 12.4946L7.02848 12.9858C7.05625 12.9997 7.08687 13.0069 7.11792 13.0069L12.694 13.0069C12.7162 13.0069 12.7374 13.0103 12.7584 13.0175C12.981 13.0942 14.3495 13.5647 14.8489 13.714C16.8103 14.3003 17.786 14.5298 18.6993 14.8133C19.7786 15.1483 20.2848 14.2001 19.7986 13.714C19.3125 13.2279 18.9162 11.9231 17.9849 11.4933Z" fill="#181B20"/>
</svg>
