<svg height="492pt" viewBox="-36 0 492 492.2585" width="492pt" xmlns="http://www.w3.org/2000/svg"><path d="m47.816406 372.878906-29.546875-5.03125c-2.617187-.445312-5.269531.535156-7.042969 2.605469l-5.105468 5.964844c-1.285156 1.5-1.992188 3.445312-1.992188 5.460937 0 2.875 1.4375 5.539063 3.789063 7.011719l45.957031 28.816406c2.597656 1.628907 5.671875 2.195313 8.640625 1.59375 3.589844-.722656 6.691406-3.085937 8.457031-6.449219l5.179688-9.859374c1.558594-2.96875.816406-6.683594-1.75-8.746094zm0 0" fill="#a4c9ff"/><path d="m244.550781 315.453125-58.546875-25.316406 58.292969-134.789063c8.21875-19.003906 30.289063-27.75 49.292969-19.527344l23.289062 10.070313c15.339844 6.632813 22.394532 24.445313 15.761719 39.78125l-49.519531 114.503906c-6.433594 14.867188-23.699219 21.710938-38.570313 15.277344zm0 0" fill="#6bdddd"/><path d="m256.1875 321.882812c-4.492188 0-8.976562-.921874-13.222656-2.757812l-58.546875-25.320312c-.972657-.421876-1.738281-1.210938-2.128907-2.195313-.390624-.988281-.375-2.089844.046876-3.0625l58.292968-134.789063c4.398438-10.171874 12.496094-18.023437 22.796875-22.105468 10.304688-4.082032 21.578125-3.910156 31.753907.488281l23.289062 10.074219c8.398438 3.632812 14.878906 10.316406 18.25 18.824218 3.371094 8.503907 3.222656 17.816407-.40625 26.214844l-49.519531 114.503906c-3.535157 8.171876-10.042969 14.480469-18.316407 17.757813-3.980468 1.582031-8.136718 2.367187-12.289062 2.367187zm-64.921875-33.832031 54.875 23.730469c6.210937 2.6875 13.101563 2.792969 19.386719.300781 6.292968-2.492187 11.234375-7.285156 13.921875-13.496093l49.519531-114.503907c2.785156-6.441406 2.894531-13.574219.3125-20.09375-2.585938-6.519531-7.550781-11.644531-13.988281-14.429687l-23.289063-10.070313c-8.207031-3.550781-17.3125-3.691406-25.628906-.394531-8.316406 3.292969-14.855469 9.628906-18.402344 17.84375zm0 0" fill="#3762cc"/><path d="m79.621094 403.425781c-1.695313 0-3.355469-.601562-4.683594-1.722656l-29.941406-25.25c-2.867188-2.417969-3.605469-6.738281-1.71875-10.046875l47.1875-82.757812c4.597656-8.742188 11.289062-16.230469 19.292968-21.542969 8.726563-5.789063 18.738282-8.847657 28.957032-8.847657h144.71875c2.210937 0 4 1.789063 4 4v32.363282c0 20.160156-15.101563 36.5625-33.667969 36.5625h-119.121094c-1.960937 0-3.84375 1.085937-5.042969 2.902344l-4.269531 6.488281-39.449219 64.277343c-1.152343 1.875-3.023437 3.148438-5.132812 3.488282-.375.058594-.753906.085937-1.128906.085937zm59.09375-142.171875c-8.636719 0-17.125 2.601563-24.535156 7.515625-6.886719 4.570313-12.664063 11.042969-16.699219 18.722657l-47.253907 82.878906 29.21875 24.667968 39.132813-63.757812 4.339844-6.597656c2.683593-4.070313 7.066406-6.5 11.722656-6.5h119.121094c14.15625 0 25.671875-12.816406 25.671875-28.566406v-28.363282zm0 0" fill="#3762cc"/><path d="m138.714844 257.253906c-9.425782 0-18.675782 2.832032-26.746094 8.183594-7.464844 4.953125-13.667969 11.902344-18.03125 20.191406l-47.183594 82.761719c-.941406 1.652344-.585937 3.820313.820313 5.007813l29.941406 25.25c1.574219 1.328124 3.847656.921874 4.957031-.886719l39.515625-64.386719 4.273438-6.488281c1.945312-2.953125 5.0625-4.703125 8.382812-4.703125h119.121094c16.386719 0 29.667969-14.578125 29.667969-32.5625v-32.363282h-144.71875zm0 0" fill="#4671c6"/><path d="m79.621094 403.425781c-1.695313 0-3.355469-.601562-4.683594-1.722656l-29.941406-25.25c-2.867188-2.417969-3.605469-6.738281-1.71875-10.046875l47.1875-82.757812c4.597656-8.742188 11.289062-16.230469 19.292968-21.542969 8.726563-5.789063 18.738282-8.847657 28.957032-8.847657h144.71875c2.210937 0 4 1.789063 4 4v32.363282c0 20.160156-15.101563 36.5625-33.667969 36.5625h-119.121094c-1.960937 0-3.84375 1.085937-5.042969 2.902344l-4.269531 6.488281-39.449219 64.277343c-1.152343 1.875-3.023437 3.148438-5.132812 3.488282-.375.058594-.753906.085937-1.128906.085937zm59.09375-142.171875c-8.636719 0-17.125 2.601563-24.535156 7.515625-6.886719 4.570313-12.664063 11.042969-16.699219 18.722657l-47.253907 82.878906 29.21875 24.667968 39.132813-63.757812 4.339844-6.597656c2.683593-4.070313 7.066406-6.5 11.722656-6.5h119.121094c14.15625 0 25.671875-12.816406 25.671875-28.566406v-28.363282zm0 0" fill="#3762cc"/><path d="m343.359375 18.789062c-23.542969-10.179687-50.882813.652344-61.0625 24.195313l-10.820313 25.019531-2.074218-.898437c-3.65625-1.582031-7.902344.101562-9.484375 3.757812s.097656 7.902344 3.757812 9.484375l3.234375 1.402344c-3.15625 17.363281 3.851563 35.152344 18.0625 45.625l-2.535156 5.859375c4.082031.335937 8.183594 1.300781 12.148438 3.015625l21.488281 9.292969c1.535156.664062 2.964843 1.46875 4.332031 2.335937l5.835938-13.496094c12.519531-3.867187 23.335937-12.964843 28.941406-25.933593l12.367187-28.59375c10.183594-23.546875-.648437-50.886719-24.191406-61.066407zm0 0" fill="#f9cfcf"/><path d="m60.1875 423.535156c-2.957031 0-5.867188-.832031-8.433594-2.4375l-45.957031-28.816406c-3.496094-2.191406-5.667969-6.175781-5.667969-10.402344 0-2.972656 1.046875-5.835937 2.953125-8.058594l5.109375-5.96875c2.703125-3.15625 6.71875-4.632812 10.75-3.945312l29.546875 5.03125c.671875.113281 1.300781.398438 1.832031.824219l26.589844 21.367187c4.074219 3.273438 5.246094 9.042969 2.785156 13.722656l-5.179687 9.859376c-2.332031 4.445312-6.417969 7.542968-11.203125 8.511718-1.039062.210938-2.085938.3125-3.125.3125zm-43.164062-51.792968c-1.03125 0-2.03125.46875-2.753907 1.3125l-5.109375 5.964843c-.664062.777344-1.03125 1.792969-1.03125 2.859375 0 1.496094.734375 2.882813 1.917969 3.625l45.957031 28.816406c1.726563 1.082032 3.765625 1.457032 5.722656 1.0625 2.417969-.488281 4.5-2.089843 5.707032-4.390624l5.183594-9.859376c.671874-1.28125.363281-2.898437-.714844-3.765624l-25.78125-20.71875-28.519532-4.855469c-.191406-.035157-.382812-.050781-.578124-.050781zm0 0" fill="#3762cc"/><path d="m320.40625 151.875c-.75 0-1.492188-.210938-2.140625-.621094-1.359375-.863281-2.59375-1.53125-3.777344-2.042968l-21.488281-9.292969c-3.417969-1.480469-7.082031-2.386719-10.890625-2.703125-1.285156-.105469-2.4375-.824219-3.101563-1.925782-.664062-1.105468-.753906-2.460937-.242187-3.648437l1.316406-3.039063c-12.839843-10.824218-19.511719-27.675781-17.578125-44.40625l-.414062-.179687c-2.75-1.1875-4.871094-3.378906-5.972656-6.160156-1.105469-2.785157-1.058594-5.835938.128906-8.585938 2.222656-5.128906 7.839844-7.761719 13.09375-6.40625l9.285156-21.472656c5.351562-12.367187 15.195312-21.910156 27.71875-26.875s26.234375-4.75 38.601562.597656c12.371094 5.347657 21.914063 15.191407 26.878907 27.71875 4.964843 12.527344 4.75 26.238281-.597657 38.605469l-12.371093 28.59375c-5.605469 12.964844-16.351563 22.929688-29.652344 27.582031l-5.125 11.84375c-.460937 1.074219-1.375 1.890625-2.492187 2.234375-.386719.125-.78125.183594-1.179688.183594zm-32.226562-21.839844c2.753906.582032 5.429687 1.429688 7.996093 2.542969l21.488281 9.289063c.273438.121093.546876.242187.820313.375l4.085937-9.449219c.464844-1.070313 1.375-1.886719 2.492188-2.234375 11.882812-3.667969 21.523438-12.308594 26.449219-23.699219l12.371093-28.59375c4.5-10.40625 4.679688-21.941406.503907-32.480469-4.175781-10.539062-12.210938-18.824218-22.617188-23.324218-10.402343-4.5-21.9375-4.679688-32.476562-.503907-10.542969 4.175781-18.824219 12.207031-23.324219 22.613281l-10.820312 25.019532c-.878907 2.027344-3.226563 2.960937-5.257813 2.085937l-2.074219-.898437c-1.628906-.707032-3.523437.050781-4.222656 1.675781-.34375.789063-.355469 1.660156-.039062 2.457031.316406.796875.921874 1.425782 1.710937 1.765625l3.234375 1.402344c1.707031.738281 2.679688 2.554687 2.347656 4.382813-2.875 15.820312 3.601563 32.1875 16.5 41.695312 1.5 1.101562 2.039063 3.097656 1.296875 4.804688zm0 0" fill="#3762cc"/><path d="m286.757812 75.449219c-2.28125-.984375-3.328124-3.632813-2.34375-5.914063l2.976563-6.878906c.988281-2.28125 3.632813-3.328125 5.914063-2.339844 2.28125.984375 3.328124 3.632813 2.34375 5.910156l-2.976563 6.882813c-.988281 2.277344-3.632813 3.328125-5.914063 2.339844zm0 0" fill="#3762cc"/><path d="m254.871094 232.285156h46.316406c2.105469 0 3.808594-1.703125 3.808594-3.808594v-55.035156c0-14.890625-12.074219-26.964844-26.964844-26.964844s-26.964844 12.074219-26.964844 26.964844v55.035156c0 2.105469 1.703125 3.808594 3.804688 3.808594zm0 0" fill="#6bdddd"/><path d="m254.859375 232.285156v11.859375c0 3.78125-2.925781 6.921875-6.695313 7.1875l-83.464843 5.921875-33.09375-2.855468c-2.417969-.210938-4.84375.292968-6.980469 1.449218l-8.539062 4.613282c-3.207032 1.734374-5.207032 5.089843-5.207032 8.738281v7.539062c0 1.949219 1.578125 3.527344 3.523438 3.527344h169.398437c5.714844 0 10.996094-3.050781 13.855469-8l.921875-1.597656c1.40625-2.429688 2.144531-5.191407 2.144531-8v-30.386719h-45.863281zm0 0" fill="#f9cfcf"/><path d="m387.863281 53.867188-.003906.003906c-2.582031-14.90625-12.820313-28.527344-28.324219-35.230469-3.296875-1.425781-7.066406-.050781-8.414062 3.066406l-.515625 1.1875c.605469-1.394531.738281-2.878906.476562-4.277343 0 0-.023437-.507813-.386719-1.335938-.449218-1.160156-1.183593-2.210938-2.160156-3.039062-1.304687-1.316407-3.285156-2.792969-6.273437-4.238282-.003907-.003906-.011719-.003906-.015625-.007812-3.101563-1.496094-7.285156-2.957032-12.945313-4.152344-3.964843-1.226562-8-1.824219-11.984375-1.84375-.011718 0-.027344-.003906-.042968-.003906v.007812c-2.261719-.007812-4.507813.171875-6.710938.527344-.953125.136719-1.453125.261719-1.457031.261719-12.605469 2.5-23.75 10.832031-29.175781 23.382812l-5.871094 13.574219c-.269532.628906.027344 1.363281.667968 1.636719l56.457032 24.417969-12.722656 29.429687-4.804688 11.101563.800781 16.839843c.023438.476563.320313.902344.765625 1.09375l4.636719 2.007813 1.660156.714844 11.386719 4.925781c1.789062.773437 3.65625 1.277343 5.542969 1.523437.0625 0 2.183593.019532 3.414062-.832031 2.90625-2.007813 9.757813-6.734375 15.996094-11.0625 9.261719-6.421875 16.703125-15.113281 21.398437-25.300781 12.867188-27.910156 8.605469-44.378906 8.605469-44.378906zm0 0" fill="#4671c6"/><path d="m338.523438 139.441406c-.050782 0-.097657 0-.140626 0-.148437 0-.300781-.011718-.449218-.03125-2.285156-.296875-4.511719-.90625-6.617188-1.816406l-17.683594-7.648438c-1.839843-.800781-3.085937-2.601562-3.175781-4.589843l-.800781-16.828125c-.027344-.609375.082031-1.21875.324219-1.777344l15.941406-36.859375-52.789063-22.828125c-1.292968-.558594-2.292968-1.589844-2.8125-2.898438-.511718-1.300781-.492187-2.726562.066407-4.007812l5.867187-13.566406c5.730469-13.25 17.707032-22.863282 32.042969-25.710938.011719-.007812.628906-.152344 1.699219-.304687 2.316406-.375 4.722656-.5664065 7.089844-.57031275.136718-.00390625.273437-.00390625.410156 0 4.332031.03515625 8.640625.69921875 12.808594 1.96484375 5.332031 1.140625 9.90625 2.617188 13.601562 4.386719.050781.023437.097656.046875.144531.070312 2.941407 1.421875 5.375 3.074219 7.207031 4.882813 1.035157.90625 1.902344 1.996094 2.558594 3.207031 2.390625-.71875 4.957032-.5625 7.308594.453125 16.214844 7.015625 27.660156 21.214844 30.636719 38.015625.40625 1.695313 4.03125 18.949219-8.875 46.941406-4.933594 10.707031-12.800781 20.011719-22.75 26.914063-6.246094 4.328125-13.097657 9.058594-16.003907 11.066406-2.027343 1.394531-4.652343 1.535156-5.609374 1.535156zm-20.152344-16.164062 16.121094 6.972656c1.335937.578125 2.746093.976562 4.191406 1.1875.371094-.023438.835937-.101562 1.011718-.179688 2.800782-1.941406 9.644532-6.671874 15.882813-10.996093 8.777344-6.085938 15.710937-14.277344 20.046875-23.6875 11.464844-24.878907 8.683594-40.195313 8.382812-41.621094-.039062-.128906-.066406-.265625-.089843-.402344-2.460938-14.21875-12.171875-26.273437-25.972657-32.242187-.648437-.28125-1.355468-.3125-1.976562-.085938-.386719.140625-.90625.441406-1.175781 1.070313l-.519531 1.191406c-.875 2.023437-3.226563 2.960937-5.257813 2.082031-2.027344-.878906-2.957031-3.230468-2.082031-5.261718.265625-.613282.339844-1.285157.214844-1.945313-.015626-.09375-.03125-.183594-.042969-.277344-.015625-.054687-.042969-.125-.078125-.207031-.277344-.707031-.628906-1.203125-1.082032-1.585938-.085937-.074218-.171874-.152343-.253906-.234374-1.183594-1.195313-2.972656-2.390626-5.171875-3.453126-.011719-.003906-.027343-.011718-.039062-.019531-3.167969-1.527343-7.207031-2.8125-12.007813-3.832031-.121094-.023438-.234375-.054688-.351562-.089844-3.523438-1.085937-7.164063-1.644531-10.824219-1.664062-.011719 0-.027344 0-.039063 0-1.929687.007812-4.039062.15625-6.0625.480468-.695312.101563-1.058593.179688-1.140624.199219-11.941407 2.367188-21.765626 10.238281-26.457032 21.082031l-4.777344 11.042969 53.945313 23.332031c.972656.417969 1.742187 1.210938 2.132813 2.199219.390624.988281.371093 2.085938-.046876 3.058594l-17.160156 39.679687zm.078125 1.695312.003906.015625c0-.003906-.003906-.011719-.003906-.015625zm-40.71875-81.640625-.003907.007813c0-.003906.003907-.007813.003907-.007813zm69.472656-25.699219c-.144531.550782-.164063 1.0625-.101563 1.421876-.050781-.484376-.015624-.964844.101563-1.421876zm2.074219-2.585937c-.445313.226563-.808594.511719-1.109375.828125.3125-.332031.683593-.613281 1.109375-.828125zm.003906 0c-.003906 0-.003906 0-.003906 0zm.003906-.003906" fill="#3762cc"/><path d="m336.640625 90.546875c0 9.082031-7.363281 16.441406-16.445313 16.441406-9.078124 0-16.441406-7.359375-16.441406-16.441406s7.363282-16.441406 16.441406-16.441406c9.082032 0 16.445313 7.359375 16.445313 16.441406zm0 0" fill="#f9cfcf"/><path d="m301.1875 236.285156h-46.316406c-4.300782 0-7.804688-3.503906-7.804688-7.808594v-55.035156c0-17.074218 13.890625-30.964844 30.960938-30.964844 17.074218 0 30.964844 13.890626 30.964844 30.964844v55.039063c0 4.300781-3.5 7.804687-7.804688 7.804687zm-46.121094-8h45.925782v-54.84375c0-12.660156-10.300782-22.964844-22.964844-22.964844-12.660156 0-22.960938 10.304688-22.960938 22.964844zm0 0" fill="#3762cc"/><path d="m283.804688 284.265625h-169.398438c-4.152344 0-7.527344-3.375-7.527344-7.527344v-7.539062c0-5.125 2.796875-9.824219 7.304688-12.257813l8.539062-4.613281c2.832032-1.53125 6.023438-2.191406 9.222656-1.917969l32.785157 2.832032 83.148437-5.898438c1.671875-.121094 2.976563-1.523438 2.976563-3.199219v-11.859375c0-2.207031 1.792969-4 4-4h45.871093c2.207032 0 4 1.792969 4 4v30.382813c0 3.507812-.929687 6.964843-2.683593 10.003906l-.921875 1.597656c-3.558594 6.167969-10.195313 9.996094-17.316406 9.996094zm-168.925782-8h168.925782c4.273437 0 8.253906-2.296875 10.386718-5.996094l.925782-1.597656c1.050781-1.824219 1.609374-3.898437 1.609374-6v-26.386719h-37.867187v7.863282c0 5.851562-4.574219 10.761718-10.414063 11.175781l-83.460937 5.921875c-.210937.015625-.421875.011718-.628906-.003906l-33.09375-2.859376c-1.632813-.140624-3.28125.199219-4.734375.984376l-8.535156 4.617187c-1.921876 1.035156-3.113282 3.035156-3.113282 5.21875zm0 0" fill="#3762cc"/><path d="m140.074219 322.660156v165.597656h161.917969l52.746093-120.71875c1.617188-3.703124 2.453125-7.699218 2.453125-11.742187v-33.136719zm0 0" fill="#4671c6"/><g fill="#a4c9ff"><path d="m395.023438 110.058594h-17.011719c-7.347657 0-13.992188 4.371094-16.894531 11.121094l-73.84375 171.425781v30.054687h69.101562l58.714844-185.191406c.652344-2.054688.984375-4.203125.984375-6.359375 0-11.625-9.425781-21.050781-21.050781-21.050781zm0 0"/><path d="m331.140625 421.546875 34.402344 52.773437c.953125 1.464844 1.460937 3.175782 1.460937 4.925782v3.492187c0 3.046875-2.46875 5.519531-5.519531 5.519531h-59.492187zm0 0"/><path d="m338.792969 356.097656c0 12.703125-10.296875 23-23 23s-23-10.296875-23-23 10.296875-23 23-23 23 10.296875 23 23zm0 0"/></g><path d="m326.554688 356.097656c0 5.945313-4.820313 10.765625-10.761719 10.765625-5.945313 0-10.765625-4.820312-10.765625-10.765625 0-5.945312 4.820312-10.761718 10.765625-10.761718 5.941406 0 10.761719 4.816406 10.761719 10.761718zm0 0" fill="#e0ebfc"/><path d="m356.375 326.660156h-69.101562c-2.207032 0-4-1.792968-4-4v-30.054687c0-.546875.113281-1.085938.324218-1.582031l73.84375-171.425782c3.542969-8.226562 11.617188-13.542968 20.570313-13.542968h17.011719c13.8125 0 25.046874 11.238281 25.046874 25.050781 0 2.574219-.394531 5.121093-1.171874 7.574219l-58.714844 185.1875c-.527344 1.664062-2.066406 2.792968-3.808594 2.792968zm-65.101562-8h62.171874l57.828126-182.398437c.53125-1.667969.796874-3.402344.796874-5.15625 0-9.402344-7.648437-17.050781-17.046874-17.050781h-17.011719c-5.757813 0-10.945313 3.417968-13.222657 8.707031l-73.515624 170.667969zm0 0" fill="#3762cc"/><path d="m327.753906 322.660156h-196.269531c-6.097656 0-11.039063-4.945312-11.039063-11.042968v-22.078126c0-6.097656 4.941407-11.039062 11.039063-11.039062h196.265625c6.097656 0 11.042969 4.941406 11.042969 11.039062v22.078126c0 6.097656-4.945313 11.042968-11.039063 11.042968zm0 0" fill="#a4c9ff"/><path d="m327.75 326.660156h-196.265625c-8.292969 0-15.042969-6.75-15.042969-15.042968v-22.078126c0-8.292968 6.75-15.039062 15.042969-15.039062h196.265625c8.292969 0 15.042969 6.746094 15.042969 15.039062v22.078126c0 8.296874-6.746094 15.042968-15.042969 15.042968zm-196.265625-44.160156c-3.882813 0-7.042969 3.15625-7.042969 7.039062v22.078126c0 3.882812 3.160156 7.042968 7.042969 7.042968h196.265625c3.882812 0 7.042969-3.160156 7.042969-7.042968v-22.078126c0-3.882812-3.15625-7.039062-7.042969-7.039062zm0 0" fill="#3762cc"/><path d="m301.992188 492.257812h-161.921876c-2.207031 0-4-1.792968-4-4v-165.597656c0-2.210937 1.792969-4 4-4h217.121094c2.210938 0 4 1.789063 4 4v30.628906c0 6.285157-1.277344 12.390626-3.789062 18.152344l-51.742188 118.417969c-.640625 1.457031-2.078125 2.398437-3.667968 2.398437zm-157.921876-8h155.304688l50.691406-116.019531c2.074219-4.746093 3.125-9.773437 3.125-14.949219v-26.628906h-209.121094zm0 0" fill="#3762cc"/><path d="m361.484375 492.257812h-59.492187c-1.351563 0-2.609376-.679687-3.347657-1.808593-.738281-1.128907-.859375-2.558594-.320312-3.792969l29.152343-66.710938c.589844-1.347656 1.867188-2.261718 3.335938-2.386718 1.457031-.117188 2.875.570312 3.679688 1.804687l34.402343 52.773438c1.378907 2.121093 2.109375 4.578125 2.109375 7.109375v3.492187c0 5.25-4.269531 9.519531-9.519531 9.519531zm-53.378906-8h53.378906c.839844 0 1.519531-.679687 1.519531-1.519531v-3.492187c0-.976563-.28125-1.921875-.8125-2.742188l-30.351562-46.5625zm0 0" fill="#3762cc"/><path d="m140.074219 488.257812h-92.613281c-4.066407 0-7.363282-3.296874-7.363282-7.359374v-27.566407c0-4.0625 3.296875-7.359375 7.363282-7.359375h92.613281zm0 0" fill="#b9befc"/><path d="m119.371094 351.386719c-8.363282 0-16.007813 4.726562-19.75 12.207031l-29.59375 59.1875c-1.53125 3.066406-2.332032 6.445312-2.332032 9.875v13.316406h72.375v2.96875-97.554687zm0 0" fill="#b9befc"/><path d="m140.070312 492.257812h-92.609374c-6.265626 0-11.363282-5.09375-11.363282-11.359374v-27.566407c0-6.261719 5.097656-11.359375 11.363282-11.359375h92.613281c2.207031 0 4 1.792969 4 4v42.285156c-.003907 2.207032-1.792969 4-4.003907 4zm-92.609374-42.285156c-1.855469 0-3.363282 1.503906-3.363282 3.359375v27.566407c0 1.851562 1.507813 3.359374 3.363282 3.359374h88.613281v-34.285156zm0 0" fill="#3762cc"/><path d="m140.070312 452.941406c-1.851562 0-3.410156-1.257812-3.863281-2.96875h-68.507812c-2.207031 0-4-1.792968-4-4v-13.316406c0-4.03125.953125-8.0625 2.753906-11.664062l29.59375-59.1875c4.445313-8.890626 13.382813-14.417969 23.324219-14.417969h20.703125c2.207031 0 4 1.792969 4 4v97.554687c-.003907 2.210938-1.792969 4-4.003907 4zm-68.371093-10.96875h64.375v-86.585937h-16.703125c-6.890625 0-13.085938 3.832031-16.167969 9.996093l-29.59375 59.1875c-1.25 2.496094-1.910156 5.292969-1.910156 8.082032zm0 0" fill="#3762cc"/></svg>