<svg width="18" height="18" viewBox="0 0 18 18" fill="none" xmlns="http://www.w3.org/2000/svg">
<g opacity="0.8">
<path d="M10.6922 14.0456L16.1689 10.8837C16.6472 10.6075 16.8111 9.99595 16.5349 9.51766L12.4082 2.36993C12.1321 1.89164 11.5205 1.72776 11.0422 2.00391L5.5655 5.16587" stroke="#062862"/>
<path d="M9.84643 14.5342L6.90683 16.2313C6.42854 16.5075 5.81695 16.3436 5.54081 15.8653L1.41406 8.71759C1.13792 8.2393 1.3018 7.6277 1.78009 7.35156L4.71968 5.65439" stroke="#062862"/>
<rect x="5.80664" y="5.58887" width="0.976523" height="0.976523" transform="rotate(60 5.80664 5.58887)" fill="#062862"/>
<rect x="6.78516" y="7.28027" width="0.976523" height="0.976523" transform="rotate(60 6.78516 7.28027)" fill="#062862"/>
<rect x="7.75977" y="8.97168" width="0.976523" height="0.976523" transform="rotate(60 7.75977 8.97168)" fill="#062862"/>
<rect x="8.73828" y="10.6631" width="0.976523" height="0.976523" transform="rotate(60 8.73828 10.6631)" fill="#062862"/>
<rect x="9.71484" y="12.3545" width="0.976523" height="0.976523" transform="rotate(60 9.71484 12.3545)" fill="#062862"/>
</g>
</svg>
