<svg width="18" height="18" viewBox="0 0 18 18" fill="none" xmlns="http://www.w3.org/2000/svg">
<g opacity="0.8">
<path d="M15 8.09082C15 12.8281 8.90918 16.8887 8.90918 16.8887C8.90918 16.8887 2.81836 12.8281 2.81836 8.09082C2.81836 6.47543 3.46007 4.92621 4.60232 3.78396C5.74457 2.64171 7.29379 2 8.90918 2C10.5246 2 12.0738 2.64171 13.216 3.78396C14.3583 4.92621 15 6.47543 15 8.09082Z" stroke="#062862" stroke-linecap="round" stroke-linejoin="round"/>
<path d="M8.91113 10.1211C10.0324 10.1211 10.9414 9.21211 10.9414 8.09082C10.9414 6.96953 10.0324 6.06055 8.91113 6.06055C7.78984 6.06055 6.88086 6.96953 6.88086 8.09082C6.88086 9.21211 7.78984 10.1211 8.91113 10.1211Z" stroke="#062862" stroke-linecap="round" stroke-linejoin="round"/>
</g>
</svg>
