<svg width="11" height="12" viewBox="0 0 11 12" fill="none" xmlns="http://www.w3.org/2000/svg">
<g opacity="0.9">
<path d="M10 1.5L10 11.5" stroke="#1B1F26" stroke-linecap="round"/>
<path d="M8 6.5V2.5C8 1.11929 9.11929 0 10.5 0V6.5H8Z" fill="#1B1F26"/>
<path d="M1 0.5V3.5" stroke="#1B1F26"/>
<path d="M3 0.5V11.5" stroke="#1B1F26" stroke-linecap="round"/>
<path d="M1 0.5V3.5C1 4.60457 1.89543 5.5 3 5.5V5.5C4.10457 5.5 5 4.60457 5 3.5V0.5" stroke="#1B1F26" stroke-linecap="round"/>
<path d="M5 3.5V3L4.2 3.6C3.48889 4.13333 2.51111 4.13333 1.8 3.6L1 3V3.5C1 4.60457 1.89543 5.5 3 5.5C4.10457 5.5 5 4.60457 5 3.5Z" fill="#1B1F26"/>
<path d="M5 0.5V3.5" stroke="#1B1F26"/>
</g>
</svg>
