<svg width="18" height="18" viewBox="0 0 18 18" fill="none" xmlns="http://www.w3.org/2000/svg">
<g opacity="0.8">
<path d="M8.99911 7.591C7.94475 7.591 7.09002 8.44573 7.09002 9.50009C7.09002 10.5545 7.94475 11.4092 8.99911 11.4092C10.0535 11.4092 10.9082 10.5545 10.9082 9.50009C10.9082 8.44573 10.0535 7.591 8.99911 7.591Z" stroke="#062862" stroke-linecap="round" stroke-linejoin="round"/>
<path d="M4.29091 7.59091C4.37562 7.39897 4.40089 7.18606 4.36346 6.97962C4.32603 6.77319 4.22761 6.5827 4.08091 6.43272L4.04273 6.39454C3.92439 6.27634 3.83052 6.13597 3.76647 5.98147C3.70242 5.82696 3.66945 5.66134 3.66945 5.49409C3.66945 5.32683 3.70242 5.16122 3.76647 5.00671C3.83052 4.8522 3.92439 4.71184 4.04273 4.59363C4.16093 4.4753 4.3013 4.38142 4.4558 4.31738C4.61031 4.25333 4.77592 4.22036 4.94318 4.22036C5.11044 4.22036 5.27605 4.25333 5.43056 4.31738C5.58507 4.38142 5.72543 4.4753 5.84364 4.59363L5.88182 4.63182C6.0318 4.77852 6.22228 4.87693 6.42872 4.91436C6.63515 4.95179 6.84806 4.92653 7.04 4.84182C7.22822 4.76115 7.38874 4.6272 7.5018 4.45647C7.61487 4.28574 7.67555 4.08568 7.67636 3.88091L7.67636 3.77272C7.67636 3.43518 7.81045 3.11145 8.04914 2.87277C8.28782 2.63409 8.61154 2.5 8.94909 2.5C9.28664 2.5 9.61036 2.63409 9.84904 2.87277C10.0877 3.11145 10.2218 3.43518 10.2218 3.77272L10.2218 3.83C10.2267 4.04063 10.2949 4.24491 10.4175 4.41628C10.5401 4.58765 10.7114 4.71818 10.9091 4.79091C11.101 4.87562 11.3139 4.90089 11.5204 4.86346C11.7268 4.82602 11.9173 4.72761 12.0673 4.58091L12.1055 4.54272C12.2237 4.42439 12.364 4.33052 12.5185 4.26647C12.673 4.20242 12.8387 4.16945 13.0059 4.16945C13.1732 4.16945 13.3388 4.20242 13.4933 4.26647C13.6478 4.33052 13.7882 4.42439 13.9064 4.54272C14.0247 4.66093 14.1186 4.80129 14.1826 4.9558C14.2467 5.11031 14.2796 5.27592 14.2796 5.44318C14.2796 5.61044 14.2467 5.77605 14.1826 5.93056C14.1186 6.08507 14.0247 6.22543 13.9064 6.34364L13.8682 6.38182C13.7215 6.53179 13.6231 6.72228 13.5856 6.92871C13.5482 7.13515 13.5735 7.34806 13.6582 7.54C13.7388 7.72822 13.8728 7.88874 14.0435 8.0018C14.2143 8.11487 14.4143 8.17555 14.6191 8.17636L14.7273 8.17636C15.0648 8.17636 15.3885 8.31045 15.6272 8.54914C15.8659 8.78782 16 9.11154 16 9.44909C16 9.78664 15.8659 10.1104 15.6272 10.349C15.3885 10.5877 15.0648 10.7218 14.7273 10.7218L14.67 10.7218C14.4594 10.7267 14.2551 10.7949 14.0837 10.9175C13.9123 11.0401 13.7818 11.2113 13.7091 11.4091C13.6244 11.601 13.5991 11.8139 13.6365 12.0204C13.674 12.2268 13.7724 12.4173 13.9191 12.5673L13.9573 12.6055C14.0756 12.7237 14.1695 12.864 14.2335 13.0185C14.2976 13.173 14.3305 13.3387 14.3305 13.5059C14.3305 13.6732 14.2976 13.8388 14.2335 13.9933C14.1695 14.1478 14.0756 14.2882 13.9573 14.4064C13.8391 14.5247 13.6987 14.6186 13.5442 14.6826C13.3897 14.7467 13.2241 14.7796 13.0568 14.7796C12.8896 14.7796 12.7239 14.7467 12.5694 14.6826C12.4149 14.6186 12.2746 14.5247 12.1564 14.4064L12.1182 14.3682C11.9682 14.2215 11.7777 14.1231 11.5713 14.0856C11.3648 14.0482 11.1519 14.0735 10.96 14.1582L10.9091 14.1582C10.7209 14.2388 10.5604 14.3728 10.4473 14.5435C10.3342 14.7143 10.2735 14.9143 10.2727 15.1191L10.2727 15.2273C10.2727 15.5648 10.1386 15.8885 9.89995 16.1272C9.66127 16.3659 9.33755 16.5 9 16.5C8.66245 16.5 8.33873 16.3659 8.10004 16.1272C7.86136 15.8885 7.72727 15.5648 7.72727 15.2273L7.72727 15.17C7.72645 14.9652 7.66578 14.7652 7.55271 14.5944C7.43965 14.4237 7.27912 14.2898 7.09091 14.2091C6.89897 14.1244 6.68606 14.0991 6.47962 14.1365C6.27319 14.174 6.0827 14.2724 5.93273 14.4191L5.89454 14.4573C5.77634 14.5756 5.63597 14.6695 5.48147 14.7335C5.32696 14.7976 5.16135 14.8305 4.99409 14.8305C4.82683 14.8305 4.66122 14.7976 4.50671 14.7335C4.3522 14.6695 4.21184 14.5756 4.09364 14.4573C3.9753 14.3391 3.88143 14.1987 3.81738 14.0442C3.75333 13.8897 3.72036 13.7241 3.72036 13.5568C3.72036 13.3896 3.75333 13.2239 3.81738 13.0694C3.88143 12.9149 3.9753 12.7746 4.09364 12.6564L4.13182 12.6182C4.27852 12.4682 4.37693 12.2777 4.41436 12.0713C4.4518 11.8648 4.42653 11.6519 4.34182 11.46L4.34182 11.4091C4.26115 11.2209 4.12721 11.0604 3.95648 10.9473C3.78575 10.8342 3.58568 10.7735 3.38091 10.7727L3.27273 10.7727C2.93518 10.7727 2.61145 10.6386 2.37277 10.4C2.13409 10.1613 2 9.83755 2 9.5C2 9.16245 2.13409 8.83873 2.37277 8.60004C2.61145 8.36136 2.93518 8.22727 3.27273 8.22727L3.33 8.22727C3.53477 8.22645 3.73484 8.16578 3.90557 8.05271C4.0763 7.93964 4.21024 7.77912 4.29091 7.59091V7.59091Z" stroke="#062862" stroke-linecap="round" stroke-linejoin="round"/>
</g>
</svg>
