<svg width="7" height="12" viewBox="0 0 7 12" fill="none" xmlns="http://www.w3.org/2000/svg">
<g opacity="0.9">
<path d="M2.09961 6.49512V9H0.634766V1.89062H3.4082C3.94206 1.89062 4.41081 1.98828 4.81445 2.18359C5.22135 2.37891 5.53385 2.65723 5.75195 3.01855C5.97005 3.37663 6.0791 3.78516 6.0791 4.24414C6.0791 4.94076 5.83984 5.49089 5.36133 5.89453C4.88607 6.29492 4.22689 6.49512 3.38379 6.49512H2.09961ZM2.09961 5.30859H3.4082C3.79557 5.30859 4.09017 5.21745 4.29199 5.03516C4.49707 4.85286 4.59961 4.59245 4.59961 4.25391C4.59961 3.9056 4.49707 3.62402 4.29199 3.40918C4.08691 3.19434 3.80371 3.08366 3.44238 3.07715H2.09961V5.30859Z" fill="#1B1F26"/>
</g>
</svg>
