<svg width="12" height="15" viewBox="0 0 12 15" fill="none" xmlns="http://www.w3.org/2000/svg">
<path fill-rule="evenodd" clip-rule="evenodd" d="M6.25 13.8333C6.25 13.8333 11.5 10.3333 11.5 6.25C11.5 4.85761 10.9469 3.52225 9.96231 2.53769C8.97774 1.55312 7.64239 1 6.25 1C4.85761 1 3.52226 1.55312 2.53769 2.53769C1.55312 3.52225 1 4.85761 1 6.25C1 10.3333 6.25 13.8333 6.25 13.8333ZM8.5 6.25C8.5 7.49264 7.49264 8.5 6.25 8.5C5.00736 8.5 4 7.49264 4 6.25C4 5.00736 5.00736 4 6.25 4C7.49264 4 8.5 5.00736 8.5 6.25Z" fill="#437ADA"/>
<path d="M6.25 13.8333L5.97265 14.2494C6.1406 14.3613 6.3594 14.3613 6.52735 14.2494L6.25 13.8333ZM2.53769 2.53769L2.18414 2.18414L2.53769 2.53769ZM11 6.25C11 8.09069 9.80463 9.86462 8.51202 11.229C7.87594 11.9005 7.23817 12.4498 6.75885 12.8315C6.51959 13.022 6.32082 13.17 6.18284 13.2696C6.11388 13.3194 6.06017 13.3571 6.02428 13.382C6.00633 13.3944 5.99284 13.4036 5.98413 13.4096C5.97977 13.4125 5.97661 13.4146 5.97468 13.4159C5.97372 13.4166 5.97307 13.417 5.97273 13.4173C5.97256 13.4174 5.97246 13.4174 5.97245 13.4174C5.97244 13.4174 5.97249 13.4174 5.97249 13.4174C5.97256 13.4174 5.97265 13.4173 6.25 13.8333C6.52735 14.2494 6.52748 14.2493 6.52763 14.2492C6.52771 14.2491 6.52788 14.249 6.52803 14.2489C6.52833 14.2487 6.52872 14.2484 6.52919 14.2481C6.53012 14.2475 6.53137 14.2467 6.53293 14.2456C6.53605 14.2435 6.54041 14.2406 6.54599 14.2368C6.55715 14.2292 6.57314 14.2183 6.59364 14.2041C6.63465 14.1757 6.69374 14.1342 6.76833 14.0803C6.91746 13.9726 7.12885 13.8152 7.38178 13.6138C7.88683 13.2116 8.56156 12.6308 9.23798 11.9168C10.5704 10.5104 12 8.49264 12 6.25H11ZM9.60876 2.89124C10.4996 3.78204 11 4.99022 11 6.25H12C12 4.725 11.3942 3.26247 10.3159 2.18414L9.60876 2.89124ZM6.25 1.5C7.50978 1.5 8.71796 2.00044 9.60876 2.89124L10.3159 2.18414C9.23753 1.1058 7.77499 0.5 6.25 0.5V1.5ZM2.89124 2.89124C3.78204 2.00044 4.99022 1.5 6.25 1.5V0.5C4.72501 0.5 3.26247 1.1058 2.18414 2.18414L2.89124 2.89124ZM1.5 6.25C1.5 4.99022 2.00044 3.78204 2.89124 2.89124L2.18414 2.18414C1.1058 3.26247 0.5 4.725 0.5 6.25H1.5ZM6.25 13.8333C6.52735 13.4173 6.52744 13.4174 6.52751 13.4174C6.52751 13.4174 6.52756 13.4174 6.52755 13.4174C6.52754 13.4174 6.52744 13.4174 6.52727 13.4173C6.52693 13.417 6.52628 13.4166 6.52532 13.4159C6.52339 13.4146 6.52023 13.4125 6.51587 13.4096C6.50716 13.4036 6.49367 13.3944 6.47572 13.382C6.43983 13.3571 6.38612 13.3194 6.31716 13.2696C6.17918 13.17 5.98041 13.022 5.74115 12.8315C5.26183 12.4498 4.62406 11.9005 3.98798 11.229C2.69537 9.86462 1.5 8.09069 1.5 6.25H0.5C0.5 8.49264 1.92963 10.5104 3.26202 11.9168C3.93844 12.6308 4.61317 13.2116 5.11822 13.6138C5.37115 13.8152 5.58254 13.9726 5.73167 14.0803C5.80626 14.1342 5.86535 14.1757 5.90636 14.2041C5.92686 14.2183 5.94285 14.2292 5.95401 14.2368C5.95959 14.2406 5.96395 14.2435 5.96707 14.2456C5.96863 14.2467 5.96988 14.2475 5.97081 14.2481C5.97128 14.2484 5.97167 14.2487 5.97197 14.2489C5.97212 14.249 5.97229 14.2491 5.97237 14.2492C5.97252 14.2493 5.97265 14.2494 6.25 13.8333ZM6.25 9C7.76878 9 9 7.76878 9 6.25H8C8 7.2165 7.2165 8 6.25 8V9ZM3.5 6.25C3.5 7.76878 4.73122 9 6.25 9V8C5.2835 8 4.5 7.2165 4.5 6.25H3.5ZM6.25 3.5C4.73122 3.5 3.5 4.73122 3.5 6.25H4.5C4.5 5.2835 5.2835 4.5 6.25 4.5V3.5ZM9 6.25C9 4.73122 7.76878 3.5 6.25 3.5V4.5C7.2165 4.5 8 5.2835 8 6.25H9Z" fill="#437ADA"/>
</svg>
