<svg width="13" height="14" viewBox="0 0 13 14" fill="none" xmlns="http://www.w3.org/2000/svg">
<path d="M1.89184 9.2802L5.27325 8.08808L5.53834 10.4992C5.57537 10.836 5.42016 11.165 5.13673 11.3506L4.42725 11.8151C4.25547 11.9276 4.15196 12.119 4.15196 12.3244C4.15196 12.7294 4.54021 13.0215 4.92941 12.9093L6.27663 12.5207C6.44463 12.4722 6.6231 12.4737 6.79024 12.5251L7.99013 12.8935C8.38254 13.014 8.77963 12.7205 8.77963 12.31C8.77963 12.1142 8.68571 11.9303 8.5271 11.8156L7.89513 11.3582C7.63291 11.1685 7.49278 10.8525 7.52815 10.5308L7.79656 8.08941L11.0655 9.27964C11.5426 9.45335 12.052 9.11736 12.0802 8.61042C12.0946 8.35186 11.9758 8.10389 11.7653 7.95307L8.03731 5.28209C7.89317 5.17882 7.8046 5.01495 7.79715 4.8378L7.7092 2.74483C7.68471 2.16206 7.41581 1.61493 6.9707 1.23832C6.71921 1.02553 6.35135 1.01866 6.09288 1.22369C5.60909 1.60745 5.32156 2.18691 5.30859 2.80428L5.26561 4.84985C5.26206 5.01894 5.17837 5.17629 5.04014 5.27375L1.21568 7.97038C1.01798 8.10978 0.900391 8.33658 0.900391 8.57848C0.900391 9.09173 1.40778 9.45085 1.89184 9.2802Z" fill="#437ADA"/>
</svg>
