<svg width="17" height="10" viewBox="0 0 17 10" fill="none" xmlns="http://www.w3.org/2000/svg">
<path d="M2.91406 1.97304C4.4958 1.76899 8.98338 1.62843 7.75392 8.11297L9.14844 7.99952C8.53758 4.00244 9.81532 1.96439 13.8107 1.76899C7.18415 -1.90052 3.41129 1.90886 2.91406 1.97304Z" fill="#FAC415"/>
<path d="M9.0788 7.08486C9.33908 7.78907 9.80233 8.40029 10.41 8.84124C11.0176 9.28219 11.7424 9.53305 12.4926 9.56212C13.2428 9.59119 13.9848 9.39715 14.6247 9.00454C15.2646 8.61193 15.7738 8.03838 16.0878 7.35642C16.4018 6.67446 16.5065 5.9147 16.3887 5.17323C16.2709 4.43175 15.9359 3.74185 15.426 3.19076C14.9162 2.63968 14.2543 2.25215 13.5242 2.07718C12.7941 1.90222 12.0285 1.94767 11.3243 2.20779C10.3799 2.55696 9.61287 3.26687 9.19179 4.18143C8.77072 5.09599 8.73008 6.14034 9.0788 7.08486Z" fill="white"/>
<path d="M4.2266 9.55085C6.32357 9.55085 8.0235 7.85091 8.0235 5.75394C8.0235 3.65696 6.32357 1.95703 4.2266 1.95703C2.12962 1.95703 0.429688 3.65696 0.429688 5.75394C0.429688 7.85091 2.12962 9.55085 4.2266 9.55085Z" fill="white"/>
<path d="M4.17448 6.42123C4.56209 6.42123 4.87631 6.10701 4.87631 5.71941C4.87631 5.3318 4.56209 5.01758 4.17448 5.01758C3.78687 5.01758 3.47266 5.3318 3.47266 5.71941C3.47266 6.10701 3.78687 6.42123 4.17448 6.42123Z" fill="#EE6946"/>
<path d="M12.6351 6.42062C13.0226 6.42062 13.3366 6.10654 13.3366 5.7191C13.3366 5.33166 13.0226 5.01758 12.6351 5.01758C12.2477 5.01758 11.9336 5.33166 11.9336 5.7191C11.9336 6.10654 12.2477 6.42062 12.6351 6.42062Z" fill="#00AF87"/>
<path d="M16.0299 3.25503C16.2065 2.64834 16.4874 2.07706 16.8602 1.56684L14.0425 1.56467C12.3576 0.509722 10.4024 -0.0330246 8.41473 0.00240856C6.37836 -0.0412133 4.37329 0.508521 2.64391 1.5846L0 1.58608C0.369345 2.09242 0.648892 2.65849 0.826427 3.25955C0.171887 4.14867 -0.107919 5.259 0.0470866 6.35213C0.202092 7.44526 0.77955 8.43402 1.65547 9.10612C2.53139 9.77822 3.63593 10.0801 4.73193 9.94684C5.82793 9.81362 6.82799 9.25595 7.51738 8.39357L8.41591 9.73884L9.3231 8.38226C10.0083 9.25665 11.0104 9.82574 12.1124 9.96613C13.2143 10.1065 14.3272 9.80691 15.2097 9.13225C16.0922 8.45759 16.6732 7.46226 16.8268 6.36208C16.9803 5.26189 16.694 4.14552 16.0299 3.25503ZM12.5065 1.55292C11.4658 1.58315 10.4733 1.99812 9.7208 2.71762C8.96832 3.43712 8.50931 4.41005 8.4325 5.44832C8.35515 4.40032 7.88991 3.41879 7.12764 2.69545C6.36536 1.97211 5.36081 1.55891 4.3102 1.53657C5.61051 0.996303 7.00672 0.724825 8.41473 0.738486C9.82092 0.717178 11.2156 0.994779 12.5065 1.55292ZM4.2256 9.12482C3.55903 9.12488 2.90741 8.92727 2.35315 8.55698C1.7989 8.18669 1.36691 7.66034 1.11181 7.04452C0.856716 6.42869 0.789977 5.75104 0.920037 5.09729C1.0501 4.44353 1.37111 3.84302 1.84248 3.37172C2.31385 2.90042 2.9144 2.57949 3.56818 2.44952C4.22195 2.31955 4.89959 2.38639 5.51538 2.64157C6.13117 2.89675 6.65745 3.32882 7.02767 3.88312C7.39789 4.43743 7.5954 5.08908 7.59524 5.75565C7.59406 6.64893 7.23865 7.50527 6.60696 8.13687C5.97527 8.76847 5.11888 9.12376 4.2256 9.12482ZM13.8085 8.93356C12.9699 9.24265 12.0429 9.20619 11.2312 8.83218C10.4195 8.45818 9.78943 7.77723 9.47951 6.93896V6.93802C9.2489 6.31269 9.20888 5.63301 9.36453 4.98494C9.52018 4.33687 9.8645 3.7495 10.3539 3.2971C10.8434 2.8447 11.456 2.54759 12.1143 2.44333C12.7726 2.33907 13.447 2.43236 14.0523 2.71138C14.6576 2.9904 15.1666 3.44263 15.5148 4.0109C15.8631 4.57917 16.0351 5.23794 16.009 5.90393C15.9829 6.56992 15.7599 7.21322 15.3682 7.75249C14.9765 8.29175 14.4337 8.70277 13.8085 8.93356Z" fill="black"/>
<path d="M4.17819 3.63477C3.76561 3.63417 3.36213 3.75596 3.01879 3.98475C2.67546 4.21353 2.40771 4.53902 2.24942 4.92003C2.09113 5.30103 2.04942 5.72043 2.12957 6.12515C2.20971 6.52987 2.40811 6.90172 2.69966 7.19364C2.9912 7.48557 3.3628 7.68445 3.76741 7.76512C4.17202 7.84579 4.59147 7.80463 4.97269 7.64683C5.3539 7.48904 5.67973 7.22171 5.90896 6.87867C6.13819 6.53564 6.26052 6.13231 6.26045 5.71974C6.25954 5.16752 6.03996 4.63813 5.64973 4.2474C5.2595 3.85667 4.73041 3.63639 4.17819 3.63477ZM4.17819 7.0871C3.90769 7.08763 3.64311 7.0079 3.41794 6.85801C3.19277 6.70812 3.01712 6.49481 2.91322 6.24505C2.80933 5.9953 2.78186 5.72034 2.83429 5.45497C2.88672 5.1896 3.01669 4.94575 3.20776 4.75427C3.39883 4.5628 3.6424 4.43231 3.90766 4.37931C4.17292 4.32632 4.44794 4.3532 4.69791 4.45657C4.94788 4.55993 5.16157 4.73512 5.31194 4.95998C5.46231 5.18483 5.5426 5.44924 5.54264 5.71974C5.54182 6.08163 5.39789 6.4285 5.14226 6.68467C4.88664 6.94084 4.54008 7.0855 4.17819 7.0871Z" fill="black"/>
<path d="M12.6333 3.63477C12.2208 3.63455 11.8175 3.75668 11.4744 3.9857C11.1313 4.21473 10.8639 4.54035 10.7059 4.92139C10.5479 5.30243 10.5065 5.72177 10.5868 6.12636C10.6672 6.53094 10.8658 6.90261 11.1574 7.19434C11.449 7.48607 11.8206 7.68475 12.2252 7.76527C12.6297 7.84578 13.0491 7.8045 13.4302 7.64664C13.8113 7.48879 14.137 7.22146 14.3661 6.87847C14.5953 6.53548 14.7175 6.13223 14.7175 5.71973C14.7168 5.16712 14.497 4.63733 14.1063 4.2465C13.7156 3.85568 13.1859 3.63569 12.6333 3.63477ZM12.6333 7.0871C12.3628 7.08719 12.0985 7.00709 11.8736 6.85694C11.6487 6.70678 11.4734 6.49331 11.3699 6.24352C11.2663 5.99373 11.2392 5.71884 11.2918 5.45361C11.3445 5.18839 11.4747 4.94475 11.6658 4.75349C11.857 4.56224 12.1006 4.43197 12.3658 4.37915C12.631 4.32634 12.9059 4.35335 13.1557 4.45678C13.4055 4.56021 13.6191 4.7354 13.7694 4.96021C13.9196 5.18501 13.9999 5.44933 13.9999 5.71974C13.9995 6.08212 13.8553 6.42954 13.5992 6.68585C13.343 6.94216 12.9956 7.08645 12.6333 7.0871Z" fill="black"/>
</svg>
