<svg id="Layer_1" enable-background="new 0 0 512 512" height="512" viewBox="0 0 512 512" width="512" xmlns="http://www.w3.org/2000/svg"><g><g><path d="m257.887 236.517-76.542-19.265c-4.061-1.022-7.711-3.266-10.456-6.428l-56.687-65.299c-7.407-8.532-6.495-21.453 2.037-28.86 8.532-7.406 21.454-6.495 28.86 2.037l52.47 60.441 70.304 17.695c10.957 2.758 17.604 13.876 14.846 24.832-2.752 10.941-13.859 17.608-24.832 14.847z" fill="#eb9b81"/></g><g><g><g id="XMLID_297_"><path d="m353.886 294.698-39.275-60.271c-5.872-9.011-3.328-21.076 5.684-26.947 9.009-5.871 21.076-3.328 26.947 5.684l30.096 46.184 44.271-20.365c9.772-4.495 21.335-.218 25.831 9.554 4.495 9.771.218 21.335-9.553 25.83l-59.546 27.391c-8.775 4.036-19.182 1.033-24.455-7.06z" fill="#80391b"/></g><g><g id="XMLID_296_"><path d="m428.082 454.771-24.48-83.636h-89.261c-12.91 0-23.376-10.466-23.376-23.376s10.466-23.376 23.376-23.376h106.777c10.381 0 19.519 6.846 22.435 16.81l29.4 100.446c3.627 12.39-3.478 25.375-15.868 29.001-12.35 3.614-25.364-3.437-29.003-15.869z" fill="#55696e"/></g><path d="m352.059 196.016h-41.599c-18.353 0-33.232 14.879-33.232 33.232v129.229c0 11.293 9.155 20.448 20.448 20.448l87.615-54.899v-94.779c0-18.352-14.878-33.231-33.232-33.231z" fill="#e64937"/><g><path d="m478.142 491.101h-104.086c-6.843 0-12.391-5.548-12.391-12.391s5.548-12.391 12.391-12.391h104.086c6.843 0 12.391 5.548 12.391 12.391s-5.547 12.391-12.391 12.391z" fill="#46738c"/></g><g id="XMLID_295_"><path d="m394.366 391.889h-123.619c-5.34 0-10.079-3.421-11.761-8.489l-55.662-167.746c-2.155-6.495 1.363-13.508 7.858-15.663 6.494-2.156 13.508 1.363 15.663 7.858l52.845 159.257h114.674c6.843 0 12.391 5.548 12.391 12.391.002 6.844-5.546 12.392-12.389 12.392z" fill="#3c5064"/></g><path d="m394.683 452.372-59.512-34.359 59.512-34.359c3.556-2.053 4.774-6.6 2.721-10.156-2.054-3.556-6.6-4.775-10.156-2.721l-59.512 34.359v-68.718c0-4.106-3.329-7.435-7.435-7.435s-7.435 3.329-7.435 7.435v68.718l-59.512-34.359c-3.556-2.053-8.103-.835-10.156 2.721s-.835 8.103 2.721 10.156l59.512 34.359-59.512 34.359c-3.556 2.053-4.774 6.6-2.721 10.156 1.377 2.385 3.876 3.719 6.446 3.719 1.261 0 2.54-.321 3.71-.997l59.512-34.359v68.718c0 4.106 3.329 7.435 7.435 7.435s7.435-3.329 7.435-7.435v-68.718l59.512 34.359c1.171.676 2.449.997 3.711.997 2.569 0 5.069-1.333 6.446-3.719 2.052-3.555.834-8.103-2.722-10.156z" fill="#46738c"/><g><path d="m320.302 396.804c-11.714 0-21.209 9.496-21.209 21.21s9.496 21.209 21.209 21.209c11.714 0 21.209-9.496 21.209-21.209 0-11.714-9.495-21.21-21.209-21.21z" fill="#87afb9"/></g><g><path d="m320.302 512c-51.824 0-93.987-42.162-93.987-93.986s42.162-93.987 93.987-93.987 93.987 42.162 93.987 93.987-42.163 93.986-93.987 93.986zm0-163.191c-38.159 0-69.204 31.045-69.204 69.204s31.045 69.204 69.204 69.204 69.204-31.045 69.204-69.204-31.045-69.204-69.204-69.204z" fill="#373c41"/></g><path d="m320.302 348.822c38.152 0 69.191 31.039 69.191 69.191s-31.039 69.191-69.191 69.191-69.191-31.039-69.191-69.191 31.039-69.191 69.191-69.191m0-10.739c-44.144 0-79.93 35.786-79.93 79.93s35.786 79.93 79.93 79.93 79.93-35.786 79.93-79.93-35.786-79.93-79.93-79.93z" fill="#2b2f33"/><ellipse cx="341.372" cy="140.873" fill="#80391b" rx="43.266" ry="43.265" transform="matrix(.488 -.873 .873 .488 51.963 370.27)"/><g id="XMLID_293_"><path d="m315.092 360.56-44.891-66.788c-4.78-7.11-4.352-16.509 1.053-23.156l21.368-26.281 22.621 1.703 8.094 22.278-12.758 15.691 36.848 54.82c6.001 8.929 3.628 21.033-5.301 27.034-8.961 6.023-21.054 3.596-27.034-5.301z" fill="#80391b"/></g><g id="XMLID_292_"><path d="m345.841 209.759c-8.347-6.787-20.616-5.523-27.403 2.825l-25.815 31.75 30.715 23.98 25.329-31.152c6.786-8.347 5.522-20.616-2.826-27.403z" fill="#d13d2c"/></g></g></g></g><g><path d="m35.695 509.717c-12.3-5.703-17.648-20.298-11.945-32.599l47.829-103.153-4.629-87.321s10.06-24.489 23.601-25.164c13.536-.67 25.067 9.755 25.741 23.297l4.626 92.796c.198 3.975-.573 7.938-2.247 11.549l-50.378 108.65c-5.702 12.298-20.297 17.648-32.598 11.945z" fill="#5f6e9b"/></g><g><path d="m165.662 489.584-10.309-118.098-31.446-93.511c-4.321-12.851 2.593-26.773 15.444-31.094 12.852-4.323 26.772 2.593 31.094 15.444l32.378 96.285c.62 1.843 1.019 3.753 1.188 5.69l10.564 121.014c1.179 13.507-8.815 25.412-22.322 26.591-13.567 1.184-25.416-8.871-26.591-22.321z" fill="#414b82"/></g><path d="m163.454 106.992-53.893-3.604c-16.691-1.116-31.126 11.51-32.242 28.2l-10.368 155.056 114.336 7.645 10.368-155.055c1.115-16.691-11.511-31.126-28.201-32.242z" fill="#64afff"/><path d="m149.599.102c-24.708-1.652-46.076 17.038-47.728 41.746-1.652 24.707 17.038 46.076 41.746 47.728s46.076-17.038 47.728-41.745c1.652-24.709-17.039-46.077-41.746-47.729z" fill="#ffb69e"/><g><path d="m216.847 273.553-70.84-43.581c-4.012-2.468-7.05-6.246-8.6-10.695l-11.326-32.516 16.814-17.062 22.626 5.903 8.129 23.338 64.636 39.765c9.623 5.92 12.625 18.521 6.705 28.144-5.937 9.65-18.546 12.609-28.144 6.704z" fill="#ffb69e"/></g><g><path d="m165.521 175.601-17.469-50.155c-3.717-10.67-15.376-16.306-26.049-12.59-10.67 3.717-16.307 15.378-12.59 26.049l16.669 47.855z" fill="#4699f2"/></g></g></svg>