<svg width="14" height="14" viewBox="0 0 14 14" fill="none" xmlns="http://www.w3.org/2000/svg">
<path d="M2 5L2.64001 2.84958C2.75675 2.45733 3.10049 2.17598 3.50864 2.14594C4.31341 2.0867 5.71149 2 7 2C8.28738 2 9.59399 2.08655 10.3374 2.14578C10.7178 2.17609 11.0427 2.4267 11.1757 2.78437L12 5" stroke="white"/>
<path fill-rule="evenodd" clip-rule="evenodd" d="M1 10.7676V11.6002C1 11.8211 1.17909 12.0002 1.4 12.0002H2.6C2.82091 12.0002 3 11.8211 3 11.6002V11.0209C1.8532 10.8922 1 10.7676 1 10.7676ZM11 11.0209V11.6002C11 11.8211 11.1791 12.0002 11.4 12.0002H12.6C12.8209 12.0002 13 11.8211 13 11.6002V10.7676C13 10.7676 12.1468 10.8922 11 11.0209Z" fill="white"/>
<path fill-rule="evenodd" clip-rule="evenodd" d="M2.15999 5.46881C2.05839 5.71694 1.89806 6.12034 1.75918 6.52118C1.68344 6.73978 1.61625 6.95143 1.56856 7.13327C1.51788 7.32652 1.5 7.44703 1.5 7.49999L1.50001 9.02917C2.55264 9.12101 5.18019 9.33281 7 9.33281C8.81982 9.33281 11.4474 9.12101 12.5 9.02917V9.02906V9.02683V9.02459V9.02235V9.0201V9.01785V9.01559V9.01333V9.01106V9.00879V9.00651V9.00423V9.00194V8.99965V8.99735V8.99505V8.99274V8.99043V8.98811V8.98579V8.98346V8.98113V8.9788V8.97646V8.97411V8.97176V8.9694V8.96704V8.96467V8.9623V8.95993V8.95755V8.95516V8.95277V8.95038V8.94798V8.94557V8.94316V8.94075V8.93833V8.9359V8.93348V8.93104V8.9286V8.92616V8.92371V8.92126V8.9188V8.91634V8.91387V8.9114V8.90892V8.90644V8.90395V8.90146V8.89896V8.89646V8.89396V8.89144V8.88893V8.88641V8.88388V8.88135V8.87882V8.87628V8.87374V8.87119V8.86863V8.86608V8.86351V8.86094V8.85837V8.85579V8.85321V8.85063V8.84803V8.84544V8.84284V8.84023V8.83762V8.83501V8.83239V8.82976V8.82713V8.8245V8.82186V8.81922V8.81657V8.81392V8.81126V8.8086V8.80593V8.80326V8.80059V8.79791V8.79522V8.79253V8.78984V8.78714V8.78444V8.78173V8.77901V8.7763V8.77358V8.77085V8.76812V8.76538V8.76264V8.7599V8.75715V8.75439V8.75163V8.74887V8.7461V8.74333V8.74055V8.73777V8.73498V8.73219V8.7294V8.7266V8.72379V8.72098V8.71817V8.71535V8.71253V8.7097V8.70687V8.70403V8.70119V8.69835V8.6955V8.69264V8.68978V8.68692V8.68405V8.68118V8.6783V8.67542V8.67253V8.66964V8.66675V8.66385V8.66095V8.65804V8.65512V8.65221V8.64929V8.64636V8.64343V8.64049V8.63755V8.63461V8.63166V8.62871V8.62575V8.62279V8.61982V8.61685V8.61388V8.6109V8.60791V8.60492V8.60193V8.59893V8.59593V8.59293V8.58992V8.5869V8.58388V8.58086V8.57783V8.5748V8.57176V8.56872V8.56568V8.56263V8.55957V8.55651V8.55345V8.55038V8.54731V8.54424V8.54116V8.53807V8.53498V8.53189V8.52879V8.52569V8.52258V8.51947V8.51636V8.51324V8.51011V8.50699V8.50385V8.50072V8.49758V8.49443V8.49128V8.48813V8.48497V8.48181V8.47864V8.47547V8.4723V8.46912V8.46594V8.46275V8.45956V8.45636V8.45316V8.44995V8.44675V8.44353V8.44032V8.43709V8.43387V8.43064V8.4274V8.42417V8.42092V8.41768V8.41443V8.41117V8.40791V8.40465V8.40138V8.39811V8.39483V8.39155V8.38827V8.38498V8.38169V8.37839V8.37509V8.37178V8.36847V8.36516V8.36184V8.35852V8.35519V8.35186V8.34853V8.34519V8.34185V8.3385V8.33515V8.3318V8.32844V8.32507V8.32171V8.31833V8.31496V8.31158V8.3082V8.30481V8.30142V8.29802V8.29462V8.29122V8.28781V8.2844V8.28098V8.27756V8.27414V8.27071V8.26728V8.26384V8.2604V8.25695V8.25351V8.25005V8.2466V8.24314V8.23967V8.2362V8.23273V8.22925V8.22577V8.22229V8.2188V8.21531V8.21181V8.20831V8.2048V8.2013V8.19778V8.19427V8.19075V8.18722V8.18369V8.18016V8.17662V8.17308V8.16954V8.16599V8.16244V8.15888V8.15532V8.15176V8.14819V8.14462V8.14104V8.13746V8.13388V8.13029V8.1267V8.12311V8.11951V8.1159V8.1123V8.10869V8.10507V8.10145V8.09783V8.0942V8.09057V8.08694V8.0833V8.07966V8.07601V8.07236V8.06871V8.06505V8.06139V8.05773V8.05406V8.05039V8.04671V8.04303V8.03935V8.03566V8.03197V8.02827V8.02457V8.02087V8.01716V8.01345V8.00973V8.00602V8.00229V7.99857V7.99484V7.9911V7.98737V7.98363V7.97988V7.97613V7.97238V7.96862V7.96486V7.9611V7.95733V7.95356V7.94979V7.94601V7.94223V7.93844V7.93465V7.93086V7.92706V7.92326V7.91945V7.91565V7.91183V7.90802V7.9042V7.90038V7.89655V7.89272V7.88888V7.88505V7.8812V7.87736V7.87351V7.86966V7.8658V7.86194V7.85808V7.85421V7.85034V7.84647V7.84259V7.83871V7.83482V7.83093V7.82704V7.82314V7.81924V7.81534V7.81143V7.80752V7.80361V7.79969V7.79577V7.79184V7.78791V7.78398V7.78004V7.7761V7.77216V7.76821V7.76426V7.76031V7.75635V7.75239V7.74843V7.74446V7.74049V7.73651V7.73253V7.72855V7.72457V7.72058V7.71658V7.71259V7.70859V7.70458V7.70058V7.69657V7.69255V7.68853V7.68451V7.68049V7.67646V7.67243V7.6684V7.66436V7.66031V7.65627V7.65222V7.64817V7.64411V7.64005V7.63599V7.63192V7.62785V7.62378V7.6197V7.61562V7.61154V7.60745V7.60336V7.59927V7.59517V7.59107V7.58697V7.58286V7.57875V7.57464V7.57052V7.5664V7.56227V7.55814V7.55401V7.54988V7.54574V7.5416V7.53745V7.53331V7.52915V7.525V7.52084V7.51668V7.51252V7.50835V7.50417V7.5C12.5 7.4395 12.4814 7.3141 12.4312 7.12102C12.3837 6.93808 12.3168 6.72693 12.2413 6.50967C12.1029 6.1116 11.9431 5.71392 11.8416 5.4691C11.2843 5.36536 9.73075 5.13281 7 5.13281C4.27178 5.13281 2.71856 5.36493 2.15999 5.46881ZM1.89703 4.50094C2.45339 4.39221 4.0861 4.13281 7 4.13281C9.91649 4.13281 11.5495 4.39267 12.1045 4.50123C12.3974 4.55854 12.6286 4.75913 12.7381 5.02073C12.8399 5.26405 13.0252 5.71915 13.1858 6.18135C13.2661 6.41218 13.3423 6.651 13.3991 6.86966C13.4533 7.07817 13.5 7.30597 13.5 7.5V7.50417V7.50835V7.51252V7.51668V7.52084V7.525V7.52915V7.53331V7.53745V7.5416V7.54574V7.54988V7.55401V7.55814V7.56227V7.5664V7.57052V7.57464V7.57875V7.58286V7.58697V7.59107V7.59517V7.59927V7.60336V7.60745V7.61154V7.61562V7.6197V7.62378V7.62785V7.63192V7.63599V7.64005V7.64411V7.64817V7.65222V7.65627V7.66031V7.66436V7.6684V7.67243V7.67646V7.68049V7.68451V7.68853V7.69255V7.69657V7.70058V7.70458V7.70859V7.71259V7.71658V7.72058V7.72457V7.72855V7.73253V7.73651V7.74049V7.74446V7.74843V7.75239V7.75635V7.76031V7.76426V7.76821V7.77216V7.7761V7.78004V7.78398V7.78791V7.79184V7.79577V7.79969V7.80361V7.80752V7.81143V7.81534V7.81924V7.82314V7.82704V7.83093V7.83482V7.83871V7.84259V7.84647V7.85034V7.85421V7.85808V7.86194V7.8658V7.86966V7.87351V7.87736V7.8812V7.88505V7.88888V7.89272V7.89655V7.90038V7.9042V7.90802V7.91183V7.91565V7.91945V7.92326V7.92706V7.93086V7.93465V7.93844V7.94223V7.94601V7.94979V7.95356V7.95733V7.9611V7.96486V7.96862V7.97238V7.97613V7.97988V7.98363V7.98737V7.9911V7.99484V7.99857V8.00229V8.00602V8.00973V8.01345V8.01716V8.02087V8.02457V8.02827V8.03197V8.03566V8.03935V8.04303V8.04671V8.05039V8.05406V8.05773V8.06139V8.06505V8.06871V8.07236V8.07601V8.07966V8.0833V8.08694V8.09057V8.0942V8.09783V8.10145V8.10507V8.10869V8.1123V8.1159V8.11951V8.12311V8.1267V8.13029V8.13388V8.13746V8.14104V8.14462V8.14819V8.15176V8.15532V8.15888V8.16244V8.16599V8.16954V8.17308V8.17662V8.18016V8.18369V8.18722V8.19075V8.19427V8.19778V8.2013V8.2048V8.20831V8.21181V8.21531V8.2188V8.22229V8.22577V8.22925V8.23273V8.2362V8.23967V8.24314V8.2466V8.25005V8.25351V8.25695V8.2604V8.26384V8.26728V8.27071V8.27414V8.27756V8.28098V8.2844V8.28781V8.29122V8.29462V8.29802V8.30142V8.30481V8.3082V8.31158V8.31496V8.31833V8.32171V8.32507V8.32844V8.3318V8.33515V8.3385V8.34185V8.34519V8.34853V8.35186V8.35519V8.35852V8.36184V8.36516V8.36847V8.37178V8.37509V8.37839V8.38169V8.38498V8.38827V8.39155V8.39483V8.39811V8.40138V8.40465V8.40791V8.41117V8.41443V8.41768V8.42092V8.42417V8.4274V8.43064V8.43387V8.43709V8.44032V8.44353V8.44675V8.44995V8.45316V8.45636V8.45956V8.46275V8.46594V8.46912V8.4723V8.47547V8.47864V8.48181V8.48497V8.48813V8.49128V8.49443V8.49758V8.50072V8.50385V8.50699V8.51011V8.51324V8.51636V8.51947V8.52258V8.52569V8.52879V8.53189V8.53498V8.53807V8.54116V8.54424V8.54731V8.55038V8.55345V8.55651V8.55957V8.56263V8.56568V8.56872V8.57176V8.5748V8.57783V8.58086V8.58388V8.5869V8.58992V8.59293V8.59593V8.59893V8.60193V8.60492V8.60791V8.6109V8.61388V8.61685V8.61982V8.62279V8.62575V8.62871V8.63166V8.63461V8.63755V8.64049V8.64343V8.64636V8.64929V8.65221V8.65512V8.65804V8.66095V8.66385V8.66675V8.66964V8.67253V8.67542V8.6783V8.68118V8.68405V8.68692V8.68978V8.69264V8.6955V8.69835V8.70119V8.70403V8.70687V8.7097V8.71253V8.71535V8.71817V8.72098V8.72379V8.7266V8.7294V8.73219V8.73498V8.73777V8.74055V8.74333V8.7461V8.74887V8.75163V8.75439V8.75715V8.7599V8.76264V8.76538V8.76812V8.77085V8.77358V8.7763V8.77901V8.78173V8.78444V8.78714V8.78984V8.79253V8.79522V8.79791V8.80059V8.80326V8.80593V8.8086V8.81126V8.81392V8.81657V8.81922V8.82186V8.8245V8.82713V8.82976V8.83239V8.83501V8.83762V8.84023V8.84284V8.84544V8.84803V8.85063V8.85321V8.85579V8.85837V8.86094V8.86351V8.86608V8.86863V8.87119V8.87374V8.87628V8.87882V8.88135V8.88388V8.88641V8.88893V8.89144V8.89396V8.89646V8.89896V8.90146V8.90395V8.90644V8.90892V8.9114V8.91387V8.91634V8.9188V8.92126V8.92371V8.92616V8.9286V8.93104V8.93348V8.9359V8.93833V8.94075V8.94316V8.94557V8.94798V8.95038V8.95277V8.95516V8.95755V8.95993V8.9623V8.96467V8.96704V8.9694V8.97176V8.97411V8.97646V8.9788V8.98113V8.98346V8.98579V8.98811V8.99043V8.99274V8.99505V8.99735V8.99965V9.00194V9.00423V9.00651V9.00879V9.01106V9.01333V9.01559V9.01785V9.0201V9.02235V9.02459V9.02683V9.02906V9.03129V9.03351V9.03573V9.03795V9.04015V9.04236V9.04455V9.04675V9.04894V9.05112V9.0533V9.05547V9.05764V9.0598V9.06196V9.06411V9.06626V9.0684V9.07054V9.07267V9.0748V9.07692V9.07904V9.08115V9.08326V9.08536V9.08746V9.08955V9.09164V9.09372V9.0958V9.09787V9.09994V9.102V9.10406V9.10611V9.10815V9.1102V9.11223V9.11426V9.11629V9.11831V9.12033V9.12234C13.5 9.58527 13.1482 9.97589 12.6822 10.017C11.7049 10.1033 8.92712 10.3328 7 10.3328C5.0729 10.3328 2.29511 10.1033 1.31781 10.017C0.852664 9.97596 0.500005 9.58667 0.500011 9.12286L0.5 7.50001C0.499996 7.3103 0.547543 7.08448 0.601266 6.87962C0.65798 6.66334 0.734158 6.42507 0.814291 6.19379C0.974776 5.73061 1.15984 5.27063 1.26135 5.02471C1.37006 4.76136 1.60202 4.55859 1.89703 4.50094Z" fill="white"/>
<circle cx="2.75" cy="7.75" r="0.75" fill="white"/>
<circle cx="11.25" cy="7.75" r="0.75" fill="white"/>
<path d="M4.20286 7.64914C4.10224 7.32717 4.34278 7 4.6801 7H9.3199C9.65722 7 9.89776 7.32717 9.79714 7.64914L9.60964 8.24914C9.54441 8.45787 9.35157 8.6 9.13287 8.6C8.62065 8.6 7.67824 8.6 7 8.6C6.32176 8.6 5.37935 8.6 4.86713 8.6C4.64843 8.6 4.45559 8.45788 4.39036 8.24914L4.20286 7.64914Z" fill="white"/>
</svg>
