<svg width="14" height="14" viewBox="0 0 14 14" fill="none" xmlns="http://www.w3.org/2000/svg">
<path d="M2.95502 8.97164L5.53377 8.05493L5.71353 9.7036C5.73383 9.88986 5.64831 10.0718 5.49195 10.1751L4.88984 10.5726C4.61896 10.7514 4.45598 11.0543 4.45598 11.3789C4.45598 12.0227 5.0738 12.4865 5.69201 12.3066L6.88282 11.9603C6.97684 11.9329 7.07681 11.9338 7.17034 11.9628L8.22733 12.29C8.8499 12.4828 9.48113 12.0174 9.48113 11.3657C9.48113 11.0567 9.33352 10.7662 9.08387 10.5841L8.54826 10.1932C8.4037 10.0877 8.32653 9.91304 8.34593 9.73513L8.52839 8.06164L11.0014 8.96959C11.6965 9.22478 12.4404 8.73538 12.4811 7.99609C12.5018 7.62148 12.3304 7.2621 12.0263 7.0424L8.63851 4.59493C8.60794 4.57284 8.58918 4.53796 8.58761 4.50027L8.50734 2.57422C8.48053 1.93082 8.18526 1.32715 7.69625 0.909943C7.31777 0.587033 6.76115 0.575934 6.37069 0.88824C5.83804 1.31428 5.52193 1.95474 5.50772 2.63667L5.46848 4.51985C5.46793 4.54597 5.45506 4.57029 5.43377 4.58543L1.95838 7.05635C1.67081 7.2608 1.5 7.59182 1.5 7.94466C1.5 8.69771 2.24547 9.22388 2.95502 8.97164Z" stroke="white"/>
</svg>
