<svg width="14" height="14" viewBox="0 0 14 14" fill="none" xmlns="http://www.w3.org/2000/svg">
<path d="M7.00036 5.78025C6.09662 5.78025 5.36399 6.51288 5.36399 7.41661C5.36399 8.32035 6.09662 9.05298 7.00036 9.05298C7.90409 9.05298 8.63672 8.32035 8.63672 7.41662C8.63672 6.51288 7.90409 5.78025 7.00036 5.78025Z" stroke="white" stroke-linecap="round" stroke-linejoin="round"/>
<path d="M2.96364 5.78038C3.03625 5.61587 3.0579 5.43337 3.02582 5.25643C2.99374 5.07948 2.90938 4.91621 2.78364 4.78766L2.75091 4.75493C2.64948 4.65361 2.56902 4.5333 2.51412 4.40086C2.45922 4.26843 2.43096 4.12647 2.43096 3.98311C2.43096 3.83975 2.45922 3.69779 2.51412 3.56536C2.56902 3.43292 2.64948 3.31261 2.75091 3.21129C2.85223 3.10986 2.97254 3.0294 3.10497 2.9745C3.23741 2.9196 3.37937 2.89134 3.52273 2.89134C3.66609 2.89134 3.80805 2.9196 3.94048 2.9745C4.07292 3.0294 4.19323 3.10986 4.29455 3.21129L4.32727 3.24402C4.45583 3.36977 4.6191 3.45412 4.79604 3.4862C4.97299 3.51829 5.15548 3.49663 5.32 3.42402C5.48133 3.35488 5.61892 3.24007 5.71583 3.09373C5.81275 2.94739 5.86476 2.7759 5.86546 2.60038L5.86546 2.50766C5.86546 2.21833 5.98039 1.94085 6.18498 1.73627C6.38956 1.53168 6.66704 1.41675 6.95636 1.41675C7.24569 1.41675 7.52317 1.53168 7.72775 1.73627C7.93234 1.94085 8.04727 2.21833 8.04727 2.50766L8.04727 2.55675C8.0515 2.73729 8.10994 2.91239 8.215 3.05927C8.32005 3.20616 8.46687 3.31805 8.63636 3.38038C8.80088 3.45299 8.98338 3.47465 9.16032 3.44257C9.33726 3.41049 9.50054 3.32613 9.62909 3.20038L9.66182 3.16766C9.76314 3.06623 9.88345 2.98576 10.0159 2.93086C10.1483 2.87597 10.2903 2.84771 10.4336 2.84771C10.577 2.84771 10.719 2.87597 10.8514 2.93086C10.9838 2.98576 11.1041 3.06623 11.2055 3.16766C11.3069 3.26897 11.3873 3.38929 11.4422 3.52172C11.4971 3.65416 11.5254 3.79611 11.5254 3.93947C11.5254 4.08284 11.4971 4.22479 11.4422 4.35723C11.3873 4.48966 11.3069 4.60998 11.2055 4.71129L11.1727 4.74402C11.047 4.87257 10.9626 5.03585 10.9305 5.21279C10.8985 5.38973 10.9201 5.57223 10.9927 5.73675C11.0619 5.89808 11.1767 6.03567 11.323 6.13258C11.4694 6.22949 11.6408 6.2815 11.8164 6.2822L11.9091 6.2822C12.1984 6.2822 12.4759 6.39714 12.6805 6.60172C12.8851 6.80631 13 7.08378 13 7.37311C13 7.66244 12.8851 7.93992 12.6805 8.1445C12.4759 8.34909 12.1984 8.46402 11.9091 8.46402L11.86 8.46402C11.6795 8.46824 11.5044 8.52668 11.3575 8.63174C11.2106 8.7368 11.0987 8.88362 11.0364 9.05311C10.9638 9.21763 10.9421 9.40013 10.9742 9.57707C11.0063 9.75401 11.0906 9.91729 11.2164 10.0458L11.2491 10.0786C11.3505 10.1799 11.431 10.3002 11.4859 10.4326C11.5408 10.5651 11.569 10.707 11.569 10.8504C11.569 10.9937 11.5408 11.1357 11.4859 11.2681C11.431 11.4006 11.3505 11.5209 11.2491 11.6222C11.1478 11.7236 11.0275 11.8041 10.895 11.859C10.7626 11.9139 10.6206 11.9422 10.4773 11.9422C10.3339 11.9422 10.192 11.9139 10.0595 11.859C9.92709 11.8041 9.80677 11.7236 9.70545 11.6222L9.67273 11.5895C9.54418 11.4637 9.3809 11.3794 9.20396 11.3473C9.02701 11.3152 8.84452 11.3369 8.68 11.4095L8.63636 11.4095C8.47504 11.4786 8.33745 11.5934 8.24053 11.7398C8.14362 11.8861 8.09161 12.0576 8.09091 12.2331L8.09091 12.3258C8.09091 12.6152 7.97597 12.8926 7.77139 13.0972C7.5668 13.3018 7.28933 13.4167 7 13.4167C6.71067 13.4167 6.4332 13.3018 6.22861 13.0972C6.02403 12.8926 5.90909 12.6152 5.90909 12.3258L5.90909 12.2767C5.90839 12.1012 5.85638 11.9297 5.75947 11.7834C5.66255 11.6371 5.52496 11.5223 5.36364 11.4531C5.19912 11.3805 5.01662 11.3588 4.83968 11.3909C4.66274 11.423 4.49946 11.5074 4.37091 11.6331L4.33818 11.6658C4.23687 11.7673 4.11655 11.8477 3.98412 11.9026C3.85168 11.9575 3.70973 11.9858 3.56636 11.9858C3.423 11.9858 3.28104 11.9575 3.14861 11.9026C3.01618 11.8477 2.89586 11.7673 2.79455 11.6658C2.69312 11.5645 2.61265 11.4442 2.55775 11.3118C2.50285 11.1793 2.4746 11.0374 2.4746 10.894C2.4746 10.7507 2.50285 10.6087 2.55775 10.4763C2.61265 10.3438 2.69312 10.2235 2.79455 10.1222L2.82727 10.0895C2.95302 9.96092 3.03737 9.79765 3.06946 9.6207C3.10154 9.44376 3.07988 9.26126 3.00727 9.09675L3.00727 9.05311C2.93813 8.89178 2.82332 8.75419 2.67698 8.65728C2.53064 8.56036 2.35916 8.50836 2.18364 8.50766L2.09091 8.50766C1.80158 8.50766 1.52411 8.39272 1.31952 8.18814C1.11494 7.98355 1 7.70607 1 7.41675C1 7.12742 1.11494 6.84994 1.31952 6.64536C1.52411 6.44077 1.80158 6.32584 2.09091 6.32584L2.14 6.32584C2.31552 6.32514 2.487 6.27313 2.63334 6.17622C2.77968 6.0793 2.89449 5.94171 2.96364 5.78038V5.78038Z" stroke="white" stroke-linecap="round" stroke-linejoin="round"/>
</svg>
