<svg width="138" height="91" viewBox="0 0 138 91" fill="none" xmlns="http://www.w3.org/2000/svg">
<path opacity="0.2" d="M109.945 53.1254L109.945 51.6254L109.94 51.6254L109.945 53.1254ZM112.265 39.6946L111.756 41.1058L113.29 41.6584L113.713 40.0838L112.265 39.6946ZM129.63 39.3084L128.2 39.7621L128.506 40.7247L129.512 40.8038L129.63 39.3084ZM129.054 53.1254L129.06 51.6254H129.054V53.1254ZM109.94 51.6254C109.933 51.6255 109.926 51.6255 109.919 51.6255V54.6255C109.93 54.6255 109.94 54.6255 109.951 54.6254L109.94 51.6254ZM109.919 51.6255C106.926 51.6255 104.5 49.1992 104.5 46.2062H101.5C101.5 50.856 105.269 54.6255 109.919 54.6255V51.6255ZM104.5 46.2062C104.5 43.2132 106.926 40.7869 109.919 40.7869V37.7869C105.269 37.7869 101.5 41.5563 101.5 46.2062H104.5ZM109.919 40.7869C110.567 40.7869 111.185 40.8998 111.756 41.1058L112.773 38.2834C111.88 37.9616 110.918 37.7869 109.919 37.7869V40.7869ZM113.713 40.0838C114.578 36.8665 117.516 34.5 121.004 34.5V31.5C116.125 31.5 112.024 34.8107 110.816 39.3054L113.713 40.0838ZM121.004 34.5C124.374 34.5 127.231 36.7092 128.2 39.7621L131.06 38.8547C129.707 34.5919 125.718 31.5 121.004 31.5V34.5ZM129.512 40.8038C132.303 41.0231 134.5 43.3588 134.5 46.2062H137.5C137.5 41.7808 134.086 38.1541 129.748 37.813L129.512 40.8038ZM134.5 46.2062C134.5 49.1992 132.073 51.6255 129.08 51.6255V54.6255C133.73 54.6255 137.5 50.856 137.5 46.2062H134.5ZM129.08 51.6255C129.073 51.6255 129.067 51.6255 129.06 51.6254L129.049 54.6254C129.059 54.6255 129.07 54.6255 129.08 54.6255V51.6255ZM129.054 51.6254H109.945V54.6254H129.054V51.6254Z" fill="#437ADA"/>
<path opacity="0.2" d="M38.2669 17.3181H39.7669V15.8181H38.2669V17.3181ZM40.052 7.0955L39.5435 8.50669L41.0775 9.05943L41.5006 7.48468L40.052 7.0955ZM53.2691 6.80149L51.8394 7.25522L52.1449 8.21777L53.1516 8.29688L53.2691 6.80149ZM52.851 17.3181L52.851 15.8181L51.351 15.8181V17.3181H52.851ZM52.851 17.3181V18.8181H54.351V17.3181H52.851ZM38.2669 17.3181H36.7669V18.8181H38.2669V17.3181ZM38.2669 15.8181C38.2669 15.8181 38.2669 15.8181 38.2669 15.8181C38.2669 15.8181 38.2669 15.8181 38.2669 15.8181C38.2669 15.8181 38.2669 15.8181 38.2669 15.8181C38.2669 15.8181 38.2669 15.8181 38.2669 15.8181C38.2669 15.8181 38.2669 15.8181 38.2669 15.8181C38.2669 15.8181 38.2669 15.8181 38.2669 15.8181C38.2669 15.8181 38.2669 15.8181 38.2669 15.8181C38.2669 15.8181 38.2669 15.8181 38.2669 15.8181C38.2669 15.8181 38.2669 15.8181 38.2669 15.8181C38.2669 15.8181 38.2669 15.8181 38.2669 15.8181C38.2669 15.8181 38.2669 15.8181 38.2669 15.8181C38.2669 15.8181 38.2669 15.8181 38.2669 15.8181C38.2669 15.8181 38.2669 15.8181 38.2669 15.8181C38.2669 15.8181 38.2669 15.8181 38.2669 15.8181C38.2669 15.8181 38.2669 15.8181 38.2669 15.8181C38.2669 15.8181 38.2669 15.8181 38.2669 15.8181C38.2669 15.8181 38.2669 15.8181 38.2669 15.8181C38.2669 15.8181 38.2669 15.8181 38.2669 15.8181C38.2669 15.8181 38.2669 15.8181 38.2669 15.8181C38.2669 15.8181 38.2669 15.8181 38.2669 15.8181C38.2669 15.8181 38.2669 15.8181 38.2669 15.8181C38.2669 15.8181 38.2669 15.8181 38.2669 15.8181C38.2669 15.8181 38.2669 15.8181 38.2669 15.8181C38.2669 15.8181 38.2669 15.8181 38.2669 15.8181C38.2669 15.8181 38.2669 15.8181 38.2669 15.8181C38.2669 15.8181 38.2669 15.8181 38.2669 15.8181C38.2669 15.8181 38.2669 15.8181 38.2669 15.8181C38.2669 15.8181 38.2669 15.8181 38.2669 15.8181C38.2669 15.8181 38.2669 15.8181 38.2669 15.8181C38.2669 15.8181 38.2669 15.8181 38.2669 15.8181C38.2669 15.8181 38.2669 15.8181 38.2669 15.8181C38.2669 15.8181 38.2669 15.8181 38.2669 15.8181C38.2669 15.8181 38.2669 15.8181 38.2669 15.8181C38.2669 15.8181 38.2669 15.8181 38.2669 15.8181C38.2669 15.8181 38.2669 15.8181 38.2669 15.8181C38.2669 15.8181 38.2669 15.8181 38.2669 15.8181C38.2669 15.8181 38.2669 15.8181 38.2669 15.8181C38.2669 15.8181 38.2669 15.8181 38.2669 15.8181C38.2669 15.8181 38.2669 15.8181 38.2669 15.8181C38.2669 15.8181 38.2669 15.8181 38.2669 15.8181C38.2669 15.8181 38.2669 15.8181 38.2669 15.8181C38.2669 15.8181 38.2669 15.8181 38.2669 15.8181C38.2669 15.8181 38.2669 15.8181 38.2669 15.8181C38.2669 15.8181 38.2669 15.8181 38.2669 15.8181C38.2669 15.8181 38.2669 15.8181 38.2669 15.8181C38.2669 15.8181 38.2669 15.8181 38.2669 15.8181C38.2669 15.8181 38.2669 15.8181 38.2669 15.8181C38.2669 15.8181 38.2669 15.8181 38.2669 15.8181C38.2669 15.8181 38.2669 15.8181 38.2669 15.8181C38.2669 15.8181 38.2669 15.8181 38.2669 15.8181C38.2669 15.8181 38.2669 15.8181 38.2669 15.8181C38.2669 15.8181 38.2669 15.8181 38.2669 15.8181C38.2669 15.8181 38.2669 15.8181 38.2669 15.8181C38.2669 15.8181 38.2669 15.8181 38.2669 15.8181C38.2669 15.8181 38.2669 15.8181 38.2669 15.8181C38.2669 15.8181 38.2669 15.8181 38.2669 15.8181C38.2669 15.8181 38.2669 15.8181 38.2669 15.8181C38.2669 15.8181 38.2669 15.8181 38.2669 15.8181C38.2669 15.8181 38.2669 15.8181 38.2669 15.8181C38.2669 15.8181 38.2669 15.8181 38.2669 15.8181C38.2669 15.8181 38.2669 15.8181 38.2669 15.8181C38.2669 15.8181 38.2669 15.8181 38.2669 15.8181C38.2669 15.8181 38.2669 15.8181 38.2669 15.8181C38.2669 15.8181 38.2669 15.8181 38.2669 15.8181C38.2669 15.8181 38.2669 15.8181 38.2669 15.8181C38.2669 15.8181 38.2669 15.8181 38.2669 15.8181C38.2669 15.8181 38.2669 15.8181 38.2669 15.8181C38.2669 15.8181 38.2669 15.8181 38.2669 15.8181C38.2669 15.8181 38.2669 15.8181 38.2669 15.8181C38.2669 15.8181 38.2669 15.8181 38.2669 15.8181C38.2669 15.8181 38.2669 15.8181 38.2669 15.8181C38.2669 15.8181 38.2669 15.8181 38.2668 15.8181C38.2668 15.8181 38.2668 15.8181 38.2668 15.8181C38.2668 15.8181 38.2668 15.8181 38.2668 15.8181C38.2668 15.8181 38.2668 15.8181 38.2668 15.8181C38.2668 15.8181 38.2668 15.8181 38.2668 15.8181C38.2668 15.8181 38.2668 15.8181 38.2668 15.8181C38.2668 15.8181 38.2668 15.8181 38.2668 15.8181C38.2668 15.8181 38.2668 15.8181 38.2668 15.8181C38.2668 15.8181 38.2668 15.8181 38.2668 15.8181C38.2668 15.8181 38.2668 15.8181 38.2668 15.8181C38.2668 15.8181 38.2668 15.8181 38.2668 15.8181C38.2668 15.8181 38.2668 15.8181 38.2668 15.8181C38.2668 15.8181 38.2668 15.8181 38.2668 15.8181C38.2668 15.8181 38.2668 15.8181 38.2668 15.8181C38.2668 15.8181 38.2668 15.8181 38.2668 15.8181C38.2668 15.8181 38.2668 15.8181 38.2668 15.8181C38.2668 15.8181 38.2668 15.8181 38.2668 15.8181C38.2668 15.8181 38.2668 15.8181 38.2668 15.8181C38.2668 15.8181 38.2668 15.8181 38.2668 15.8181C38.2668 15.8181 38.2668 15.8181 38.2668 15.8181C38.2668 15.8181 38.2668 15.8181 38.2668 15.8181C38.2668 15.8181 38.2668 15.8181 38.2668 15.8181C38.2668 15.8181 38.2668 15.8181 38.2668 15.8181C38.2668 15.8181 38.2668 15.8181 38.2668 15.8181C38.2668 15.8181 38.2668 15.8181 38.2668 15.8181C38.2668 15.8181 38.2668 15.8181 38.2668 15.8181C38.2668 15.8181 38.2668 15.8181 38.2668 15.8181C38.2668 15.8181 38.2668 15.8181 38.2668 15.8181C38.2668 15.8181 38.2668 15.8181 38.2668 15.8181C38.2668 15.8181 38.2668 15.8181 38.2668 15.8181C38.2668 15.8181 38.2668 15.8181 38.2668 15.8181C38.2668 15.8181 38.2668 15.8181 38.2668 15.8181C38.2668 15.8181 38.2668 15.8181 38.2668 15.8181C38.2668 15.8181 38.2668 15.8181 38.2668 15.8181C38.2668 15.8181 38.2668 15.8181 38.2668 15.8181C38.2668 15.8181 38.2668 15.8181 38.2668 15.8181C38.2668 15.8181 38.2668 15.8181 38.2668 15.8181C38.2668 15.8181 38.2668 15.8181 38.2668 15.8181C38.2668 15.8181 38.2668 15.8181 38.2668 15.8181C38.2668 15.8181 38.2668 15.8181 38.2668 15.8181C38.2668 15.8181 38.2668 15.8181 38.2668 15.8181C38.2668 15.8181 38.2668 15.8181 38.2668 15.8181C38.2668 15.8181 38.2668 15.8181 38.2668 15.8181C38.2668 15.8181 38.2668 15.8181 38.2668 15.8181C38.2668 15.8181 38.2668 15.8181 38.2668 15.8181C38.2668 15.8181 38.2668 15.8181 38.2668 15.8181C38.2668 15.8181 38.2668 15.8181 38.2668 15.8181C38.2668 15.8181 38.2668 15.8181 38.2668 15.8181C38.2668 15.8181 38.2668 15.8181 38.2668 15.8181C38.2668 15.8181 38.2668 15.8181 38.2668 15.8181C38.2668 15.8181 38.2668 15.8181 38.2668 15.8181C38.2668 15.8181 38.2668 15.8181 38.2668 15.8181C38.2668 15.8181 38.2668 15.8181 38.2668 15.8181C38.2668 15.8181 38.2668 15.8181 38.2668 15.8181C38.2668 15.8181 38.2668 15.8181 38.2668 15.8181C38.2668 15.8181 38.2668 15.8181 38.2668 15.8181C38.2668 15.8181 38.2668 15.8181 38.2668 15.8181C38.2668 15.8181 38.2668 15.8181 38.2668 15.8181C38.2668 15.8181 38.2668 15.8181 38.2668 15.8181C38.2668 15.8181 38.2668 15.8181 38.2668 15.8181C38.2668 15.8181 38.2668 15.8181 38.2668 15.8181C38.2668 15.8181 38.2668 15.8181 38.2668 15.8181C38.2668 15.8181 38.2668 15.8181 38.2668 15.8181C38.2668 15.8181 38.2668 15.8181 38.2668 15.8181C38.2668 15.8181 38.2668 15.8181 38.2668 15.8181C38.2668 15.8181 38.2668 15.8181 38.2668 15.8181C38.2668 15.8181 38.2668 15.8181 38.2668 15.8181C38.2668 15.8181 38.2668 15.8181 38.2668 15.8181C38.2668 15.8181 38.2668 15.8181 38.2668 15.8181C38.2668 15.8181 38.2668 15.8181 38.2668 15.8181C38.2668 15.8181 38.2668 15.8181 38.2668 15.8181C38.2668 15.8181 38.2668 15.8181 38.2668 15.8181C38.2668 15.8181 38.2668 15.8181 38.2668 15.8181C38.2668 15.8181 38.2668 15.8181 38.2668 15.8181C38.2668 15.8181 38.2668 15.8181 38.2668 15.8181C38.2668 15.8181 38.2668 15.8181 38.2668 15.8181C38.2668 15.8181 38.2668 15.8181 38.2668 15.8181C38.2668 15.8181 38.2668 15.8181 38.2668 15.8181C38.2668 15.8181 38.2668 15.8181 38.2668 15.8181C38.2668 15.8181 38.2668 15.8181 38.2668 15.8181C38.2668 15.8181 38.2668 15.8181 38.2668 15.8181C38.2668 15.8181 38.2668 15.8181 38.2668 15.8181C38.2668 15.8181 38.2668 15.8181 38.2668 15.8181C38.2668 15.8181 38.2668 15.8181 38.2668 15.8181C38.2668 15.8181 38.2668 15.8181 38.2668 15.8181C38.2668 15.8181 38.2668 15.8181 38.2668 15.8181C38.2668 15.8181 38.2668 15.8181 38.2668 15.8181C38.2668 15.8181 38.2668 15.8181 38.2668 15.8181C38.2668 15.8181 38.2668 15.8181 38.2668 15.8181C38.2668 15.8181 38.2668 15.8181 38.2668 15.8181C38.2668 15.8181 38.2668 15.8181 38.2668 15.8181C38.2668 15.8181 38.2668 15.8181 38.2668 15.8181C38.2668 15.8181 38.2668 15.8181 38.2668 15.8181C38.2668 15.8181 38.2668 15.8181 38.2668 15.8181C38.2668 15.8181 38.2668 15.8181 38.2668 15.8181C38.2668 15.8181 38.2668 15.8181 38.2668 15.8181C38.2668 15.8181 38.2668 15.8181 38.2668 15.8181C38.2668 15.8181 38.2668 15.8181 38.2668 15.8181C38.2668 15.8181 38.2668 15.8181 38.2668 15.8181C38.2668 15.8181 38.2668 15.8181 38.2668 15.8181C38.2668 15.8181 38.2668 15.8181 38.2668 15.8181C38.2668 15.8181 38.2668 15.8181 38.2668 15.8181C38.2668 15.8181 38.2668 15.8181 38.2668 15.8181C38.2668 15.8181 38.2668 15.8181 38.2668 15.8181C38.2668 15.8181 38.2668 15.8181 38.2668 15.8181C38.2668 15.8181 38.2668 15.8181 38.2668 15.8181C38.2668 15.8181 38.2668 15.8181 38.2668 15.8181C38.2668 15.8181 38.2668 15.8181 38.2668 15.8181C38.2668 15.8181 38.2668 15.8181 38.2668 15.8181C38.2668 15.8181 38.2668 15.8181 38.2668 15.8181C38.2668 15.8181 38.2668 15.8181 38.2668 15.8181C38.2668 15.8181 38.2668 15.8181 38.2668 15.8181C38.2668 15.8181 38.2668 15.8181 38.2668 15.8181C38.2668 15.8181 38.2668 15.8181 38.2668 15.8181C38.2668 15.8181 38.2668 15.8181 38.2668 15.8181C38.2668 15.8181 38.2668 15.8181 38.2668 15.8181C38.2668 15.8181 38.2668 15.8181 38.2668 15.8181C38.2668 15.8181 38.2668 15.8181 38.2668 15.8181C38.2668 15.8181 38.2668 15.8181 38.2668 15.8181C38.2668 15.8181 38.2667 15.8181 38.2667 15.8181C38.2667 15.8181 38.2667 15.8181 38.2667 15.8181C38.2667 15.8181 38.2667 15.8181 38.2667 15.8181C38.2667 15.8181 38.2667 15.8181 38.2667 15.8181C38.2667 15.8181 38.2667 15.8181 38.2667 15.8181C38.2667 15.8181 38.2667 15.8181 38.2667 15.8181C38.2667 15.8181 38.2667 15.8181 38.2667 15.8181C38.2667 15.8181 38.2667 15.8181 38.2667 15.8181C38.2667 15.8181 38.2667 15.8181 38.2667 15.8181C38.2667 15.8181 38.2667 15.8181 38.2667 15.8181C38.2667 15.8181 38.2667 15.8181 38.2667 15.8181C38.2667 15.8181 38.2667 15.8181 38.2667 15.8181C38.2667 15.8181 38.2667 15.8181 38.2667 15.8181C38.2667 15.8181 38.2667 15.8181 38.2667 15.8181C38.2667 15.8181 38.2667 15.8181 38.2667 15.8181C38.2667 15.8181 38.2667 15.8181 38.2667 15.8181C38.2667 15.8181 38.2667 15.8181 38.2667 15.8181C38.2667 15.8181 38.2667 15.8181 38.2667 15.8181C38.2667 15.8181 38.2667 15.8181 38.2667 15.8181C38.2667 15.8181 38.2667 15.8181 38.2667 15.8181C38.2667 15.8181 38.2667 15.8181 38.2667 15.8181C38.2667 15.8181 38.2667 15.8181 38.2667 15.8181C38.2667 15.8181 38.2667 15.8181 38.2667 15.8181C38.2667 15.8181 38.2667 15.8181 38.2667 15.8181C38.2667 15.8181 38.2667 15.8181 38.2667 15.8181C38.2667 15.8181 38.2667 15.8181 38.2667 15.8181C38.2667 15.8181 38.2667 15.8181 38.2667 15.8181C38.2667 15.8181 38.2667 15.8181 38.2667 15.8181C38.2667 15.8181 38.2667 15.8181 38.2667 15.8181C38.2667 15.8181 38.2667 15.8181 38.2667 15.8181C38.2667 15.8181 38.2667 15.8181 38.2667 15.8181C38.2667 15.8181 38.2667 15.8181 38.2667 15.8181C38.2667 15.8181 38.2667 15.8181 38.2667 15.8181C38.2667 15.8181 38.2667 15.8181 38.2667 15.8181C38.2667 15.8181 38.2667 15.8181 38.2667 15.8181C38.2667 15.8181 38.2667 15.8181 38.2667 15.8181C38.2667 15.8181 38.2667 15.8181 38.2667 15.8181C38.2667 15.8181 38.2667 15.8181 38.2667 15.8181C38.2667 15.8181 38.2667 15.8181 38.2667 15.8181C38.2667 15.8181 38.2667 15.8181 38.2667 15.8181C38.2667 15.8181 38.2667 15.8181 38.2667 15.8181C38.2667 15.8181 38.2667 15.8181 38.2667 15.8181C38.2667 15.8181 38.2667 15.8181 38.2667 15.8181C38.2667 15.8181 38.2667 15.8181 38.2667 15.8181C38.2667 15.8181 38.2667 15.8181 38.2667 15.8181C38.2667 15.8181 38.2667 15.8181 38.2667 15.8181C38.2667 15.8181 38.2667 15.8181 38.2667 15.8181C38.2667 15.8181 38.2667 15.8181 38.2667 15.8181C38.2667 15.8181 38.2667 15.8181 38.2667 15.8181C38.2667 15.8181 38.2667 15.8181 38.2667 15.8181C38.2667 15.8181 38.2667 15.8181 38.2667 15.8181C38.2667 15.8181 38.2667 15.8181 38.2667 15.8181C38.2667 15.8181 38.2667 15.8181 38.2667 15.8181C38.2667 15.8181 38.2667 15.8181 38.2667 15.8181C38.2667 15.8181 38.2667 15.8181 38.2667 15.8181C38.2667 15.8181 38.2667 15.8181 38.2667 15.8181C38.2667 15.8181 38.2667 15.8181 38.2667 15.8181C38.2667 15.8181 38.2667 15.8181 38.2667 15.8181C38.2667 15.8181 38.2667 15.8181 38.2667 15.8181C38.2667 15.8181 38.2667 15.8181 38.2667 15.8181C38.2667 15.8181 38.2667 15.8181 38.2667 15.8181C38.2667 15.8181 38.2667 15.8181 38.2667 15.8181C38.2667 15.8181 38.2667 15.8181 38.2667 15.8181C38.2667 15.8181 38.2667 15.8181 38.2667 15.8181C38.2667 15.8181 38.2667 15.8181 38.2667 15.8181C38.2667 15.8181 38.2667 15.8181 38.2667 15.8181C38.2667 15.8181 38.2667 15.8181 38.2667 15.8181C38.2667 15.8181 38.2667 15.8181 38.2667 15.8181C38.2667 15.8181 38.2667 15.8181 38.2667 15.8181C38.2667 15.8181 38.2667 15.8181 38.2667 15.8181C38.2667 15.8181 38.2667 15.8181 38.2667 15.8181C38.2667 15.8181 38.2667 15.8181 38.2667 15.8181C38.2667 15.8181 38.2667 15.8181 38.2667 15.8181C38.2667 15.8181 38.2667 15.8181 38.2667 15.8181C38.2667 15.8181 38.2667 15.8181 38.2667 15.8181C38.2667 15.8181 38.2667 15.8181 38.2667 15.8181C38.2667 15.8181 38.2667 15.8181 38.2667 15.8181C38.2667 15.8181 38.2667 15.8181 38.2667 15.8181C38.2667 15.8181 38.2667 15.8181 38.2667 15.8181C38.2667 15.8181 38.2667 15.8181 38.2667 15.8181C38.2667 15.8181 38.2667 15.8181 38.2667 15.8181C38.2667 15.8181 38.2667 15.8181 38.2667 15.8181C38.2667 15.8181 38.2667 15.8181 38.2667 15.8181C38.2667 15.8181 38.2667 15.8181 38.2667 15.8181C38.2667 15.8181 38.2667 15.8181 38.2667 15.8181C38.2667 15.8181 38.2667 15.8181 38.2667 15.8181C38.2667 15.8181 38.2667 15.8181 38.2667 15.8181C38.2667 15.8181 38.2667 15.8181 38.2667 15.8181C38.2667 15.8181 38.2667 15.8181 38.2667 15.8181C38.2667 15.8181 38.2667 15.8181 38.2667 15.8181C38.2667 15.8181 38.2667 15.8181 38.2667 15.8181C38.2667 15.8181 38.2667 15.8181 38.2667 15.8181C38.2667 15.8181 38.2667 15.8181 38.2667 15.8181C38.2667 15.8181 38.2667 15.8181 38.2667 15.8181C38.2667 15.8181 38.2667 15.8181 38.2667 15.8181C38.2667 15.8181 38.2667 15.8181 38.2667 15.8181C38.2667 15.8181 38.2667 15.8181 38.2667 15.8181C38.2667 15.8181 38.2667 15.8181 38.2667 15.8181C38.2667 15.8181 38.2667 15.8181 38.2667 15.8181C38.2667 15.8181 38.2667 15.8181 38.2667 15.8181C38.2667 15.8181 38.2667 15.8181 38.2667 15.8181C38.2667 15.8181 38.2667 15.8181 38.2667 15.8181C38.2667 15.8181 38.2667 15.8181 38.2667 15.8181C38.2667 15.8181 38.2667 15.8181 38.2667 15.8181C38.2667 15.8181 38.2667 15.8181 38.2667 15.8181C38.2667 15.8181 38.2667 15.8181 38.2667 15.8181C38.2667 15.8181 38.2667 15.8181 38.2667 15.8181C38.2667 15.8181 38.2667 15.8181 38.2667 15.8181C38.2667 15.8181 38.2667 15.8181 38.2667 15.8181C38.2667 15.8181 38.2667 15.8181 38.2667 15.8181C38.2667 15.8181 38.2667 15.8181 38.2667 15.8181C38.2667 15.8181 38.2667 15.8181 38.2667 15.8181C38.2667 15.8181 38.2667 15.8181 38.2667 15.8181C38.2667 15.8181 38.2667 15.8181 38.2667 15.8181C38.2667 15.8181 38.2667 15.8181 38.2667 15.8181C38.2667 15.8181 38.2667 15.8181 38.2667 15.8181C38.2667 15.8181 38.2667 15.8181 38.2667 15.8181C38.2667 15.8181 38.2667 15.8181 38.2667 15.8181C38.2667 15.8181 38.2667 15.8181 38.2667 15.8181C38.2666 15.8181 38.2666 15.8181 38.2666 15.8181C38.2666 15.8181 38.2666 15.8181 38.2666 15.8181C38.2666 15.8181 38.2666 15.8181 38.2666 15.8181C38.2666 15.8181 38.2666 15.8181 38.2666 15.8181C38.2666 15.8181 38.2666 15.8181 38.2666 15.8181C38.2666 15.8181 38.2666 15.8181 38.2666 15.8181C38.2666 15.8181 38.2666 15.8181 38.2666 15.8181C38.2666 15.8181 38.2666 15.8181 38.2666 15.8181C38.2666 15.8181 38.2666 15.8181 38.2666 15.8181C38.2666 15.8181 38.2666 15.8181 38.2666 15.8181C38.2666 15.8181 38.2666 15.8181 38.2666 15.8181C38.2666 15.8181 38.2666 15.8181 38.2666 15.8181C38.2666 15.8181 38.2666 15.8181 38.2666 15.8181C38.2666 15.8181 38.2666 15.8181 38.2666 15.8181C38.2666 15.8181 38.2666 15.8181 38.2666 15.8181C38.2666 15.8181 38.2666 15.8181 38.2666 15.8181C38.2666 15.8181 38.2666 15.8181 38.2666 15.8181C38.2666 15.8181 38.2666 15.8181 38.2666 15.8181C38.2666 15.8181 38.2666 15.8181 38.2666 15.8181C38.2666 15.8181 38.2666 15.8181 38.2666 15.8181C38.2666 15.8181 38.2666 15.8181 38.2666 15.8181C38.2666 15.8181 38.2666 15.8181 38.2666 15.8181C38.2666 15.8181 38.2666 15.8181 38.2666 15.8181C38.2666 15.8181 38.2666 15.8181 38.2666 15.8181C38.2666 15.8181 38.2666 15.8181 38.2666 15.8181C38.2666 15.8181 38.2666 15.8181 38.2666 15.8181C38.2666 15.8181 38.2666 15.8181 38.2666 15.8181C38.2666 15.8181 38.2666 15.8181 38.2666 15.8181C38.2666 15.8181 38.2666 15.8181 38.2666 15.8181C38.2666 15.8181 38.2666 15.8181 38.2666 15.8181C38.2666 15.8181 38.2666 15.8181 38.2666 15.8181C38.2666 15.8181 38.2666 15.8181 38.2666 15.8181C38.2666 15.8181 38.2666 15.8181 38.2666 15.8181C38.2666 15.8181 38.2666 15.8181 38.2666 15.8181C38.2666 15.8181 38.2666 15.8181 38.2666 15.8181C38.2666 15.8181 38.2666 15.8181 38.2666 15.8181C38.2666 15.8181 38.2666 15.8181 38.2666 15.8181C38.2666 15.8181 38.2666 15.8181 38.2666 15.8181C38.2666 15.8181 38.2666 15.8181 38.2666 15.8181C38.2666 15.8181 38.2666 15.8181 38.2666 15.8181C38.2666 15.8181 38.2666 15.8181 38.2666 15.8181C38.2666 15.8181 38.2666 15.8181 38.2666 15.8181C38.2666 15.8181 38.2666 15.8181 38.2666 15.8181C38.2666 15.8181 38.2666 15.8181 38.2666 15.8181C38.2666 15.8181 38.2666 15.8181 38.2666 15.8181C38.2666 15.8181 38.2666 15.8181 38.2666 15.8181C38.2666 15.8181 38.2666 15.8181 38.2666 15.8181C38.2666 15.8181 38.2666 15.8181 38.2666 15.8181C38.2666 15.8181 38.2666 15.8181 38.2666 15.8181C38.2666 15.8181 38.2666 15.8181 38.2666 15.8181C38.2666 15.8181 38.2666 15.8181 38.2666 15.8181C38.2666 15.8181 38.2666 15.8181 38.2666 15.8181C38.2666 15.8181 38.2666 15.8181 38.2666 15.8181C38.2666 15.8181 38.2666 15.8181 38.2666 15.8181C38.2666 15.8181 38.2666 15.8181 38.2666 15.8181C38.2666 15.8181 38.2666 15.8181 38.2666 15.8181C38.2666 15.8181 38.2666 15.8181 38.2666 15.8181C38.2666 15.8181 38.2666 15.8181 38.2666 15.8181C38.2666 15.8181 38.2666 15.8181 38.2666 15.8181C38.2666 15.8181 38.2666 15.8181 38.2666 15.8181C38.2666 15.8181 38.2666 15.8181 38.2666 15.8181C38.2666 15.8181 38.2666 15.8181 38.2666 15.8181C38.2666 15.8181 38.2666 15.8181 38.2666 15.8181C38.2666 15.8181 38.2666 15.8181 38.2666 15.8181C38.2666 15.8181 38.2666 15.8181 38.2666 15.8181C38.2666 15.8181 38.2666 15.8181 38.2666 15.8181C38.2666 15.8181 38.2666 15.8181 38.2666 15.8181C38.2666 15.8181 38.2666 15.8181 38.2666 15.8181C38.2666 15.8181 38.2666 15.8181 38.2666 15.8181C38.2666 15.8181 38.2666 15.8181 38.2666 15.8181C38.2666 15.8181 38.2666 15.8181 38.2666 15.8181C38.2666 15.8181 38.2666 15.8181 38.2666 15.8181C38.2666 15.8181 38.2666 15.8181 38.2666 15.8181C38.2666 15.8181 38.2666 15.8181 38.2666 15.8181C38.2666 15.8181 38.2666 15.8181 38.2666 15.8181C38.2666 15.8181 38.2666 15.8181 38.2666 15.8181C38.2666 15.8181 38.2666 15.8181 38.2666 15.8181C38.2666 15.8181 38.2666 15.8181 38.2666 15.8181C38.2666 15.8181 38.2666 15.8181 38.2666 15.8181C38.2666 15.8181 38.2666 15.8181 38.2666 15.8181C38.2666 15.8181 38.2666 15.8181 38.2666 15.8181C38.2666 15.8181 38.2666 15.8181 38.2666 15.8181C38.2666 15.8181 38.2666 15.8181 38.2666 15.8181C38.2666 15.8181 38.2666 15.8181 38.2666 15.8181C38.2666 15.8181 38.2666 15.8181 38.2666 15.8181C38.2666 15.8181 38.2666 15.8181 38.2666 15.8181C38.2666 15.8181 38.2666 15.8181 38.2666 15.8181C38.2666 15.8181 38.2666 15.8181 38.2666 15.8181C38.2666 15.8181 38.2666 15.8181 38.2666 15.8181C38.2666 15.8181 38.2666 15.8181 38.2666 15.8181C38.2666 15.8181 38.2666 15.8181 38.2666 15.8181C38.2666 15.8181 38.2666 15.8181 38.2666 15.8181C38.2666 15.8181 38.2666 15.8181 38.2666 15.8181C38.2666 15.8181 38.2666 15.8181 38.2666 15.8181C38.2666 15.8181 38.2666 15.8181 38.2666 15.8181C38.2666 15.8181 38.2666 15.8181 38.2666 15.8181C38.2666 15.8181 38.2666 15.8181 38.2666 15.8181C38.2666 15.8181 38.2666 15.8181 38.2666 15.8181C38.2666 15.8181 38.2666 15.8181 38.2666 15.8181C38.2666 15.8181 38.2666 15.8181 38.2666 15.8181C38.2666 15.8181 38.2666 15.8181 38.2666 15.8181C38.2666 15.8181 38.2666 15.8181 38.2666 15.8181C38.2666 15.8181 38.2666 15.8181 38.2666 15.8181C38.2666 15.8181 38.2666 15.8181 38.2666 15.8181C38.2666 15.8181 38.2666 15.8181 38.2666 15.8181C38.2666 15.8181 38.2666 15.8181 38.2666 15.8181C38.2666 15.8181 38.2666 15.8181 38.2666 15.8181C38.2666 15.8181 38.2666 15.8181 38.2666 15.8181C38.2666 15.8181 38.2666 15.8181 38.2666 15.8181C38.2666 15.8181 38.2666 15.8181 38.2666 15.8181C38.2666 15.8181 38.2666 15.8181 38.2666 15.8181C38.2666 15.8181 38.2666 15.8181 38.2666 15.8181C38.2666 15.8181 38.2666 15.8181 38.2666 15.8181C38.2666 15.8181 38.2666 15.8181 38.2666 15.8181C38.2666 15.8181 38.2666 15.8181 38.2666 15.8181C38.2666 15.8181 38.2666 15.8181 38.2666 15.8181C38.2666 15.8181 38.2666 15.8181 38.2666 15.8181C38.2666 15.8181 38.2666 15.8181 38.2666 15.8181C38.2666 15.8181 38.2666 15.8181 38.2665 15.8181C38.2665 15.8181 38.2665 15.8181 38.2665 15.8181C38.2665 15.8181 38.2665 15.8181 38.2665 15.8181C38.2665 15.8181 38.2665 15.8181 38.2665 15.8181C38.2665 15.8181 38.2665 15.8181 38.2665 15.8181C38.2665 15.8181 38.2665 15.8181 38.2665 15.8181C38.2665 15.8181 38.2665 15.8181 38.2665 15.8181C38.2665 15.8181 38.2665 15.8181 38.2665 15.8181C38.2665 15.8181 38.2665 15.8181 38.2665 15.8181C38.2665 15.8181 38.2665 15.8181 38.2665 15.8181C38.2665 15.8181 38.2665 15.8181 38.2665 15.8181C38.2665 15.8181 38.2665 15.8181 38.2665 15.8181C38.2665 15.8181 38.2665 15.8181 38.2665 15.8181C38.2665 15.8181 38.2665 15.8181 38.2665 15.8181C38.2665 15.8181 38.2665 15.8181 38.2665 15.8181C38.2665 15.8181 38.2665 15.8181 38.2665 15.8181C38.2665 15.8181 38.2665 15.8181 38.2665 15.8181C38.2665 15.8181 38.2665 15.8181 38.2665 15.8181C38.2665 15.8181 38.2665 15.8181 38.2665 15.8181C38.2665 15.8181 38.2665 15.8181 38.2665 15.8181C38.2665 15.8181 38.2665 15.8181 38.2665 15.8181C38.2665 15.8181 38.2665 15.8181 38.2665 15.8181C38.2665 15.8181 38.2665 15.8181 38.2665 15.8181C38.2665 15.8181 38.2665 15.8181 38.2665 15.8181C38.2665 15.8181 38.2665 15.8181 38.2665 15.8181C38.2665 15.8181 38.2665 15.8181 38.2665 15.8181C38.2665 15.8181 38.2665 15.8181 38.2665 15.8181C38.2665 15.8181 38.2665 15.8181 38.2665 15.8181C38.2665 15.8181 38.2665 15.8181 38.2665 15.8181C38.2665 15.8181 38.2665 15.8181 38.2665 15.8181C38.2665 15.8181 38.2665 15.8181 38.2665 15.8181C38.2665 15.8181 38.2665 15.8181 38.2665 15.8181C38.2665 15.8181 38.2665 15.8181 38.2665 15.8181C38.2665 15.8181 38.2665 15.8181 38.2665 15.8181C38.2665 15.8181 38.2665 15.8181 38.2665 15.8181C38.2665 15.8181 38.2665 15.8181 38.2665 15.8181C38.2665 15.8181 38.2665 15.8181 38.2665 15.8181C38.2665 15.8181 38.2665 15.8181 38.2665 15.8181C38.2665 15.8181 38.2665 15.8181 38.2665 15.8181C38.2665 15.8181 38.2665 15.8181 38.2665 15.8181C38.2665 15.8181 38.2665 15.8181 38.2665 15.8181C38.2665 15.8181 38.2665 15.8181 38.2665 15.8181C38.2665 15.8181 38.2665 15.8181 38.2665 15.8181C38.2665 15.8181 38.2665 15.8181 38.2665 15.8181C38.2665 15.8181 38.2665 15.8181 38.2665 15.8181C38.2665 15.8181 38.2665 15.8181 38.2665 15.8181C38.2665 15.8181 38.2665 15.8181 38.2665 15.8181C38.2665 15.8181 38.2665 15.8181 38.2665 15.8181C38.2665 15.8181 38.2665 15.8181 38.2665 15.8181C38.2665 15.8181 38.2665 15.8181 38.2665 15.8181C38.2665 15.8181 38.2665 15.8181 38.2665 15.8181C38.2665 15.8181 38.2665 15.8181 38.2665 15.8181C38.2665 15.8181 38.2665 15.8181 38.2665 15.8181C38.2665 15.8181 38.2665 15.8181 38.2665 15.8181C38.2665 15.8181 38.2665 15.8181 38.2665 15.8181C38.2665 15.8181 38.2665 15.8181 38.2665 15.8181C38.2665 15.8181 38.2665 15.8181 38.2665 15.8181C38.2665 15.8181 38.2665 15.8181 38.2665 15.8181C38.2665 15.8181 38.2665 15.8181 38.2665 15.8181C38.2665 15.8181 38.2665 15.8181 38.2665 15.8181C38.2665 15.8181 38.2665 15.8181 38.2665 15.8181C38.2665 15.8181 38.2665 15.8181 38.2665 15.8181C38.2665 15.8181 38.2665 15.8181 38.2665 15.8181C38.2665 15.8181 38.2665 15.8181 38.2665 15.8181C38.2665 15.8181 38.2665 15.8181 38.2665 15.8181C38.2665 15.8181 38.2665 15.8181 38.2665 15.8181C38.2665 15.8181 38.2665 15.8181 38.2665 15.8181C38.2665 15.8181 38.2665 15.8181 38.2665 15.8181C38.2665 15.8181 38.2665 15.8181 38.2665 15.8181C38.2665 15.8181 38.2665 15.8181 38.2665 15.8181C38.2665 15.8181 38.2665 15.8181 38.2665 15.8181C38.2665 15.8181 38.2665 15.8181 38.2665 15.8181C38.2665 15.8181 38.2665 15.8181 38.2665 15.8181C38.2665 15.8181 38.2665 15.8181 38.2665 15.8181C38.2665 15.8181 38.2665 15.8181 38.2665 15.8181C38.2665 15.8181 38.2665 15.8181 38.2665 15.8181C38.2665 15.8181 38.2665 15.8181 38.2665 15.8181C38.2665 15.8181 38.2665 15.8181 38.2665 15.8181C38.2665 15.8181 38.2665 15.8181 38.2665 15.8181C38.2665 15.8181 38.2665 15.8181 38.2665 15.8181C38.2665 15.8181 38.2665 15.8181 38.2665 15.8181C38.2665 15.8181 38.2665 15.8181 38.2665 15.8181C38.2665 15.8181 38.2665 15.8181 38.2665 15.8181C38.2665 15.8181 38.2665 15.8181 38.2665 15.8181C38.2665 15.8181 38.2665 15.8181 38.2665 15.8181V18.8181C38.2665 18.8181 38.2665 18.8181 38.2665 18.8181C38.2665 18.8181 38.2665 18.8181 38.2665 18.8181C38.2665 18.8181 38.2665 18.8181 38.2665 18.8181C38.2665 18.8181 38.2665 18.8181 38.2665 18.8181C38.2665 18.8181 38.2665 18.8181 38.2665 18.8181C38.2665 18.8181 38.2665 18.8181 38.2665 18.8181C38.2665 18.8181 38.2665 18.8181 38.2665 18.8181C38.2665 18.8181 38.2665 18.8181 38.2665 18.8181C38.2665 18.8181 38.2665 18.8181 38.2665 18.8181C38.2665 18.8181 38.2665 18.8181 38.2665 18.8181C38.2665 18.8181 38.2665 18.8181 38.2665 18.8181C38.2665 18.8181 38.2665 18.8181 38.2665 18.8181C38.2665 18.8181 38.2665 18.8181 38.2665 18.8181C38.2665 18.8181 38.2665 18.8181 38.2665 18.8181C38.2665 18.8181 38.2665 18.8181 38.2665 18.8181C38.2665 18.8181 38.2665 18.8181 38.2665 18.8181C38.2665 18.8181 38.2665 18.8181 38.2665 18.8181C38.2665 18.8181 38.2665 18.8181 38.2665 18.8181C38.2665 18.8181 38.2665 18.8181 38.2665 18.8181C38.2665 18.8181 38.2665 18.8181 38.2665 18.8181C38.2665 18.8181 38.2665 18.8181 38.2665 18.8181C38.2665 18.8181 38.2665 18.8181 38.2665 18.8181C38.2665 18.8181 38.2665 18.8181 38.2665 18.8181C38.2665 18.8181 38.2665 18.8181 38.2665 18.8181C38.2665 18.8181 38.2665 18.8181 38.2665 18.8181C38.2665 18.8181 38.2665 18.8181 38.2665 18.8181C38.2665 18.8181 38.2665 18.8181 38.2665 18.8181C38.2665 18.8181 38.2665 18.8181 38.2665 18.8181C38.2665 18.8181 38.2665 18.8181 38.2665 18.8181C38.2665 18.8181 38.2665 18.8181 38.2665 18.8181C38.2665 18.8181 38.2665 18.8181 38.2665 18.8181C38.2665 18.8181 38.2665 18.8181 38.2665 18.8181C38.2665 18.8181 38.2665 18.8181 38.2665 18.8181C38.2665 18.8181 38.2665 18.8181 38.2665 18.8181C38.2665 18.8181 38.2665 18.8181 38.2665 18.8181C38.2665 18.8181 38.2665 18.8181 38.2665 18.8181C38.2665 18.8181 38.2665 18.8181 38.2665 18.8181C38.2665 18.8181 38.2665 18.8181 38.2665 18.8181C38.2665 18.8181 38.2665 18.8181 38.2665 18.8181C38.2665 18.8181 38.2665 18.8181 38.2665 18.8181C38.2665 18.8181 38.2665 18.8181 38.2665 18.8181C38.2665 18.8181 38.2665 18.8181 38.2665 18.8181C38.2665 18.8181 38.2665 18.8181 38.2665 18.8181C38.2665 18.8181 38.2665 18.8181 38.2665 18.8181C38.2665 18.8181 38.2665 18.8181 38.2665 18.8181C38.2665 18.8181 38.2665 18.8181 38.2665 18.8181C38.2665 18.8181 38.2665 18.8181 38.2665 18.8181C38.2665 18.8181 38.2665 18.8181 38.2665 18.8181C38.2665 18.8181 38.2665 18.8181 38.2665 18.8181C38.2665 18.8181 38.2665 18.8181 38.2665 18.8181C38.2665 18.8181 38.2665 18.8181 38.2665 18.8181C38.2665 18.8181 38.2665 18.8181 38.2665 18.8181C38.2665 18.8181 38.2665 18.8181 38.2665 18.8181C38.2665 18.8181 38.2665 18.8181 38.2665 18.8181C38.2665 18.8181 38.2665 18.8181 38.2665 18.8181C38.2665 18.8181 38.2665 18.8181 38.2665 18.8181C38.2665 18.8181 38.2665 18.8181 38.2665 18.8181C38.2665 18.8181 38.2665 18.8181 38.2665 18.8181C38.2665 18.8181 38.2665 18.8181 38.2665 18.8181C38.2665 18.8181 38.2665 18.8181 38.2665 18.8181C38.2665 18.8181 38.2665 18.8181 38.2665 18.8181C38.2665 18.8181 38.2665 18.8181 38.2665 18.8181C38.2665 18.8181 38.2665 18.8181 38.2665 18.8181C38.2665 18.8181 38.2665 18.8181 38.2665 18.8181C38.2665 18.8181 38.2665 18.8181 38.2665 18.8181C38.2665 18.8181 38.2665 18.8181 38.2665 18.8181C38.2665 18.8181 38.2665 18.8181 38.2665 18.8181C38.2665 18.8181 38.2665 18.8181 38.2665 18.8181C38.2665 18.8181 38.2665 18.8181 38.2665 18.8181C38.2665 18.8181 38.2665 18.8181 38.2665 18.8181C38.2665 18.8181 38.2665 18.8181 38.2665 18.8181C38.2665 18.8181 38.2665 18.8181 38.2665 18.8181C38.2665 18.8181 38.2665 18.8181 38.2665 18.8181C38.2665 18.8181 38.2665 18.8181 38.2665 18.8181C38.2665 18.8181 38.2665 18.8181 38.2665 18.8181C38.2665 18.8181 38.2665 18.8181 38.2665 18.8181C38.2665 18.8181 38.2665 18.8181 38.2665 18.8181C38.2665 18.8181 38.2665 18.8181 38.2665 18.8181C38.2665 18.8181 38.2665 18.8181 38.2665 18.8181C38.2665 18.8181 38.2665 18.8181 38.2665 18.8181C38.2665 18.8181 38.2665 18.8181 38.2665 18.8181C38.2665 18.8181 38.2665 18.8181 38.2665 18.8181C38.2665 18.8181 38.2665 18.8181 38.2665 18.8181C38.2665 18.8181 38.2665 18.8181 38.2665 18.8181C38.2666 18.8181 38.2666 18.8181 38.2666 18.8181C38.2666 18.8181 38.2666 18.8181 38.2666 18.8181C38.2666 18.8181 38.2666 18.8181 38.2666 18.8181C38.2666 18.8181 38.2666 18.8181 38.2666 18.8181C38.2666 18.8181 38.2666 18.8181 38.2666 18.8181C38.2666 18.8181 38.2666 18.8181 38.2666 18.8181C38.2666 18.8181 38.2666 18.8181 38.2666 18.8181C38.2666 18.8181 38.2666 18.8181 38.2666 18.8181C38.2666 18.8181 38.2666 18.8181 38.2666 18.8181C38.2666 18.8181 38.2666 18.8181 38.2666 18.8181C38.2666 18.8181 38.2666 18.8181 38.2666 18.8181C38.2666 18.8181 38.2666 18.8181 38.2666 18.8181C38.2666 18.8181 38.2666 18.8181 38.2666 18.8181C38.2666 18.8181 38.2666 18.8181 38.2666 18.8181C38.2666 18.8181 38.2666 18.8181 38.2666 18.8181C38.2666 18.8181 38.2666 18.8181 38.2666 18.8181C38.2666 18.8181 38.2666 18.8181 38.2666 18.8181C38.2666 18.8181 38.2666 18.8181 38.2666 18.8181C38.2666 18.8181 38.2666 18.8181 38.2666 18.8181C38.2666 18.8181 38.2666 18.8181 38.2666 18.8181C38.2666 18.8181 38.2666 18.8181 38.2666 18.8181C38.2666 18.8181 38.2666 18.8181 38.2666 18.8181C38.2666 18.8181 38.2666 18.8181 38.2666 18.8181C38.2666 18.8181 38.2666 18.8181 38.2666 18.8181C38.2666 18.8181 38.2666 18.8181 38.2666 18.8181C38.2666 18.8181 38.2666 18.8181 38.2666 18.8181C38.2666 18.8181 38.2666 18.8181 38.2666 18.8181C38.2666 18.8181 38.2666 18.8181 38.2666 18.8181C38.2666 18.8181 38.2666 18.8181 38.2666 18.8181C38.2666 18.8181 38.2666 18.8181 38.2666 18.8181C38.2666 18.8181 38.2666 18.8181 38.2666 18.8181C38.2666 18.8181 38.2666 18.8181 38.2666 18.8181C38.2666 18.8181 38.2666 18.8181 38.2666 18.8181C38.2666 18.8181 38.2666 18.8181 38.2666 18.8181C38.2666 18.8181 38.2666 18.8181 38.2666 18.8181C38.2666 18.8181 38.2666 18.8181 38.2666 18.8181C38.2666 18.8181 38.2666 18.8181 38.2666 18.8181C38.2666 18.8181 38.2666 18.8181 38.2666 18.8181C38.2666 18.8181 38.2666 18.8181 38.2666 18.8181C38.2666 18.8181 38.2666 18.8181 38.2666 18.8181C38.2666 18.8181 38.2666 18.8181 38.2666 18.8181C38.2666 18.8181 38.2666 18.8181 38.2666 18.8181C38.2666 18.8181 38.2666 18.8181 38.2666 18.8181C38.2666 18.8181 38.2666 18.8181 38.2666 18.8181C38.2666 18.8181 38.2666 18.8181 38.2666 18.8181C38.2666 18.8181 38.2666 18.8181 38.2666 18.8181C38.2666 18.8181 38.2666 18.8181 38.2666 18.8181C38.2666 18.8181 38.2666 18.8181 38.2666 18.8181C38.2666 18.8181 38.2666 18.8181 38.2666 18.8181C38.2666 18.8181 38.2666 18.8181 38.2666 18.8181C38.2666 18.8181 38.2666 18.8181 38.2666 18.8181C38.2666 18.8181 38.2666 18.8181 38.2666 18.8181C38.2666 18.8181 38.2666 18.8181 38.2666 18.8181C38.2666 18.8181 38.2666 18.8181 38.2666 18.8181C38.2666 18.8181 38.2666 18.8181 38.2666 18.8181C38.2666 18.8181 38.2666 18.8181 38.2666 18.8181C38.2666 18.8181 38.2666 18.8181 38.2666 18.8181C38.2666 18.8181 38.2666 18.8181 38.2666 18.8181C38.2666 18.8181 38.2666 18.8181 38.2666 18.8181C38.2666 18.8181 38.2666 18.8181 38.2666 18.8181C38.2666 18.8181 38.2666 18.8181 38.2666 18.8181C38.2666 18.8181 38.2666 18.8181 38.2666 18.8181C38.2666 18.8181 38.2666 18.8181 38.2666 18.8181C38.2666 18.8181 38.2666 18.8181 38.2666 18.8181C38.2666 18.8181 38.2666 18.8181 38.2666 18.8181C38.2666 18.8181 38.2666 18.8181 38.2666 18.8181C38.2666 18.8181 38.2666 18.8181 38.2666 18.8181C38.2666 18.8181 38.2666 18.8181 38.2666 18.8181C38.2666 18.8181 38.2666 18.8181 38.2666 18.8181C38.2666 18.8181 38.2666 18.8181 38.2666 18.8181C38.2666 18.8181 38.2666 18.8181 38.2666 18.8181C38.2666 18.8181 38.2666 18.8181 38.2666 18.8181C38.2666 18.8181 38.2666 18.8181 38.2666 18.8181C38.2666 18.8181 38.2666 18.8181 38.2666 18.8181C38.2666 18.8181 38.2666 18.8181 38.2666 18.8181C38.2666 18.8181 38.2666 18.8181 38.2666 18.8181C38.2666 18.8181 38.2666 18.8181 38.2666 18.8181C38.2666 18.8181 38.2666 18.8181 38.2666 18.8181C38.2666 18.8181 38.2666 18.8181 38.2666 18.8181C38.2666 18.8181 38.2666 18.8181 38.2666 18.8181C38.2666 18.8181 38.2666 18.8181 38.2666 18.8181C38.2666 18.8181 38.2666 18.8181 38.2666 18.8181C38.2666 18.8181 38.2666 18.8181 38.2666 18.8181C38.2666 18.8181 38.2666 18.8181 38.2666 18.8181C38.2666 18.8181 38.2666 18.8181 38.2666 18.8181C38.2666 18.8181 38.2666 18.8181 38.2666 18.8181C38.2666 18.8181 38.2666 18.8181 38.2666 18.8181C38.2666 18.8181 38.2666 18.8181 38.2666 18.8181C38.2666 18.8181 38.2666 18.8181 38.2666 18.8181C38.2666 18.8181 38.2666 18.8181 38.2666 18.8181C38.2666 18.8181 38.2666 18.8181 38.2666 18.8181C38.2666 18.8181 38.2666 18.8181 38.2666 18.8181C38.2666 18.8181 38.2666 18.8181 38.2666 18.8181C38.2666 18.8181 38.2666 18.8181 38.2666 18.8181C38.2666 18.8181 38.2666 18.8181 38.2666 18.8181C38.2666 18.8181 38.2666 18.8181 38.2666 18.8181C38.2666 18.8181 38.2666 18.8181 38.2666 18.8181C38.2666 18.8181 38.2666 18.8181 38.2666 18.8181C38.2666 18.8181 38.2666 18.8181 38.2666 18.8181C38.2666 18.8181 38.2666 18.8181 38.2666 18.8181C38.2666 18.8181 38.2666 18.8181 38.2666 18.8181C38.2666 18.8181 38.2666 18.8181 38.2666 18.8181C38.2666 18.8181 38.2666 18.8181 38.2666 18.8181C38.2666 18.8181 38.2666 18.8181 38.2666 18.8181C38.2666 18.8181 38.2666 18.8181 38.2666 18.8181C38.2666 18.8181 38.2666 18.8181 38.2666 18.8181C38.2666 18.8181 38.2666 18.8181 38.2666 18.8181C38.2666 18.8181 38.2666 18.8181 38.2666 18.8181C38.2666 18.8181 38.2666 18.8181 38.2666 18.8181C38.2666 18.8181 38.2666 18.8181 38.2666 18.8181C38.2666 18.8181 38.2666 18.8181 38.2666 18.8181C38.2666 18.8181 38.2666 18.8181 38.2666 18.8181C38.2666 18.8181 38.2666 18.8181 38.2666 18.8181C38.2666 18.8181 38.2666 18.8181 38.2666 18.8181C38.2666 18.8181 38.2666 18.8181 38.2666 18.8181C38.2666 18.8181 38.2666 18.8181 38.2666 18.8181C38.2666 18.8181 38.2666 18.8181 38.2666 18.8181C38.2666 18.8181 38.2666 18.8181 38.2666 18.8181C38.2666 18.8181 38.2666 18.8181 38.2667 18.8181C38.2667 18.8181 38.2667 18.8181 38.2667 18.8181C38.2667 18.8181 38.2667 18.8181 38.2667 18.8181C38.2667 18.8181 38.2667 18.8181 38.2667 18.8181C38.2667 18.8181 38.2667 18.8181 38.2667 18.8181C38.2667 18.8181 38.2667 18.8181 38.2667 18.8181C38.2667 18.8181 38.2667 18.8181 38.2667 18.8181C38.2667 18.8181 38.2667 18.8181 38.2667 18.8181C38.2667 18.8181 38.2667 18.8181 38.2667 18.8181C38.2667 18.8181 38.2667 18.8181 38.2667 18.8181C38.2667 18.8181 38.2667 18.8181 38.2667 18.8181C38.2667 18.8181 38.2667 18.8181 38.2667 18.8181C38.2667 18.8181 38.2667 18.8181 38.2667 18.8181C38.2667 18.8181 38.2667 18.8181 38.2667 18.8181C38.2667 18.8181 38.2667 18.8181 38.2667 18.8181C38.2667 18.8181 38.2667 18.8181 38.2667 18.8181C38.2667 18.8181 38.2667 18.8181 38.2667 18.8181C38.2667 18.8181 38.2667 18.8181 38.2667 18.8181C38.2667 18.8181 38.2667 18.8181 38.2667 18.8181C38.2667 18.8181 38.2667 18.8181 38.2667 18.8181C38.2667 18.8181 38.2667 18.8181 38.2667 18.8181C38.2667 18.8181 38.2667 18.8181 38.2667 18.8181C38.2667 18.8181 38.2667 18.8181 38.2667 18.8181C38.2667 18.8181 38.2667 18.8181 38.2667 18.8181C38.2667 18.8181 38.2667 18.8181 38.2667 18.8181C38.2667 18.8181 38.2667 18.8181 38.2667 18.8181C38.2667 18.8181 38.2667 18.8181 38.2667 18.8181C38.2667 18.8181 38.2667 18.8181 38.2667 18.8181C38.2667 18.8181 38.2667 18.8181 38.2667 18.8181C38.2667 18.8181 38.2667 18.8181 38.2667 18.8181C38.2667 18.8181 38.2667 18.8181 38.2667 18.8181C38.2667 18.8181 38.2667 18.8181 38.2667 18.8181C38.2667 18.8181 38.2667 18.8181 38.2667 18.8181C38.2667 18.8181 38.2667 18.8181 38.2667 18.8181C38.2667 18.8181 38.2667 18.8181 38.2667 18.8181C38.2667 18.8181 38.2667 18.8181 38.2667 18.8181C38.2667 18.8181 38.2667 18.8181 38.2667 18.8181C38.2667 18.8181 38.2667 18.8181 38.2667 18.8181C38.2667 18.8181 38.2667 18.8181 38.2667 18.8181C38.2667 18.8181 38.2667 18.8181 38.2667 18.8181C38.2667 18.8181 38.2667 18.8181 38.2667 18.8181C38.2667 18.8181 38.2667 18.8181 38.2667 18.8181C38.2667 18.8181 38.2667 18.8181 38.2667 18.8181C38.2667 18.8181 38.2667 18.8181 38.2667 18.8181C38.2667 18.8181 38.2667 18.8181 38.2667 18.8181C38.2667 18.8181 38.2667 18.8181 38.2667 18.8181C38.2667 18.8181 38.2667 18.8181 38.2667 18.8181C38.2667 18.8181 38.2667 18.8181 38.2667 18.8181C38.2667 18.8181 38.2667 18.8181 38.2667 18.8181C38.2667 18.8181 38.2667 18.8181 38.2667 18.8181C38.2667 18.8181 38.2667 18.8181 38.2667 18.8181C38.2667 18.8181 38.2667 18.8181 38.2667 18.8181C38.2667 18.8181 38.2667 18.8181 38.2667 18.8181C38.2667 18.8181 38.2667 18.8181 38.2667 18.8181C38.2667 18.8181 38.2667 18.8181 38.2667 18.8181C38.2667 18.8181 38.2667 18.8181 38.2667 18.8181C38.2667 18.8181 38.2667 18.8181 38.2667 18.8181C38.2667 18.8181 38.2667 18.8181 38.2667 18.8181C38.2667 18.8181 38.2667 18.8181 38.2667 18.8181C38.2667 18.8181 38.2667 18.8181 38.2667 18.8181C38.2667 18.8181 38.2667 18.8181 38.2667 18.8181C38.2667 18.8181 38.2667 18.8181 38.2667 18.8181C38.2667 18.8181 38.2667 18.8181 38.2667 18.8181C38.2667 18.8181 38.2667 18.8181 38.2667 18.8181C38.2667 18.8181 38.2667 18.8181 38.2667 18.8181C38.2667 18.8181 38.2667 18.8181 38.2667 18.8181C38.2667 18.8181 38.2667 18.8181 38.2667 18.8181C38.2667 18.8181 38.2667 18.8181 38.2667 18.8181C38.2667 18.8181 38.2667 18.8181 38.2667 18.8181C38.2667 18.8181 38.2667 18.8181 38.2667 18.8181C38.2667 18.8181 38.2667 18.8181 38.2667 18.8181C38.2667 18.8181 38.2667 18.8181 38.2667 18.8181C38.2667 18.8181 38.2667 18.8181 38.2667 18.8181C38.2667 18.8181 38.2667 18.8181 38.2667 18.8181C38.2667 18.8181 38.2667 18.8181 38.2667 18.8181C38.2667 18.8181 38.2667 18.8181 38.2667 18.8181C38.2667 18.8181 38.2667 18.8181 38.2667 18.8181C38.2667 18.8181 38.2667 18.8181 38.2667 18.8181C38.2667 18.8181 38.2667 18.8181 38.2667 18.8181C38.2667 18.8181 38.2667 18.8181 38.2667 18.8181C38.2667 18.8181 38.2667 18.8181 38.2667 18.8181C38.2667 18.8181 38.2667 18.8181 38.2667 18.8181C38.2667 18.8181 38.2667 18.8181 38.2667 18.8181C38.2667 18.8181 38.2667 18.8181 38.2667 18.8181C38.2667 18.8181 38.2667 18.8181 38.2667 18.8181C38.2667 18.8181 38.2667 18.8181 38.2667 18.8181C38.2667 18.8181 38.2667 18.8181 38.2667 18.8181C38.2667 18.8181 38.2667 18.8181 38.2667 18.8181C38.2667 18.8181 38.2667 18.8181 38.2667 18.8181C38.2667 18.8181 38.2667 18.8181 38.2667 18.8181C38.2667 18.8181 38.2667 18.8181 38.2667 18.8181C38.2667 18.8181 38.2667 18.8181 38.2667 18.8181C38.2667 18.8181 38.2667 18.8181 38.2667 18.8181C38.2667 18.8181 38.2667 18.8181 38.2667 18.8181C38.2667 18.8181 38.2667 18.8181 38.2667 18.8181C38.2667 18.8181 38.2667 18.8181 38.2667 18.8181C38.2667 18.8181 38.2667 18.8181 38.2667 18.8181C38.2667 18.8181 38.2667 18.8181 38.2667 18.8181C38.2667 18.8181 38.2667 18.8181 38.2667 18.8181C38.2667 18.8181 38.2667 18.8181 38.2667 18.8181C38.2667 18.8181 38.2667 18.8181 38.2667 18.8181C38.2667 18.8181 38.2667 18.8181 38.2667 18.8181C38.2667 18.8181 38.2667 18.8181 38.2667 18.8181C38.2667 18.8181 38.2667 18.8181 38.2667 18.8181C38.2667 18.8181 38.2667 18.8181 38.2667 18.8181C38.2667 18.8181 38.2667 18.8181 38.2667 18.8181C38.2667 18.8181 38.2667 18.8181 38.2667 18.8181C38.2667 18.8181 38.2667 18.8181 38.2667 18.8181C38.2667 18.8181 38.2667 18.8181 38.2667 18.8181C38.2667 18.8181 38.2667 18.8181 38.2667 18.8181C38.2667 18.8181 38.2667 18.8181 38.2667 18.8181C38.2667 18.8181 38.2667 18.8181 38.2667 18.8181C38.2667 18.8181 38.2667 18.8181 38.2667 18.8181C38.2667 18.8181 38.2667 18.8181 38.2667 18.8181C38.2667 18.8181 38.2667 18.8181 38.2667 18.8181C38.2667 18.8181 38.2667 18.8181 38.2667 18.8181C38.2667 18.8181 38.2667 18.8181 38.2667 18.8181C38.2667 18.8181 38.2667 18.8181 38.2667 18.8181C38.2667 18.8181 38.2667 18.8181 38.2667 18.8181C38.2667 18.8181 38.2668 18.8181 38.2668 18.8181C38.2668 18.8181 38.2668 18.8181 38.2668 18.8181C38.2668 18.8181 38.2668 18.8181 38.2668 18.8181C38.2668 18.8181 38.2668 18.8181 38.2668 18.8181C38.2668 18.8181 38.2668 18.8181 38.2668 18.8181C38.2668 18.8181 38.2668 18.8181 38.2668 18.8181C38.2668 18.8181 38.2668 18.8181 38.2668 18.8181C38.2668 18.8181 38.2668 18.8181 38.2668 18.8181C38.2668 18.8181 38.2668 18.8181 38.2668 18.8181C38.2668 18.8181 38.2668 18.8181 38.2668 18.8181C38.2668 18.8181 38.2668 18.8181 38.2668 18.8181C38.2668 18.8181 38.2668 18.8181 38.2668 18.8181C38.2668 18.8181 38.2668 18.8181 38.2668 18.8181C38.2668 18.8181 38.2668 18.8181 38.2668 18.8181C38.2668 18.8181 38.2668 18.8181 38.2668 18.8181C38.2668 18.8181 38.2668 18.8181 38.2668 18.8181C38.2668 18.8181 38.2668 18.8181 38.2668 18.8181C38.2668 18.8181 38.2668 18.8181 38.2668 18.8181C38.2668 18.8181 38.2668 18.8181 38.2668 18.8181C38.2668 18.8181 38.2668 18.8181 38.2668 18.8181C38.2668 18.8181 38.2668 18.8181 38.2668 18.8181C38.2668 18.8181 38.2668 18.8181 38.2668 18.8181C38.2668 18.8181 38.2668 18.8181 38.2668 18.8181C38.2668 18.8181 38.2668 18.8181 38.2668 18.8181C38.2668 18.8181 38.2668 18.8181 38.2668 18.8181C38.2668 18.8181 38.2668 18.8181 38.2668 18.8181C38.2668 18.8181 38.2668 18.8181 38.2668 18.8181C38.2668 18.8181 38.2668 18.8181 38.2668 18.8181C38.2668 18.8181 38.2668 18.8181 38.2668 18.8181C38.2668 18.8181 38.2668 18.8181 38.2668 18.8181C38.2668 18.8181 38.2668 18.8181 38.2668 18.8181C38.2668 18.8181 38.2668 18.8181 38.2668 18.8181C38.2668 18.8181 38.2668 18.8181 38.2668 18.8181C38.2668 18.8181 38.2668 18.8181 38.2668 18.8181C38.2668 18.8181 38.2668 18.8181 38.2668 18.8181C38.2668 18.8181 38.2668 18.8181 38.2668 18.8181C38.2668 18.8181 38.2668 18.8181 38.2668 18.8181C38.2668 18.8181 38.2668 18.8181 38.2668 18.8181C38.2668 18.8181 38.2668 18.8181 38.2668 18.8181C38.2668 18.8181 38.2668 18.8181 38.2668 18.8181C38.2668 18.8181 38.2668 18.8181 38.2668 18.8181C38.2668 18.8181 38.2668 18.8181 38.2668 18.8181C38.2668 18.8181 38.2668 18.8181 38.2668 18.8181C38.2668 18.8181 38.2668 18.8181 38.2668 18.8181C38.2668 18.8181 38.2668 18.8181 38.2668 18.8181C38.2668 18.8181 38.2668 18.8181 38.2668 18.8181C38.2668 18.8181 38.2668 18.8181 38.2668 18.8181C38.2668 18.8181 38.2668 18.8181 38.2668 18.8181C38.2668 18.8181 38.2668 18.8181 38.2668 18.8181C38.2668 18.8181 38.2668 18.8181 38.2668 18.8181C38.2668 18.8181 38.2668 18.8181 38.2668 18.8181C38.2668 18.8181 38.2668 18.8181 38.2668 18.8181C38.2668 18.8181 38.2668 18.8181 38.2668 18.8181C38.2668 18.8181 38.2668 18.8181 38.2668 18.8181C38.2668 18.8181 38.2668 18.8181 38.2668 18.8181C38.2668 18.8181 38.2668 18.8181 38.2668 18.8181C38.2668 18.8181 38.2668 18.8181 38.2668 18.8181C38.2668 18.8181 38.2668 18.8181 38.2668 18.8181C38.2668 18.8181 38.2668 18.8181 38.2668 18.8181C38.2668 18.8181 38.2668 18.8181 38.2668 18.8181C38.2668 18.8181 38.2668 18.8181 38.2668 18.8181C38.2668 18.8181 38.2668 18.8181 38.2668 18.8181C38.2668 18.8181 38.2668 18.8181 38.2668 18.8181C38.2668 18.8181 38.2668 18.8181 38.2668 18.8181C38.2668 18.8181 38.2668 18.8181 38.2668 18.8181C38.2668 18.8181 38.2668 18.8181 38.2668 18.8181C38.2668 18.8181 38.2668 18.8181 38.2668 18.8181C38.2668 18.8181 38.2668 18.8181 38.2668 18.8181C38.2668 18.8181 38.2668 18.8181 38.2668 18.8181C38.2668 18.8181 38.2668 18.8181 38.2668 18.8181C38.2668 18.8181 38.2668 18.8181 38.2668 18.8181C38.2668 18.8181 38.2668 18.8181 38.2668 18.8181C38.2668 18.8181 38.2668 18.8181 38.2668 18.8181C38.2668 18.8181 38.2668 18.8181 38.2668 18.8181C38.2668 18.8181 38.2668 18.8181 38.2668 18.8181C38.2668 18.8181 38.2668 18.8181 38.2668 18.8181C38.2668 18.8181 38.2668 18.8181 38.2668 18.8181C38.2668 18.8181 38.2668 18.8181 38.2668 18.8181C38.2668 18.8181 38.2668 18.8181 38.2668 18.8181C38.2668 18.8181 38.2668 18.8181 38.2668 18.8181C38.2668 18.8181 38.2668 18.8181 38.2668 18.8181C38.2668 18.8181 38.2668 18.8181 38.2668 18.8181C38.2668 18.8181 38.2668 18.8181 38.2668 18.8181C38.2668 18.8181 38.2668 18.8181 38.2668 18.8181C38.2668 18.8181 38.2668 18.8181 38.2668 18.8181C38.2668 18.8181 38.2668 18.8181 38.2668 18.8181C38.2668 18.8181 38.2668 18.8181 38.2668 18.8181C38.2668 18.8181 38.2668 18.8181 38.2668 18.8181C38.2668 18.8181 38.2668 18.8181 38.2668 18.8181C38.2668 18.8181 38.2668 18.8181 38.2668 18.8181C38.2668 18.8181 38.2668 18.8181 38.2668 18.8181C38.2668 18.8181 38.2668 18.8181 38.2668 18.8181C38.2668 18.8181 38.2668 18.8181 38.2668 18.8181C38.2668 18.8181 38.2668 18.8181 38.2668 18.8181C38.2668 18.8181 38.2668 18.8181 38.2668 18.8181C38.2668 18.8181 38.2668 18.8181 38.2668 18.8181C38.2668 18.8181 38.2668 18.8181 38.2668 18.8181C38.2668 18.8181 38.2668 18.8181 38.2668 18.8181C38.2668 18.8181 38.2668 18.8181 38.2668 18.8181C38.2668 18.8181 38.2668 18.8181 38.2668 18.8181C38.2668 18.8181 38.2668 18.8181 38.2668 18.8181C38.2668 18.8181 38.2668 18.8181 38.2668 18.8181C38.2668 18.8181 38.2668 18.8181 38.2668 18.8181C38.2668 18.8181 38.2668 18.8181 38.2668 18.8181C38.2668 18.8181 38.2668 18.8181 38.2668 18.8181C38.2668 18.8181 38.2668 18.8181 38.2668 18.8181C38.2668 18.8181 38.2668 18.8181 38.2668 18.8181C38.2668 18.8181 38.2668 18.8181 38.2668 18.8181C38.2668 18.8181 38.2668 18.8181 38.2668 18.8181C38.2668 18.8181 38.2668 18.8181 38.2668 18.8181C38.2668 18.8181 38.2668 18.8181 38.2668 18.8181C38.2668 18.8181 38.2668 18.8181 38.2668 18.8181C38.2668 18.8181 38.2668 18.8181 38.2668 18.8181C38.2668 18.8181 38.2668 18.8181 38.2668 18.8181C38.2668 18.8181 38.2668 18.8181 38.2668 18.8181C38.2668 18.8181 38.2668 18.8181 38.2668 18.8181C38.2668 18.8181 38.2668 18.8181 38.2668 18.8181C38.2668 18.8181 38.2668 18.8181 38.2668 18.8181C38.2668 18.8181 38.2668 18.8181 38.2668 18.8181C38.2669 18.8181 38.2669 18.8181 38.2669 18.8181C38.2669 18.8181 38.2669 18.8181 38.2669 18.8181C38.2669 18.8181 38.2669 18.8181 38.2669 18.8181C38.2669 18.8181 38.2669 18.8181 38.2669 18.8181C38.2669 18.8181 38.2669 18.8181 38.2669 18.8181C38.2669 18.8181 38.2669 18.8181 38.2669 18.8181C38.2669 18.8181 38.2669 18.8181 38.2669 18.8181C38.2669 18.8181 38.2669 18.8181 38.2669 18.8181C38.2669 18.8181 38.2669 18.8181 38.2669 18.8181C38.2669 18.8181 38.2669 18.8181 38.2669 18.8181C38.2669 18.8181 38.2669 18.8181 38.2669 18.8181C38.2669 18.8181 38.2669 18.8181 38.2669 18.8181C38.2669 18.8181 38.2669 18.8181 38.2669 18.8181C38.2669 18.8181 38.2669 18.8181 38.2669 18.8181C38.2669 18.8181 38.2669 18.8181 38.2669 18.8181C38.2669 18.8181 38.2669 18.8181 38.2669 18.8181C38.2669 18.8181 38.2669 18.8181 38.2669 18.8181C38.2669 18.8181 38.2669 18.8181 38.2669 18.8181C38.2669 18.8181 38.2669 18.8181 38.2669 18.8181C38.2669 18.8181 38.2669 18.8181 38.2669 18.8181C38.2669 18.8181 38.2669 18.8181 38.2669 18.8181C38.2669 18.8181 38.2669 18.8181 38.2669 18.8181C38.2669 18.8181 38.2669 18.8181 38.2669 18.8181C38.2669 18.8181 38.2669 18.8181 38.2669 18.8181C38.2669 18.8181 38.2669 18.8181 38.2669 18.8181C38.2669 18.8181 38.2669 18.8181 38.2669 18.8181C38.2669 18.8181 38.2669 18.8181 38.2669 18.8181C38.2669 18.8181 38.2669 18.8181 38.2669 18.8181C38.2669 18.8181 38.2669 18.8181 38.2669 18.8181C38.2669 18.8181 38.2669 18.8181 38.2669 18.8181C38.2669 18.8181 38.2669 18.8181 38.2669 18.8181C38.2669 18.8181 38.2669 18.8181 38.2669 18.8181C38.2669 18.8181 38.2669 18.8181 38.2669 18.8181C38.2669 18.8181 38.2669 18.8181 38.2669 18.8181C38.2669 18.8181 38.2669 18.8181 38.2669 18.8181C38.2669 18.8181 38.2669 18.8181 38.2669 18.8181C38.2669 18.8181 38.2669 18.8181 38.2669 18.8181C38.2669 18.8181 38.2669 18.8181 38.2669 18.8181C38.2669 18.8181 38.2669 18.8181 38.2669 18.8181C38.2669 18.8181 38.2669 18.8181 38.2669 18.8181C38.2669 18.8181 38.2669 18.8181 38.2669 18.8181C38.2669 18.8181 38.2669 18.8181 38.2669 18.8181C38.2669 18.8181 38.2669 18.8181 38.2669 18.8181C38.2669 18.8181 38.2669 18.8181 38.2669 18.8181C38.2669 18.8181 38.2669 18.8181 38.2669 18.8181C38.2669 18.8181 38.2669 18.8181 38.2669 18.8181C38.2669 18.8181 38.2669 18.8181 38.2669 18.8181C38.2669 18.8181 38.2669 18.8181 38.2669 18.8181C38.2669 18.8181 38.2669 18.8181 38.2669 18.8181C38.2669 18.8181 38.2669 18.8181 38.2669 18.8181C38.2669 18.8181 38.2669 18.8181 38.2669 18.8181C38.2669 18.8181 38.2669 18.8181 38.2669 18.8181C38.2669 18.8181 38.2669 18.8181 38.2669 18.8181C38.2669 18.8181 38.2669 18.8181 38.2669 18.8181C38.2669 18.8181 38.2669 18.8181 38.2669 18.8181C38.2669 18.8181 38.2669 18.8181 38.2669 18.8181C38.2669 18.8181 38.2669 18.8181 38.2669 18.8181C38.2669 18.8181 38.2669 18.8181 38.2669 18.8181C38.2669 18.8181 38.2669 18.8181 38.2669 18.8181C38.2669 18.8181 38.2669 18.8181 38.2669 18.8181C38.2669 18.8181 38.2669 18.8181 38.2669 18.8181C38.2669 18.8181 38.2669 18.8181 38.2669 18.8181C38.2669 18.8181 38.2669 18.8181 38.2669 18.8181C38.2669 18.8181 38.2669 18.8181 38.2669 18.8181C38.2669 18.8181 38.2669 18.8181 38.2669 18.8181C38.2669 18.8181 38.2669 18.8181 38.2669 18.8181C38.2669 18.8181 38.2669 18.8181 38.2669 18.8181C38.2669 18.8181 38.2669 18.8181 38.2669 18.8181C38.2669 18.8181 38.2669 18.8181 38.2669 18.8181C38.2669 18.8181 38.2669 18.8181 38.2669 18.8181C38.2669 18.8181 38.2669 18.8181 38.2669 18.8181C38.2669 18.8181 38.2669 18.8181 38.2669 18.8181V15.8181ZM38.2665 15.8181C36.1863 15.8181 34.5 14.1318 34.5 12.0516H31.5C31.5 15.7886 34.5295 18.8181 38.2665 18.8181V15.8181ZM34.5 12.0516C34.5 9.97143 36.1863 8.28512 38.2665 8.28512V5.28512C34.5295 5.28512 31.5 8.31458 31.5 12.0516H34.5ZM38.2665 8.28512C38.7174 8.28512 39.1467 8.36372 39.5435 8.50669L40.5604 5.68431C39.8422 5.4255 39.0691 5.28512 38.2665 5.28512V8.28512ZM41.5006 7.48468C42.1175 5.18844 44.2153 3.5 46.7036 3.5V0.5C42.8241 0.5 39.5634 3.13265 38.6033 6.70632L41.5006 7.48468ZM46.7036 3.5C49.1078 3.5 51.1479 5.07609 51.8394 7.25522L54.6989 6.34777C53.6233 2.9587 50.4526 0.5 46.7036 0.5V3.5ZM53.1516 8.29688C55.0904 8.44923 56.6173 10.0728 56.6173 12.0516H59.6173C59.6173 8.49476 56.8739 5.58014 53.3866 5.3061L53.1516 8.29688ZM56.6173 12.0516C56.6173 14.1317 54.9311 15.818 52.851 15.8181L52.8511 18.8181C56.588 18.818 59.6173 15.7885 59.6173 12.0516H56.6173ZM51.351 17.3181V17.3181H54.351V17.3181H51.351ZM52.851 15.8181L38.2669 15.8181V18.8181H52.851V15.8181ZM39.7669 17.3181V17.3181H36.7669V17.3181H39.7669Z" fill="#437ADA"/>
<path opacity="0.2" d="M18.2513 89.3181L18.2513 87.8181L18.2458 87.8181L18.2513 89.3181ZM19.6707 81.0975L19.1623 82.5087L20.6962 83.0614L21.1193 81.4867L19.6707 81.0975ZM30.2993 80.8612L28.8696 81.3149L29.175 82.2774L30.1818 82.3566L30.2993 80.8612ZM29.9466 89.3181L29.9521 87.8181H29.9466V89.3181ZM18.2458 87.8181C18.2421 87.8181 18.2385 87.8181 18.2351 87.8181V90.8181C18.2424 90.8181 18.2497 90.8181 18.2569 90.8181L18.2458 87.8181ZM18.2351 87.8181C16.7245 87.8181 15.5 86.5936 15.5 85.0831H12.5C12.5 88.2504 15.0677 90.8181 18.2351 90.8181V87.8181ZM15.5 85.0831C15.5 83.5725 16.7245 82.348 18.2351 82.348V79.348C15.0677 79.348 12.5 81.9157 12.5 85.0831H15.5ZM18.2351 82.348C18.5632 82.348 18.8747 82.4051 19.1623 82.5087L20.1791 79.6863C19.5701 79.4669 18.9148 79.348 18.2351 79.348V82.348ZM21.1193 81.4867C21.5818 79.7653 23.1548 78.5 25.0196 78.5V75.5C21.7637 75.5 19.0277 77.7095 18.222 80.7083L21.1193 81.4867ZM25.0196 78.5C26.8213 78.5 28.3511 79.681 28.8696 81.3149L31.729 80.4075C30.8266 77.5636 28.166 75.5 25.0196 75.5V78.5ZM30.1818 82.3566C31.5892 82.4672 32.6979 83.6464 32.6979 85.0831H35.6979C35.6979 82.0683 33.3727 79.5981 30.4168 79.3658L30.1818 82.3566ZM32.6979 85.0831C32.6979 86.5936 31.4733 87.8181 29.9628 87.8181V90.8181C33.1302 90.8181 35.6979 88.2504 35.6979 85.0831H32.6979ZM29.9628 87.8181C29.9593 87.8181 29.9558 87.8181 29.9521 87.8181L29.941 90.8181C29.9482 90.8181 29.9555 90.8181 29.9628 90.8181V87.8181ZM29.9466 87.8181H18.2513V90.8181H29.9466V87.8181Z" fill="#437ADA"/>
<path d="M67.0407 77.7081C77.9023 77.7081 86.7074 68.903 86.7074 58.0414C86.7074 47.1798 77.9023 38.3748 67.0407 38.3748C56.1791 38.3748 47.374 47.1798 47.374 58.0414C47.374 68.903 56.1791 77.7081 67.0407 77.7081Z" stroke="#437ADA" stroke-width="5" stroke-linecap="round" stroke-linejoin="round"/>
<path d="M91.6273 82.6249L80.9336 71.9312" stroke="#437ADA" stroke-width="5" stroke-linecap="round" stroke-linejoin="round"/>
<path opacity="0.3" d="M92 10H106.5" stroke="#437ADA" stroke-width="3" stroke-linecap="round"/>
<path opacity="0.3" d="M25 46H29" stroke="#437ADA" stroke-width="3" stroke-linecap="round"/>
<path opacity="0.3" d="M2 46L14 46" stroke="#437ADA" stroke-width="3" stroke-linecap="round"/>
<path opacity="0.3" d="M126 73H130" stroke="#437ADA" stroke-width="3" stroke-linecap="round"/>
<path opacity="0.3" d="M108 73L120 73" stroke="#437ADA" stroke-width="3" stroke-linecap="round"/>
</svg>
