<svg width="1425" height="899" viewBox="0 0 1425 899" fill="none" xmlns="http://www.w3.org/2000/svg">
<g opacity="0.3">
<rect width="2" height="2" fill="#96BCFE"/>
<rect x="94.8086" width="2" height="2" fill="#96BCFE"/>
<rect x="189.617" width="2" height="2" fill="#96BCFE"/>
<rect x="284.426" width="2" height="2" fill="#96BCFE"/>
<rect x="379.236" width="2" height="2" fill="#96BCFE"/>
<rect x="474.045" width="2" height="2" fill="#96BCFE"/>
<rect x="568.854" width="2" height="2" fill="#96BCFE"/>
<rect x="663.662" width="2" height="2" fill="#96BCFE"/>
<rect x="758.471" width="2" height="2" fill="#96BCFE"/>
<rect x="853.279" width="2" height="2" fill="#96BCFE"/>
<rect x="948.088" width="2" height="2" fill="#96BCFE"/>
<rect x="1042.9" width="2" height="2" fill="#96BCFE"/>
<rect x="1138" width="2" height="2" fill="#96BCFE"/>
<rect x="1233" width="2" height="2" fill="#96BCFE"/>
<rect x="1327.81" width="2" height="2" fill="#96BCFE"/>
<rect x="1422.91" width="2" height="2" fill="#96BCFE"/>
</g>
<g opacity="0.3">
<rect y="39" width="2" height="2" fill="#96BCFE"/>
<rect x="94.8086" y="39" width="2" height="2" fill="#96BCFE"/>
<rect x="189.617" y="39" width="2" height="2" fill="#96BCFE"/>
<rect x="284.426" y="39" width="2" height="2" fill="#96BCFE"/>
<rect x="379.236" y="39" width="2" height="2" fill="#96BCFE"/>
<rect x="474.045" y="39" width="2" height="2" fill="#96BCFE"/>
<rect x="568.854" y="39" width="2" height="2" fill="#96BCFE"/>
<rect x="663.662" y="39" width="2" height="2" fill="#96BCFE"/>
<rect x="758.471" y="39" width="2" height="2" fill="#96BCFE"/>
<rect x="853.279" y="39" width="2" height="2" fill="#96BCFE"/>
<rect x="948.088" y="39" width="2" height="2" fill="#96BCFE"/>
<rect x="1042.9" y="39" width="2" height="2" fill="#96BCFE"/>
<rect x="1138" y="39" width="2" height="2" fill="#96BCFE"/>
<rect x="1233" y="39" width="2" height="2" fill="#96BCFE"/>
<rect x="1327.81" y="39" width="2" height="2" fill="#96BCFE"/>
<rect x="1422.91" y="39" width="2" height="2" fill="#96BCFE"/>
</g>
<g opacity="0.3">
<rect y="78" width="2" height="2" fill="#96BCFE"/>
<rect x="94.8086" y="78" width="2" height="2" fill="#96BCFE"/>
<rect x="189.617" y="78" width="2" height="2" fill="#96BCFE"/>
<rect x="284.426" y="78" width="2" height="2" fill="#96BCFE"/>
<rect x="379.236" y="78" width="2" height="2" fill="#96BCFE"/>
<rect x="474.045" y="78" width="2" height="2" fill="#96BCFE"/>
<rect x="568.854" y="78" width="2" height="2" fill="#96BCFE"/>
<rect x="663.662" y="78" width="2" height="2" fill="#96BCFE"/>
<rect x="758.471" y="78" width="2" height="2" fill="#96BCFE"/>
<rect x="853.279" y="78" width="2" height="2" fill="#96BCFE"/>
<rect x="948.088" y="78" width="2" height="2" fill="#96BCFE"/>
<rect x="1042.9" y="78" width="2" height="2" fill="#96BCFE"/>
<rect x="1138" y="78" width="2" height="2" fill="#96BCFE"/>
<rect x="1233" y="78" width="2" height="2" fill="#96BCFE"/>
<rect x="1327.81" y="78" width="2" height="2" fill="#96BCFE"/>
<rect x="1422.91" y="78" width="2" height="2" fill="#96BCFE"/>
</g>
<g opacity="0.3">
<rect y="117" width="2" height="2" fill="#96BCFE"/>
<rect x="94.8086" y="117" width="2" height="2" fill="#96BCFE"/>
<rect x="189.617" y="117" width="2" height="2" fill="#96BCFE"/>
<rect x="284.426" y="117" width="2" height="2" fill="#96BCFE"/>
<rect x="379.236" y="117" width="2" height="2" fill="#96BCFE"/>
<rect x="474.045" y="117" width="2" height="2" fill="#96BCFE"/>
<rect x="568.854" y="117" width="2" height="2" fill="#96BCFE"/>
<rect x="663.662" y="117" width="2" height="2" fill="#96BCFE"/>
<rect x="758.471" y="117" width="2" height="2" fill="#96BCFE"/>
<rect x="853.279" y="117" width="2" height="2" fill="#96BCFE"/>
<rect x="948.088" y="117" width="2" height="2" fill="#96BCFE"/>
<rect x="1042.9" y="117" width="2" height="2" fill="#96BCFE"/>
<rect x="1138" y="117" width="2" height="2" fill="#96BCFE"/>
<rect x="1233" y="117" width="2" height="2" fill="#96BCFE"/>
<rect x="1327.81" y="117" width="2" height="2" fill="#96BCFE"/>
<rect x="1422.91" y="117" width="2" height="2" fill="#96BCFE"/>
</g>
<g opacity="0.3">
<rect y="156" width="2" height="2" fill="#96BCFE"/>
<rect x="94.8086" y="156" width="2" height="2" fill="#96BCFE"/>
<rect x="189.617" y="156" width="2" height="2" fill="#96BCFE"/>
<rect x="284.426" y="156" width="2" height="2" fill="#96BCFE"/>
<rect x="379.236" y="156" width="2" height="2" fill="#96BCFE"/>
<rect x="474.045" y="156" width="2" height="2" fill="#96BCFE"/>
<rect x="568.854" y="156" width="2" height="2" fill="#96BCFE"/>
<rect x="663.662" y="156" width="2" height="2" fill="#96BCFE"/>
<rect x="758.471" y="156" width="2" height="2" fill="#96BCFE"/>
<rect x="853.279" y="156" width="2" height="2" fill="#96BCFE"/>
<rect x="948.088" y="156" width="2" height="2" fill="#96BCFE"/>
<rect x="1042.9" y="156" width="2" height="2" fill="#96BCFE"/>
<rect x="1138" y="156" width="2" height="2" fill="#96BCFE"/>
<rect x="1233" y="156" width="2" height="2" fill="#96BCFE"/>
<rect x="1327.81" y="156" width="2" height="2" fill="#96BCFE"/>
<rect x="1422.91" y="156" width="2" height="2" fill="#96BCFE"/>
</g>
<g opacity="0.3">
<rect y="195" width="2" height="2" fill="#96BCFE"/>
<rect x="94.8086" y="195" width="2" height="2" fill="#96BCFE"/>
<rect x="189.617" y="195" width="2" height="2" fill="#96BCFE"/>
<rect x="284.426" y="195" width="2" height="2" fill="#96BCFE"/>
<rect x="379.236" y="195" width="2" height="2" fill="#96BCFE"/>
<rect x="474.045" y="195" width="2" height="2" fill="#96BCFE"/>
<rect x="568.854" y="195" width="2" height="2" fill="#96BCFE"/>
<rect x="663.662" y="195" width="2" height="2" fill="#96BCFE"/>
<rect x="758.471" y="195" width="2" height="2" fill="#96BCFE"/>
<rect x="853.279" y="195" width="2" height="2" fill="#96BCFE"/>
<rect x="948.088" y="195" width="2" height="2" fill="#96BCFE"/>
<rect x="1042.9" y="195" width="2" height="2" fill="#96BCFE"/>
<rect x="1138" y="195" width="2" height="2" fill="#96BCFE"/>
<rect x="1233" y="195" width="2" height="2" fill="#96BCFE"/>
<rect x="1327.81" y="195" width="2" height="2" fill="#96BCFE"/>
<rect x="1422.91" y="195" width="2" height="2" fill="#96BCFE"/>
</g>
<g opacity="0.3">
<rect y="234" width="2" height="2" fill="#96BCFE"/>
<rect x="94.8086" y="234" width="2" height="2" fill="#96BCFE"/>
<rect x="189.617" y="234" width="2" height="2" fill="#96BCFE"/>
<rect x="284.426" y="234" width="2" height="2" fill="#96BCFE"/>
<rect x="379.236" y="234" width="2" height="2" fill="#96BCFE"/>
<rect x="474.045" y="234" width="2" height="2" fill="#96BCFE"/>
<rect x="568.854" y="234" width="2" height="2" fill="#96BCFE"/>
<rect x="663.662" y="234" width="2" height="2" fill="#96BCFE"/>
<rect x="758.471" y="234" width="2" height="2" fill="#96BCFE"/>
<rect x="853.279" y="234" width="2" height="2" fill="#96BCFE"/>
<rect x="948.088" y="234" width="2" height="2" fill="#96BCFE"/>
<rect x="1042.9" y="234" width="2" height="2" fill="#96BCFE"/>
<rect x="1138" y="234" width="2" height="2" fill="#96BCFE"/>
<rect x="1233" y="234" width="2" height="2" fill="#96BCFE"/>
<rect x="1327.81" y="234" width="2" height="2" fill="#96BCFE"/>
<rect x="1422.91" y="234" width="2" height="2" fill="#96BCFE"/>
</g>
<g opacity="0.3">
<rect y="273" width="2" height="2" fill="#96BCFE"/>
<rect x="94.8086" y="273" width="2" height="2" fill="#96BCFE"/>
<rect x="189.617" y="273" width="2" height="2" fill="#96BCFE"/>
<rect x="284.426" y="273" width="2" height="2" fill="#96BCFE"/>
<rect x="379.236" y="273" width="2" height="2" fill="#96BCFE"/>
<rect x="474.045" y="273" width="2" height="2" fill="#96BCFE"/>
<rect x="568.854" y="273" width="2" height="2" fill="#96BCFE"/>
<rect x="663.662" y="273" width="2" height="2" fill="#96BCFE"/>
<rect x="758.471" y="273" width="2" height="2" fill="#96BCFE"/>
<rect x="853.279" y="273" width="2" height="2" fill="#96BCFE"/>
<rect x="948.088" y="273" width="2" height="2" fill="#96BCFE"/>
<rect x="1042.9" y="273" width="2" height="2" fill="#96BCFE"/>
<rect x="1138" y="273" width="2" height="2" fill="#96BCFE"/>
<rect x="1233" y="273" width="2" height="2" fill="#96BCFE"/>
<rect x="1327.81" y="273" width="2" height="2" fill="#96BCFE"/>
<rect x="1422.91" y="273" width="2" height="2" fill="#96BCFE"/>
</g>
<g opacity="0.3">
<rect y="312" width="2" height="2" fill="#96BCFE"/>
<rect x="94.8086" y="312" width="2" height="2" fill="#96BCFE"/>
<rect x="189.617" y="312" width="2" height="2" fill="#96BCFE"/>
<rect x="284.426" y="312" width="2" height="2" fill="#96BCFE"/>
<rect x="379.236" y="312" width="2" height="2" fill="#96BCFE"/>
<rect x="474.045" y="312" width="2" height="2" fill="#96BCFE"/>
<rect x="568.854" y="312" width="2" height="2" fill="#96BCFE"/>
<rect x="663.662" y="312" width="2" height="2" fill="#96BCFE"/>
<rect x="758.471" y="312" width="2" height="2" fill="#96BCFE"/>
<rect x="853.279" y="312" width="2" height="2" fill="#96BCFE"/>
<rect x="948.088" y="312" width="2" height="2" fill="#96BCFE"/>
<rect x="1042.9" y="312" width="2" height="2" fill="#96BCFE"/>
<rect x="1138" y="312" width="2" height="2" fill="#96BCFE"/>
<rect x="1233" y="312" width="2" height="2" fill="#96BCFE"/>
<rect x="1327.81" y="312" width="2" height="2" fill="#96BCFE"/>
<rect x="1422.91" y="312" width="2" height="2" fill="#96BCFE"/>
</g>
<g opacity="0.3">
<rect y="351" width="2" height="2" fill="#96BCFE"/>
<rect x="94.8086" y="351" width="2" height="2" fill="#96BCFE"/>
<rect x="189.617" y="351" width="2" height="2" fill="#96BCFE"/>
<rect x="284.426" y="351" width="2" height="2" fill="#96BCFE"/>
<rect x="379.236" y="351" width="2" height="2" fill="#96BCFE"/>
<rect x="474.045" y="351" width="2" height="2" fill="#96BCFE"/>
<rect x="568.854" y="351" width="2" height="2" fill="#96BCFE"/>
<rect x="663.662" y="351" width="2" height="2" fill="#96BCFE"/>
<rect x="758.471" y="351" width="2" height="2" fill="#96BCFE"/>
<rect x="853.279" y="351" width="2" height="2" fill="#96BCFE"/>
<rect x="948.088" y="351" width="2" height="2" fill="#96BCFE"/>
<rect x="1042.9" y="351" width="2" height="2" fill="#96BCFE"/>
<rect x="1138" y="351" width="2" height="2" fill="#96BCFE"/>
<rect x="1233" y="351" width="2" height="2" fill="#96BCFE"/>
<rect x="1327.81" y="351" width="2" height="2" fill="#96BCFE"/>
<rect x="1422.91" y="351" width="2" height="2" fill="#96BCFE"/>
</g>
<g opacity="0.3">
<rect y="390" width="2" height="2" fill="#96BCFE"/>
<rect x="94.8086" y="390" width="2" height="2" fill="#96BCFE"/>
<rect x="189.617" y="390" width="2" height="2" fill="#96BCFE"/>
<rect x="284.426" y="390" width="2" height="2" fill="#96BCFE"/>
<rect x="379.236" y="390" width="2" height="2" fill="#96BCFE"/>
<rect x="474.045" y="390" width="2" height="2" fill="#96BCFE"/>
<rect x="568.854" y="390" width="2" height="2" fill="#96BCFE"/>
<rect x="663.662" y="390" width="2" height="2" fill="#96BCFE"/>
<rect x="758.471" y="390" width="2" height="2" fill="#96BCFE"/>
<rect x="853.279" y="390" width="2" height="2" fill="#96BCFE"/>
<rect x="948.088" y="390" width="2" height="2" fill="#96BCFE"/>
<rect x="1042.9" y="390" width="2" height="2" fill="#96BCFE"/>
<rect x="1138" y="390" width="2" height="2" fill="#96BCFE"/>
<rect x="1233" y="390" width="2" height="2" fill="#96BCFE"/>
<rect x="1327.81" y="390" width="2" height="2" fill="#96BCFE"/>
<rect x="1422.91" y="390" width="2" height="2" fill="#96BCFE"/>
</g>
<g opacity="0.3">
<rect y="429" width="2" height="2" fill="#96BCFE"/>
<rect x="94.8086" y="429" width="2" height="2" fill="#96BCFE"/>
<rect x="189.617" y="429" width="2" height="2" fill="#96BCFE"/>
<rect x="284.426" y="429" width="2" height="2" fill="#96BCFE"/>
<rect x="379.236" y="429" width="2" height="2" fill="#96BCFE"/>
<rect x="474.045" y="429" width="2" height="2" fill="#96BCFE"/>
<rect x="568.854" y="429" width="2" height="2" fill="#96BCFE"/>
<rect x="663.662" y="429" width="2" height="2" fill="#96BCFE"/>
<rect x="758.471" y="429" width="2" height="2" fill="#96BCFE"/>
<rect x="853.279" y="429" width="2" height="2" fill="#96BCFE"/>
<rect x="948.088" y="429" width="2" height="2" fill="#96BCFE"/>
<rect x="1042.9" y="429" width="2" height="2" fill="#96BCFE"/>
<rect x="1138" y="429" width="2" height="2" fill="#96BCFE"/>
<rect x="1233" y="429" width="2" height="2" fill="#96BCFE"/>
<rect x="1327.81" y="429" width="2" height="2" fill="#96BCFE"/>
<rect x="1422.91" y="429" width="2" height="2" fill="#96BCFE"/>
</g>
<g opacity="0.3">
<rect y="468" width="2" height="2" fill="#96BCFE"/>
<rect x="94.8086" y="468" width="2" height="2" fill="#96BCFE"/>
<rect x="189.617" y="468" width="2" height="2" fill="#96BCFE"/>
<rect x="284.426" y="468" width="2" height="2" fill="#96BCFE"/>
<rect x="379.236" y="468" width="2" height="2" fill="#96BCFE"/>
<rect x="474.045" y="468" width="2" height="2" fill="#96BCFE"/>
<rect x="568.854" y="468" width="2" height="2" fill="#96BCFE"/>
<rect x="663.662" y="468" width="2" height="2" fill="#96BCFE"/>
<rect x="758.471" y="468" width="2" height="2" fill="#96BCFE"/>
<rect x="853.279" y="468" width="2" height="2" fill="#96BCFE"/>
<rect x="948.088" y="468" width="2" height="2" fill="#96BCFE"/>
<rect x="1042.9" y="468" width="2" height="2" fill="#96BCFE"/>
<rect x="1138" y="468" width="2" height="2" fill="#96BCFE"/>
<rect x="1233" y="468" width="2" height="2" fill="#96BCFE"/>
<rect x="1327.81" y="468" width="2" height="2" fill="#96BCFE"/>
<rect x="1422.91" y="468" width="2" height="2" fill="#96BCFE"/>
</g>
<g opacity="0.3">
<rect y="507" width="2" height="2" fill="#96BCFE"/>
<rect x="94.8086" y="507" width="2" height="2" fill="#96BCFE"/>
<rect x="189.617" y="507" width="2" height="2" fill="#96BCFE"/>
<rect x="284.426" y="507" width="2" height="2" fill="#96BCFE"/>
<rect x="379.236" y="507" width="2" height="2" fill="#96BCFE"/>
<rect x="474.045" y="507" width="2" height="2" fill="#96BCFE"/>
<rect x="568.854" y="507" width="2" height="2" fill="#96BCFE"/>
<rect x="663.662" y="507" width="2" height="2" fill="#96BCFE"/>
<rect x="758.471" y="507" width="2" height="2" fill="#96BCFE"/>
<rect x="853.279" y="507" width="2" height="2" fill="#96BCFE"/>
<rect x="948.088" y="507" width="2" height="2" fill="#96BCFE"/>
<rect x="1042.9" y="507" width="2" height="2" fill="#96BCFE"/>
<rect x="1138" y="507" width="2" height="2" fill="#96BCFE"/>
<rect x="1233" y="507" width="2" height="2" fill="#96BCFE"/>
<rect x="1327.81" y="507" width="2" height="2" fill="#96BCFE"/>
<rect x="1422.91" y="507" width="2" height="2" fill="#96BCFE"/>
</g>
<g opacity="0.3">
<rect y="546" width="2" height="2" fill="#96BCFE"/>
<rect x="94.8086" y="546" width="2" height="2" fill="#96BCFE"/>
<rect x="189.617" y="546" width="2" height="2" fill="#96BCFE"/>
<rect x="284.426" y="546" width="2" height="2" fill="#96BCFE"/>
<rect x="379.236" y="546" width="2" height="2" fill="#96BCFE"/>
<rect x="474.045" y="546" width="2" height="2" fill="#96BCFE"/>
<rect x="568.854" y="546" width="2" height="2" fill="#96BCFE"/>
<rect x="663.662" y="546" width="2" height="2" fill="#96BCFE"/>
<rect x="758.471" y="546" width="2" height="2" fill="#96BCFE"/>
<rect x="853.279" y="546" width="2" height="2" fill="#96BCFE"/>
<rect x="948.088" y="546" width="2" height="2" fill="#96BCFE"/>
<rect x="1042.9" y="546" width="2" height="2" fill="#96BCFE"/>
<rect x="1138" y="546" width="2" height="2" fill="#96BCFE"/>
<rect x="1233" y="546" width="2" height="2" fill="#96BCFE"/>
<rect x="1327.81" y="546" width="2" height="2" fill="#96BCFE"/>
<rect x="1422.91" y="546" width="2" height="2" fill="#96BCFE"/>
</g>
<g opacity="0.3">
<rect y="585" width="2" height="2" fill="#96BCFE"/>
<rect x="94.8086" y="585" width="2" height="2" fill="#96BCFE"/>
<rect x="189.617" y="585" width="2" height="2" fill="#96BCFE"/>
<rect x="284.426" y="585" width="2" height="2" fill="#96BCFE"/>
<rect x="379.236" y="585" width="2" height="2" fill="#96BCFE"/>
<rect x="474.045" y="585" width="2" height="2" fill="#96BCFE"/>
<rect x="568.854" y="585" width="2" height="2" fill="#96BCFE"/>
<rect x="663.662" y="585" width="2" height="2" fill="#96BCFE"/>
<rect x="758.471" y="585" width="2" height="2" fill="#96BCFE"/>
<rect x="853.279" y="585" width="2" height="2" fill="#96BCFE"/>
<rect x="948.088" y="585" width="2" height="2" fill="#96BCFE"/>
<rect x="1042.9" y="585" width="2" height="2" fill="#96BCFE"/>
<rect x="1138" y="585" width="2" height="2" fill="#96BCFE"/>
<rect x="1233" y="585" width="2" height="2" fill="#96BCFE"/>
<rect x="1327.81" y="585" width="2" height="2" fill="#96BCFE"/>
<rect x="1422.91" y="585" width="2" height="2" fill="#96BCFE"/>
</g>
<g opacity="0.3">
<rect y="624" width="2" height="2" fill="#96BCFE"/>
<rect x="94.8086" y="624" width="2" height="2" fill="#96BCFE"/>
<rect x="189.617" y="624" width="2" height="2" fill="#96BCFE"/>
<rect x="284.426" y="624" width="2" height="2" fill="#96BCFE"/>
<rect x="379.236" y="624" width="2" height="2" fill="#96BCFE"/>
<rect x="474.045" y="624" width="2" height="2" fill="#96BCFE"/>
<rect x="568.854" y="624" width="2" height="2" fill="#96BCFE"/>
<rect x="663.662" y="624" width="2" height="2" fill="#96BCFE"/>
<rect x="758.471" y="624" width="2" height="2" fill="#96BCFE"/>
<rect x="853.279" y="624" width="2" height="2" fill="#96BCFE"/>
<rect x="948.088" y="624" width="2" height="2" fill="#96BCFE"/>
<rect x="1042.9" y="624" width="2" height="2" fill="#96BCFE"/>
<rect x="1138" y="624" width="2" height="2" fill="#96BCFE"/>
<rect x="1233" y="624" width="2" height="2" fill="#96BCFE"/>
<rect x="1327.81" y="624" width="2" height="2" fill="#96BCFE"/>
<rect x="1422.91" y="624" width="2" height="2" fill="#96BCFE"/>
</g>
<g opacity="0.3">
<rect y="663" width="2" height="2" fill="#96BCFE"/>
<rect x="94.8086" y="663" width="2" height="2" fill="#96BCFE"/>
<rect x="189.617" y="663" width="2" height="2" fill="#96BCFE"/>
<rect x="284.426" y="663" width="2" height="2" fill="#96BCFE"/>
<rect x="379.236" y="663" width="2" height="2" fill="#96BCFE"/>
<rect x="474.045" y="663" width="2" height="2" fill="#96BCFE"/>
<rect x="568.854" y="663" width="2" height="2" fill="#96BCFE"/>
<rect x="663.662" y="663" width="2" height="2" fill="#96BCFE"/>
<rect x="758.471" y="663" width="2" height="2" fill="#96BCFE"/>
<rect x="853.279" y="663" width="2" height="2" fill="#96BCFE"/>
<rect x="948.088" y="663" width="2" height="2" fill="#96BCFE"/>
<rect x="1042.9" y="663" width="2" height="2" fill="#96BCFE"/>
<rect x="1138" y="663" width="2" height="2" fill="#96BCFE"/>
<rect x="1233" y="663" width="2" height="2" fill="#96BCFE"/>
<rect x="1327.81" y="663" width="2" height="2" fill="#96BCFE"/>
<rect x="1422.91" y="663" width="2" height="2" fill="#96BCFE"/>
</g>
<g opacity="0.3">
<rect y="702" width="2" height="2" fill="#96BCFE"/>
<rect x="94.8086" y="702" width="2" height="2" fill="#96BCFE"/>
<rect x="189.617" y="702" width="2" height="2" fill="#96BCFE"/>
<rect x="284.426" y="702" width="2" height="2" fill="#96BCFE"/>
<rect x="379.236" y="702" width="2" height="2" fill="#96BCFE"/>
<rect x="474.045" y="702" width="2" height="2" fill="#96BCFE"/>
<rect x="568.854" y="702" width="2" height="2" fill="#96BCFE"/>
<rect x="663.662" y="702" width="2" height="2" fill="#96BCFE"/>
<rect x="758.471" y="702" width="2" height="2" fill="#96BCFE"/>
<rect x="853.279" y="702" width="2" height="2" fill="#96BCFE"/>
<rect x="948.088" y="702" width="2" height="2" fill="#96BCFE"/>
<rect x="1042.9" y="702" width="2" height="2" fill="#96BCFE"/>
<rect x="1138" y="702" width="2" height="2" fill="#96BCFE"/>
<rect x="1233" y="702" width="2" height="2" fill="#96BCFE"/>
<rect x="1327.81" y="702" width="2" height="2" fill="#96BCFE"/>
<rect x="1422.91" y="702" width="2" height="2" fill="#96BCFE"/>
</g>
<g opacity="0.3">
<rect y="741" width="2" height="2" fill="#96BCFE"/>
<rect x="94.8086" y="741" width="2" height="2" fill="#96BCFE"/>
<rect x="189.617" y="741" width="2" height="2" fill="#96BCFE"/>
<rect x="284.426" y="741" width="2" height="2" fill="#96BCFE"/>
<rect x="379.236" y="741" width="2" height="2" fill="#96BCFE"/>
<rect x="474.045" y="741" width="2" height="2" fill="#96BCFE"/>
<rect x="568.854" y="741" width="2" height="2" fill="#96BCFE"/>
<rect x="663.662" y="741" width="2" height="2" fill="#96BCFE"/>
<rect x="758.471" y="741" width="2" height="2" fill="#96BCFE"/>
<rect x="853.279" y="741" width="2" height="2" fill="#96BCFE"/>
<rect x="948.088" y="741" width="2" height="2" fill="#96BCFE"/>
<rect x="1042.9" y="741" width="2" height="2" fill="#96BCFE"/>
<rect x="1138" y="741" width="2" height="2" fill="#96BCFE"/>
<rect x="1233" y="741" width="2" height="2" fill="#96BCFE"/>
<rect x="1327.81" y="741" width="2" height="2" fill="#96BCFE"/>
<rect x="1422.91" y="741" width="2" height="2" fill="#96BCFE"/>
</g>
<g opacity="0.3">
<rect y="780" width="2" height="2" fill="#96BCFE"/>
<rect x="94.8086" y="780" width="2" height="2" fill="#96BCFE"/>
<rect x="189.617" y="780" width="2" height="2" fill="#96BCFE"/>
<rect x="284.426" y="780" width="2" height="2" fill="#96BCFE"/>
<rect x="379.236" y="780" width="2" height="2" fill="#96BCFE"/>
<rect x="474.045" y="780" width="2" height="2" fill="#96BCFE"/>
<rect x="568.854" y="780" width="2" height="2" fill="#96BCFE"/>
<rect x="663.662" y="780" width="2" height="2" fill="#96BCFE"/>
<rect x="758.471" y="780" width="2" height="2" fill="#96BCFE"/>
<rect x="853.279" y="780" width="2" height="2" fill="#96BCFE"/>
<rect x="948.088" y="780" width="2" height="2" fill="#96BCFE"/>
<rect x="1042.9" y="780" width="2" height="2" fill="#96BCFE"/>
<rect x="1138" y="780" width="2" height="2" fill="#96BCFE"/>
<rect x="1233" y="780" width="2" height="2" fill="#96BCFE"/>
<rect x="1327.81" y="780" width="2" height="2" fill="#96BCFE"/>
<rect x="1422.91" y="780" width="2" height="2" fill="#96BCFE"/>
</g>
<g opacity="0.3">
<rect y="819" width="2" height="2" fill="#96BCFE"/>
<rect x="94.8086" y="819" width="2" height="2" fill="#96BCFE"/>
<rect x="189.617" y="819" width="2" height="2" fill="#96BCFE"/>
<rect x="284.426" y="819" width="2" height="2" fill="#96BCFE"/>
<rect x="379.236" y="819" width="2" height="2" fill="#96BCFE"/>
<rect x="474.045" y="819" width="2" height="2" fill="#96BCFE"/>
<rect x="568.854" y="819" width="2" height="2" fill="#96BCFE"/>
<rect x="663.662" y="819" width="2" height="2" fill="#96BCFE"/>
<rect x="758.471" y="819" width="2" height="2" fill="#96BCFE"/>
<rect x="853.279" y="819" width="2" height="2" fill="#96BCFE"/>
<rect x="948.088" y="819" width="2" height="2" fill="#96BCFE"/>
<rect x="1042.9" y="819" width="2" height="2" fill="#96BCFE"/>
<rect x="1138" y="819" width="2" height="2" fill="#96BCFE"/>
<rect x="1233" y="819" width="2" height="2" fill="#96BCFE"/>
<rect x="1327.81" y="819" width="2" height="2" fill="#96BCFE"/>
<rect x="1422.91" y="819" width="2" height="2" fill="#96BCFE"/>
</g>
<g opacity="0.3">
<rect y="858" width="2" height="2" fill="#96BCFE"/>
<rect x="94.8086" y="858" width="2" height="2" fill="#96BCFE"/>
<rect x="189.617" y="858" width="2" height="2" fill="#96BCFE"/>
<rect x="284.426" y="858" width="2" height="2" fill="#96BCFE"/>
<rect x="379.236" y="858" width="2" height="2" fill="#96BCFE"/>
<rect x="474.045" y="858" width="2" height="2" fill="#96BCFE"/>
<rect x="568.854" y="858" width="2" height="2" fill="#96BCFE"/>
<rect x="663.662" y="858" width="2" height="2" fill="#96BCFE"/>
<rect x="758.471" y="858" width="2" height="2" fill="#96BCFE"/>
<rect x="853.279" y="858" width="2" height="2" fill="#96BCFE"/>
<rect x="948.088" y="858" width="2" height="2" fill="#96BCFE"/>
<rect x="1042.9" y="858" width="2" height="2" fill="#96BCFE"/>
<rect x="1138" y="858" width="2" height="2" fill="#96BCFE"/>
<rect x="1233" y="858" width="2" height="2" fill="#96BCFE"/>
<rect x="1327.81" y="858" width="2" height="2" fill="#96BCFE"/>
<rect x="1422.91" y="858" width="2" height="2" fill="#96BCFE"/>
</g>
<g opacity="0.3">
<rect y="897" width="2" height="2" fill="#96BCFE"/>
<rect x="94.8086" y="897" width="2" height="2" fill="#96BCFE"/>
<rect x="189.617" y="897" width="2" height="2" fill="#96BCFE"/>
<rect x="284.426" y="897" width="2" height="2" fill="#96BCFE"/>
<rect x="379.236" y="897" width="2" height="2" fill="#96BCFE"/>
<rect x="474.045" y="897" width="2" height="2" fill="#96BCFE"/>
<rect x="568.854" y="897" width="2" height="2" fill="#96BCFE"/>
<rect x="663.662" y="897" width="2" height="2" fill="#96BCFE"/>
<rect x="758.471" y="897" width="2" height="2" fill="#96BCFE"/>
<rect x="853.279" y="897" width="2" height="2" fill="#96BCFE"/>
<rect x="948.088" y="897" width="2" height="2" fill="#96BCFE"/>
<rect x="1042.9" y="897" width="2" height="2" fill="#96BCFE"/>
<rect x="1138" y="897" width="2" height="2" fill="#96BCFE"/>
<rect x="1233" y="897" width="2" height="2" fill="#96BCFE"/>
<rect x="1327.81" y="897" width="2" height="2" fill="#96BCFE"/>
<rect x="1422.91" y="897" width="2" height="2" fill="#96BCFE"/>
</g>
</svg>
