<svg width="200" height="38" viewBox="0 0 200 38" fill="none" xmlns="http://www.w3.org/2000/svg">
<path d="M14.392 9.1095L14.3004 11.8985C12.5688 11.7681 10.9373 11.7032 9.407 11.7032C9.38941 13.3433 9.38032 15.161 9.38032 17.1739C9.38032 20.2884 9.42761 23.2368 9.52219 26.0137H5.88623C5.999 23.2605 6.05478 20.3121 6.05478 17.1739C6.05478 15.1961 6.03719 13.3724 6.00142 11.7032C4.78155 11.7032 3.10635 11.7742 0.974609 11.9106L1.08132 9.1101H14.392V9.1095Z" fill="#3766B0"/>
<path d="M28.8869 13.5325C28.8869 15.6048 28.1169 17.1327 26.5805 18.121C25.0441 19.1038 23.1579 19.6009 20.9262 19.6009C20.5175 19.6009 20.2277 19.5888 20.0555 19.5712C20.0555 21.1997 20.1028 23.3485 20.1974 26.0131H16.5469C16.6596 23.5146 16.7154 20.5662 16.7154 17.1733C16.7154 14.0533 16.659 11.365 16.5469 9.10895H18.8084C19.1279 9.10895 19.7439 9.09136 20.6527 9.06772C21.5616 9.04407 22.3491 9.02649 23.0149 9.02649C24.661 9.02649 26.0494 9.39936 27.1832 10.1457C28.3169 10.8921 28.8869 12.0222 28.8869 13.5325ZM25.5358 14.2485C25.5358 12.3951 24.3075 11.4717 21.8471 11.4717C21.2311 11.4717 20.583 11.5366 19.8991 11.6669C19.9937 13.3009 20.041 15.1543 20.041 17.2206C20.2598 17.2382 20.5084 17.2503 20.7958 17.2503C23.9546 17.2509 25.5358 16.2499 25.5358 14.2485Z" fill="#3766B0"/>
<path d="M89.5769 22.8402L89.355 25.8304C88.1267 26.1263 86.9129 26.2743 85.7197 26.2743C82.7506 26.2743 80.4855 25.4515 78.9316 23.8115C77.3801 22.1714 76.6016 20.1761 76.6016 17.8316C76.6016 15.3979 77.4273 13.2783 79.0765 11.4782C80.7256 9.67807 82.9871 8.77832 85.8615 8.77832C86.9183 8.77832 87.9193 8.90261 88.8603 9.13967L88.4074 12.1415C87.3858 11.8159 86.406 11.6497 85.4705 11.6497C83.7146 11.6497 82.4063 12.2063 81.5477 13.3195C80.6923 14.4327 80.263 15.7823 80.263 17.375C80.263 19.0035 80.7723 20.4126 81.7909 21.6082C82.8064 22.8044 84.233 23.4022 86.0689 23.4022C87.1433 23.4022 88.3098 23.2131 89.5769 22.8402Z" fill="#3766B0"/>
<path d="M107.823 17.1561C107.823 19.8147 107.006 22.0174 105.378 23.7635C103.749 25.5163 101.739 26.3864 99.3383 26.3864C97.0525 26.3864 95.1403 25.5873 93.6009 23.9763C92.0585 22.3721 91.2891 20.3288 91.2891 17.8539C91.2891 15.1953 92.1033 12.9926 93.7282 11.2465C95.3567 9.49369 97.3696 8.62366 99.7675 8.62366C102.053 8.62366 103.969 9.42276 105.508 11.0276C107.047 12.6264 107.823 14.669 107.823 17.1561ZM104.235 17.529C104.235 15.7228 103.773 14.2549 102.846 13.1297C101.92 12.0044 100.777 11.4423 99.4183 11.4423C98.1542 11.4423 97.0798 12.011 96.1976 13.1418C95.3155 14.2786 94.8711 15.7113 94.8711 17.4404C94.8711 19.2405 95.3385 20.709 96.2686 21.8397C97.198 22.9644 98.3409 23.5331 99.6911 23.5331C100.955 23.5331 102.03 22.9644 102.912 21.8221C103.797 20.6847 104.235 19.2521 104.235 17.529Z" fill="#3766B0"/>
<path d="M124.625 25.9188H121.416C121.416 25.5635 120.226 23.6925 117.845 20.2997C115.353 16.7237 113.932 14.2779 113.589 12.958H113.375C113.594 14.8588 113.701 16.5697 113.701 18.103C113.701 20.2402 113.76 22.8455 113.885 25.9188H110.688C110.818 23.2366 110.883 20.2881 110.883 17.079C110.883 13.9172 110.818 11.2295 110.688 9.01465H114.548C114.548 9.47058 115.614 11.3004 117.757 14.5035C120.031 17.9078 121.339 20.2172 121.677 21.425H121.872C121.665 19.4945 121.558 17.7659 121.558 16.2326C121.558 13.8881 121.498 11.478 121.38 9.01525H124.625C124.501 11.1585 124.441 13.8468 124.441 17.0796C124.441 20.3294 124.501 23.2778 124.625 25.9188Z" fill="#3766B0"/>
<path d="M142.301 26.0134H139.092C139.092 25.6581 137.902 23.7871 135.522 20.3943C133.029 16.8183 131.608 14.3725 131.265 13.0526H131.057C131.271 14.9534 131.377 16.6643 131.377 18.1977C131.377 20.3349 131.442 22.9401 131.561 26.0134H128.369C128.499 23.3312 128.558 20.3827 128.558 17.1736C128.558 14.0118 128.499 11.3241 128.369 9.10925H132.223C132.223 9.56519 133.295 11.395 135.433 14.5981C137.706 18.0024 139.015 20.3118 139.352 21.5196H139.547C139.34 19.5891 139.239 17.8606 139.239 16.3272C139.239 13.9827 139.175 11.5726 139.056 9.10986H142.301C142.182 11.2531 142.117 13.9414 142.117 17.1742C142.118 20.424 142.183 23.3724 142.301 26.0134Z" fill="#3766B0"/>
<path d="M157.198 23.1595L157.092 26.0133H146.043C146.156 23.402 146.208 20.4536 146.208 17.1735C146.208 14.0177 146.155 11.3294 146.043 9.10913H156.588L156.446 11.9515C153.847 11.8096 151.491 11.7441 149.377 11.7441C149.466 12.9458 149.507 14.3669 149.507 16.0009C151.319 16.0009 153.255 15.9536 155.316 15.859V18.571C153.291 18.4879 151.355 18.4467 149.507 18.4467C149.507 20.1995 149.543 21.845 149.614 23.379C151.988 23.3783 154.516 23.3074 157.198 23.1595Z" fill="#3766B0"/>
<path d="M172.172 22.9347L171.953 25.9249C170.721 26.2208 169.507 26.3687 168.317 26.3687C165.345 26.3687 163.083 25.546 161.532 23.906C159.975 22.2659 159.199 20.2706 159.199 17.926C159.199 15.4924 160.022 13.3727 161.674 11.5726C163.32 9.77255 165.582 8.8728 168.459 8.8728C169.513 8.8728 170.514 8.99709 171.455 9.23416L171.005 12.2359C169.981 11.9104 169.004 11.7442 168.068 11.7442C166.31 11.7442 165.001 12.3008 164.142 13.414C163.29 14.5271 162.858 15.8768 162.858 17.4695C162.858 19.098 163.367 20.507 164.385 21.7027C165.404 22.8983 166.831 23.4967 168.667 23.4967C169.738 23.4967 170.91 23.3075 172.172 22.9347Z" fill="#3766B0"/>
<path d="M186.589 9.10925L186.494 11.8982C184.765 11.7679 183.131 11.703 181.598 11.703C181.585 13.343 181.574 15.1607 181.574 17.1736C181.574 20.2882 181.621 23.2366 181.716 26.0134H178.08C178.193 23.2602 178.246 20.3118 178.246 17.1736C178.246 15.1959 178.234 13.3721 178.199 11.703C176.979 11.703 175.304 11.7739 173.172 11.9103L173.273 9.10986H186.589V9.10925Z" fill="#3766B0"/>
<path d="M199.778 21.4066C199.778 24.7874 197.344 26.4807 192.483 26.4807C190.826 26.4807 189.292 26.2855 187.871 25.8829L188.505 22.9879C189.908 23.4735 191.234 23.716 192.483 23.716C193.863 23.716 194.864 23.5796 195.467 23.3134C196.071 23.0473 196.379 22.5968 196.379 21.9632C196.379 21.306 196.089 20.7494 195.521 20.2995C195.024 19.903 194.029 19.3816 192.519 18.7426C191.151 18.1563 190.133 17.5112 189.47 16.8182C188.629 15.9475 188.209 14.8701 188.209 13.5854C188.209 12.0994 188.759 10.9328 189.866 10.0919C190.967 9.25098 192.555 8.83081 194.621 8.83081C196.32 8.83081 197.747 8.97875 198.896 9.2631L198.416 12.1467C197.25 11.7204 195.983 11.507 194.621 11.507C192.578 11.507 191.56 12.0515 191.56 13.147C191.56 13.7273 191.797 14.1953 192.276 14.5621C192.691 14.8701 193.591 15.3079 194.988 15.8705C196.468 16.4683 197.576 17.1256 198.31 17.8483C199.292 18.8074 199.778 19.9915 199.778 21.4066Z" fill="#3766B0"/>
<mask id="mask0" mask-type="alpha" maskUnits="userSpaceOnUse" x="32" y="0" width="31" height="32">
<circle cx="47.3742" cy="15.8991" r="15.1574" fill="#C4C4C4"/>
</mask>
<g mask="url(#mask0)">
<path d="M69.3351 14.6627C69.1513 14.2365 68.8822 13.8339 68.6687 13.4131C68.5269 13.1287 68.4262 12.8329 68.4171 12.4715C68.1716 12.6789 67.8902 12.6492 67.8278 12.4594C67.7569 12.2581 67.5404 12.2108 67.4192 12.0805C67.2621 11.9149 67.0578 11.867 66.8122 11.8967C66.4157 11.9325 66.0071 11.9089 65.6579 11.79C65.3887 11.6955 65.1607 11.6482 64.8618 11.6421C64.5926 11.636 64.3173 11.4584 64.1924 11.2159C64.1276 11.0916 64.0239 10.9909 63.8281 11.0976C63.6413 11.1983 63.7129 11.305 63.8371 11.4117C63.9408 11.4948 64.0324 11.5833 64.0797 11.7021C64.1033 11.7615 64.1154 11.8622 64.2779 11.7731C64.3786 11.7197 64.4289 11.844 64.4289 11.921C64.4289 12.1162 64.5653 12.0865 64.7308 12.0453C64.9558 11.998 65.0625 11.8319 65.2638 11.7373C65.3111 11.9386 65.3765 12.0986 65.693 12.1459C65.9919 12.1932 66.0247 12.4891 65.7846 12.7146C65.6191 12.8686 65.5154 13.076 65.2516 13.1645C65.2134 13.1766 65.2013 13.2415 65.1686 13.253C64.5708 13.3834 64.1706 13.8217 63.5164 13.869C63.3715 13.8812 63.226 13.9933 63.0459 13.9636C62.9095 13.7684 62.9307 13.5137 62.6731 13.3658C62.6609 13.3537 62.6555 13.3185 62.664 13.3064C62.744 13.1882 62.7234 13.1936 62.6579 13.099C62.5009 12.868 62.1814 12.7201 62.0837 12.4655C61.9473 12.1041 61.6636 11.8143 61.3822 11.5239C61.2992 11.4354 61.2076 11.3935 61.0712 11.459C61.2458 11.8022 61.438 12.1338 61.6902 12.4479C61.7551 12.5249 61.8176 12.6019 61.8236 12.7025C61.8358 12.9808 62.0722 13.1882 62.2438 13.3955C62.4481 13.638 62.7676 13.8217 63.0374 14.0352C63.0435 14.3195 63.1502 14.3905 63.4903 14.2898C63.7747 14.2067 64.0827 14.2189 64.3634 14.1297C64.5174 14.0764 64.4938 14.177 64.4938 14.2425C64.4968 14.5147 64.3192 14.7342 64.1827 14.9707C63.8572 15.5273 63.2442 15.8941 62.741 16.3324C62.282 16.735 62.0716 17.1612 62.3529 17.6826C62.5009 17.9609 62.516 18.2568 62.4863 18.5587C62.4687 18.76 62.3529 18.8783 62.1371 18.9553C62.0098 19.0026 61.8946 19.062 61.7818 19.1329C61.4708 19.3281 61.2846 19.524 61.4532 19.8611C61.5272 20.0151 61.4411 20.2042 61.1925 20.2873C61.0118 20.3467 60.9142 20.4352 60.9233 20.6068C60.9324 20.7608 60.8433 20.9027 60.6808 21.0155C60.4291 21.1992 60.2545 21.4302 60.006 21.6133C59.781 21.7849 59.4967 21.8267 59.2184 21.8443C59.0171 21.8503 58.8219 21.874 58.626 21.9037C58.3774 21.9395 58.1107 21.8091 58.1761 21.6254C58.2295 21.4775 58.1434 21.3883 58.0876 21.2822C57.993 21.1046 57.8954 20.933 57.7766 20.7729C57.6669 20.6189 57.5959 20.4649 57.6111 20.2812C57.6438 19.9496 57.4068 19.6834 57.2291 19.4106C57.0102 19.0729 57.0102 18.7473 57.2115 18.4217C57.3595 18.1792 57.3595 17.9543 57.3243 17.6814C57.2534 17.1843 56.9575 16.7932 56.6137 16.4028C56.5252 16.3021 56.4985 16.2136 56.5725 16.1008C56.6137 16.0414 56.6404 15.9705 56.6556 15.8995C56.7441 15.4612 56.6731 15.3963 56.102 15.4139C55.9716 15.4139 55.9304 15.3666 55.8771 15.2957C55.6994 15.0471 55.3945 14.964 55.0689 15.0944C54.7578 15.2187 54.465 15.3605 54.0891 15.2484C53.9794 15.2187 53.8047 15.2362 53.7071 15.2841C53.4288 15.4206 53.2336 15.3314 53.0117 15.2011C52.7037 15.0174 52.3424 14.8816 52.2569 14.5378C52.2423 14.4784 52.1708 14.4074 52.0998 14.3723C51.7743 14.2183 51.6584 13.9812 51.5966 13.7029C51.5669 13.5726 51.6827 13.5016 51.73 13.4186C51.8543 13.1876 51.8749 12.939 51.7597 12.7613C51.5851 12.4952 51.7955 12.2993 51.9137 12.1399C52.0441 11.9744 52.1653 11.7846 52.3254 11.6191C52.5061 11.4299 52.808 11.382 52.9887 11.2044C53.0626 11.1274 53.1366 11.074 53.1275 10.9618C53.1099 10.7781 53.2251 10.6363 53.4294 10.5356C53.5865 10.4525 53.749 10.3816 53.8229 10.2276C53.9145 10.0263 53.7963 9.87839 53.5301 9.88445C53.3967 9.89051 53.2457 9.63587 53.3197 9.49339C53.4143 9.31574 53.4646 9.15022 53.4264 8.94893C53.4028 8.8307 53.5895 8.78341 53.7253 8.80706C53.9236 8.85435 54.1218 8.8307 54.3231 8.84829C54.4862 8.86041 54.7051 8.91922 54.773 8.71793C54.8409 8.5227 54.7875 8.35112 54.5838 8.2147C54.5481 8.185 54.4977 8.17348 54.4535 8.15529C54.3825 8.11952 54.2401 8.11952 54.2643 8.03706C54.294 7.92429 54.445 7.97764 54.5426 7.954C54.6166 7.93641 54.8385 8.108 54.7675 7.85941C54.75 7.8 54.8324 7.84729 54.8742 7.85335C55.1228 7.88912 55.2799 7.81758 55.3302 7.62235H55.3241C55.5642 7.62235 55.7564 7.569 55.8213 7.36771C55.8777 7.19006 56.0759 7.20764 56.236 7.19006C56.4609 7.16642 56.618 7.13064 56.4433 6.91783C56.3663 6.82931 56.39 6.71654 56.4997 6.64561C56.618 6.56254 56.7574 6.4619 56.8138 6.6929C56.8259 6.74625 56.8168 6.86448 56.9854 6.81113C57.1303 6.76383 57.1188 6.68683 57.0563 6.60377C57.0387 6.57406 57.003 6.55042 56.9914 6.52677C56.9053 6.3079 56.7756 6.3079 56.5561 6.44371C56.3366 6.57952 56.1093 6.491 56.0468 6.27213C55.9286 5.81619 56.1032 5.63855 56.6865 5.64461C56.8314 5.65067 56.8641 5.57367 56.9023 5.49061C56.9526 5.37238 57.0472 5.27719 57.1661 5.18867C57.2491 5.12926 57.5038 5.10561 57.317 4.93403C57.2903 4.91038 57.3849 4.8928 57.4207 4.88067C57.8942 4.72061 58.3677 4.5848 58.8982 4.61997C59.0729 4.62603 59.2505 4.51932 59.4191 4.60784C59.8811 4.85036 60.4346 4.86855 60.9439 4.98678C61.027 5.01042 61.1452 4.9989 61.1543 5.08742C61.1634 5.18807 61.0391 5.20019 60.95 5.23536C60.7044 5.336 60.4582 5.19959 60.2127 5.23536C60.263 5.37723 60.3043 5.52577 60.5474 5.54336C60.6122 5.567 60.6626 5.62642 60.7547 5.59065C60.7456 5.49607 60.645 5.52577 60.5831 5.50759C60.6068 5.35965 60.7371 5.41907 60.8317 5.43059C60.9415 5.44817 61.0063 5.50759 61.0833 5.35965C61.1428 5.24688 61.3647 5.17048 61.5896 5.24688C61.5247 5.12259 61.4714 5.02194 61.4089 4.89765C61.5835 4.9213 61.8054 4.82671 61.7848 5.08681C61.7757 5.18746 61.9212 5.16381 61.9861 5.11652C62.131 5.00375 62.3238 4.98011 62.4984 4.92736C62.6112 4.88613 62.7707 4.79094 62.8507 4.97465C62.9895 4.89765 63.1702 4.92736 63.3036 4.86794C63.6916 4.68423 64.0706 4.7673 64.4525 4.86794C64.5799 4.89765 64.7072 4.93282 64.8406 4.96859C64.8703 4.8443 64.7575 4.8443 64.6866 4.81459C64.4113 4.71394 64.361 4.39988 64.6005 4.26407C64.6775 4.22284 65.0328 4.33501 65.0503 4.42413C65.0679 4.51326 65.1007 4.56601 65.228 4.57207C65.2189 4.70849 65.3111 4.797 65.4529 4.86248C65.5154 4.92736 65.5596 4.98678 65.5208 5.0759C65.5033 5.11713 65.3462 5.14684 65.4675 5.21232C65.5324 5.24809 65.6306 5.2299 65.6809 5.17655C65.7343 5.11713 65.8228 5.05226 65.7221 4.97526C65.6542 4.9219 65.5742 4.87461 65.5002 4.82732C65.4172 4.7388 65.4499 4.56661 65.2219 4.57267C65.2395 4.47809 65.3729 4.38351 65.2128 4.27074C65.4317 4.30045 65.3699 4.51932 65.5621 4.54297C65.6003 4.57267 65.6657 4.59632 65.6864 4.56055C65.7161 4.50113 65.636 4.52478 65.6003 4.51326C65.5439 4.40049 65.6178 4.36532 65.7391 4.37138C65.8367 4.37138 65.9374 4.38351 66.0265 4.38351C66.0944 4.30651 65.9289 4.28286 65.9762 4.21193C66.0592 4.17616 66.1538 4.21799 66.2369 4.19435C66.3375 4.17676 66.5594 4.29499 66.5152 4.07005C66.5121 4.05793 66.6334 4.0167 66.6989 4.01064C67.0305 3.96335 67.3591 3.88635 67.7053 3.90999C67.8357 3.91605 67.9303 3.89787 68.0339 3.80328C68.194 3.64928 68.4929 3.63776 68.6645 3.72628C68.8658 3.82693 69.0525 3.8148 69.2508 3.82087C69.4139 3.82087 69.5673 3.85057 69.7243 3.88028C69.908 3.90999 69.9195 3.99305 69.7952 4.0937C69.6825 4.12341 69.5764 4.15857 69.4812 4.23012C69.6382 4.26589 69.7595 4.24224 69.8456 4.13553C69.9195 4.11795 69.9965 4.08824 70.0766 4.12341C70.4937 4.30105 70.9824 4.3247 71.4031 4.27134C71.7172 4.23557 71.9925 4.24164 72.2762 4.29499C72.5187 4.33622 72.6697 4.53205 72.9274 4.57328C73.0074 4.58541 73.0929 4.65634 73.1226 4.52599C73.1402 4.43747 73.2293 4.49022 73.2881 4.49022C73.4597 4.49022 73.6313 4.49628 73.8035 4.49628C73.8714 4.49628 74.0017 4.53751 73.9102 4.4017C73.8599 4.33076 73.9811 4.34228 74.0199 4.34834C74.411 4.37199 74.8105 4.36593 75.1864 4.43686C75.5799 4.51386 75.968 4.56722 76.3736 4.56722C76.6694 4.56722 76.9774 4.55509 77.22 4.7388C77.2527 4.75638 77.3176 4.75638 77.3649 4.75638C77.8535 4.75638 78.3446 4.75638 78.8242 4.85703C78.8539 4.76851 78.709 4.76245 78.7205 4.67938C79.4578 4.7388 80.189 4.8158 80.8996 4.99344C81.3319 5.10015 81.7787 5.15896 82.2201 5.22444C82.3086 5.23657 82.4244 5.23657 82.4481 5.33722C82.4838 5.51486 82.4511 5.53244 82.2171 5.52092C81.9861 5.51486 81.8236 5.37905 81.6011 5.34328C81.3907 5.30751 81.29 5.37905 81.2458 5.48515C81.1955 5.61551 81.3937 5.60944 81.4859 5.65067C81.5986 5.71009 81.7611 5.70403 81.8739 5.8459C81.4622 5.72161 81.2433 5.86348 81.0833 6.09448C81.0657 6.12419 81.0421 6.14177 81.0208 6.16542C80.8226 6.05871 80.6152 6.20119 80.42 6.15936C80.2957 6.12358 80.1296 6.16542 80.1387 6.20665C80.1563 6.30123 80.0883 6.46129 80.3042 6.491C80.5261 6.51465 80.5885 6.722 80.8074 6.75171C80.674 6.91723 80.8784 7.08942 80.8074 7.25494C80.7983 7.27858 80.7632 7.30829 80.7716 7.31981C80.822 7.40287 80.9105 7.51504 80.7747 7.56233C80.6474 7.60962 80.5588 7.47381 80.4667 7.41439C80.2181 7.24281 79.9695 7.07123 79.7355 6.88752C79.5669 6.76323 79.4572 6.63894 79.6227 6.43158C79.8446 6.15936 79.8004 5.94594 79.5633 5.80407C79.5251 5.82165 79.5099 5.84529 79.5396 5.875C79.6282 5.98171 79.5015 6.01688 79.436 6.06417C79.3529 6.11752 79.2941 6.05204 79.2347 6.01081C79.1753 5.96958 79.1486 5.89258 79.0601 5.89258C78.9503 5.89258 78.8175 5.82771 78.7345 5.93381C78.6544 6.03446 78.6963 6.15875 78.8557 6.29517C78.6575 6.32487 78.4914 6.33094 78.2816 6.29517C77.8881 6.23029 77.4643 6.25394 77.0563 6.31275C76.9289 6.33639 76.9174 6.4431 76.8932 6.52617C76.8604 6.65046 76.8489 6.78081 76.7246 6.88752C76.5943 7.00029 76.7604 7.00029 76.8459 7.01787C76.9586 7.04758 77.1151 7.00575 77.1599 7.14216C77.1721 7.17187 77.2163 7.17794 77.2606 7.17187C77.6632 7.107 77.7965 7.14823 78.0094 7.39681C78.3762 7.81697 78.5035 8.26139 78.2701 8.74703C78.1961 8.90103 78.11 9.00168 77.8554 8.94226C77.6571 8.89497 77.5862 9.01926 77.5831 9.13749C77.5831 9.25572 77.5564 9.34484 77.4382 9.42791C77.2873 9.53461 77.4649 9.57584 77.5358 9.61707C77.7517 9.74136 77.9948 9.84201 78.0597 10.073C78.0773 10.15 78.0924 10.2094 77.9972 10.2567C77.879 10.3161 77.7547 10.3871 77.6153 10.3634C77.5025 10.3398 77.571 10.2391 77.5413 10.1858C77.4552 10.0318 77.4643 9.81291 77.1563 9.7832C77.0854 9.77713 77.0259 9.75349 76.9932 9.69468C76.8331 9.39274 76.727 9.38061 76.3863 9.61161C76.3032 9.57584 76.3032 9.49884 76.2887 9.44003C76.2741 9.38668 76.3566 9.30968 76.2353 9.2921C76.1614 9.27451 76.1171 9.33939 76.0753 9.38062C76.0546 9.3982 76.0456 9.42791 76.0219 9.43397C75.643 9.59403 75.8618 9.69468 76.0662 9.82503C76.1462 9.87232 76.1789 9.84868 76.2408 9.83109C76.4481 9.76622 76.4481 9.77168 76.7501 9.83716C76.67 9.88445 76.6021 9.91416 76.5427 9.96145C76.2911 10.1506 76.3238 10.1864 76.5518 10.3816C76.7561 10.5532 77.0757 10.7011 77.0017 11.0031C76.9956 11.0328 77.0193 11.0564 77.0429 11.0504C77.3539 10.9909 77.1763 11.1631 77.1672 11.228C77.1169 11.6009 76.9538 11.9446 76.5664 12.1932C76.3414 12.3412 76.0601 12.4182 75.7788 12.4891C75.6484 12.5188 75.5066 12.5127 75.4708 12.6492C75.4083 12.6255 75.3998 12.5546 75.3168 12.5546C75.0148 12.4006 74.8784 12.6019 74.719 12.7262C74.5535 12.8626 74.6511 12.9869 74.7784 13.099C74.9057 13.2057 75.0421 13.3125 75.1719 13.4186C75.335 13.555 75.4502 13.7029 75.4768 13.8921C75.5035 14.0994 75.4502 14.2589 75.1749 14.3419C74.9767 14.4068 74.9378 14.6142 74.7099 14.656C74.5795 14.3656 74.3164 14.1704 73.9611 14.0346C73.7537 13.9576 73.7568 13.9515 73.6858 14.1473C73.5761 14.4493 73.7156 14.7336 74.0351 14.9464C74.263 15.0883 74.4971 15.2423 74.4819 15.5151C74.4759 15.6752 74.7069 15.7934 74.6656 16.0008C74.4467 15.8644 74.2509 15.7401 74.0587 15.6097C73.9757 15.5564 73.9047 15.4854 73.9078 15.3908C73.9138 15.1247 73.7744 14.941 73.4755 14.793C73.3099 14.71 73.4221 14.5087 73.4458 14.3783C73.5021 14.0115 73.2802 13.6975 73.1675 13.3658C73.1171 13.2239 73.0074 13.3597 72.9425 13.3895C72.8419 13.4307 72.7709 13.5313 72.6285 13.4604C72.5011 13.407 72.5454 13.3125 72.5545 13.2294C72.5781 13.0342 72.3532 12.945 72.2495 12.8032C72.2083 12.7437 72.0864 12.7086 72.0749 12.6492C72.007 12.3648 71.7997 12.3769 71.5329 12.4655C71.4529 12.4952 71.3728 12.5188 71.2752 12.4715C71.2128 12.4418 71.1151 12.4776 71.0976 12.5249C70.9405 12.9159 70.4282 13.0754 70.1766 13.401C70.1202 13.4719 69.9608 13.4483 69.9074 13.5374C69.8098 13.6502 69.8189 13.7447 69.9698 13.8217C69.9698 13.8515 69.9729 13.8866 69.9729 13.9163C69.751 14.0527 69.9523 14.2358 69.8692 14.3898H69.8722C69.7037 14.3898 69.757 14.4905 69.7419 14.5614C69.7328 14.5736 69.7182 14.579 69.7037 14.579C69.6625 14.5851 69.6412 14.6027 69.6473 14.6384H69.6534C69.5703 14.6324 69.5673 14.6797 69.5733 14.7215H69.4315H69.4345C69.4266 14.6803 69.3854 14.6687 69.3351 14.6627ZM57.9312 9.49399C57.8688 9.49399 57.8069 9.50005 57.742 9.50005C57.7329 9.49399 57.7275 9.48247 57.7299 9.47641L57.6675 9.41699C57.6026 9.37576 57.5492 9.32847 57.4783 9.29876C57.1467 9.17447 56.8538 9.02654 56.6907 8.74825C56.6404 8.65973 56.5307 8.68883 56.433 8.73612C56.3088 8.79554 56.1875 8.91377 56.0396 8.89012C55.7788 8.84283 55.5691 8.80706 55.5242 9.08535C55.5151 9.12112 55.4175 9.15022 55.3587 9.17387C55.2726 9.2151 55.1635 9.23874 55.1247 9.31574C54.944 9.67709 54.6863 9.9669 54.1327 10.0027C54.1267 10.0087 54.1182 10.0148 54.1091 10.0203C54.0467 10.05 53.9939 10.0912 54.0024 10.1506C54.0115 10.2215 54.1061 10.2337 54.1655 10.2276C54.3813 10.2276 54.6184 10.3107 54.796 10.1209C54.8639 10.05 54.9943 10.0203 55.1186 10.0081C55.5418 9.9669 55.965 9.91355 56.3918 9.87778C56.7853 9.84201 56.9514 10.0081 56.815 10.2979C56.7677 10.3925 56.815 10.4222 56.8775 10.4871C57.043 10.6587 57.3479 10.552 57.4965 10.6884C57.7184 10.8897 58.044 10.8958 58.3138 11.0025C58.429 11.0498 58.5005 11.0261 58.4975 10.9139C58.4884 10.6769 58.7315 10.5411 59.0183 10.612C59.1784 10.6532 59.3499 10.689 59.4888 10.7599C59.9562 10.997 60.4686 10.8133 60.9512 10.8667C60.9839 10.8727 61.0282 10.8491 61.0609 10.8309C61.2325 10.7363 61.4223 10.2682 61.3835 10.1027C61.3507 9.95478 61.2204 9.92507 61.1143 9.99601C60.836 10.1912 60.5547 9.93659 60.2412 10.0257C60.0666 10.0791 59.6992 9.90142 59.6464 9.61101C59.6167 9.45095 59.5961 9.14355 59.205 9.41578C59.199 9.42184 59.1693 9.40972 59.1517 9.40365C58.974 9.35636 59.0304 9.44488 59.0656 9.49824C59.1038 9.55159 59.1808 9.58676 59.2226 9.63465C59.3615 9.80624 59.0656 9.81836 59.0334 9.93659C59.0213 9.98388 58.8528 9.93659 58.8322 9.86565C58.7909 9.72924 58.6751 9.66436 58.5393 9.59343C58.4508 9.5522 58.3708 9.46307 58.3944 9.37455C58.4478 9.17932 58.2938 9.10839 58.1192 9.03684C57.8172 8.91862 57.545 8.77614 57.3673 8.54514C57.3376 8.50391 57.3079 8.42691 57.2133 8.4742C57.1248 8.51543 57.1006 8.59849 57.1539 8.66336C57.2843 8.8113 57.388 8.98288 57.6244 9.07201C57.793 9.13688 57.95 9.22601 58.0919 9.29088C58.1004 9.41699 57.7184 9.28058 57.9312 9.49399ZM61.1434 8.55847C60.9184 8.65306 60.7141 8.71247 60.5868 8.49906C60.4922 8.34506 60.3558 8.30383 60.22 8.42206C60.0927 8.52877 59.992 8.65306 59.918 8.78887C59.764 9.07322 59.8677 9.20358 60.2612 9.22722C60.3497 9.22722 60.4091 9.19145 60.4831 9.1678C60.7614 9.09687 61.0306 9.02593 61.3149 9.1678C61.5071 9.26845 61.7472 9.2151 61.9601 9.25632C62.0637 9.26845 62.1256 9.19691 62.1759 9.14355C62.2438 9.06655 62.1401 9.03684 62.0874 8.99562C61.9722 8.91255 61.8533 8.82403 61.726 8.7531C61.5987 8.6761 61.3913 8.64639 61.3325 8.55787C61.2852 8.48087 61.5041 8.37416 61.5193 8.23835C61.3325 8.27958 61.1282 8.262 61.0251 8.42206C60.9657 8.51664 61.1258 8.49299 61.1434 8.55847ZM58.9231 5.34328C58.7455 5.36086 58.4999 5.2487 58.4229 5.44999C58.3787 5.56822 58.3016 5.61005 58.1743 5.64522C57.973 5.70463 57.8548 5.82892 57.819 5.99444C57.7833 6.1545 58.1004 6.14238 58.0767 6.26667C58.0561 6.37944 57.7748 6.37944 57.7717 6.52738C57.7657 6.64561 57.8099 6.75231 57.6002 6.79961C57.4698 6.82325 57.3898 6.97725 57.2036 6.89419C57.1594 6.87661 57.106 6.90631 57.0884 6.94754C57.0618 7.0009 57.1297 6.99483 57.1624 7.01848C57.3813 7.16642 57.5886 7.10154 57.8051 7.01242C57.87 6.98877 57.9324 6.953 58.027 6.98877C58.3023 7.08942 58.4563 7.00635 58.4472 6.78142C58.4381 6.58013 58.5333 6.52071 58.7345 6.59225C58.797 6.6159 58.8413 6.68077 58.9031 6.60438C58.9534 6.5395 58.9504 6.49161 58.8673 6.43886C58.8231 6.41521 58.7521 6.39763 58.7934 6.32609C58.8819 6.30851 58.9771 6.2788 59.0716 6.26667C59.1486 6.26061 59.2347 6.26667 59.3117 6.27273C59.4033 6.2788 59.4924 6.28486 59.5573 6.21938C59.587 6.18967 59.5931 6.15996 59.5573 6.13632C59.4742 6.09509 59.3827 6.11267 59.2966 6.12419C59.128 6.14784 58.9619 6.17754 58.7964 6.20119C58.6424 6.22484 58.509 6.19513 58.4296 6.09448C58.3144 5.94655 58.412 5.69796 58.6072 5.59125C58.7248 5.52699 58.8582 5.47363 58.9231 5.34328ZM64.1603 9.96751C64.4295 9.96751 64.4507 9.92628 64.4507 9.72499C64.4538 9.59464 64.3646 9.53583 64.2555 9.46428C64.1846 9.41699 64.0924 9.33393 64.2882 9.31028C64.3592 9.30422 64.4804 9.32787 64.4186 9.22177C64.3889 9.16841 64.3416 9.05625 64.2052 9.1387C64.1488 9.17447 64.0809 9.20358 64.0869 9.12658C64.1015 8.95499 63.8978 8.91922 63.7911 8.8307C63.5867 8.65912 63.5807 8.63547 63.8772 8.55847C63.9633 8.53483 63.9748 8.4936 63.9984 8.4457C64.0251 8.39235 64.0105 8.34506 63.939 8.33293C63.8262 8.30929 63.7201 8.20258 63.6074 8.2917C63.4388 8.42812 63.1369 8.43964 63.0447 8.65306C63.0387 8.67064 63.0538 8.69429 63.0684 8.71793C63.1896 8.89558 63.2994 9.08474 63.5304 9.19751C63.7644 9.30422 63.7256 9.45216 63.628 9.59403C63.5837 9.65891 63.5182 9.74803 63.6104 9.77774C63.802 9.82503 63.9378 9.97357 64.1603 9.96751Z" fill="#3766B0"/>
<path d="M69.3351 14.6627C69.1513 14.2365 68.8822 13.8339 68.6687 13.4131C68.5269 13.1287 68.4262 12.8329 68.4171 12.4715C68.1716 12.6789 67.8902 12.6492 67.8278 12.4594C67.7569 12.2581 67.5404 12.2108 67.4192 12.0805C67.2621 11.9149 67.0578 11.867 66.8122 11.8967C66.4157 11.9325 66.0071 11.9089 65.6579 11.79C65.3887 11.6955 65.1607 11.6482 64.8618 11.6421C64.5926 11.636 64.3173 11.4584 64.1924 11.2159C64.1276 11.0916 64.0239 10.9909 63.8281 11.0976C63.6413 11.1983 63.7129 11.305 63.8371 11.4117C63.9408 11.4948 64.0324 11.5833 64.0797 11.7021C64.1033 11.7615 64.1154 11.8622 64.2779 11.7731C64.3786 11.7197 64.4289 11.844 64.4289 11.921C64.4289 12.1162 64.5653 12.0865 64.7308 12.0453C64.9558 11.998 65.0625 11.8319 65.2638 11.7373C65.3111 11.9386 65.3765 12.0986 65.693 12.1459C65.9919 12.1932 66.0247 12.4891 65.7846 12.7146C65.6191 12.8686 65.5154 13.076 65.2516 13.1645C65.2134 13.1766 65.2013 13.2415 65.1686 13.253C64.5708 13.3834 64.1706 13.8217 63.5164 13.869C63.3715 13.8812 63.226 13.9933 63.0459 13.9636C62.9095 13.7684 62.9307 13.5137 62.6731 13.3658C62.6609 13.3537 62.6555 13.3185 62.664 13.3064C62.744 13.1882 62.7234 13.1936 62.6579 13.099C62.5009 12.868 62.1814 12.7201 62.0837 12.4655C61.9473 12.1041 61.6636 11.8143 61.3822 11.5239C61.2992 11.4354 61.2076 11.3935 61.0712 11.459C61.2458 11.8022 61.438 12.1338 61.6902 12.4479C61.7551 12.5249 61.8176 12.6019 61.8236 12.7025C61.8358 12.9808 62.0722 13.1882 62.2438 13.3955C62.4481 13.638 62.7676 13.8217 63.0374 14.0352C63.0435 14.3195 63.1502 14.3905 63.4903 14.2898C63.7747 14.2067 64.0827 14.2189 64.3634 14.1297C64.5174 14.0764 64.4938 14.177 64.4938 14.2425C64.4968 14.5147 64.3192 14.7342 64.1827 14.9707C63.8572 15.5273 63.2442 15.8941 62.741 16.3324C62.282 16.735 62.0716 17.1612 62.3529 17.6826C62.5009 17.9609 62.516 18.2568 62.4863 18.5587C62.4687 18.76 62.3529 18.8783 62.1371 18.9553C62.0098 19.0026 61.8946 19.062 61.7818 19.1329C61.4708 19.3281 61.2846 19.524 61.4532 19.8611C61.5272 20.0151 61.4411 20.2042 61.1925 20.2873C61.0118 20.3467 60.9142 20.4352 60.9233 20.6068C60.9324 20.7608 60.8433 20.9027 60.6808 21.0155C60.4291 21.1992 60.2545 21.4302 60.006 21.6133C59.781 21.7849 59.4967 21.8267 59.2184 21.8443C59.0171 21.8503 58.8219 21.874 58.626 21.9037C58.3774 21.9395 58.1107 21.8091 58.1761 21.6254C58.2295 21.4775 58.1434 21.3883 58.0876 21.2822C57.993 21.1046 57.8954 20.933 57.7766 20.7729C57.6669 20.6189 57.5959 20.4649 57.6111 20.2812C57.6438 19.9496 57.4068 19.6834 57.2291 19.4106C57.0102 19.0729 57.0102 18.7473 57.2115 18.4217C57.3595 18.1792 57.3595 17.9543 57.3243 17.6814C57.2534 17.1843 56.9575 16.7932 56.6137 16.4028C56.5252 16.3021 56.4985 16.2136 56.5725 16.1008C56.6137 16.0414 56.6404 15.9705 56.6556 15.8995C56.7441 15.4612 56.6731 15.3963 56.102 15.4139C55.9716 15.4139 55.9304 15.3666 55.8771 15.2957C55.6994 15.0471 55.3945 14.964 55.0689 15.0944C54.7578 15.2187 54.465 15.3605 54.0891 15.2484C53.9794 15.2187 53.8047 15.2362 53.7071 15.2841C53.4288 15.4206 53.2336 15.3314 53.0117 15.2011C52.7037 15.0174 52.3424 14.8816 52.2569 14.5378C52.2423 14.4784 52.1708 14.4074 52.0998 14.3723C51.7743 14.2183 51.6584 13.9812 51.5966 13.7029C51.5669 13.5726 51.6827 13.5016 51.73 13.4186C51.8543 13.1876 51.8749 12.939 51.7597 12.7613C51.5851 12.4952 51.7955 12.2993 51.9137 12.1399C52.0441 11.9744 52.1653 11.7846 52.3254 11.6191C52.5061 11.4299 52.808 11.382 52.9887 11.2044C53.0626 11.1274 53.1366 11.074 53.1275 10.9618C53.1099 10.7781 53.2251 10.6363 53.4294 10.5356C53.5865 10.4525 53.749 10.3816 53.8229 10.2276C53.9145 10.0263 53.7963 9.87839 53.5301 9.88445C53.3967 9.89051 53.2457 9.63587 53.3197 9.49339C53.4143 9.31574 53.4646 9.15022 53.4264 8.94893C53.4028 8.8307 53.5895 8.78341 53.7253 8.80706C53.9236 8.85435 54.1218 8.8307 54.3231 8.84829C54.4862 8.86041 54.7051 8.91922 54.773 8.71793C54.8409 8.5227 54.7875 8.35112 54.5838 8.2147C54.5481 8.185 54.4977 8.17348 54.4535 8.15529C54.3825 8.11952 54.2401 8.11952 54.2643 8.03706C54.294 7.92429 54.445 7.97764 54.5426 7.954C54.6166 7.93641 54.8385 8.108 54.7675 7.85941C54.75 7.8 54.8324 7.84729 54.8742 7.85335C55.1228 7.88912 55.2799 7.81758 55.3302 7.62235H55.3241C55.5642 7.62235 55.7564 7.569 55.8213 7.36771C55.8777 7.19006 56.0759 7.20764 56.236 7.19006C56.4609 7.16642 56.618 7.13064 56.4433 6.91783C56.3663 6.82931 56.39 6.71654 56.4997 6.64561C56.618 6.56254 56.7574 6.4619 56.8138 6.6929C56.8259 6.74625 56.8168 6.86448 56.9854 6.81113C57.1303 6.76383 57.1188 6.68683 57.0563 6.60377C57.0387 6.57406 57.003 6.55042 56.9914 6.52677C56.9053 6.3079 56.7756 6.3079 56.5561 6.44371C56.3366 6.57952 56.1093 6.491 56.0468 6.27213C55.9286 5.81619 56.1032 5.63855 56.6865 5.64461C56.8314 5.65067 56.8641 5.57367 56.9023 5.49061C56.9526 5.37238 57.0472 5.27719 57.1661 5.18867C57.2491 5.12926 57.5038 5.10561 57.317 4.93403C57.2903 4.91038 57.3849 4.8928 57.4207 4.88067C57.8942 4.72061 58.3677 4.5848 58.8982 4.61997C59.0729 4.62603 59.2505 4.51932 59.4191 4.60784C59.8811 4.85036 60.4346 4.86855 60.9439 4.98678C61.027 5.01042 61.1452 4.9989 61.1543 5.08742C61.1634 5.18807 61.0391 5.20019 60.95 5.23536C60.7044 5.336 60.4582 5.19959 60.2127 5.23536C60.263 5.37723 60.3043 5.52577 60.5474 5.54336C60.6122 5.567 60.6626 5.62642 60.7547 5.59065C60.7456 5.49607 60.645 5.52577 60.5831 5.50759C60.6068 5.35965 60.7371 5.41907 60.8317 5.43059C60.9415 5.44817 61.0063 5.50759 61.0833 5.35965C61.1428 5.24688 61.3647 5.17048 61.5896 5.24688C61.5247 5.12259 61.4714 5.02194 61.4089 4.89765C61.5835 4.9213 61.8054 4.82671 61.7848 5.08681C61.7757 5.18746 61.9212 5.16381 61.9861 5.11652C62.131 5.00375 62.3238 4.98011 62.4984 4.92736C62.6112 4.88613 62.7707 4.79094 62.8507 4.97465C62.9895 4.89765 63.1702 4.92736 63.3036 4.86794C63.6916 4.68423 64.0706 4.7673 64.4525 4.86794C64.5799 4.89765 64.7072 4.93282 64.8406 4.96859C64.8703 4.8443 64.7575 4.8443 64.6866 4.81459C64.4113 4.71394 64.361 4.39988 64.6005 4.26407C64.6775 4.22284 65.0328 4.33501 65.0503 4.42413C65.0679 4.51326 65.1007 4.56601 65.228 4.57207C65.2189 4.70849 65.3111 4.797 65.4529 4.86248C65.5154 4.92736 65.5596 4.98678 65.5208 5.0759C65.5033 5.11713 65.3462 5.14684 65.4675 5.21232C65.5324 5.24809 65.6306 5.2299 65.6809 5.17655C65.7343 5.11713 65.8228 5.05226 65.7221 4.97526C65.6542 4.9219 65.5742 4.87461 65.5002 4.82732C65.4172 4.7388 65.4499 4.56661 65.2219 4.57267C65.2395 4.47809 65.3729 4.38351 65.2128 4.27074C65.4317 4.30045 65.3699 4.51932 65.5621 4.54297C65.6003 4.57267 65.6657 4.59632 65.6864 4.56055C65.7161 4.50113 65.636 4.52478 65.6003 4.51326C65.5439 4.40049 65.6178 4.36532 65.7391 4.37138C65.8367 4.37138 65.9374 4.38351 66.0265 4.38351C66.0944 4.30651 65.9289 4.28286 65.9762 4.21193C66.0592 4.17616 66.1538 4.21799 66.2369 4.19435C66.3375 4.17676 66.5594 4.29499 66.5152 4.07005C66.5121 4.05793 66.6334 4.0167 66.6989 4.01064C67.0305 3.96335 67.3591 3.88635 67.7053 3.90999C67.8357 3.91605 67.9303 3.89787 68.0339 3.80328C68.194 3.64928 68.4929 3.63776 68.6645 3.72628C68.8658 3.82693 69.0525 3.8148 69.2508 3.82087C69.4139 3.82087 69.5673 3.85057 69.7243 3.88028C69.908 3.90999 69.9195 3.99305 69.7952 4.0937C69.6825 4.12341 69.5764 4.15857 69.4812 4.23012C69.6382 4.26589 69.7595 4.24224 69.8456 4.13553C69.9195 4.11795 69.9965 4.08824 70.0766 4.12341C70.4937 4.30105 70.9824 4.3247 71.4031 4.27134C71.7172 4.23557 71.9925 4.24164 72.2762 4.29499C72.5187 4.33622 72.6697 4.53205 72.9274 4.57328C73.0074 4.58541 73.0929 4.65634 73.1226 4.52599C73.1402 4.43747 73.2293 4.49022 73.2881 4.49022C73.4597 4.49022 73.6313 4.49628 73.8035 4.49628C73.8714 4.49628 74.0017 4.53751 73.9102 4.4017C73.8599 4.33076 73.9811 4.34228 74.0199 4.34834C74.411 4.37199 74.8105 4.36593 75.1864 4.43686C75.5799 4.51386 75.968 4.56722 76.3736 4.56722C76.6694 4.56722 76.9774 4.55509 77.22 4.7388C77.2527 4.75638 77.3176 4.75638 77.3649 4.75638C77.8535 4.75638 78.3446 4.75638 78.8242 4.85703C78.8539 4.76851 78.709 4.76245 78.7205 4.67938C79.4578 4.7388 80.189 4.8158 80.8996 4.99344C81.3319 5.10015 81.7787 5.15896 82.2201 5.22444C82.3086 5.23657 82.4244 5.23657 82.4481 5.33722C82.4838 5.51486 82.4511 5.53244 82.2171 5.52092C81.9861 5.51486 81.8236 5.37905 81.6011 5.34328C81.3907 5.30751 81.29 5.37905 81.2458 5.48515C81.1955 5.61551 81.3937 5.60944 81.4859 5.65067C81.5986 5.71009 81.7611 5.70403 81.8739 5.8459C81.4622 5.72161 81.2433 5.86348 81.0833 6.09448C81.0657 6.12419 81.0421 6.14177 81.0208 6.16542C80.8226 6.05871 80.6152 6.20119 80.42 6.15936C80.2957 6.12358 80.1296 6.16542 80.1387 6.20665C80.1563 6.30123 80.0883 6.46129 80.3042 6.491C80.5261 6.51465 80.5885 6.722 80.8074 6.75171C80.674 6.91723 80.8784 7.08942 80.8074 7.25494C80.7983 7.27858 80.7632 7.30829 80.7716 7.31981C80.822 7.40287 80.9105 7.51504 80.7747 7.56233C80.6474 7.60962 80.5588 7.47381 80.4667 7.41439C80.2181 7.24281 79.9695 7.07123 79.7355 6.88752C79.5669 6.76323 79.4572 6.63894 79.6227 6.43158C79.8446 6.15936 79.8004 5.94594 79.5633 5.80407C79.5251 5.82165 79.5099 5.84529 79.5396 5.875C79.6282 5.98171 79.5015 6.01688 79.436 6.06417C79.3529 6.11752 79.2941 6.05204 79.2347 6.01081C79.1753 5.96958 79.1486 5.89258 79.0601 5.89258C78.9503 5.89258 78.8175 5.82771 78.7345 5.93381C78.6544 6.03446 78.6963 6.15875 78.8557 6.29517C78.6575 6.32487 78.4914 6.33094 78.2816 6.29517C77.8881 6.23029 77.4643 6.25394 77.0563 6.31275C76.9289 6.33639 76.9174 6.4431 76.8932 6.52617C76.8604 6.65046 76.8489 6.78081 76.7246 6.88752C76.5943 7.00029 76.7604 7.00029 76.8459 7.01787C76.9586 7.04758 77.1151 7.00575 77.1599 7.14216C77.1721 7.17187 77.2163 7.17794 77.2606 7.17187C77.6632 7.107 77.7965 7.14823 78.0094 7.39681C78.3762 7.81697 78.5035 8.26139 78.2701 8.74703C78.1961 8.90103 78.11 9.00168 77.8554 8.94226C77.6571 8.89497 77.5862 9.01926 77.5831 9.13749C77.5831 9.25572 77.5564 9.34484 77.4382 9.42791C77.2873 9.53461 77.4649 9.57584 77.5358 9.61707C77.7517 9.74136 77.9948 9.84201 78.0597 10.073C78.0773 10.15 78.0924 10.2094 77.9972 10.2567C77.879 10.3161 77.7547 10.3871 77.6153 10.3634C77.5025 10.3398 77.571 10.2391 77.5413 10.1858C77.4552 10.0318 77.4643 9.81291 77.1563 9.7832C77.0854 9.77713 77.0259 9.75349 76.9932 9.69468C76.8331 9.39274 76.727 9.38061 76.3863 9.61161C76.3032 9.57584 76.3032 9.49884 76.2887 9.44003C76.2741 9.38668 76.3566 9.30968 76.2353 9.2921C76.1614 9.27451 76.1171 9.33939 76.0753 9.38062C76.0546 9.3982 76.0456 9.42791 76.0219 9.43397C75.643 9.59403 75.8618 9.69468 76.0662 9.82503C76.1462 9.87232 76.1789 9.84868 76.2408 9.83109C76.4481 9.76622 76.4481 9.77168 76.7501 9.83716C76.67 9.88445 76.6021 9.91416 76.5427 9.96145C76.2911 10.1506 76.3238 10.1864 76.5518 10.3816C76.7561 10.5532 77.0757 10.7011 77.0017 11.0031C76.9956 11.0328 77.0193 11.0564 77.0429 11.0504C77.3539 10.9909 77.1763 11.1631 77.1672 11.228C77.1169 11.6009 76.9538 11.9446 76.5664 12.1932C76.3414 12.3412 76.0601 12.4182 75.7788 12.4891C75.6484 12.5188 75.5066 12.5127 75.4708 12.6492C75.4083 12.6255 75.3998 12.5546 75.3168 12.5546C75.0148 12.4006 74.8784 12.6019 74.719 12.7262C74.5535 12.8626 74.6511 12.9869 74.7784 13.099C74.9057 13.2057 75.0421 13.3125 75.1719 13.4186C75.335 13.555 75.4502 13.7029 75.4768 13.8921C75.5035 14.0994 75.4502 14.2589 75.1749 14.3419C74.9767 14.4068 74.9378 14.6142 74.7099 14.656C74.5795 14.3656 74.3164 14.1704 73.9611 14.0346C73.7537 13.9576 73.7568 13.9515 73.6858 14.1473C73.5761 14.4493 73.7156 14.7336 74.0351 14.9464C74.263 15.0883 74.4971 15.2423 74.4819 15.5151C74.4759 15.6752 74.7069 15.7934 74.6656 16.0008C74.4467 15.8644 74.2509 15.7401 74.0587 15.6097C73.9757 15.5564 73.9047 15.4854 73.9078 15.3908C73.9138 15.1247 73.7744 14.941 73.4755 14.793C73.3099 14.71 73.4221 14.5087 73.4458 14.3783C73.5021 14.0115 73.2802 13.6975 73.1675 13.3658C73.1171 13.2239 73.0074 13.3597 72.9425 13.3895C72.8419 13.4307 72.7709 13.5313 72.6285 13.4604C72.5011 13.407 72.5454 13.3125 72.5545 13.2294C72.5781 13.0342 72.3532 12.945 72.2495 12.8032C72.2083 12.7437 72.0864 12.7086 72.0749 12.6492C72.007 12.3648 71.7997 12.3769 71.5329 12.4655C71.4529 12.4952 71.3728 12.5188 71.2752 12.4715C71.2128 12.4418 71.1151 12.4776 71.0976 12.5249C70.9405 12.9159 70.4282 13.0754 70.1766 13.401C70.1202 13.4719 69.9608 13.4483 69.9074 13.5374C69.8098 13.6502 69.8189 13.7447 69.9698 13.8217C69.9698 13.8515 69.9729 13.8866 69.9729 13.9163C69.751 14.0527 69.9523 14.2358 69.8692 14.3898H69.8722C69.7037 14.3898 69.757 14.4905 69.7419 14.5614C69.7328 14.5736 69.7182 14.579 69.7037 14.579C69.6625 14.5851 69.6412 14.6027 69.6473 14.6384H69.6534C69.5703 14.6324 69.5673 14.6797 69.5733 14.7215H69.4315H69.4345C69.4266 14.6803 69.3854 14.6687 69.3351 14.6627ZM57.9312 9.49399C57.8688 9.49399 57.8069 9.50005 57.742 9.50005C57.7329 9.49399 57.7275 9.48247 57.7299 9.47641L57.6675 9.41699C57.6026 9.37576 57.5492 9.32847 57.4783 9.29876C57.1467 9.17447 56.8538 9.02654 56.6907 8.74825C56.6404 8.65973 56.5307 8.68883 56.433 8.73612C56.3088 8.79554 56.1875 8.91377 56.0396 8.89012C55.7788 8.84283 55.5691 8.80706 55.5242 9.08535C55.5151 9.12112 55.4175 9.15022 55.3587 9.17387C55.2726 9.2151 55.1635 9.23874 55.1247 9.31574C54.944 9.67709 54.6863 9.9669 54.1327 10.0027C54.1267 10.0087 54.1182 10.0148 54.1091 10.0203C54.0467 10.05 53.9939 10.0912 54.0024 10.1506C54.0115 10.2215 54.1061 10.2337 54.1655 10.2276C54.3813 10.2276 54.6184 10.3107 54.796 10.1209C54.8639 10.05 54.9943 10.0203 55.1186 10.0081C55.5418 9.9669 55.965 9.91355 56.3918 9.87778C56.7853 9.84201 56.9514 10.0081 56.815 10.2979C56.7677 10.3925 56.815 10.4222 56.8775 10.4871C57.043 10.6587 57.3479 10.552 57.4965 10.6884C57.7184 10.8897 58.044 10.8958 58.3138 11.0025C58.429 11.0498 58.5005 11.0261 58.4975 10.9139C58.4884 10.6769 58.7315 10.5411 59.0183 10.612C59.1784 10.6532 59.3499 10.689 59.4888 10.7599C59.9562 10.997 60.4686 10.8133 60.9512 10.8667C60.9839 10.8727 61.0282 10.8491 61.0609 10.8309C61.2325 10.7363 61.4223 10.2682 61.3835 10.1027C61.3507 9.95478 61.2204 9.92507 61.1143 9.99601C60.836 10.1912 60.5547 9.93659 60.2412 10.0257C60.0666 10.0791 59.6992 9.90142 59.6464 9.61101C59.6167 9.45095 59.5961 9.14355 59.205 9.41578C59.199 9.42184 59.1693 9.40972 59.1517 9.40365C58.974 9.35636 59.0304 9.44488 59.0656 9.49824C59.1038 9.55159 59.1808 9.58676 59.2226 9.63465C59.3615 9.80624 59.0656 9.81836 59.0334 9.93659C59.0213 9.98388 58.8528 9.93659 58.8322 9.86565C58.7909 9.72924 58.6751 9.66436 58.5393 9.59343C58.4508 9.5522 58.3708 9.46307 58.3944 9.37455C58.4478 9.17932 58.2938 9.10839 58.1192 9.03684C57.8172 8.91862 57.545 8.77614 57.3673 8.54514C57.3376 8.50391 57.3079 8.42691 57.2133 8.4742C57.1248 8.51543 57.1006 8.59849 57.1539 8.66336C57.2843 8.8113 57.388 8.98288 57.6244 9.07201C57.793 9.13688 57.95 9.22601 58.0919 9.29088C58.1004 9.41699 57.7184 9.28058 57.9312 9.49399ZM61.1434 8.55847C60.9184 8.65306 60.7141 8.71247 60.5868 8.49906C60.4922 8.34506 60.3558 8.30383 60.22 8.42206C60.0927 8.52877 59.992 8.65306 59.918 8.78887C59.764 9.07322 59.8677 9.20358 60.2612 9.22722C60.3497 9.22722 60.4091 9.19145 60.4831 9.1678C60.7614 9.09687 61.0306 9.02593 61.3149 9.1678C61.5071 9.26845 61.7472 9.2151 61.9601 9.25632C62.0637 9.26845 62.1256 9.19691 62.1759 9.14355C62.2438 9.06655 62.1401 9.03684 62.0874 8.99562C61.9722 8.91255 61.8533 8.82403 61.726 8.7531C61.5987 8.6761 61.3913 8.64639 61.3325 8.55787C61.2852 8.48087 61.5041 8.37416 61.5193 8.23835C61.3325 8.27958 61.1282 8.262 61.0251 8.42206C60.9657 8.51664 61.1258 8.49299 61.1434 8.55847ZM58.9231 5.34328C58.7455 5.36086 58.4999 5.2487 58.4229 5.44999C58.3787 5.56822 58.3016 5.61005 58.1743 5.64522C57.973 5.70463 57.8548 5.82892 57.819 5.99444C57.7833 6.1545 58.1004 6.14238 58.0767 6.26667C58.0561 6.37944 57.7748 6.37944 57.7717 6.52738C57.7657 6.64561 57.8099 6.75231 57.6002 6.79961C57.4698 6.82325 57.3898 6.97725 57.2036 6.89419C57.1594 6.87661 57.106 6.90631 57.0884 6.94754C57.0618 7.0009 57.1297 6.99483 57.1624 7.01848C57.3813 7.16642 57.5886 7.10154 57.8051 7.01242C57.87 6.98877 57.9324 6.953 58.027 6.98877C58.3023 7.08942 58.4563 7.00635 58.4472 6.78142C58.4381 6.58013 58.5333 6.52071 58.7345 6.59225C58.797 6.6159 58.8413 6.68077 58.9031 6.60438C58.9534 6.5395 58.9504 6.49161 58.8673 6.43886C58.8231 6.41521 58.7521 6.39763 58.7934 6.32609C58.8819 6.30851 58.9771 6.2788 59.0716 6.26667C59.1486 6.26061 59.2347 6.26667 59.3117 6.27273C59.4033 6.2788 59.4924 6.28486 59.5573 6.21938C59.587 6.18967 59.5931 6.15996 59.5573 6.13632C59.4742 6.09509 59.3827 6.11267 59.2966 6.12419C59.128 6.14784 58.9619 6.17754 58.7964 6.20119C58.6424 6.22484 58.509 6.19513 58.4296 6.09448C58.3144 5.94655 58.412 5.69796 58.6072 5.59125C58.7248 5.52699 58.8582 5.47363 58.9231 5.34328ZM64.1603 9.96751C64.4295 9.96751 64.4507 9.92628 64.4507 9.72499C64.4538 9.59464 64.3646 9.53583 64.2555 9.46428C64.1846 9.41699 64.0924 9.33393 64.2882 9.31028C64.3592 9.30422 64.4804 9.32787 64.4186 9.22177C64.3889 9.16841 64.3416 9.05625 64.2052 9.1387C64.1488 9.17447 64.0809 9.20358 64.0869 9.12658C64.1015 8.95499 63.8978 8.91922 63.7911 8.8307C63.5867 8.65912 63.5807 8.63547 63.8772 8.55847C63.9633 8.53483 63.9748 8.4936 63.9984 8.4457C64.0251 8.39235 64.0105 8.34506 63.939 8.33293C63.8262 8.30929 63.7201 8.20258 63.6074 8.2917C63.4388 8.42812 63.1369 8.43964 63.0447 8.65306C63.0387 8.67064 63.0538 8.69429 63.0684 8.71793C63.1896 8.89558 63.2994 9.08474 63.5304 9.19751C63.7644 9.30422 63.7256 9.45216 63.628 9.59403C63.5837 9.65891 63.5182 9.74803 63.6104 9.77774C63.802 9.82503 63.9378 9.97357 64.1603 9.96751Z" stroke="#3766B0" stroke-width="0.609" stroke-miterlimit="10"/>
<path d="M46.0737 8.35113C45.6505 8.59971 45.1794 8.60578 44.7059 8.58213C44.4985 8.57 44.3148 8.60578 44.1669 8.77736C44.2293 8.78342 44.2796 8.78948 44.3239 8.78342C44.4215 8.7713 44.5282 8.75371 44.5846 8.83678C44.641 8.9253 44.5579 9.00836 44.5046 9.07384C44.3979 9.19813 44.3445 9.32242 44.4985 9.42913C44.6464 9.52371 44.8126 9.52977 44.9484 9.3879C44.972 9.36425 44.9896 9.34061 45.0163 9.32848C45.0605 9.29877 45.1109 9.21571 45.1612 9.30484C45.1909 9.35213 45.2443 9.43519 45.1375 9.47642C44.7998 9.61829 44.4567 9.75471 44.1135 9.88506C44.0274 9.92084 43.9389 9.87294 43.9686 9.79654C44.0602 9.55948 43.8825 9.66619 43.8146 9.6959C43.5775 9.80867 43.1841 9.79048 43.1246 10.0451C43.0301 10.4538 42.6596 10.3828 42.4292 10.5423C42.0915 10.7733 41.6804 10.9509 41.6089 11.4305C41.5792 11.6197 41.3633 11.7561 41.1675 11.8628C40.8625 12.0344 40.5667 12.212 40.3296 12.4727C40.1756 12.6443 40.1404 12.8105 40.1962 13.0172C40.2526 13.2421 40.2672 13.461 40.1635 13.6805C40.1041 13.7987 40.0453 13.7987 39.9622 13.7041C39.8233 13.5562 39.77 13.3846 39.8021 13.1833C39.8434 12.9111 39.7694 12.8341 39.459 12.8517C39.3171 12.8577 39.2783 12.6862 39.1273 12.7274C38.9169 12.7807 38.6623 12.674 38.4968 12.8929C38.4671 12.9287 38.3634 12.9523 38.3191 12.9287C37.7328 12.6504 37.3363 13.0651 37.0404 13.361C36.7858 13.6096 36.7446 14.0776 36.6706 14.4505C36.6294 14.6578 36.7506 14.8706 36.9016 15.0483C37.0053 15.1665 37.112 15.2908 37.2927 15.2259C37.5176 15.1374 37.8432 15.2199 37.9438 14.9119C37.9911 14.7755 38.0384 14.6572 38.21 14.616C38.3579 14.5802 38.5265 14.5566 38.6302 14.6397C38.7102 14.6991 38.5859 14.8288 38.5501 14.924C38.4495 15.1902 38.3367 15.4569 38.207 15.7704C38.3907 15.7704 38.5416 15.7765 38.6956 15.7704C39.2049 15.7528 39.285 15.8474 39.1546 16.3209C39.0982 16.5222 39.0364 16.7235 39.1425 16.9248C39.2874 17.197 39.5184 17.2861 39.8561 17.1734C39.6372 17.2564 39.8622 17.6057 39.5899 17.5523C39.442 17.5287 39.2377 17.4456 39.134 17.3571C38.9297 17.1916 38.669 17.0612 38.5895 16.7532C38.5362 16.5519 38.3913 16.327 38.0718 16.2797C37.7668 16.2439 37.4649 16.1493 37.2781 15.865C37.195 15.7346 37.0295 15.6873 36.861 15.7522C36.6773 15.8292 36.5118 15.7819 36.3487 15.7049C35.9606 15.5394 35.5938 15.332 35.2446 15.095C35.0906 14.9943 35.0166 14.8876 35.1082 14.7039C35.1912 14.5263 35.1464 14.3662 34.9984 14.2183C34.5631 13.7799 34.3351 13.2355 34.1842 12.6668C34.1514 12.554 34.1102 12.4715 33.9829 12.483C33.8525 12.4952 33.8792 12.6134 33.8731 12.6965C33.8586 12.862 33.9532 12.9984 34.015 13.1403C34.166 13.4543 34.2042 13.8036 34.3909 14.1055C34.4267 14.1649 34.4322 14.2237 34.3673 14.2595C34.2757 14.3068 34.2636 14.2183 34.243 14.171C34.163 14.0055 33.9113 13.9163 33.9914 13.6678C34.0035 13.632 33.9174 13.555 33.8671 13.5138C33.7428 13.3955 33.5057 13.3185 33.7367 13.1051C33.4463 12.7383 33.8137 12.1223 33.2159 11.8677C33.1535 11.8379 33.1153 11.7967 33.1062 11.7312C33.0704 11.4469 33.0086 11.1625 33.0086 10.8788C33.0086 10.4877 33.2808 10.1858 33.4972 9.88385C33.6512 9.66498 33.8616 9.48127 33.9592 9.22056C34.0423 9.01321 34.1781 8.82404 33.8853 8.65792C33.8113 8.61669 33.7907 8.46875 33.8586 8.46269C34.2169 8.43298 34.0156 8.19653 34.0538 8.04798C34.0775 7.9534 34.0659 7.85275 34.0744 7.75757C34.0775 7.71027 34.1011 7.63327 34.0417 7.63327C33.6003 7.63327 33.8434 7.3374 33.8465 7.18947C33.8525 6.81053 33.7901 6.7693 33.4142 6.65047C33.0025 6.51405 32.6327 6.53224 32.2446 6.68017C32.1234 6.72747 31.9839 6.76324 31.8481 6.70382V6.70988C31.8863 6.68624 31.9221 6.66259 31.9609 6.63895C31.9845 6.60924 32.0676 6.60318 32.0258 6.55588C31.996 6.51466 31.9427 6.54982 31.9106 6.58559C31.7299 6.63288 31.5644 6.62682 31.4279 6.82811C31.2861 7.04698 30.9514 7.0294 30.6731 7.01728C30.6228 6.99363 30.5755 6.96999 30.5252 6.94634C30.5221 6.91057 30.5397 6.84569 30.4894 6.85782C30.2614 6.91117 30.1432 6.75111 29.9977 6.65047C29.9001 6.58559 29.968 6.50859 30.0038 6.44311C30.128 6.24182 30.3445 6.13511 30.5603 6.08782C30.8029 6.03447 31.0369 5.93382 31.2946 5.93989C31.3776 5.94595 31.4783 5.93989 31.4752 5.83318C31.4722 5.72041 31.3655 5.77982 31.3067 5.7683C31.1824 5.73253 30.972 5.79195 30.9514 5.66766C30.9187 5.4603 31.1557 5.48395 31.2946 5.44878C31.4661 5.40756 31.6292 5.30085 31.8305 5.41301C31.9166 5.45424 32.0821 5.43666 32.0051 5.25295C31.9281 5.05772 32.0464 5.02195 32.2186 4.99224C32.4526 4.95101 32.6921 4.89766 32.914 4.82066C33.5742 4.57814 34.2375 4.49508 34.9239 4.71395C35.2434 4.82066 35.6108 4.70183 35.9127 4.82066C36.4632 5.02801 36.9962 4.89766 37.517 4.80853C38.1682 4.70183 38.769 4.87947 39.388 4.97405C39.4505 4.98012 39.5269 4.99164 39.4529 5.12199C39.3935 5.22264 39.5863 5.16928 39.6718 5.17534C40.0446 5.25234 40.3587 5.08076 40.6873 4.96193C40.9656 5.24628 41.3179 5.14564 41.6556 5.12745C41.6823 5.12745 41.7265 5.10986 41.7326 5.09168C41.8508 4.76003 42.1176 4.83703 42.3722 4.88432C42.5262 4.8722 42.5111 4.78368 42.4789 4.68909L42.485 4.68303C42.5978 4.7188 42.6657 4.68303 42.6802 4.57026H42.6772C42.816 4.62968 42.9173 4.39868 43.0683 4.52903C43.1362 4.65332 43.0179 4.84309 43.2841 4.92009C43.4678 4.97345 43.1713 5.1038 43.2216 5.24567C43.4854 5.21597 43.6685 5.05651 43.8407 4.89645C43.9795 4.77822 43.8316 4.74245 43.7279 4.73093C43.4878 4.6897 43.5236 4.57087 43.6479 4.44657C43.811 4.28651 44.0298 4.12099 44.2402 4.1507C44.6786 4.20406 45.1133 4.11493 45.5456 4.16828C45.5838 4.17435 45.6371 4.19193 45.6553 4.21558C45.8124 4.45809 46.0906 4.52357 46.3392 4.63028C46.4902 4.69516 46.5581 4.78428 46.449 4.92616C46.3574 5.05045 46.3986 5.10986 46.5466 5.11532C46.7509 5.12138 46.8425 5.27538 46.9904 5.36997C46.8515 5.46455 46.7151 5.5179 46.6024 5.58884C46.4423 5.69555 46.3623 5.64826 46.2677 5.52942C46.2174 5.46455 46.167 5.35784 46.0518 5.45849C45.9603 5.54155 46.0076 5.63007 46.0815 5.68948C46.2416 5.81984 46.1676 5.90836 46.064 6.04478C45.9191 6.22848 45.8566 6.00355 45.7529 6.01507C45.7323 6.00294 45.7117 5.99142 45.6881 5.97384C45.6614 5.95626 45.6317 5.92048 45.605 5.96778C45.5989 5.97384 45.6286 6.00355 45.6432 6.02113C45.6638 6.03871 45.6814 6.06236 45.6996 6.086C45.6935 6.13936 45.8063 6.25759 45.685 6.24C45.451 6.19877 45.1673 6.19877 45.0217 5.96778C44.8914 5.77255 44.7556 5.63613 44.4979 5.80226C44.4179 5.84955 44.3203 5.84955 44.2905 5.75496C44.2639 5.66038 44.3675 5.63067 44.4445 5.60703C44.4809 5.59187 44.5312 5.59187 44.5664 5.604C44.9453 5.73435 45.1024 5.37906 45.3716 5.27235C45.4868 5.23112 45.4516 5.08864 45.28 5.065C45.2976 5.01164 45.351 4.95223 45.2327 4.94677C45.2152 4.94071 45.2061 4.92919 45.2061 4.91706C45.203 4.86977 45.1764 4.84612 45.1321 4.85219H45.1527L45.1321 4.85825C45.1321 4.78125 45.0787 4.77519 45.0193 4.77519C44.966 4.78125 44.9156 4.79883 44.8653 4.79883C44.4924 4.74548 44.2378 4.84006 44.1196 5.219C44.0602 5.39058 43.5303 5.49123 43.3205 5.41423C43.0543 5.4791 42.85 5.63916 42.6457 5.79316L42.6487 5.7871C42.5571 5.77497 42.468 5.75739 42.4444 5.87562C41.9678 6.13633 41.4319 6.29578 41.0087 6.63349C40.828 6.77536 40.9317 7.10701 41.1657 7.1543C41.4058 7.20765 41.5446 7.41501 41.7817 7.47988C41.835 7.49746 41.8823 7.54476 41.9472 7.55082C42.1424 7.55688 42.3528 7.53869 42.1576 7.82911C42.1073 7.90005 42.2049 8.03646 42.1012 8.13711C42.0921 8.14317 42.1339 8.32082 42.2194 8.31475C42.3377 8.30869 42.5123 8.24382 42.5153 8.13711C42.5214 7.67511 42.924 7.59265 43.2374 7.41501C43.409 7.32043 43.5751 7.19613 43.4211 6.97665C43.3829 6.91724 43.3914 6.88207 43.4357 6.8463C43.6576 6.70988 43.72 6.47343 43.8443 6.27214C43.8801 6.21272 43.9037 6.13572 43.9953 6.14178C44.3597 6.14785 44.7234 6.15937 45.0017 6.4322C45.0903 6.52072 44.9751 6.55043 44.9544 6.60378C44.9132 6.70443 44.9072 6.78749 45.0017 6.86995C45.0903 6.94695 45.1673 6.91724 45.2594 6.88207C45.4546 6.80507 45.6026 6.6632 45.8221 6.53284C45.8603 6.75172 45.9494 6.95907 45.9106 7.14278C45.8572 7.3853 45.9815 7.48594 46.1476 7.59265C46.4229 7.7703 46.4556 7.94794 46.3283 8.24988C46.2543 8.42752 46.0767 8.67004 46.4969 8.74704C46.583 8.75917 46.5854 9.00775 46.5411 9.13204C46.5114 9.21511 46.4199 9.28604 46.2537 9.16781C46.0555 9.02594 45.7596 9.10294 45.4753 9.07323C45.6353 8.78282 45.9251 8.62336 46.1028 8.37478C46.1264 8.36871 46.1561 8.36265 46.1355 8.33355C46.1325 8.32749 46.0973 8.34507 46.0737 8.35113ZM44.33 4.295C44.3209 4.30713 44.3154 4.31865 44.3063 4.33077L44.3506 4.31319C44.3712 4.30106 44.3888 4.27742 44.407 4.2659C44.407 4.25984 44.3863 4.24225 44.3863 4.24225C44.3651 4.25984 44.3475 4.27742 44.33 4.295Z" fill="#3766B0"/>
<path d="M46.0737 8.35113C45.6505 8.59971 45.1794 8.60578 44.7059 8.58213C44.4985 8.57 44.3148 8.60578 44.1669 8.77736C44.2293 8.78342 44.2796 8.78948 44.3239 8.78342C44.4215 8.7713 44.5282 8.75371 44.5846 8.83678C44.641 8.9253 44.5579 9.00836 44.5046 9.07384C44.3979 9.19813 44.3445 9.32242 44.4985 9.42913C44.6464 9.52371 44.8126 9.52977 44.9484 9.3879C44.972 9.36425 44.9896 9.34061 45.0163 9.32848C45.0605 9.29877 45.1109 9.21571 45.1612 9.30484C45.1909 9.35213 45.2443 9.43519 45.1375 9.47642C44.7998 9.61829 44.4567 9.75471 44.1135 9.88506C44.0274 9.92084 43.9389 9.87294 43.9686 9.79654C44.0602 9.55948 43.8825 9.66619 43.8146 9.6959C43.5775 9.80867 43.1841 9.79048 43.1246 10.0451C43.0301 10.4538 42.6596 10.3828 42.4292 10.5423C42.0915 10.7733 41.6804 10.9509 41.6089 11.4305C41.5792 11.6197 41.3633 11.7561 41.1675 11.8628C40.8625 12.0344 40.5667 12.212 40.3296 12.4727C40.1756 12.6443 40.1404 12.8105 40.1962 13.0172C40.2526 13.2421 40.2672 13.461 40.1635 13.6805C40.1041 13.7987 40.0453 13.7987 39.9622 13.7041C39.8233 13.5562 39.77 13.3846 39.8021 13.1833C39.8434 12.9111 39.7694 12.8341 39.459 12.8517C39.3171 12.8577 39.2783 12.6862 39.1273 12.7274C38.9169 12.7807 38.6623 12.674 38.4968 12.8929C38.4671 12.9287 38.3634 12.9523 38.3191 12.9287C37.7328 12.6504 37.3363 13.0651 37.0404 13.361C36.7858 13.6096 36.7446 14.0776 36.6706 14.4505C36.6294 14.6578 36.7506 14.8706 36.9016 15.0483C37.0053 15.1665 37.112 15.2908 37.2927 15.2259C37.5176 15.1374 37.8432 15.2199 37.9438 14.9119C37.9911 14.7755 38.0384 14.6572 38.21 14.616C38.3579 14.5802 38.5265 14.5566 38.6302 14.6397C38.7102 14.6991 38.5859 14.8288 38.5501 14.924C38.4495 15.1902 38.3367 15.4569 38.207 15.7704C38.3907 15.7704 38.5416 15.7765 38.6956 15.7704C39.2049 15.7528 39.285 15.8474 39.1546 16.3209C39.0982 16.5222 39.0364 16.7235 39.1425 16.9248C39.2874 17.197 39.5184 17.2861 39.8561 17.1734C39.6372 17.2564 39.8622 17.6057 39.5899 17.5523C39.442 17.5287 39.2377 17.4456 39.134 17.3571C38.9297 17.1916 38.669 17.0612 38.5895 16.7532C38.5362 16.5519 38.3913 16.327 38.0718 16.2797C37.7668 16.2439 37.4649 16.1493 37.2781 15.865C37.195 15.7346 37.0295 15.6873 36.861 15.7522C36.6773 15.8292 36.5118 15.7819 36.3487 15.7049C35.9606 15.5394 35.5938 15.332 35.2446 15.095C35.0906 14.9943 35.0166 14.8876 35.1082 14.7039C35.1912 14.5263 35.1464 14.3662 34.9984 14.2183C34.5631 13.7799 34.3351 13.2355 34.1842 12.6668C34.1514 12.554 34.1102 12.4715 33.9829 12.483C33.8525 12.4952 33.8792 12.6134 33.8731 12.6965C33.8586 12.862 33.9532 12.9984 34.015 13.1403C34.166 13.4543 34.2042 13.8036 34.3909 14.1055C34.4267 14.1649 34.4322 14.2237 34.3673 14.2595C34.2757 14.3068 34.2636 14.2183 34.243 14.171C34.163 14.0055 33.9113 13.9163 33.9914 13.6678C34.0035 13.632 33.9174 13.555 33.8671 13.5138C33.7428 13.3955 33.5057 13.3185 33.7367 13.1051C33.4463 12.7383 33.8137 12.1223 33.2159 11.8677C33.1535 11.8379 33.1153 11.7967 33.1062 11.7312C33.0704 11.4469 33.0086 11.1625 33.0086 10.8788C33.0086 10.4877 33.2808 10.1858 33.4972 9.88385C33.6512 9.66498 33.8616 9.48127 33.9592 9.22056C34.0423 9.01321 34.1781 8.82404 33.8853 8.65792C33.8113 8.61669 33.7907 8.46875 33.8586 8.46269C34.2169 8.43298 34.0156 8.19653 34.0538 8.04798C34.0775 7.9534 34.0659 7.85275 34.0744 7.75757C34.0775 7.71027 34.1011 7.63327 34.0417 7.63327C33.6003 7.63327 33.8434 7.3374 33.8465 7.18947C33.8525 6.81053 33.7901 6.7693 33.4142 6.65047C33.0025 6.51405 32.6327 6.53224 32.2446 6.68017C32.1234 6.72747 31.9839 6.76324 31.8481 6.70382V6.70988C31.8863 6.68624 31.9221 6.66259 31.9609 6.63895C31.9845 6.60924 32.0676 6.60318 32.0258 6.55588C31.996 6.51466 31.9427 6.54982 31.9106 6.58559C31.7299 6.63288 31.5644 6.62682 31.4279 6.82811C31.2861 7.04698 30.9514 7.0294 30.6731 7.01728C30.6228 6.99363 30.5755 6.96999 30.5252 6.94634C30.5221 6.91057 30.5397 6.84569 30.4894 6.85782C30.2614 6.91117 30.1432 6.75111 29.9977 6.65047C29.9001 6.58559 29.968 6.50859 30.0038 6.44311C30.128 6.24182 30.3445 6.13511 30.5603 6.08782C30.8029 6.03447 31.0369 5.93382 31.2946 5.93989C31.3776 5.94595 31.4783 5.93989 31.4752 5.83318C31.4722 5.72041 31.3655 5.77982 31.3067 5.7683C31.1824 5.73253 30.972 5.79195 30.9514 5.66766C30.9187 5.4603 31.1557 5.48395 31.2946 5.44878C31.4661 5.40756 31.6292 5.30085 31.8305 5.41301C31.9166 5.45424 32.0821 5.43666 32.0051 5.25295C31.9281 5.05772 32.0464 5.02195 32.2186 4.99224C32.4526 4.95101 32.6921 4.89766 32.914 4.82066C33.5742 4.57814 34.2375 4.49508 34.9239 4.71395C35.2434 4.82066 35.6108 4.70183 35.9127 4.82066C36.4632 5.02801 36.9962 4.89766 37.517 4.80853C38.1682 4.70183 38.769 4.87947 39.388 4.97405C39.4505 4.98012 39.5269 4.99164 39.4529 5.12199C39.3935 5.22264 39.5863 5.16928 39.6718 5.17534C40.0446 5.25234 40.3587 5.08076 40.6873 4.96193C40.9656 5.24628 41.3179 5.14564 41.6556 5.12745C41.6823 5.12745 41.7265 5.10986 41.7326 5.09168C41.8508 4.76003 42.1176 4.83703 42.3722 4.88432C42.5262 4.8722 42.5111 4.78368 42.4789 4.68909L42.485 4.68303C42.5978 4.7188 42.6657 4.68303 42.6802 4.57026H42.6772C42.816 4.62968 42.9173 4.39868 43.0683 4.52903C43.1362 4.65332 43.0179 4.84309 43.2841 4.92009C43.4678 4.97345 43.1713 5.1038 43.2216 5.24567C43.4854 5.21597 43.6685 5.05651 43.8407 4.89645C43.9795 4.77822 43.8316 4.74245 43.7279 4.73093C43.4878 4.6897 43.5236 4.57087 43.6479 4.44657C43.811 4.28651 44.0298 4.12099 44.2402 4.1507C44.6786 4.20406 45.1133 4.11493 45.5456 4.16828C45.5838 4.17435 45.6371 4.19193 45.6553 4.21558C45.8124 4.45809 46.0906 4.52357 46.3392 4.63028C46.4902 4.69516 46.5581 4.78428 46.449 4.92616C46.3574 5.05045 46.3986 5.10986 46.5466 5.11532C46.7509 5.12138 46.8425 5.27538 46.9904 5.36997C46.8515 5.46455 46.7151 5.5179 46.6024 5.58884C46.4423 5.69555 46.3623 5.64826 46.2677 5.52942C46.2174 5.46455 46.167 5.35784 46.0518 5.45849C45.9603 5.54155 46.0076 5.63007 46.0815 5.68948C46.2416 5.81984 46.1676 5.90836 46.064 6.04478C45.9191 6.22848 45.8566 6.00355 45.7529 6.01507C45.7323 6.00294 45.7117 5.99142 45.6881 5.97384C45.6614 5.95626 45.6317 5.92048 45.605 5.96778C45.5989 5.97384 45.6286 6.00355 45.6432 6.02113C45.6638 6.03871 45.6814 6.06236 45.6996 6.086C45.6935 6.13936 45.8063 6.25759 45.685 6.24C45.451 6.19877 45.1673 6.19877 45.0217 5.96778C44.8914 5.77255 44.7556 5.63613 44.4979 5.80226C44.4179 5.84955 44.3203 5.84955 44.2905 5.75496C44.2639 5.66038 44.3675 5.63067 44.4445 5.60703C44.4809 5.59187 44.5312 5.59187 44.5664 5.604C44.9453 5.73435 45.1024 5.37906 45.3716 5.27235C45.4868 5.23112 45.4516 5.08864 45.28 5.065C45.2976 5.01164 45.351 4.95223 45.2327 4.94677C45.2152 4.94071 45.2061 4.92919 45.2061 4.91706C45.203 4.86977 45.1764 4.84612 45.1321 4.85219H45.1527L45.1321 4.85825C45.1321 4.78125 45.0787 4.77519 45.0193 4.77519C44.966 4.78125 44.9156 4.79883 44.8653 4.79883C44.4924 4.74548 44.2378 4.84006 44.1196 5.219C44.0602 5.39058 43.5303 5.49123 43.3205 5.41423C43.0543 5.4791 42.85 5.63916 42.6457 5.79316L42.6487 5.7871C42.5571 5.77497 42.468 5.75739 42.4444 5.87562C41.9678 6.13633 41.4319 6.29578 41.0087 6.63349C40.828 6.77536 40.9317 7.10701 41.1657 7.1543C41.4058 7.20765 41.5446 7.41501 41.7817 7.47988C41.835 7.49746 41.8823 7.54476 41.9472 7.55082C42.1424 7.55688 42.3528 7.53869 42.1576 7.82911C42.1073 7.90005 42.2049 8.03646 42.1012 8.13711C42.0921 8.14317 42.1339 8.32082 42.2194 8.31475C42.3377 8.30869 42.5123 8.24382 42.5153 8.13711C42.5214 7.67511 42.924 7.59265 43.2374 7.41501C43.409 7.32043 43.5751 7.19613 43.4211 6.97665C43.3829 6.91724 43.3914 6.88207 43.4357 6.8463C43.6576 6.70988 43.72 6.47343 43.8443 6.27214C43.8801 6.21272 43.9037 6.13572 43.9953 6.14178C44.3597 6.14785 44.7234 6.15937 45.0017 6.4322C45.0903 6.52072 44.9751 6.55043 44.9544 6.60378C44.9132 6.70443 44.9072 6.78749 45.0017 6.86995C45.0903 6.94695 45.1673 6.91724 45.2594 6.88207C45.4546 6.80507 45.6026 6.6632 45.8221 6.53284C45.8603 6.75172 45.9494 6.95907 45.9106 7.14278C45.8572 7.3853 45.9815 7.48594 46.1476 7.59265C46.4229 7.7703 46.4556 7.94794 46.3283 8.24988C46.2543 8.42752 46.0767 8.67004 46.4969 8.74704C46.583 8.75917 46.5854 9.00775 46.5411 9.13204C46.5114 9.21511 46.4199 9.28604 46.2537 9.16781C46.0555 9.02594 45.7596 9.10294 45.4753 9.07323C45.6353 8.78282 45.9251 8.62336 46.1028 8.37478C46.1264 8.36871 46.1561 8.36265 46.1355 8.33355C46.1325 8.32749 46.0973 8.34507 46.0737 8.35113ZM44.33 4.295C44.3209 4.30713 44.3154 4.31865 44.3063 4.33077L44.3506 4.31319C44.3712 4.30106 44.3888 4.27742 44.407 4.2659C44.407 4.25984 44.3863 4.24225 44.3863 4.24225C44.3651 4.25984 44.3475 4.27742 44.33 4.295Z" stroke="#3766B0" stroke-width="0.609" stroke-miterlimit="10"/>
<path d="M42.5166 16.5987C42.5815 16.569 42.6439 16.5575 42.6942 16.6163C42.8779 16.8352 43.0586 16.6994 43.1059 16.5569C43.1859 16.3083 43.3697 16.2253 43.6091 16.1659C43.7274 16.1361 43.7959 16.0119 43.9468 16.0179C43.9826 16.1186 43.8165 16.1956 43.9171 16.2962C44.056 16.2786 44.1039 16.1422 44.1924 16.0828C44.5065 16.3253 44.8793 16.3908 45.2461 16.3138C45.5511 16.2544 45.6396 16.4617 45.8149 16.5624C46.0725 16.7164 46.238 16.965 46.5048 17.1068C46.6321 17.1778 46.7655 17.2075 46.9165 17.2135C47.3282 17.2372 47.5234 17.4027 47.6447 17.7404C47.7362 17.9951 47.8902 18.22 48.083 18.4273C48.1212 18.4631 48.1394 18.4334 48.1715 18.4273C48.4377 18.3801 48.6244 18.4807 48.7875 18.6583C48.9264 18.8063 49.1574 18.8123 49.3235 18.7766C49.6285 18.7117 49.791 18.8651 49.9807 19.0015C50.1141 19.1022 50.2384 19.1967 50.4009 19.2677C50.5876 19.3562 50.6289 19.552 50.5725 19.7351C50.5488 19.8121 50.51 19.8831 50.4573 19.9425C49.9395 20.5166 49.8801 21.2157 49.7764 21.902C49.7291 22.2161 49.5393 22.435 49.1756 22.518C48.9148 22.5774 48.7227 22.743 48.5038 22.8673C48.3649 22.9443 48.3856 23.0564 48.4001 23.1868C48.4237 23.4475 48.4031 23.6961 48.0891 23.8319C48.0357 23.8555 48.0266 23.8913 48.0151 23.9325C48.0006 23.9859 47.9854 24.0332 47.9678 24.0805C47.7811 24.6195 47.6362 24.6965 47.0529 24.56C47.1208 24.6431 47.139 24.7438 47.2245 24.8147C47.4167 24.9802 47.3342 25.2706 47.0766 25.3416C46.9965 25.3652 46.908 25.3828 46.8219 25.3828C46.6588 25.3767 46.5527 25.4064 46.5939 25.578C46.6297 25.7144 46.5315 25.7557 46.4048 25.7854C46.3338 25.7975 46.2035 25.7023 46.1944 25.8327C46.1914 25.9212 46.2653 26.0103 46.3896 26.0279C46.4163 26.034 46.443 26.0455 46.4903 26.0576C46.289 26.2231 46.3538 26.4602 46.2265 26.6554C46.1526 26.7621 46.315 26.8446 46.3981 26.9216C46.4454 26.9628 46.5285 26.9689 46.4866 27.0756C46.2259 27.6855 46.3448 27.8983 47.0341 28.1354C47.0753 28.153 47.1317 28.153 47.1523 28.2184C47.0608 28.2954 46.9632 28.3785 46.8146 28.3549C46.3557 28.2718 45.8997 28.1833 45.5978 27.8219C45.4347 27.6328 45.2722 27.4369 45.1121 27.2478C45.0588 27.1768 44.9939 27.1113 45.0558 27.0107C45.0915 26.9634 45.0679 26.9161 45.023 26.8803C44.8545 26.7263 44.8484 26.5426 44.9818 26.3474C45.0618 26.2292 44.9939 26.1103 44.9436 25.9921C44.8339 26.0097 44.9527 26.134 44.8399 26.134C44.7629 26.134 44.7629 26.0631 44.7569 26.0158C44.692 25.6011 44.4489 25.2106 44.541 24.7783C44.6538 24.2339 44.4076 23.7124 44.4282 23.174C44.4428 22.7302 44.4343 22.2858 44.307 21.8475C44.2773 21.7529 44.2742 21.6522 44.1651 21.6104C43.3951 21.2848 43.058 20.6391 42.6585 20.0413C42.5136 19.8224 42.4244 19.5739 42.2056 19.3962C42.1613 19.3604 42.1728 19.2719 42.1346 19.2307C41.9455 19.0233 42.4069 18.8754 42.1789 18.6147C42.0637 18.4783 42.2438 18.2121 42.4366 18.046C42.9077 17.641 42.9313 17.0668 42.5166 16.5987Z" fill="#3766B0"/>
<path d="M42.5166 16.5987C42.5815 16.569 42.6439 16.5575 42.6942 16.6163C42.8779 16.8352 43.0586 16.6994 43.1059 16.5569C43.1859 16.3083 43.3697 16.2253 43.6091 16.1659C43.7274 16.1361 43.7959 16.0119 43.9468 16.0179C43.9826 16.1186 43.8165 16.1956 43.9171 16.2962C44.056 16.2786 44.1039 16.1422 44.1924 16.0828C44.5065 16.3253 44.8793 16.3908 45.2461 16.3138C45.5511 16.2544 45.6396 16.4617 45.8149 16.5624C46.0725 16.7164 46.238 16.965 46.5048 17.1068C46.6321 17.1778 46.7655 17.2075 46.9165 17.2135C47.3282 17.2372 47.5234 17.4027 47.6447 17.7404C47.7362 17.9951 47.8902 18.22 48.083 18.4273C48.1212 18.4631 48.1394 18.4334 48.1715 18.4273C48.4377 18.3801 48.6244 18.4807 48.7875 18.6583C48.9264 18.8063 49.1574 18.8123 49.3235 18.7766C49.6285 18.7117 49.791 18.8651 49.9807 19.0015C50.1141 19.1022 50.2384 19.1967 50.4009 19.2677C50.5876 19.3562 50.6289 19.552 50.5725 19.7351C50.5488 19.8121 50.51 19.8831 50.4573 19.9425C49.9395 20.5166 49.8801 21.2157 49.7764 21.902C49.7291 22.2161 49.5393 22.435 49.1756 22.518C48.9148 22.5774 48.7227 22.743 48.5038 22.8673C48.3649 22.9443 48.3856 23.0564 48.4001 23.1868C48.4237 23.4475 48.4031 23.6961 48.0891 23.8319C48.0357 23.8555 48.0266 23.8913 48.0151 23.9325C48.0006 23.9859 47.9854 24.0332 47.9678 24.0805C47.7811 24.6195 47.6362 24.6965 47.0529 24.56C47.1208 24.6431 47.139 24.7438 47.2245 24.8147C47.4167 24.9802 47.3342 25.2706 47.0766 25.3416C46.9965 25.3652 46.908 25.3828 46.8219 25.3828C46.6588 25.3767 46.5527 25.4064 46.5939 25.578C46.6297 25.7144 46.5315 25.7557 46.4048 25.7854C46.3338 25.7975 46.2035 25.7023 46.1944 25.8327C46.1914 25.9212 46.2653 26.0103 46.3896 26.0279C46.4163 26.034 46.443 26.0455 46.4903 26.0576C46.289 26.2231 46.3538 26.4602 46.2265 26.6554C46.1526 26.7621 46.315 26.8446 46.3981 26.9216C46.4454 26.9628 46.5285 26.9689 46.4866 27.0756C46.2259 27.6855 46.3448 27.8983 47.0341 28.1354C47.0753 28.153 47.1317 28.153 47.1523 28.2184C47.0608 28.2954 46.9632 28.3785 46.8146 28.3549C46.3557 28.2718 45.8997 28.1833 45.5978 27.8219C45.4347 27.6328 45.2722 27.4369 45.1121 27.2478C45.0588 27.1768 44.9939 27.1113 45.0558 27.0107C45.0915 26.9634 45.0679 26.9161 45.023 26.8803C44.8545 26.7263 44.8484 26.5426 44.9818 26.3474C45.0618 26.2292 44.9939 26.1103 44.9436 25.9921C44.8339 26.0097 44.9527 26.134 44.8399 26.134C44.7629 26.134 44.7629 26.0631 44.7569 26.0158C44.692 25.6011 44.4489 25.2106 44.541 24.7783C44.6538 24.2339 44.4076 23.7124 44.4282 23.174C44.4428 22.7302 44.4343 22.2858 44.307 21.8475C44.2773 21.7529 44.2742 21.6522 44.1651 21.6104C43.3951 21.2848 43.058 20.6391 42.6585 20.0413C42.5136 19.8224 42.4244 19.5739 42.2056 19.3962C42.1613 19.3604 42.1728 19.2719 42.1346 19.2307C41.9455 19.0233 42.4069 18.8754 42.1789 18.6147C42.0637 18.4783 42.2438 18.2121 42.4366 18.046C42.9077 17.641 42.9313 17.0668 42.5166 16.5987Z" stroke="#3766B0" stroke-width="0.609" stroke-miterlimit="10"/>
<path d="M55.3276 7.62284C55.0317 7.71136 54.688 7.59313 54.3982 7.73561C54.3715 7.74774 54.2945 7.73561 54.3066 7.70591C54.3393 7.61132 54.4133 7.5222 54.2654 7.45126C54.4545 7.45126 54.3333 7.2621 54.5055 7.23239C54.6922 7.19662 54.5679 7.04322 54.5261 7.04322C54.3751 7.03716 54.3187 6.90681 54.1738 6.91893H54.1799C54.1769 6.5697 54.1769 6.5697 54.7662 6.33264C54.7898 6.42116 54.6564 6.45087 54.6358 6.53393C54.7777 6.55151 54.982 6.54606 54.7722 6.71764C54.7425 6.74129 54.728 6.77706 54.7631 6.8007C54.9941 6.94258 55.0178 7.21541 55.3197 7.30999C55.4082 7.33364 55.4113 7.39851 55.3525 7.44035C55.2694 7.49976 55.3052 7.55858 55.3228 7.62406H55.3276V7.62284Z" fill="#3766B0"/>
<path d="M55.3276 7.62284C55.0317 7.71136 54.688 7.59313 54.3982 7.73561C54.3715 7.74774 54.2945 7.73561 54.3066 7.70591C54.3393 7.61132 54.4133 7.5222 54.2654 7.45126C54.4545 7.45126 54.3333 7.2621 54.5055 7.23239C54.6922 7.19662 54.5679 7.04322 54.5261 7.04322C54.3751 7.03716 54.3187 6.90681 54.1738 6.91893H54.1799C54.1769 6.5697 54.1769 6.5697 54.7662 6.33264C54.7898 6.42116 54.6564 6.45087 54.6358 6.53393C54.7777 6.55151 54.982 6.54606 54.7722 6.71764C54.7425 6.74129 54.728 6.77706 54.7631 6.8007C54.9941 6.94258 55.0178 7.21541 55.3197 7.30999C55.4082 7.33364 55.4113 7.39851 55.3525 7.44035C55.2694 7.49976 55.3052 7.55858 55.3228 7.62406H55.3276V7.62284Z" stroke="#3766B0" stroke-width="0.609" stroke-miterlimit="10"/>
<path d="M41.3446 14.6035C41.1257 14.7454 40.9154 14.7102 40.711 14.7217C40.631 14.7217 40.6249 14.6447 40.6074 14.5799C40.5479 14.4022 40.1157 14.1415 39.9325 14.1773C39.8319 14.1949 39.7961 14.29 39.7313 14.3549C39.7015 14.3786 39.6718 14.4083 39.6367 14.3786C39.5954 14.3489 39.5894 14.2955 39.6246 14.2603C39.7222 14.1597 39.8113 14.0651 39.9768 14.0827C40.3703 14.1185 40.7674 14.1239 41.0633 14.4495C41.1197 14.515 41.2203 14.5386 41.3446 14.6035Z" fill="#3766B0"/>
<path d="M41.3446 14.6035C41.1257 14.7454 40.9154 14.7102 40.711 14.7217C40.631 14.7217 40.6249 14.6447 40.6074 14.5799C40.5479 14.4022 40.1157 14.1415 39.9325 14.1773C39.8319 14.1949 39.7961 14.29 39.7313 14.3549C39.7015 14.3786 39.6718 14.4083 39.6367 14.3786C39.5954 14.3489 39.5894 14.2955 39.6246 14.2603C39.7222 14.1597 39.8113 14.0651 39.9768 14.0827C40.3703 14.1185 40.7674 14.1239 41.0633 14.4495C41.1197 14.515 41.2203 14.5386 41.3446 14.6035Z" stroke="#3766B0" stroke-width="0.609" stroke-miterlimit="10"/>
<path d="M53.8594 2.89202C53.957 2.79138 54.0607 2.72044 54.2086 2.82715C54.3238 2.91567 54.4572 2.86292 54.5815 2.8508C54.7264 2.83867 54.8719 2.81503 55.0198 2.80957C55.0938 2.80957 55.1617 2.85686 55.1829 2.93386C55.2005 3.0048 55.1593 3.07028 55.0999 3.09392C54.9192 3.15334 54.7355 3.20669 54.5493 3.25398C54.3335 3.31886 54.2147 3.18911 54.108 3.02905C54.0552 2.94538 53.9067 3.01025 53.8594 2.89202Z" fill="#3766B0"/>
<path d="M53.8594 2.89202C53.957 2.79138 54.0607 2.72044 54.2086 2.82715C54.3238 2.91567 54.4572 2.86292 54.5815 2.8508C54.7264 2.83867 54.8719 2.81503 55.0198 2.80957C55.0938 2.80957 55.1617 2.85686 55.1829 2.93386C55.2005 3.0048 55.1593 3.07028 55.0999 3.09392C54.9192 3.15334 54.7355 3.20669 54.5493 3.25398C54.3335 3.31886 54.2147 3.18911 54.108 3.02905C54.0552 2.94538 53.9067 3.01025 53.8594 2.89202Z" stroke="#3766B0" stroke-width="0.609" stroke-miterlimit="10"/>
<path d="M43.5446 4.50842C43.4142 4.38413 43.3227 4.59694 43.2014 4.54419C43.222 4.40777 43.1099 4.43748 43.0596 4.46113C42.9146 4.53206 42.8437 4.44354 42.7667 4.35442C42.737 4.32471 42.6752 4.31319 42.7018 4.25377C42.7255 4.20042 42.7904 4.23013 42.817 4.218C43.0038 4.09977 43.199 4.03429 43.4239 4.08158C43.4536 4.16465 43.3172 4.27075 43.4239 4.3241C43.5216 4.37139 43.5719 4.24104 43.6313 4.17617C43.8059 3.99852 44.0248 4.08765 44.274 4.06339C44.1291 4.21739 43.9926 4.28227 43.8271 4.30591C43.701 4.32471 43.5591 4.33077 43.5446 4.50842Z" fill="#3766B0"/>
<path d="M43.5446 4.50842C43.4142 4.38413 43.3227 4.59694 43.2014 4.54419C43.222 4.40777 43.1099 4.43748 43.0596 4.46113C42.9146 4.53206 42.8437 4.44354 42.7667 4.35442C42.737 4.32471 42.6752 4.31319 42.7018 4.25377C42.7255 4.20042 42.7904 4.23013 42.817 4.218C43.0038 4.09977 43.199 4.03429 43.4239 4.08158C43.4536 4.16465 43.3172 4.27075 43.4239 4.3241C43.5216 4.37139 43.5719 4.24104 43.6313 4.17617C43.8059 3.99852 44.0248 4.08765 44.274 4.06339C44.1291 4.21739 43.9926 4.28227 43.8271 4.30591C43.701 4.32471 43.5591 4.33077 43.5446 4.50842Z" stroke="#3766B0" stroke-width="0.609" stroke-miterlimit="10"/>
<path d="M54.1731 6.91858C54.2768 7.20293 53.9863 7.51639 53.6104 7.52851C53.5395 7.53458 53.4655 7.52851 53.4213 7.48122C53.3649 7.41635 53.4479 7.38664 53.4952 7.35087C53.5189 7.33874 53.5486 7.32722 53.5577 7.30358C53.6407 7.00164 53.7766 6.91858 54.1791 6.91858H54.1731V6.91858Z" fill="#3766B0"/>
<path d="M54.1731 6.91858C54.2768 7.20293 53.9863 7.51639 53.6104 7.52851C53.5395 7.53458 53.4655 7.52851 53.4213 7.48122C53.3649 7.41635 53.4479 7.38664 53.4952 7.35087C53.5189 7.33874 53.5486 7.32722 53.5577 7.30358C53.6407 7.00164 53.7766 6.91858 54.1791 6.91858H54.1731V6.91858Z" stroke="#3766B0" stroke-width="0.609" stroke-miterlimit="10"/>
<path d="M41.1973 15.018C41.3628 14.9349 41.5998 14.9646 41.5495 14.7039C41.7126 14.7039 41.8751 14.6863 42.0321 14.716C42.1298 14.7336 42.2334 14.8045 42.2807 14.9113C42.2983 14.9525 42.2807 14.9998 42.2365 14.9943C41.9048 14.9822 41.5817 15.2253 41.1973 15.018Z" fill="#3766B0"/>
<path d="M41.1973 15.018C41.3628 14.9349 41.5998 14.9646 41.5495 14.7039C41.7126 14.7039 41.8751 14.6863 42.0321 14.716C42.1298 14.7336 42.2334 14.8045 42.2807 14.9113C42.2983 14.9525 42.2807 14.9998 42.2365 14.9943C41.9048 14.9822 41.5817 15.2253 41.1973 15.018Z" stroke="#3766B0" stroke-width="0.609" stroke-miterlimit="10"/>
<path d="M32.5322 6.7583C32.5735 6.77588 32.6183 6.79953 32.6626 6.82317C32.1624 7.15482 31.6119 7.33246 31.0256 7.39734C31.0165 7.37369 31.011 7.35005 31.002 7.33246C31.5106 7.13724 32.023 6.94747 32.5322 6.7583Z" fill="#3766B0"/>
<path d="M32.5322 6.7583C32.5735 6.77588 32.6183 6.79953 32.6626 6.82317C32.1624 7.15482 31.6119 7.33246 31.0256 7.39734C31.0165 7.37369 31.011 7.35005 31.002 7.33246C31.5106 7.13724 32.023 6.94747 32.5322 6.7583Z" stroke="#3766B0" stroke-width="0.609" stroke-miterlimit="10"/>
<path d="M43.1738 5.67483C43.3545 5.53296 43.5322 5.38441 43.7662 5.33167C43.7516 5.49718 43.9202 5.51537 44.0032 5.59783C44.0536 5.65118 44.1366 5.69241 44.0978 5.77548C44.0566 5.86399 43.9644 5.84035 43.9087 5.79912C43.7874 5.70454 43.6928 5.74577 43.5922 5.82883C43.5358 5.87612 43.4679 5.89977 43.3939 5.84096C43.2787 5.74637 43.4267 5.7106 43.4297 5.63966C43.3278 5.57964 43.2599 5.69241 43.1738 5.67483Z" fill="#3766B0"/>
<path d="M43.1738 5.67483C43.3545 5.53296 43.5322 5.38441 43.7662 5.33167C43.7516 5.49718 43.9202 5.51537 44.0032 5.59783C44.0536 5.65118 44.1366 5.69241 44.0978 5.77548C44.0566 5.86399 43.9644 5.84035 43.9087 5.79912C43.7874 5.70454 43.6928 5.74577 43.5922 5.82883C43.5358 5.87612 43.4679 5.89977 43.3939 5.84096C43.2787 5.74637 43.4267 5.7106 43.4297 5.63966C43.3278 5.57964 43.2599 5.69241 43.1738 5.67483Z" stroke="#3766B0" stroke-width="0.609" stroke-miterlimit="10"/>
<path d="M45.4481 4.88733C45.5517 4.89339 45.5044 4.9522 45.4893 5.0001C45.4008 5.06497 45.3207 5.13652 45.2231 5.18927C45.1758 5.21291 45.0843 5.20685 45.06 5.13591C45.0358 5.06497 45.0982 5.02314 45.1667 5.00556C45.2649 4.98191 45.3947 5.02314 45.4481 4.88733Z" fill="#3766B0"/>
<path d="M45.4481 4.88733C45.5517 4.89339 45.5044 4.9522 45.4893 5.0001C45.4008 5.06497 45.3207 5.13652 45.2231 5.18927C45.1758 5.21291 45.0843 5.20685 45.06 5.13591C45.0358 5.06497 45.0982 5.02314 45.1667 5.00556C45.2649 4.98191 45.3947 5.02314 45.4481 4.88733Z" stroke="#3766B0" stroke-width="0.609" stroke-miterlimit="10"/>
<path d="M43.0282 4.65637C43.0579 4.74489 43.0664 4.82795 42.9336 4.83402C42.9748 4.78066 42.9542 4.69214 43.0282 4.65637Z" fill="#3766B0"/>
<path d="M43.0282 4.65637C43.0579 4.74489 43.0664 4.82795 42.9336 4.83402C42.9748 4.78066 42.9542 4.69214 43.0282 4.65637Z" stroke="#3766B0" stroke-width="0.609" stroke-miterlimit="10"/>
<path d="M42.9961 5.75749C43.0167 5.64472 43.0967 5.66291 43.1768 5.67443C43.1265 5.72839 43.067 5.75749 42.9961 5.75749Z" fill="#3766B0"/>
<path d="M42.9961 5.75749C43.0167 5.64472 43.0967 5.66291 43.1768 5.67443C43.1265 5.72839 43.067 5.75749 42.9961 5.75749Z" stroke="#3766B0" stroke-width="0.609" stroke-miterlimit="10"/>
<path d="M43.2067 4.54358C43.1892 4.64483 43.1297 4.68 43.0352 4.65029C43.0764 4.59148 43.1358 4.56177 43.2067 4.54358Z" fill="#3766B0"/>
<path d="M43.2067 4.54358C43.1892 4.64483 43.1297 4.68 43.0352 4.65029C43.0764 4.59148 43.1358 4.56177 43.2067 4.54358Z" stroke="#3766B0" stroke-width="0.609" stroke-miterlimit="10"/>
<path d="M45.2617 4.7332C45.3151 4.72713 45.3624 4.73926 45.3593 4.80413C45.3266 4.78049 45.2939 4.75684 45.2617 4.7332Z" fill="#3766B0"/>
<path d="M45.2617 4.7332C45.3151 4.72713 45.3624 4.73926 45.3593 4.80413C45.3266 4.78049 45.2939 4.75684 45.2617 4.7332Z" stroke="#3766B0" stroke-width="0.609" stroke-miterlimit="10"/>
<path d="M45.3555 4.80429C45.3967 4.79823 45.4179 4.82187 45.4203 4.85765C45.3997 4.84006 45.3791 4.82187 45.3555 4.80429Z" fill="#3766B0"/>
<path d="M45.3555 4.80429C45.3967 4.79823 45.4179 4.82187 45.4203 4.85765C45.3997 4.84006 45.3791 4.82187 45.3555 4.80429Z" stroke="#3766B0" stroke-width="0.609" stroke-miterlimit="10"/>
<path d="M33.6914 6.52747L33.6969 6.54505L33.6914 6.53353V6.52747Z" fill="#3766B0"/>
<path d="M33.6914 6.52747L33.6969 6.54505L33.6914 6.53353V6.52747Z" stroke="#3766B0" stroke-width="0.609" stroke-miterlimit="10"/>
<path d="M33.7461 6.41453C33.7758 6.38483 33.8261 6.35512 33.8498 6.39089C33.888 6.43818 33.8116 6.43818 33.7904 6.46789C33.7758 6.45031 33.7613 6.43272 33.7461 6.41453Z" fill="#3766B0"/>
<path d="M33.7461 6.41453C33.7758 6.38483 33.8261 6.35512 33.8498 6.39089C33.888 6.43818 33.8116 6.43818 33.7904 6.46789C33.7758 6.45031 33.7613 6.43272 33.7461 6.41453Z" stroke="#3766B0" stroke-width="0.609" stroke-miterlimit="10"/>
<path d="M46.1855 8.0608C46.2031 8.05473 46.2389 8.04321 46.2389 8.04321C46.2565 8.07292 46.2328 8.07898 46.2092 8.08444C46.2031 8.07898 46.1946 8.07292 46.1855 8.0608Z" fill="#3766B0"/>
<path d="M46.1855 8.0608C46.2031 8.05473 46.2389 8.04321 46.2389 8.04321C46.2565 8.07292 46.2328 8.07898 46.2092 8.08444C46.2031 8.07898 46.1946 8.07292 46.1855 8.0608Z" stroke="#3766B0" stroke-width="0.609" stroke-miterlimit="10"/>
<path d="M44.6771 4.30697C44.6595 4.31303 44.6474 4.31303 44.6328 4.3191C44.6419 4.30697 44.6474 4.29545 44.6565 4.28333C44.6619 4.28939 44.668 4.29484 44.6771 4.30697Z" fill="#3766B0"/>
<path d="M44.6771 4.30697C44.6595 4.31303 44.6474 4.31303 44.6328 4.3191C44.6419 4.30697 44.6474 4.29545 44.6565 4.28333C44.6619 4.28939 44.668 4.29484 44.6771 4.30697Z" stroke="#3766B0" stroke-width="0.609" stroke-miterlimit="10"/>
<path d="M40.4883 4.37199C40.5089 4.36592 40.5447 4.34834 40.5507 4.3544C40.5744 4.38411 40.5447 4.39563 40.5241 4.40776C40.5119 4.39563 40.4998 4.38411 40.4883 4.37199Z" fill="#3766B0"/>
<path d="M40.4883 4.37199C40.5089 4.36592 40.5447 4.34834 40.5507 4.3544C40.5744 4.38411 40.5447 4.39563 40.5241 4.40776C40.5119 4.39563 40.4998 4.38411 40.4883 4.37199Z" stroke="#3766B0" stroke-width="0.609" stroke-miterlimit="10"/>
</g>
<path d="M74.0839 10.2872C74.1403 10.3703 74.1433 10.4649 74.1403 10.5595C74.1281 10.8499 74.0518 11.1161 73.8947 11.3586C73.8505 11.4295 73.8001 11.5004 73.7468 11.5599C73.6079 11.7314 73.4685 11.903 73.3297 12.0692C73.2199 12.2056 73.1108 12.3353 72.998 12.4657C72.8088 12.6967 72.616 12.9277 72.4238 13.1526C72.3826 13.206 72.3675 13.2593 72.3826 13.3242C72.593 14.3131 72.8028 15.2959 73.0162 16.2847C73.1581 16.9596 73.3036 17.635 73.4485 18.3098C73.4606 18.3631 73.4515 18.4044 73.4157 18.4462C73.2235 18.6711 73.0398 18.8961 72.8501 19.1271C72.844 19.1331 72.8379 19.1392 72.8325 19.1446C72.1074 17.8599 71.3816 16.5752 70.6565 15.2844C70.6535 15.2904 70.6504 15.2904 70.6474 15.2904C70.5674 15.3911 70.4843 15.4856 70.4049 15.5863C70.3515 15.6512 70.2982 15.7166 70.2448 15.7815C70.0999 15.9531 69.9544 16.1247 69.8095 16.2969C69.7355 16.3799 69.6555 16.4509 69.5755 16.5279C69.5664 16.5455 69.5579 16.5339 69.5457 16.5279C69.5015 16.4921 69.4572 16.4509 69.4093 16.4151C69.3208 16.3442 69.2317 16.2672 69.1456 16.1962C68.9946 16.0719 68.8437 15.9476 68.6897 15.8173C68.7194 15.77 68.743 15.7288 68.7727 15.6869C68.817 15.6336 68.8612 15.5742 68.9061 15.5214C69.1753 15.1958 69.4481 14.8703 69.7204 14.5447C69.7234 14.5386 69.7295 14.5325 69.7379 14.521C68.3374 14.0414 66.9405 13.5619 65.543 13.0823C65.549 13.0702 65.5551 13.0702 65.5606 13.0647C65.7382 12.8458 65.9189 12.6263 66.0995 12.4135C66.1117 12.3959 66.1232 12.3838 66.1353 12.3723C66.1681 12.3426 66.2063 12.325 66.2505 12.325C67.0175 12.3487 67.7838 12.3662 68.5478 12.3899C69.2347 12.4075 69.9186 12.4257 70.6056 12.4493C70.8481 12.4554 71.0912 12.4614 71.3337 12.4669C71.4138 12.473 71.4756 12.4432 71.5229 12.3838C71.8188 12.0225 72.1152 11.6617 72.4141 11.3064C72.5712 11.1173 72.7306 10.9275 72.8937 10.7377C73.1217 10.477 73.4115 10.3115 73.7522 10.2345C73.7819 10.2284 73.8147 10.2224 73.8438 10.2169C73.9087 10.2109 73.9711 10.2169 74.0275 10.2406C74.0481 10.2575 74.0663 10.2757 74.0839 10.2872Z" fill="#3766B0"/>
<path d="M71.1565 14.1834C70.0197 15.0122 65.6738 20.6132 60.8719 24.6517C54.9568 29.6252 51.872 30.6735 47.2423 30.9336C39.1573 31.3895 32.582 24.2546 32.582 16.0186C32.582 7.77663 39.1452 1.09827 47.2423 1.09827C55.3364 1.09827 61.8996 7.77724 61.8996 16.0186C61.8996 17.6763 61.6334 18.7658 61.1386 20.2579C61.115 20.3227 60.0643 20.909 60.04 20.98" stroke="#3766B0" stroke-width="1.384" stroke-miterlimit="10"/>
<path d="M69.2056 15.8993L66.6934 16.2496" stroke="#3766B0" stroke-miterlimit="10"/>
<path d="M69.5071 16.2024L69.5071 18.3245" stroke="#3766B0" stroke-miterlimit="10"/>
<path d="M66.8749 36.2561H66.2559V31.5609H66.8749V36.2561Z" fill="#062862"/>
<path d="M70.6582 35.0308H68.6865L68.2451 36.2561H67.6055L69.4025 31.5609H69.9446L71.7416 36.2561H71.105L70.6582 35.0308ZM68.8763 34.5215H70.472L69.6729 32.3248L68.8763 34.5215Z" fill="#062862"/>
<path d="M75.2057 32.0641H73.696V36.2561H73.077V32.0641H71.5703V31.5609H75.2057V32.0641Z" fill="#062862"/>
<path d="M78.2444 35.0308H76.2757L75.8319 36.2561H75.1953L76.9893 31.5609H77.5314L79.3284 36.2561H78.6918L78.2444 35.0308ZM76.4625 34.5215H78.0613L77.2591 32.3248L76.4625 34.5215Z" fill="#062862"/>
<path d="M85.2107 36.2561H84.5893L82.2211 32.6383V36.2561H81.5996V31.5609H82.2211L84.5953 35.1963V31.5609H85.2113V36.2561H85.2107Z" fill="#062862"/>
<path d="M86.3145 36.2561V31.5609H87.641C88.0497 31.5609 88.411 31.6494 88.7245 31.8331C89.0386 32.0108 89.2811 32.2654 89.4527 32.6031C89.6242 32.9348 89.7103 33.3198 89.7134 33.7521V34.054C89.7134 34.4924 89.6273 34.8828 89.4557 35.2145C89.2841 35.5522 89.041 35.8068 88.7245 35.9845C88.405 36.1621 88.0345 36.2567 87.6144 36.2567H86.3145V36.2561ZM86.9329 32.0641V35.7529H87.584C88.0636 35.7529 88.4335 35.6049 88.7002 35.309C88.9664 35.0071 89.0968 34.5869 89.0968 34.0358V33.7636C89.0968 33.2307 88.9725 32.8166 88.7239 32.514C88.4723 32.2181 88.117 32.0702 87.655 32.0641H86.9329Z" fill="#062862"/>
<path d="M94.1035 34.7702C94.0441 35.2674 93.861 35.6463 93.553 35.9192C93.2419 36.1914 92.8333 36.3217 92.3216 36.3217C91.765 36.3217 91.3212 36.1265 90.9865 35.7294C90.6518 35.3268 90.4863 34.7939 90.4863 34.1306V33.6746C90.4863 33.2423 90.5633 32.8574 90.7173 32.5257C90.8744 32.1941 91.0963 31.9394 91.3806 31.7618C91.668 31.5841 91.9996 31.4956 92.3755 31.4956C92.8757 31.4956 93.2753 31.632 93.5772 31.9103C93.8792 32.1886 94.0538 32.5797 94.1041 33.0708H93.4796C93.4263 32.6918 93.3111 32.4257 93.1304 32.2535C92.9497 32.088 92.6981 31.9988 92.3755 31.9988C91.979 31.9988 91.671 32.1468 91.4461 32.4426C91.2212 32.7331 91.1084 33.1472 91.1084 33.6922V34.1488C91.1084 34.6581 91.2151 35.0606 91.4279 35.3626C91.6407 35.6645 91.9372 35.8185 92.3222 35.8185C92.6654 35.8185 92.9291 35.7415 93.1128 35.5814C93.2995 35.4274 93.4208 35.1552 93.4796 34.7702H94.1035V34.7702Z" fill="#062862"/>
<path d="M100.043 34.7702C99.9835 35.2674 99.8004 35.6463 99.4924 35.9192C99.1844 36.192 98.7728 36.3217 98.261 36.3217C97.7045 36.3217 97.2607 36.1265 96.926 35.7294C96.5913 35.3268 96.4258 34.7939 96.4258 34.1306V33.6746C96.4258 33.2423 96.5028 32.8574 96.6598 32.5257C96.8138 32.1941 97.0357 31.9394 97.3231 31.7618C97.6075 31.5841 97.9391 31.4956 98.315 31.4956C98.8152 31.4956 99.2147 31.632 99.5167 31.9103C99.8186 32.1886 99.9932 32.5797 100.044 33.0708H99.4191C99.3657 32.6918 99.2505 32.4257 99.0698 32.2535C98.8892 32.088 98.6406 31.9988 98.315 31.9988C97.9215 31.9988 97.6105 32.1468 97.3855 32.4426C97.1606 32.7331 97.0478 33.1472 97.0478 33.6922V34.1488C97.0478 34.6581 97.1545 35.0606 97.3674 35.3626C97.5802 35.6645 97.8797 35.8185 98.2617 35.8185C98.6048 35.8185 98.8716 35.7415 99.0553 35.5814C99.239 35.4274 99.3603 35.1552 99.4197 34.7702H100.043V34.7702Z" fill="#062862"/>
<path d="M102.248 36.3218C101.774 36.3218 101.386 36.1678 101.09 35.8598C100.794 35.5457 100.646 35.1316 100.646 34.6102V34.4974C100.646 34.1542 100.711 33.8462 100.845 33.574C100.975 33.3018 101.161 33.0884 101.398 32.9344C101.638 32.7804 101.892 32.7034 102.171 32.7034C102.627 32.7034 102.979 32.8513 103.231 33.1472C103.479 33.4491 103.609 33.8753 103.609 34.438V34.6805H101.241C101.25 35.0297 101.351 35.308 101.543 35.5154C101.735 35.7288 101.982 35.8349 102.277 35.8349C102.491 35.8349 102.668 35.7937 102.813 35.7045C102.961 35.6215 103.089 35.5033 103.198 35.3614L103.563 35.6457C103.269 36.0962 102.831 36.3218 102.248 36.3218ZM102.171 33.1951C101.931 33.1951 101.729 33.2781 101.564 33.4558C101.401 33.6334 101.3 33.8759 101.262 34.1961H103.012V34.1488C102.994 33.8468 102.911 33.6098 102.766 33.4443C102.621 33.2787 102.422 33.1951 102.171 33.1951Z" fill="#062862"/>
<path d="M105.988 33.3019C105.893 33.2898 105.799 33.2783 105.692 33.2783C105.301 33.2783 105.035 33.4438 104.893 33.7815V36.2564H104.295V32.769H104.881L104.887 33.1716C105.082 32.8575 105.361 32.7041 105.722 32.7041C105.835 32.7041 105.923 32.7162 105.988 32.7453V33.3019H105.988Z" fill="#062862"/>
<path d="M107.503 31.9225V32.7689H108.154V33.2309H107.503V35.3978C107.503 35.5397 107.533 35.6403 107.586 35.7118C107.645 35.7828 107.746 35.8186 107.888 35.8186C107.953 35.8186 108.048 35.8064 108.172 35.7773V36.263C108.012 36.3042 107.858 36.3224 107.71 36.3224C107.444 36.3224 107.243 36.2454 107.106 36.0853C106.97 35.9198 106.905 35.6943 106.905 35.3923V33.2315H106.271V32.7695H106.905V31.9231H107.503V31.9225Z" fill="#062862"/>
<path d="M108.854 31.8393C108.854 31.7447 108.883 31.6616 108.942 31.5967C109.001 31.5258 109.09 31.4961 109.208 31.4961C109.321 31.4961 109.409 31.5258 109.469 31.5967C109.528 31.6616 109.563 31.7447 109.563 31.8393C109.563 31.9399 109.528 32.0169 109.469 32.0818C109.41 32.1467 109.321 32.1764 109.208 32.1764C109.09 32.1764 109.001 32.1467 108.942 32.0818C108.883 32.0169 108.854 31.9399 108.854 31.8393ZM109.499 36.2561H108.901V32.7687H109.499V36.2561Z" fill="#062862"/>
<path d="M110.654 36.2562V33.2308H110.104V32.7688H110.654V32.4729C110.654 32.0819 110.767 31.7745 110.992 31.5611C111.211 31.3422 111.531 31.2355 111.933 31.2355C112.176 31.2355 112.478 31.3003 112.851 31.4307L112.751 31.9339C112.478 31.8272 112.224 31.7739 111.981 31.7739C111.726 31.7739 111.542 31.8272 111.424 31.9454C111.311 32.0582 111.259 32.2359 111.259 32.4608V32.7688H111.969V33.2308H111.259V36.2562H110.654V36.2562ZM113.147 36.2562H112.543V32.7688H113.147V36.2562Z" fill="#062862"/>
<path d="M115.567 36.3218C115.094 36.3218 114.709 36.1678 114.407 35.8598C114.111 35.5457 113.963 35.1316 113.963 34.6102V34.4974C113.963 34.1542 114.028 33.8462 114.164 33.574C114.295 33.3018 114.478 33.0884 114.721 32.9344C114.958 32.7804 115.212 32.7034 115.491 32.7034C115.947 32.7034 116.296 32.8513 116.551 33.1472C116.799 33.4491 116.93 33.8753 116.93 34.438V34.6805H114.561C114.573 35.0297 114.674 35.308 114.863 35.5154C115.058 35.7288 115.302 35.8349 115.597 35.8349C115.811 35.8349 115.989 35.7937 116.136 35.7045C116.278 35.6215 116.409 35.5033 116.515 35.3614L116.882 35.6457C116.591 36.0962 116.147 36.3218 115.567 36.3218ZM115.49 33.1951C115.248 33.1951 115.046 33.2781 114.886 33.4558C114.721 33.6334 114.62 33.8759 114.578 34.1961H116.331V34.1488C116.314 33.8468 116.23 33.6098 116.083 33.4443C115.94 33.2781 115.739 33.1951 115.49 33.1951Z" fill="#062862"/>
<path d="M117.473 34.486C117.473 33.947 117.598 33.5147 117.852 33.1891C118.107 32.8636 118.438 32.7035 118.853 32.7035C119.261 32.7035 119.581 32.8399 119.824 33.1237V31.2999H120.422V36.2558H119.871L119.841 35.8829C119.604 36.1788 119.267 36.3213 118.847 36.3213C118.438 36.3213 118.106 36.1558 117.852 35.8241C117.597 35.4925 117.473 35.0602 117.473 34.5272V34.486H117.473ZM118.072 34.5515C118.072 34.948 118.149 35.256 118.314 35.481C118.48 35.7059 118.705 35.8187 118.995 35.8187C119.374 35.8187 119.646 35.6471 119.824 35.3094V33.7051C119.64 33.3735 119.368 33.2079 119.001 33.2079C118.705 33.2079 118.48 33.3207 118.314 33.5511C118.148 33.7754 118.072 34.1071 118.072 34.5515Z" fill="#062862"/>
<path d="M123.739 36.2561H123.123V31.5609H123.739V36.2561Z" fill="#062862"/>
<path d="M128.031 32.0641H126.522V36.2561H125.9V32.0641H124.396V31.5609H128.032V32.0641H128.031Z" fill="#062862"/>
<path d="M130.856 34.4208V36.2561H130.24V31.5609H131.969C132.485 31.5609 132.887 31.6913 133.177 31.952C133.473 32.2181 133.615 32.5619 133.615 32.9942C133.615 33.4501 133.474 33.8054 133.189 34.0479C132.905 34.2965 132.496 34.4208 131.964 34.4208H130.856V34.4208ZM130.856 33.9115H131.969C132.301 33.9115 132.556 33.8345 132.733 33.6805C132.911 33.5205 133 33.2955 133 32.9997C133 32.7214 132.911 32.4964 132.733 32.3303C132.556 32.1587 132.313 32.0696 132.005 32.0641H130.856V33.9115Z" fill="#062862"/>
<path d="M135.865 33.3019C135.77 33.2898 135.676 33.2783 135.569 33.2783C135.178 33.2783 134.912 33.4438 134.77 33.7815V36.2564H134.178V32.769H134.758L134.764 33.1716C134.965 32.8575 135.238 32.7041 135.599 32.7041C135.717 32.7041 135.806 32.7162 135.865 32.7453V33.3019V33.3019Z" fill="#062862"/>
<path d="M136.115 34.4799C136.115 34.1368 136.186 33.8288 136.317 33.5566C136.453 33.2843 136.642 33.0709 136.879 32.923C137.122 32.775 137.395 32.7041 137.702 32.7041C138.175 32.7041 138.56 32.8696 138.856 33.1958C139.147 33.5275 139.295 33.9658 139.295 34.5103V34.5515C139.295 34.8947 139.23 35.1966 139.099 35.4694C138.969 35.7356 138.785 35.949 138.543 36.0969C138.3 36.2509 138.022 36.3219 137.708 36.3219C137.234 36.3219 136.849 36.1618 136.559 35.8302C136.263 35.4985 136.115 35.0662 136.115 34.5218V34.4799V34.4799ZM136.719 34.5515C136.719 34.9365 136.808 35.2499 136.985 35.487C137.169 35.718 137.405 35.8362 137.707 35.8362C138.009 35.8362 138.252 35.718 138.429 35.4809C138.607 35.2439 138.696 34.9068 138.696 34.4806C138.696 34.0956 138.607 33.7876 138.423 33.5511C138.246 33.314 138.003 33.1958 137.701 33.1958C137.405 33.1958 137.168 33.3086 136.991 33.545C136.808 33.7815 136.719 34.1131 136.719 34.5515Z" fill="#062862"/>
<path d="M141.057 35.4512L141.921 32.7689H142.531L141.282 36.2563H140.826L139.559 32.7689H140.169L141.057 35.4512Z" fill="#062862"/>
<path d="M142.971 31.8393C142.971 31.7447 143 31.6616 143.059 31.5967C143.119 31.5258 143.207 31.4961 143.325 31.4961C143.438 31.4961 143.527 31.5258 143.586 31.5967C143.646 31.6616 143.681 31.7447 143.681 31.8393C143.681 31.9399 143.645 32.0169 143.586 32.0818C143.527 32.1467 143.438 32.1764 143.325 32.1764C143.207 32.1764 143.118 32.1467 143.059 32.0818C143 32.0169 142.971 31.9399 142.971 31.8393ZM143.616 36.2561H143.018V32.7687H143.616V36.2561Z" fill="#062862"/>
<path d="M144.291 34.486C144.291 33.947 144.415 33.5147 144.67 33.1891C144.925 32.8636 145.256 32.7035 145.665 32.7035C146.074 32.7035 146.399 32.8399 146.642 33.1237V31.2999H147.234V36.2558H146.69L146.66 35.8829C146.417 36.1788 146.086 36.3213 145.659 36.3213C145.257 36.3213 144.925 36.1558 144.671 35.8241C144.416 35.4925 144.292 35.0602 144.292 34.5272V34.486H144.291ZM144.883 34.5515C144.883 34.948 144.966 35.256 145.131 35.481C145.291 35.7059 145.522 35.8187 145.806 35.8187C146.185 35.8187 146.463 35.6471 146.641 35.3094V33.7051C146.457 33.3735 146.185 33.2079 145.812 33.2079C145.522 33.2079 145.291 33.3207 145.131 33.5511C144.966 33.7754 144.883 34.1071 144.883 34.5515Z" fill="#062862"/>
<path d="M149.469 36.3218C148.996 36.3218 148.611 36.1678 148.315 35.8598C148.019 35.5457 147.871 35.1316 147.871 34.6102V34.4974C147.871 34.1542 147.936 33.8462 148.066 33.574C148.203 33.3018 148.386 33.0884 148.623 32.9344C148.86 32.7804 149.12 32.7034 149.398 32.7034C149.848 32.7034 150.204 32.8513 150.452 33.1472C150.707 33.4491 150.831 33.8753 150.831 34.438V34.6805H148.469C148.475 35.0297 148.576 35.308 148.771 35.5154C148.96 35.7288 149.203 35.8349 149.505 35.8349C149.712 35.8349 149.89 35.7937 150.038 35.7045C150.186 35.6215 150.31 35.5033 150.423 35.3614L150.784 35.6457C150.493 36.0962 150.055 36.3218 149.469 36.3218ZM149.398 33.1951C149.155 33.1951 148.954 33.2781 148.788 33.4558C148.628 33.6334 148.522 33.8759 148.486 34.1961H150.233V34.1488C150.215 33.8468 150.132 33.6098 149.99 33.4443C149.842 33.2781 149.647 33.1951 149.398 33.1951Z" fill="#062862"/>
<path d="M153.072 33.3019C152.984 33.2898 152.888 33.2783 152.782 33.2783C152.391 33.2783 152.124 33.4438 151.983 33.7815V36.2564H151.385V32.769H151.971L151.977 33.1716C152.172 32.8575 152.451 32.7041 152.812 32.7041C152.93 32.7041 153.013 32.7162 153.073 32.7453V33.3019H153.072Z" fill="#062862"/>
<path d="M157.276 36.2562C157.24 36.1913 157.216 36.067 157.193 35.8894C156.914 36.1798 156.583 36.3216 156.198 36.3216C155.854 36.3216 155.57 36.2271 155.351 36.0312C155.132 35.8354 155.02 35.5874 155.02 35.2909C155.02 34.9241 155.161 34.6458 155.434 34.4445C155.713 34.2433 156.104 34.1426 156.601 34.1426H157.181V33.8643C157.181 33.657 157.122 33.4914 156.997 33.3672C156.873 33.2429 156.689 33.1834 156.447 33.1834C156.233 33.1834 156.056 33.2368 155.908 33.3435C155.766 33.4502 155.694 33.5806 155.694 33.7346H155.09C155.09 33.563 155.155 33.3914 155.28 33.2313C155.398 33.0658 155.57 32.9409 155.783 32.8463C155.99 32.7518 156.227 32.7045 156.481 32.7045C156.884 32.7045 157.198 32.8051 157.423 33.0064C157.654 33.2077 157.772 33.4799 157.778 33.8352V35.4455C157.778 35.7651 157.819 36.0197 157.902 36.2095V36.2568H157.276V36.2562ZM156.287 35.8063C156.476 35.8063 156.648 35.7529 156.82 35.6584C156.985 35.5638 157.11 35.4334 157.181 35.2794V34.5628H156.714C155.985 34.5628 155.618 34.7816 155.618 35.2079C155.618 35.3916 155.683 35.5395 155.807 35.6462C155.931 35.7529 156.091 35.8063 156.287 35.8063Z" fill="#062862"/>
<path d="M159.281 32.769L159.298 33.2073C159.565 32.8696 159.914 32.7041 160.347 32.7041C161.081 32.7041 161.454 33.1188 161.46 33.9537V36.257H160.862V33.9476C160.862 33.699 160.803 33.5093 160.69 33.391C160.578 33.2667 160.406 33.2073 160.164 33.2073C159.974 33.2073 159.802 33.2607 159.654 33.3613C159.506 33.468 159.394 33.6038 159.311 33.77V36.257H158.719V32.7696H159.281V32.769Z" fill="#062862"/>
<path d="M162.217 34.486C162.217 33.947 162.342 33.5147 162.596 33.1891C162.851 32.8636 163.183 32.7035 163.597 32.7035C164.005 32.7035 164.325 32.8399 164.568 33.1237V31.2999H165.166V36.2558H164.615L164.586 35.8829C164.349 36.1788 164.017 36.3213 163.591 36.3213C163.182 36.3213 162.856 36.1558 162.596 35.8241C162.341 35.4925 162.217 35.0602 162.217 34.5272V34.486H162.217ZM162.815 34.5515C162.815 34.948 162.898 35.256 163.058 35.481C163.223 35.7059 163.449 35.8187 163.739 35.8187C164.118 35.8187 164.39 35.6471 164.567 35.3094V33.7051C164.39 33.3735 164.111 33.2079 163.745 33.2079C163.449 33.2079 163.224 33.3207 163.058 33.5511C162.898 33.7754 162.815 34.1071 162.815 34.5515Z" fill="#062862"/>
<path d="M170.42 35.0308H168.449L168.005 36.2561H167.365L169.165 31.5609H169.704L171.504 36.2561H170.865L170.42 35.0308ZM168.638 34.5215H170.231L169.432 32.3248L168.638 34.5215Z" fill="#062862"/>
<path d="M171.898 34.486C171.898 33.9416 172.023 33.5032 172.277 33.1837C172.526 32.8642 172.858 32.7041 173.278 32.7041C173.704 32.7041 174.036 32.852 174.273 33.154L174.302 32.769H174.847V36.1733C174.847 36.6293 174.71 36.9846 174.444 37.2453C174.178 37.506 173.817 37.6363 173.367 37.6363C173.112 37.6363 172.87 37.583 172.627 37.4708C172.384 37.3641 172.2 37.2162 172.076 37.0325L172.384 36.6711C172.639 36.9906 172.953 37.1446 173.326 37.1446C173.616 37.1446 173.841 37.0676 174.007 36.9021C174.167 36.7366 174.249 36.5056 174.249 36.2091V35.9132C174.007 36.1855 173.68 36.3219 173.272 36.3219C172.858 36.3219 172.532 36.1618 172.277 35.8302C172.023 35.4985 171.898 35.0547 171.898 34.486ZM172.496 34.5515C172.496 34.948 172.579 35.256 172.739 35.4809C172.898 35.7059 173.124 35.8187 173.414 35.8187C173.793 35.8187 174.071 35.6471 174.248 35.3033V33.7106C174.065 33.3728 173.786 33.2073 173.426 33.2073C173.135 33.2073 172.905 33.3201 172.745 33.5505C172.579 33.7754 172.496 34.1071 172.496 34.5515Z" fill="#062862"/>
<path d="M175.605 34.486C175.605 33.9416 175.73 33.5032 175.984 33.1837C176.233 32.8642 176.571 32.7041 176.985 32.7041C177.411 32.7041 177.743 32.852 177.98 33.154L178.009 32.769H178.554V36.1733C178.554 36.6293 178.424 36.9846 178.151 37.2453C177.885 37.506 177.53 37.6363 177.074 37.6363C176.825 37.6363 176.577 37.583 176.334 37.4708C176.097 37.3641 175.913 37.2162 175.783 37.0325L176.091 36.6711C176.352 36.9906 176.66 37.1446 177.033 37.1446C177.323 37.1446 177.548 37.0676 177.714 36.9021C177.874 36.7366 177.956 36.5056 177.956 36.2091V35.9132C177.719 36.1855 177.393 36.3219 176.979 36.3219C176.571 36.3219 176.239 36.1618 175.984 35.8302C175.736 35.4985 175.605 35.0547 175.605 34.486ZM176.209 34.5515C176.209 34.948 176.286 35.256 176.446 35.4809C176.612 35.7059 176.837 35.8187 177.127 35.8187C177.506 35.8187 177.778 35.6471 177.956 35.3033V33.7106C177.772 33.3728 177.5 33.2073 177.133 33.2073C176.843 33.2073 176.618 33.3201 176.452 33.5505C176.286 33.7754 176.209 34.1071 176.209 34.5515Z" fill="#062862"/>
<path d="M181.148 33.3019C181.054 33.2898 180.959 33.2783 180.852 33.2783C180.461 33.2783 180.195 33.4438 180.053 33.7815V36.2564H179.461V32.769H180.041L180.047 33.1716C180.242 32.8575 180.521 32.7041 180.882 32.7041C181 32.7041 181.089 32.7162 181.148 32.7453V33.3019V33.3019Z" fill="#062862"/>
<path d="M183.085 36.3218C182.611 36.3218 182.226 36.1678 181.93 35.8598C181.634 35.5457 181.486 35.1316 181.486 34.6102V34.4974C181.486 34.1542 181.551 33.8462 181.682 33.574C181.818 33.3018 182.001 33.0884 182.238 32.9344C182.475 32.7804 182.735 32.7034 183.014 32.7034C183.463 32.7034 183.819 32.8513 184.067 33.1472C184.322 33.4491 184.446 33.8753 184.446 34.438V34.6805H182.084C182.09 35.0297 182.191 35.308 182.38 35.5154C182.575 35.7288 182.818 35.8349 183.114 35.8349C183.328 35.8349 183.505 35.7937 183.653 35.7045C183.801 35.6215 183.925 35.5033 184.038 35.3614L184.4 35.6457C184.109 36.0962 183.671 36.3218 183.085 36.3218ZM183.014 33.1951C182.771 33.1951 182.57 33.2781 182.404 33.4558C182.238 33.6334 182.138 33.8759 182.102 34.1961H183.848V34.1488C183.831 33.8468 183.754 33.6098 183.606 33.4443C183.458 33.2787 183.262 33.1951 183.014 33.1951Z" fill="#062862"/>
<path d="M184.996 34.486C184.996 33.9416 185.12 33.5032 185.375 33.1837C185.624 32.8642 185.955 32.7041 186.375 32.7041C186.796 32.7041 187.133 32.852 187.37 33.154L187.4 32.769H187.945V36.1733C187.945 36.6293 187.808 36.9846 187.542 37.2453C187.276 37.506 186.914 37.6363 186.465 37.6363C186.21 37.6363 185.967 37.583 185.724 37.4708C185.482 37.3641 185.298 37.2162 185.174 37.0325L185.482 36.6711C185.736 36.9906 186.05 37.1446 186.423 37.1446C186.714 37.1446 186.939 37.0676 187.104 36.9021C187.264 36.7366 187.347 36.5056 187.347 36.2091V35.9132C187.104 36.1855 186.778 36.3219 186.364 36.3219C185.955 36.3219 185.624 36.1618 185.375 35.8302C185.12 35.4985 184.996 35.0547 184.996 34.486ZM185.595 34.5515C185.595 34.948 185.678 35.256 185.837 35.4809C185.996 35.7059 186.228 35.8187 186.518 35.8187C186.891 35.8187 187.169 35.6471 187.347 35.3033V33.7106C187.163 33.3728 186.891 33.2073 186.524 33.2073C186.234 33.2073 186.003 33.3201 185.843 33.5505C185.677 33.7754 185.595 34.1071 185.595 34.5515Z" fill="#062862"/>
<path d="M191.002 36.2562C190.966 36.1913 190.943 36.067 190.919 35.8894C190.641 36.1798 190.309 36.3216 189.924 36.3216C189.581 36.3216 189.297 36.2271 189.078 36.0312C188.859 35.8354 188.746 35.5874 188.746 35.2909C188.746 34.9241 188.888 34.6458 189.161 34.4445C189.439 34.2433 189.83 34.1426 190.327 34.1426H190.908V33.8643C190.908 33.657 190.848 33.4914 190.724 33.3672C190.6 33.2429 190.416 33.1834 190.173 33.1834C189.96 33.1834 189.782 33.2368 189.634 33.3435C189.492 33.4502 189.421 33.5806 189.421 33.7346H188.817C188.817 33.563 188.882 33.3914 189.006 33.2313C189.124 33.0658 189.297 32.9409 189.509 32.8463C189.717 32.7518 189.953 32.7045 190.208 32.7045C190.61 32.7045 190.925 32.8051 191.149 33.0064C191.38 33.2077 191.499 33.4799 191.505 33.8352V35.4455C191.505 35.7651 191.546 36.0197 191.629 36.2095V36.2568H191.002V36.2562ZM190.013 35.8063C190.202 35.8063 190.38 35.7529 190.546 35.6584C190.712 35.5638 190.837 35.4334 190.908 35.2794V34.5628H190.446C189.711 34.5628 189.345 34.7816 189.345 35.2079C189.345 35.3916 189.409 35.5395 189.534 35.6462C189.658 35.7529 189.818 35.8063 190.013 35.8063Z" fill="#062862"/>
<path d="M193.252 31.9225V32.7689H193.903V33.2309H193.252V35.3978C193.252 35.5397 193.281 35.6403 193.34 35.7118C193.399 35.7834 193.5 35.8186 193.636 35.8186C193.707 35.8186 193.801 35.8064 193.92 35.7773V36.263C193.766 36.3042 193.612 36.3224 193.464 36.3224C193.198 36.3224 192.997 36.2454 192.86 36.0853C192.724 35.9198 192.653 35.6943 192.653 35.3923V33.2315H192.02V32.7695H192.653V31.9231H193.252V31.9225Z" fill="#062862"/>
<path d="M194.383 34.4799C194.383 34.1368 194.454 33.8288 194.584 33.5566C194.721 33.2843 194.91 33.0709 195.147 32.923C195.389 32.775 195.662 32.7041 195.969 32.7041C196.443 32.7041 196.828 32.8696 197.124 33.1958C197.42 33.5275 197.562 33.9658 197.562 34.5103V34.5515C197.562 34.8947 197.497 35.1966 197.367 35.4694C197.237 35.7356 197.053 35.949 196.81 36.0969C196.568 36.2509 196.29 36.3219 195.976 36.3219C195.502 36.3219 195.117 36.1618 194.827 35.8302C194.531 35.4985 194.383 35.0662 194.383 34.5218V34.4799ZM194.987 34.5515C194.987 34.9365 195.075 35.2499 195.253 35.487C195.437 35.718 195.673 35.8362 195.975 35.8362C196.277 35.8362 196.519 35.718 196.697 35.4809C196.875 35.2439 196.969 34.9068 196.969 34.4806C196.969 34.0956 196.875 33.7876 196.697 33.5511C196.513 33.314 196.271 33.1958 195.969 33.1958C195.673 33.1958 195.436 33.3086 195.258 33.545C195.075 33.7815 194.987 34.1131 194.987 34.5515Z" fill="#062862"/>
<path d="M200 33.3019C199.911 33.2898 199.811 33.2783 199.704 33.2783C199.313 33.2783 199.047 33.4438 198.91 33.7815V36.2564H198.312V32.769H198.893L198.905 33.1716C199.1 32.8575 199.378 32.7041 199.734 32.7041C199.852 32.7041 199.941 32.7162 200 32.7453V33.3019Z" fill="#062862"/>
</svg>
