<svg width="24" height="24" viewBox="0 0 24 24" fill="none" xmlns="http://www.w3.org/2000/svg">
<path d="M15.3445 7.06276C15.9557 6.47673 16.7963 6.19368 17.6375 6.29067V6.29067C18.0412 6.33721 18.3561 6.66376 18.3898 7.06868V7.06868C18.4563 7.86582 18.1863 8.65741 17.6449 9.24628L15.6024 11.4681C15.3995 11.6887 15.3095 11.9905 15.3583 12.2863L16.4351 18.8051C16.4879 19.1246 16.3737 19.4489 16.1323 19.6648V19.6648C15.6592 20.088 14.9117 19.9347 14.6435 19.3593L12.4483 14.6503L9.34454 17.1392C9.06396 17.3642 8.92582 17.7225 8.98275 18.0776L9.20125 19.4405C9.23859 19.6734 9.16194 19.9101 8.99517 20.0768V20.0768C8.6455 20.4265 8.05727 20.3382 7.82564 19.9013L6.91716 18.1877C6.82616 18.016 6.68714 17.8746 6.51707 17.7807L4.63387 16.7407C4.20693 16.5049 4.12506 15.9257 4.46993 15.5808V15.5808C4.64474 15.406 4.8959 15.3311 5.13791 15.3816L6.59858 15.6864C6.96706 15.7633 7.3475 15.6267 7.58298 15.3331L10.0521 12.254L5.22904 9.94529C4.65171 9.66893 4.52096 8.90482 4.97356 8.45222V8.45222C5.18687 8.23891 5.49056 8.14261 5.78781 8.19402L12.4311 9.34299C12.7163 9.39231 13.008 9.30318 13.2169 9.10286L15.3445 7.06276Z" fill="white"/>
</svg>
