<svg width="1199" height="297" viewBox="0 0 1199 297" fill="none" xmlns="http://www.w3.org/2000/svg">
<g opacity="0.2" filter="url(#filter0_f)">
<path d="M599.322 173C439.939 173 293.083 211.407 175.822 276H1022.82C905.562 211.407 758.706 173 599.322 173Z" stroke="#8ACEFF" stroke-width="63"/>
</g>
<path opacity="0.8" d="M113 295.69C254.277 207.779 421.06 157 599.703 157C778.346 157 945.129 207.779 1086.41 295.69H113Z" fill="#062862"/>
<mask id="path-3-inside-1" fill="white">
<path fill-rule="evenodd" clip-rule="evenodd" d="M211.701 149.283C207.106 151.484 201.596 149.543 199.395 144.947C197.194 140.352 199.135 134.842 203.731 132.641C204.664 132.194 205.635 131.918 206.609 131.8C206.884 127.591 209.363 123.648 213.439 121.696C217.394 119.802 221.867 120.254 225.283 122.497C225.742 122.16 226.24 121.86 226.772 121.605C231.368 119.404 236.877 121.345 239.078 125.94C241.279 130.536 239.338 136.045 234.743 138.246L223.862 143.458L211.701 149.283Z"/>
</mask>
<path d="M211.701 149.283L212.565 151.086L211.701 149.283ZM206.609 131.8L206.849 133.786L208.496 133.587L208.605 131.931L206.609 131.8ZM225.283 122.497L224.186 124.169L225.348 124.932L226.468 124.109L225.283 122.497ZM223.862 143.458L222.998 141.654L223.862 143.458ZM210.837 147.479C207.238 149.203 202.923 147.682 201.199 144.083L197.592 145.811C200.27 151.403 206.974 153.764 212.565 151.086L210.837 147.479ZM201.199 144.083C199.475 140.484 200.995 136.169 204.595 134.445L202.867 130.838C197.275 133.516 194.913 140.22 197.592 145.811L201.199 144.083ZM204.595 134.445C205.329 134.093 206.089 133.878 206.849 133.786L206.369 129.815C205.182 129.958 203.999 130.295 202.867 130.838L204.595 134.445ZM208.605 131.931C208.835 128.413 210.905 125.127 214.303 123.5L212.575 119.892C207.821 122.169 204.934 126.768 204.613 131.67L208.605 131.931ZM214.303 123.5C217.6 121.921 221.33 122.294 224.186 124.169L226.381 120.825C222.403 118.213 217.188 117.683 212.575 119.892L214.303 123.5ZM226.468 124.109C226.827 123.845 227.217 123.61 227.636 123.409L225.908 119.801C225.262 120.111 224.658 120.475 224.099 120.886L226.468 124.109ZM227.636 123.409C231.235 121.685 235.551 123.205 237.274 126.804L240.882 125.076C238.204 119.485 231.5 117.123 225.908 119.801L227.636 123.409ZM237.274 126.804C238.998 130.403 237.478 134.719 233.879 136.442L235.607 140.05C241.198 137.372 243.56 130.668 240.882 125.076L237.274 126.804ZM233.879 136.442L222.998 141.654L224.726 145.262L235.607 140.05L233.879 136.442ZM222.998 141.654L210.837 147.479L212.565 151.086L224.726 145.262L222.998 141.654Z" fill="#96BCFE" mask="url(#path-3-inside-1)"/>
<g opacity="0.3">
<mask id="path-5-inside-2" fill="white">
<path fill-rule="evenodd" clip-rule="evenodd" d="M428.425 142.094C428.425 142.094 428.425 142.094 428.425 142.094C425.004 142.838 421.629 140.668 420.885 137.248C420.141 133.827 422.311 130.451 425.731 129.708C426.426 129.557 427.119 129.526 427.788 129.601C428.639 126.831 430.92 124.588 433.954 123.928C436.898 123.288 439.817 124.298 441.745 126.339C442.106 126.186 442.486 126.064 442.883 125.978C446.303 125.234 449.679 127.404 450.423 130.825C451.167 134.245 448.997 137.621 445.576 138.365C445.565 138.367 445.554 138.369 445.543 138.372L428.425 142.094L428.425 142.094Z"/>
</mask>
<path d="M428.425 142.094L430.38 141.669L429.955 139.715L428 140.14L428.425 142.094ZM427.788 129.601L427.564 131.588L429.213 131.774L429.7 130.188L427.788 129.601ZM441.745 126.339L440.292 127.713L441.247 128.724L442.527 128.18L441.745 126.339ZM445.543 138.372L445.129 136.415L445.118 136.417L445.543 138.372ZM428.425 142.094L426.471 142.519L426.896 144.474L428.85 144.049L428.425 142.094ZM428 140.14C428 140.14 428 140.14 428 140.14C428 140.14 428 140.14 428 140.14L428.85 144.049C428.85 144.049 428.85 144.048 428.85 144.048C428.85 144.048 428.85 144.048 428.85 144.048L428 140.14ZM428 140.14C425.659 140.649 423.348 139.164 422.839 136.823L418.93 137.673C419.909 142.173 424.35 145.027 428.85 144.049L428 140.14ZM422.839 136.823C422.33 134.482 423.815 132.171 426.156 131.662L425.306 127.753C420.806 128.732 417.952 133.173 418.93 137.673L422.839 136.823ZM426.156 131.662C426.635 131.558 427.109 131.537 427.564 131.588L428.012 127.614C427.129 127.514 426.217 127.555 425.306 127.753L426.156 131.662ZM429.7 130.188C430.347 128.08 432.08 126.382 434.379 125.882L433.529 121.974C429.761 122.793 426.931 125.581 425.876 129.014L429.7 130.188ZM434.379 125.882C436.61 125.397 438.824 126.16 440.292 127.713L443.199 124.965C440.809 122.436 437.186 121.178 433.529 121.974L434.379 125.882ZM442.527 128.18C442.773 128.076 443.034 127.992 443.308 127.932L442.458 124.024C441.938 124.137 441.439 124.297 440.964 124.498L442.527 128.18ZM443.308 127.932C445.649 127.423 447.959 128.908 448.468 131.25L452.377 130.399C451.398 125.9 446.957 123.045 442.458 124.024L443.308 127.932ZM448.468 131.25C448.978 133.591 447.492 135.901 445.151 136.41L446.001 140.319C450.501 139.34 453.356 134.899 452.377 130.399L448.468 131.25ZM445.151 136.41C445.144 136.412 445.136 136.414 445.129 136.415L445.958 140.328C445.973 140.325 445.987 140.322 446.001 140.319L445.151 136.41ZM445.118 136.417L428 140.14L428.85 144.049L445.968 140.326L445.118 136.417ZM430.38 141.669L430.38 141.669L426.471 142.519L426.471 142.519L430.38 141.669Z" fill="#96BCFE" mask="url(#path-5-inside-2)"/>
</g>
<g opacity="0.3">
<mask id="path-7-inside-3" fill="white">
<path fill-rule="evenodd" clip-rule="evenodd" d="M916.106 192.645C916.106 192.645 916.105 192.645 916.105 192.645C912.865 191.322 911.31 187.622 912.633 184.381C913.955 181.14 917.655 179.586 920.896 180.908C921.554 181.177 922.143 181.544 922.652 181.985C924.921 180.183 928.072 179.625 930.946 180.798C933.735 181.937 935.57 184.422 936.004 187.196C936.388 187.274 936.77 187.389 937.146 187.542C940.387 188.865 941.942 192.564 940.619 195.805C939.296 199.046 935.597 200.601 932.356 199.278C932.345 199.274 932.335 199.27 932.325 199.265L916.106 192.645L916.106 192.645Z"/>
</mask>
<path d="M916.106 192.645L917.957 193.401L918.713 191.549L916.862 190.793L916.106 192.645ZM922.652 181.985L921.343 183.497L922.597 184.583L923.896 183.551L922.652 181.985ZM936.004 187.196L934.028 187.506L934.244 188.88L935.607 189.156L936.004 187.196ZM932.325 199.265L933.09 197.418L933.08 197.414L932.325 199.265ZM916.106 192.645L914.254 191.889L913.498 193.741L915.35 194.497L916.106 192.645ZM916.862 190.793C916.862 190.793 916.861 190.793 916.861 190.793C916.861 190.793 916.861 190.793 916.861 190.793L915.349 194.496C915.35 194.496 915.35 194.496 915.35 194.496C915.35 194.496 915.35 194.496 915.35 194.496L916.862 190.793ZM916.861 190.793C914.643 189.887 913.579 187.355 914.484 185.137L910.781 183.625C909.041 187.889 911.086 192.756 915.349 194.496L916.861 190.793ZM914.484 185.137C915.39 182.919 917.922 181.855 920.14 182.76L921.652 179.057C917.388 177.317 912.521 179.362 910.781 183.625L914.484 185.137ZM920.14 182.76C920.594 182.945 920.996 183.197 921.343 183.497L923.962 180.473C923.29 179.891 922.514 179.409 921.652 179.057L920.14 182.76ZM923.896 183.551C925.622 182.18 928.012 181.761 930.19 182.65L931.702 178.946C928.131 177.489 924.221 178.185 921.408 180.419L923.896 183.551ZM930.19 182.65C932.304 183.513 933.698 185.395 934.028 187.506L937.98 186.886C937.441 183.449 935.166 180.361 931.702 178.946L930.19 182.65ZM935.607 189.156C935.869 189.209 936.131 189.288 936.39 189.394L937.902 185.69C937.41 185.489 936.908 185.338 936.402 185.236L935.607 189.156ZM936.39 189.394C938.609 190.299 939.673 192.831 938.767 195.049L942.471 196.561C944.211 192.298 942.166 187.431 937.902 185.69L936.39 189.394ZM938.767 195.049C937.862 197.268 935.33 198.332 933.112 197.426L931.6 201.13C935.863 202.87 940.73 200.825 942.471 196.561L938.767 195.049ZM933.112 197.426C933.104 197.423 933.097 197.42 933.09 197.418L931.559 201.113C931.573 201.119 931.586 201.124 931.6 201.13L933.112 197.426ZM933.08 197.414L916.862 190.793L915.35 194.497L931.569 201.117L933.08 197.414ZM917.957 193.401L917.957 193.401L914.254 191.889L914.254 191.889L917.957 193.401Z" fill="#96BCFE" mask="url(#path-7-inside-3)"/>
</g>
<mask id="path-9-inside-4" fill="white">
<path fill-rule="evenodd" clip-rule="evenodd" d="M839.218 93.7673C839.126 93.7464 839.035 93.7236 838.943 93.6989C835.117 92.6679 832.85 88.73 833.882 84.9034C834.747 81.6933 837.657 79.5813 840.832 79.5929C843.265 74.3863 849.155 71.519 854.896 73.0659C859.13 74.2069 862.228 77.4648 863.357 81.3931C863.925 81.4363 864.498 81.533 865.068 81.6867C869.988 83.0124 872.901 88.0753 871.576 92.9951C870.25 97.9149 865.187 100.829 860.267 99.5029C859.917 99.4086 859.578 99.2953 859.249 99.1646L849.819 96.6236C849.419 96.558 849.018 96.4717 848.618 96.364C848.219 96.2563 847.829 96.1297 847.45 95.9855L839.218 93.7673Z"/>
</mask>
<path d="M839.218 93.7673L839.738 91.8362L839.701 91.8261L839.663 91.8174L839.218 93.7673ZM840.832 79.5929L840.824 81.5929L842.102 81.5975L842.644 80.4397L840.832 79.5929ZM863.357 81.3931L861.435 81.9455L861.819 83.2819L863.206 83.3873L863.357 81.3931ZM859.249 99.1646L859.987 97.3061L859.88 97.2635L859.769 97.2335L859.249 99.1646ZM849.819 96.6236L850.339 94.6925L850.242 94.6663L850.142 94.65L849.819 96.6236ZM847.45 95.9855L848.162 94.1164L848.068 94.0805L847.97 94.0543L847.45 95.9855ZM839.663 91.8174C839.597 91.8023 839.53 91.7857 839.464 91.7678L838.423 95.6301C838.539 95.6614 838.656 95.6905 838.773 95.7171L839.663 91.8174ZM839.464 91.7678C836.704 91.0241 835.069 88.1838 835.813 85.4238L831.95 84.3831C830.632 89.2761 833.53 94.3116 838.423 95.6301L839.464 91.7678ZM835.813 85.4238C836.436 83.1111 838.534 81.5845 840.824 81.5929L840.839 77.5929C836.78 77.5781 833.057 80.2755 831.95 84.3831L835.813 85.4238ZM842.644 80.4397C844.673 76.0975 849.588 73.7071 854.376 74.9971L855.416 71.1348C848.722 69.3309 841.857 72.6751 839.02 78.746L842.644 80.4397ZM854.376 74.9971C857.906 75.9482 860.492 78.6626 861.435 81.9455L865.279 80.8407C863.965 76.2671 860.355 72.4655 855.416 71.1348L854.376 74.9971ZM863.206 83.3873C863.65 83.4211 864.099 83.4968 864.548 83.6178L865.588 79.7556C864.897 79.5692 864.201 79.4515 863.509 79.3989L863.206 83.3873ZM864.548 83.6178C868.401 84.6561 870.683 88.6215 869.645 92.4748L873.507 93.5154C875.12 87.5291 871.575 81.3686 865.588 79.7556L864.548 83.6178ZM869.645 92.4748C868.606 96.328 864.641 98.61 860.788 97.5717L859.747 101.434C865.733 103.047 871.894 99.5018 873.507 93.5154L869.645 92.4748ZM860.788 97.5717C860.512 97.4975 860.245 97.4085 859.987 97.3061L858.51 101.023C858.91 101.182 859.323 101.32 859.747 101.434L860.788 97.5717ZM859.769 97.2335L850.339 94.6925L849.298 98.5548L858.728 101.096L859.769 97.2335ZM850.142 94.65C849.808 94.5952 849.474 94.5231 849.139 94.4329L848.098 98.2951C848.563 98.4203 849.029 98.5208 849.495 98.5973L850.142 94.65ZM849.139 94.4329C848.804 94.3426 848.478 94.2368 848.162 94.1164L846.738 97.8545C847.18 98.0226 847.633 98.1699 848.098 98.2951L849.139 94.4329ZM847.97 94.0543L839.738 91.8362L838.698 95.6984L846.93 97.9166L847.97 94.0543Z" fill="#96BCFE" mask="url(#path-9-inside-4)"/>
<path d="M649.958 59.4888L671.055 28.4468C671.184 28.2563 671.4 28.1423 671.63 28.1423H681.193C681.684 28.1423 682.02 28.6382 681.839 29.0948L669.74 59.4888M649.958 59.4888H669.74M649.958 59.4888L664.566 68.671M649.958 59.4888H604.917M669.74 59.4888L681.128 71.7102C681.543 72.1548 681.227 72.8795 680.62 72.8795H671.462C671.331 72.8795 671.203 72.8426 671.092 72.7729L664.566 68.671M664.566 68.671C662.03 72.3056 655.361 79.4539 649.958 81.7052C642.654 84.7486 638.698 85.835 624.09 85.9659C622.756 85.9779 618.103 85.8749 611.308 85.8544M585.439 59.4888H558.354C558.354 59.4888 558.354 59.4888 558.354 59.4888C558.354 59.4888 553.18 59.4888 547.702 59.4888C541.302 59.4888 534.561 61.045 529.138 63.7495C527.401 64.6157 526.225 65.4024 524.877 66.3352M585.439 59.4888L596.52 51.7025C596.637 51.6202 596.777 51.5761 596.92 51.5761H608.542C609.086 51.5761 609.419 52.1725 609.134 52.6358L604.917 59.4888M585.439 59.4888H604.917M582.092 85.835C559.211 85.8503 547.652 85.7826 530.05 85.835C512.449 85.8874 510.032 84.2316 509.051 81.7052C507.627 78.0382 512.107 74.4199 516.051 71.9137M524.877 66.3352C541.919 67.2971 541.615 66.0553 541.615 71.9137C541.615 72.2709 516.051 71.9137 516.051 71.9137M524.877 66.3352L523.355 67.2971L516.051 71.9137" stroke="#96BCFE" stroke-width="2"/>
<rect x="560.484" y="67.4012" width="4.86935" height="6.69536" rx="2.43468" stroke="#96BCFE" stroke-width="2"/>
<rect x="573.873" y="67.4016" width="4.86935" height="6.69536" rx="2.43468" stroke="#96BCFE" stroke-width="2"/>
<rect x="587.264" y="67.4014" width="4.86935" height="6.69536" rx="2.43468" stroke="#96BCFE" stroke-width="2"/>
<rect x="600.656" y="67.4013" width="4.86935" height="6.69536" rx="2.43468" stroke="#96BCFE" stroke-width="2"/>
<rect x="614.045" y="67.4017" width="4.86935" height="6.69536" rx="2.43468" stroke="#96BCFE" stroke-width="2"/>
<path d="M608.774 107.493L577.649 81.4065C577.4 81.198 577.547 80.7924 577.872 80.7924H607.167C607.281 80.7924 607.388 80.8483 607.453 80.942L625.536 107.028C625.695 107.259 625.53 107.574 625.25 107.574H608.998C608.916 107.574 608.837 107.545 608.774 107.493Z" stroke="#96BCFE" stroke-width="2"/>
<path d="M539.787 99.6612H548.308M560.482 99.6612H584.524M628.348 99.6612H648.434M658.782 99.6612H664.564M622.566 120.66H595.785M687.389 80.7924H700.78M682.824 53.098H690.737M512.701 54.6196H522.744" stroke="#96BCFE" stroke-width="2" stroke-linecap="round"/>
<g opacity="0.6">
<mask id="path-19-inside-5" fill="white">
<path fill-rule="evenodd" clip-rule="evenodd" d="M471.085 5.70694C466.73 6.35705 463.476 9.79209 462.867 13.9361C462.952 14.2169 462.913 14.5323 462.733 14.7927C462.561 15.0428 462.295 15.19 462.015 15.2197C461.919 15.2385 461.82 15.2435 461.718 15.2329C461.434 15.2034 461.191 15.0579 461.029 14.8484C460.006 14.2429 458.779 13.9728 457.512 14.1619C454.585 14.5988 452.566 17.3258 453.003 20.2527C453.085 20.7989 452.708 21.3078 452.162 21.3894C451.615 21.4709 451.107 21.0942 451.025 20.548C450.425 16.5286 453.197 12.7838 457.217 12.1838C458.572 11.9815 459.897 12.1631 461.08 12.6464C462.157 8.10895 465.894 4.45966 470.79 3.72885C475.356 3.04728 479.698 5.08844 482.173 8.63037C483.25 7.88475 484.51 7.36811 485.891 7.16195C490.712 6.44235 495.203 9.76712 495.923 14.588C496.642 19.409 493.318 23.9004 488.497 24.62L458.988 29.0247C458.442 29.1062 457.933 28.7295 457.851 28.1833C457.77 27.6371 458.147 27.1282 458.693 27.0466L488.202 22.6419C491.93 22.0854 494.501 18.6117 493.945 14.8833C493.388 11.1548 489.915 8.5835 486.186 9.14003C484.954 9.32395 483.85 9.82531 482.943 10.5488C482.866 10.7838 482.703 10.991 482.468 11.1179C482.062 11.3379 481.57 11.2472 481.267 10.927C481.226 10.8948 481.187 10.859 481.151 10.8195C481.025 10.6837 480.944 10.5222 480.908 10.3535C478.938 7.05885 475.114 5.1055 471.085 5.70694Z"/>
</mask>
<path d="M462.867 13.9361L460.888 13.6451L460.823 14.0862L460.952 14.5132L462.867 13.9361ZM462.733 14.7927L464.38 15.9275L464.38 15.9275L462.733 14.7927ZM462.015 15.2197L461.804 13.2309L461.716 13.2402L461.629 13.2573L462.015 15.2197ZM461.718 15.2329L461.925 13.2437L461.925 13.2437L461.718 15.2329ZM461.029 14.8484L462.614 13.6279L462.379 13.3233L462.048 13.1274L461.029 14.8484ZM461.08 12.6464L460.324 14.4979L462.486 15.3811L463.026 13.1085L461.08 12.6464ZM482.173 8.63037L480.534 9.77591L481.674 11.4084L483.312 10.2746L482.173 8.63037ZM488.497 24.62L488.792 26.5981L488.497 24.62ZM458.988 29.0247L458.693 27.0466L458.988 29.0247ZM482.943 10.5488L481.696 8.98519L481.228 9.35874L481.042 9.9283L482.943 10.5488ZM482.468 11.1179L481.516 9.35892L481.516 9.35892L482.468 11.1179ZM481.267 10.927L482.718 9.55101L482.618 9.44562L482.504 9.35578L481.267 10.927ZM481.151 10.8195L479.682 12.1776L479.682 12.1776L481.151 10.8195ZM480.908 10.3535L482.862 9.92944L482.792 9.60882L482.624 9.32723L480.908 10.3535ZM464.846 14.227C465.33 10.9309 467.92 8.2015 471.38 7.68502L470.79 3.72885C465.539 4.5126 461.622 8.65326 460.888 13.6451L464.846 14.227ZM464.38 15.9275C464.919 15.1458 465.034 14.1966 464.782 13.359L460.952 14.5132C460.869 14.2373 460.906 13.9189 461.086 13.6578L464.38 15.9275ZM462.226 17.2086C463.061 17.12 463.863 16.6783 464.38 15.9275L461.086 13.6578C461.259 13.4073 461.528 13.2601 461.804 13.2309L462.226 17.2086ZM461.511 17.2222C461.813 17.2536 462.112 17.2388 462.4 17.1822L461.629 13.2573C461.727 13.2381 461.827 13.2334 461.925 13.2437L461.511 17.2222ZM459.445 16.0689C459.927 16.6944 460.66 17.1336 461.511 17.2222L461.925 13.2437C462.209 13.2732 462.455 13.4214 462.614 13.6279L459.445 16.0689ZM457.807 16.14C458.603 16.0211 459.369 16.1897 460.01 16.5694L462.048 13.1274C460.644 12.2961 458.954 11.9245 457.217 12.1838L457.807 16.14ZM454.981 19.9574C454.707 18.123 455.973 16.4138 457.807 16.14L457.217 12.1838C453.197 12.7838 450.425 16.5286 451.025 20.548L454.981 19.9574ZM452.457 23.3675C454.096 23.1229 455.226 21.5961 454.981 19.9574L451.025 20.548C450.944 20.0017 451.32 19.4928 451.866 19.4113L452.457 23.3675ZM449.047 20.8432C449.292 22.4819 450.818 23.6121 452.457 23.3675L451.866 19.4113C452.413 19.3298 452.922 19.7065 453.003 20.2527L449.047 20.8432ZM456.921 10.2058C451.809 10.9688 448.284 15.7314 449.047 20.8432L453.003 20.2527C452.566 17.3258 454.585 14.5988 457.512 14.1619L456.921 10.2058ZM461.836 10.7949C460.33 10.1796 458.642 9.94889 456.921 10.2058L457.512 14.1619C458.501 14.0142 459.464 14.1466 460.324 14.4979L461.836 10.7949ZM470.494 1.75077C464.763 2.60633 460.394 6.87921 459.134 12.1843L463.026 13.1085C463.921 9.33869 467.025 6.31299 471.085 5.70694L470.494 1.75077ZM483.813 7.48483C480.92 3.34508 475.84 0.952838 470.494 1.75077L471.085 5.70694C474.872 5.14171 478.476 6.8318 480.534 9.77591L483.813 7.48483ZM483.312 10.2746C484.142 9.6994 485.115 9.29995 486.186 9.14003L485.596 5.18386C483.905 5.43628 482.357 6.07009 481.034 6.98612L483.312 10.2746ZM486.186 9.14003C489.915 8.5835 493.388 11.1548 493.945 14.8833L497.901 14.2928C497.018 8.37939 491.509 4.30119 485.596 5.18386L486.186 9.14003ZM493.945 14.8833C494.501 18.6117 491.93 22.0854 488.202 22.6419L488.792 26.5981C494.705 25.7154 498.784 20.2062 497.901 14.2928L493.945 14.8833ZM488.202 22.6419L458.693 27.0466L459.283 31.0028L488.792 26.5981L488.202 22.6419ZM458.693 27.0466C459.239 26.9651 459.748 27.3418 459.829 27.888L455.873 28.4786C456.118 30.1173 457.645 31.2474 459.283 31.0028L458.693 27.0466ZM459.829 27.888C459.911 28.4343 459.534 28.9432 458.988 29.0247L458.398 25.0685C456.759 25.3131 455.629 26.8399 455.873 28.4786L459.829 27.888ZM458.988 29.0247L488.497 24.62L487.906 20.6639L458.398 25.0685L458.988 29.0247ZM488.497 24.62C493.318 23.9004 496.642 19.409 495.923 14.588L491.967 15.1786C492.36 17.8145 490.542 20.2704 487.906 20.6639L488.497 24.62ZM495.923 14.588C495.203 9.76712 490.712 6.44235 485.891 7.16195L486.481 11.1181C489.117 10.7247 491.573 12.5426 491.967 15.1786L495.923 14.588ZM485.891 7.16195C484.302 7.39919 482.871 8.04793 481.696 8.98519L484.19 12.1125C484.829 11.6027 485.606 11.2487 486.481 11.1181L485.891 7.16195ZM483.42 12.8769C484.123 12.4965 484.615 11.872 484.844 11.1693L481.042 9.9283C481.118 9.69567 481.283 9.48542 481.516 9.35892L483.42 12.8769ZM479.816 12.3031C480.726 13.263 482.198 13.5381 483.42 12.8768L481.516 9.35892C481.925 9.1376 482.415 9.23139 482.718 9.55101L479.816 12.3031ZM482.504 9.35578C482.546 9.38824 482.584 9.42366 482.619 9.46151L479.682 12.1776C479.79 12.2943 479.906 12.4014 480.03 12.4983L482.504 9.35578ZM482.619 9.46153C482.742 9.59503 482.825 9.75857 482.862 9.92944L478.953 10.7777C479.063 11.2859 479.308 11.7723 479.682 12.1776L482.619 9.46153ZM471.38 7.68502C474.581 7.20728 477.623 8.75687 479.191 11.3799L482.624 9.32723C480.253 5.36082 475.648 3.00373 470.79 3.72885L471.38 7.68502Z" fill="#96BCFE" mask="url(#path-19-inside-5)"/>
</g>
<g opacity="0.78">
<mask id="path-21-inside-6" fill="white">
<path fill-rule="evenodd" clip-rule="evenodd" d="M724.01 112.812C718.977 112.236 714.34 115.091 712.44 119.52C712.458 119.822 712.339 120.129 712.09 120.34C711.858 120.538 711.56 120.611 711.281 120.566C711.182 120.56 711.082 120.539 710.984 120.501C710.71 120.396 710.508 120.183 710.41 119.929C709.445 118.933 708.144 118.254 706.659 118.084C703.251 117.694 700.173 120.141 699.783 123.548C699.72 124.097 699.224 124.491 698.676 124.428C698.127 124.365 697.733 123.87 697.796 123.321C698.311 118.816 702.381 115.582 706.886 116.097C708.462 116.277 709.882 116.893 711.041 117.809C713.501 113.121 718.661 110.187 724.237 110.825C729.434 111.42 733.577 114.955 735.199 119.577C736.612 119.05 738.168 118.84 739.768 119.023C745.186 119.643 749.075 124.537 748.455 129.955C747.835 135.374 742.941 139.263 737.522 138.643L726.399 137.37C725.85 137.308 725.456 136.812 725.519 136.263C725.582 135.714 726.078 135.321 726.626 135.383L737.75 136.656C742.071 137.151 745.974 134.049 746.468 129.728C746.963 125.407 743.861 121.504 739.54 121.01C738.098 120.845 736.705 121.08 735.468 121.626C735.335 121.85 735.115 122.021 734.842 122.086C734.39 122.194 733.937 121.977 733.728 121.586C733.693 121.541 733.662 121.492 733.635 121.44C733.545 121.269 733.509 121.084 733.522 120.904C732.324 116.657 728.663 113.345 724.01 112.812Z"/>
</mask>
<path d="M712.44 119.52L710.602 118.731L710.416 119.165L710.444 119.637L712.44 119.52ZM712.09 120.34L710.794 118.817L710.794 118.817L712.09 120.34ZM711.281 120.566L711.602 118.592L711.504 118.576L711.404 118.57L711.281 120.566ZM710.984 120.501L710.269 122.369L710.269 122.369L710.984 120.501ZM710.41 119.929L712.274 119.205L712.128 118.828L711.846 118.537L710.41 119.929ZM711.041 117.809L709.8 119.378L711.692 120.874L712.812 118.739L711.041 117.809ZM735.199 119.577L733.312 120.24L733.988 122.164L735.898 121.451L735.199 119.577ZM737.522 138.643L737.295 140.63L737.522 138.643ZM726.399 137.37L726.626 135.383L726.399 137.37ZM735.468 121.626L734.659 119.797L734.078 120.054L733.751 120.6L735.468 121.626ZM734.842 122.086L734.378 120.141L734.378 120.141L734.842 122.086ZM733.728 121.586L735.492 120.643L735.414 120.497L735.313 120.366L733.728 121.586ZM733.635 121.44L735.405 120.509L735.405 120.509L733.635 121.44ZM733.522 120.904L735.517 121.047L735.542 120.698L735.447 120.361L733.522 120.904ZM714.278 120.308C715.84 116.669 719.651 114.326 723.783 114.799L724.237 110.825C718.303 110.146 712.841 113.512 710.602 118.731L714.278 120.308ZM713.387 121.863C714.133 121.228 714.49 120.304 714.437 119.403L710.444 119.637C710.426 119.34 710.544 119.03 710.794 118.817L713.387 121.863ZM710.959 122.54C711.793 122.676 712.688 122.458 713.387 121.863L710.794 118.817C711.027 118.619 711.327 118.547 711.602 118.592L710.959 122.54ZM710.269 122.369C710.558 122.48 710.858 122.544 711.158 122.562L711.404 118.57C711.505 118.576 711.605 118.597 711.7 118.634L710.269 122.369ZM708.545 120.652C708.839 121.411 709.445 122.053 710.269 122.369L711.7 118.634C711.974 118.739 712.177 118.955 712.274 119.205L708.545 120.652ZM706.432 120.071C707.44 120.187 708.319 120.645 708.973 121.321L711.846 118.537C710.57 117.221 708.847 116.321 706.886 116.097L706.432 120.071ZM701.77 123.776C702.034 121.465 704.121 119.807 706.432 120.071L706.886 116.097C702.381 115.582 698.311 118.816 697.796 123.321L701.77 123.776ZM698.448 126.415C700.094 126.603 701.581 125.422 701.77 123.776L697.796 123.321C697.858 122.772 698.354 122.378 698.903 122.441L698.448 126.415ZM695.809 123.094C695.62 124.74 696.802 126.227 698.448 126.415L698.903 122.441C699.452 122.504 699.846 123 699.783 123.548L695.809 123.094ZM707.114 114.11C701.511 113.469 696.45 117.491 695.809 123.094L699.783 123.548C700.173 120.141 703.251 117.694 706.659 118.084L707.114 114.11ZM712.282 116.241C710.839 115.1 709.07 114.334 707.114 114.11L706.659 118.084C707.853 118.221 708.925 118.686 709.8 119.378L712.282 116.241ZM724.465 108.838C718.04 108.103 712.1 111.485 709.27 116.88L712.812 118.739C714.901 114.757 719.281 112.271 724.01 112.812L724.465 108.838ZM737.086 118.915C735.22 113.597 730.451 109.523 724.465 108.838L724.01 112.812C728.416 113.316 731.934 116.312 733.312 120.24L737.086 118.915ZM735.898 121.451C737.023 121.032 738.262 120.863 739.54 121.01L739.995 117.036C738.075 116.816 736.202 117.069 734.5 117.703L735.898 121.451ZM739.54 121.01C743.861 121.504 746.963 125.407 746.468 129.728L750.442 130.183C751.188 123.667 746.511 117.781 739.995 117.036L739.54 121.01ZM746.468 129.728C745.974 134.049 742.071 137.151 737.75 136.656L737.295 140.63C743.811 141.376 749.697 136.698 750.442 130.183L746.468 129.728ZM737.75 136.656L726.626 135.383L726.171 139.357L737.295 140.63L737.75 136.656ZM726.626 135.383C727.175 135.446 727.569 135.942 727.506 136.491L723.532 136.036C723.344 137.682 724.525 139.169 726.171 139.357L726.626 135.383ZM727.506 136.491C727.443 137.039 726.948 137.433 726.399 137.37L726.854 133.396C725.207 133.208 723.72 134.39 723.532 136.036L727.506 136.491ZM726.399 137.37L737.522 138.643L737.977 134.669L726.854 133.396L726.399 137.37ZM737.522 138.643C742.941 139.263 747.835 135.374 748.455 129.955L744.481 129.501C744.112 132.724 741.2 135.038 737.977 134.669L737.522 138.643ZM748.455 129.955C749.075 124.537 745.186 119.643 739.768 119.023L739.313 122.997C742.536 123.365 744.85 126.277 744.481 129.501L748.455 129.955ZM739.768 119.023C737.963 118.816 736.212 119.11 734.659 119.797L736.277 123.455C737.197 123.049 738.233 122.873 739.313 122.997L739.768 119.023ZM735.305 124.032C736.124 123.836 736.786 123.319 737.185 122.652L733.751 120.6C733.883 120.38 734.105 120.206 734.378 120.141L735.305 124.032ZM731.964 122.529C732.591 123.701 733.948 124.355 735.305 124.032L734.378 120.141C734.832 120.032 735.283 120.252 735.492 120.643L731.964 122.529ZM735.313 120.366C735.348 120.411 735.379 120.459 735.405 120.509L731.865 122.371C731.946 122.525 732.039 122.67 732.143 122.805L735.313 120.366ZM735.405 120.509C735.493 120.677 735.53 120.866 735.517 121.047L731.527 120.761C731.488 121.302 731.596 121.861 731.865 122.371L735.405 120.509ZM723.783 114.799C727.602 115.236 730.612 117.954 731.597 121.447L735.447 120.361C734.036 115.359 729.724 111.453 724.237 110.825L723.783 114.799Z" fill="#96BCFE" mask="url(#path-21-inside-6)"/>
</g>
<g opacity="0.3">
<mask id="path-23-inside-7" fill="white">
<path fill-rule="evenodd" clip-rule="evenodd" d="M617.684 4.99994C613.966 4.99994 610.819 7.45627 609.782 10.8362C609.813 11.1167 609.727 11.4089 609.519 11.6314C609.313 11.8511 609.032 11.9575 608.754 11.948C608.658 11.952 608.56 11.9422 608.462 11.9171C608.195 11.8484 607.982 11.6785 607.851 11.4591C607.084 10.8425 606.111 10.4746 605.051 10.4746C602.58 10.4746 600.576 12.478 600.576 14.9494C600.576 15.5016 600.128 15.9494 599.576 15.9494C599.024 15.9494 598.576 15.5016 598.576 14.9494C598.576 11.3735 601.475 8.47462 605.051 8.47462C606.199 8.47462 607.279 8.77416 608.214 9.29879C609.765 5.59926 613.42 2.99994 617.684 2.99994C621.665 2.99994 625.115 5.26567 626.818 8.57563C627.817 8.10558 628.933 7.84281 630.108 7.84281C634.382 7.84281 637.847 11.3073 637.847 15.5809C637.847 19.8546 634.382 23.3191 630.108 23.3191H604.419C603.867 23.3191 603.419 22.8714 603.419 22.3191C603.419 21.7668 603.867 21.3191 604.419 21.3191H630.108C633.278 21.3191 635.847 18.75 635.847 15.5809C635.847 12.4119 633.278 9.84281 630.108 9.84281C629.075 9.84281 628.107 10.1152 627.271 10.592C627.158 10.7956 626.974 10.9609 626.738 11.0465C626.305 11.2034 625.835 11.0432 625.581 10.6849C625.549 10.65 625.519 10.6124 625.492 10.5723C625.393 10.4268 625.337 10.2645 625.322 10.1008C624.08 7.10491 621.127 4.99994 617.684 4.99994Z"/>
</mask>
<path d="M609.782 10.8362L607.87 10.2494L607.748 10.6469L607.794 11.0601L609.782 10.8362ZM609.519 11.6314L610.98 12.9969L610.98 12.9969L609.519 11.6314ZM608.754 11.948L608.822 9.94917L608.746 9.94658L608.67 9.94977L608.754 11.948ZM608.462 11.9171L607.964 13.8539L607.964 13.854L608.462 11.9171ZM607.851 11.4591L609.571 10.4382L609.387 10.127L609.104 9.90018L607.851 11.4591ZM608.214 9.29879L607.236 11.0432L609.191 12.14L610.058 10.0721L608.214 9.29879ZM626.818 8.57563L625.039 9.49054L625.922 11.2071L627.669 10.3854L626.818 8.57563ZM627.271 10.592L626.281 8.85462L625.794 9.13194L625.522 9.62146L627.271 10.592ZM626.738 11.0465L626.056 9.16626L626.056 9.16626L626.738 11.0465ZM625.581 10.6849L627.213 9.5291L627.141 9.42734L627.057 9.33532L625.581 10.6849ZM625.492 10.5723L623.839 11.6987L623.839 11.6987L625.492 10.5723ZM625.322 10.1008L627.314 9.91923L627.286 9.61592L627.17 9.3346L625.322 10.1008ZM611.694 11.4229C612.48 8.85969 614.869 6.99994 617.684 6.99994V2.99994C613.063 2.99994 609.158 6.05286 607.87 10.2494L611.694 11.4229ZM610.98 12.9969C611.604 12.3292 611.864 11.4493 611.769 10.6122L607.794 11.0601C607.763 10.7842 607.849 10.4886 608.057 10.2658L610.98 12.9969ZM608.686 13.9468C609.517 13.9752 610.364 13.6563 610.98 12.9969L608.058 10.2658C608.263 10.0458 608.548 9.93983 608.822 9.94917L608.686 13.9468ZM607.964 13.854C608.253 13.9285 608.548 13.9584 608.838 13.9462L608.67 9.94977C608.768 9.94565 608.866 9.9559 608.961 9.9802L607.964 13.854ZM606.132 12.4799C606.521 13.1356 607.164 13.6482 607.964 13.8539L608.961 9.9802C609.227 10.0487 609.443 10.2214 609.571 10.4382L606.132 12.4799ZM605.051 12.4746C605.64 12.4746 606.174 12.6769 606.598 13.018L609.104 9.90018C607.995 9.0082 606.583 8.47462 605.051 8.47462V12.4746ZM602.576 14.9494C602.576 13.5826 603.684 12.4746 605.051 12.4746V8.47462C601.475 8.47462 598.576 11.3735 598.576 14.9494H602.576ZM599.576 17.9494C601.233 17.9494 602.576 16.6062 602.576 14.9494H598.576C598.576 14.3971 599.024 13.9494 599.576 13.9494V17.9494ZM596.576 14.9494C596.576 16.6062 597.919 17.9494 599.576 17.9494V13.9494C600.128 13.9494 600.576 14.3971 600.576 14.9494H596.576ZM605.051 6.47462C600.37 6.47462 596.576 10.2689 596.576 14.9494H600.576C600.576 12.478 602.58 10.4746 605.051 10.4746V6.47462ZM609.192 7.55439C607.966 6.86674 606.551 6.47462 605.051 6.47462V10.4746C605.847 10.4746 606.591 10.6816 607.236 11.0432L609.192 7.55439ZM617.684 0.999939C612.586 0.999939 608.221 4.1092 606.37 8.52543L610.058 10.0721C611.309 7.08931 614.254 4.99994 617.684 4.99994V0.999939ZM628.596 7.66072C626.564 3.71093 622.444 0.999939 617.684 0.999939V4.99994C620.887 4.99994 623.666 6.82041 625.039 9.49054L628.596 7.66072ZM627.669 10.3854C628.408 10.0379 629.234 9.84281 630.108 9.84281V5.84281C628.632 5.84281 627.226 6.17328 625.966 6.7659L627.669 10.3854ZM630.108 9.84281C633.278 9.84281 635.847 12.4119 635.847 15.5809H639.847C639.847 10.2027 635.487 5.84281 630.108 5.84281V9.84281ZM635.847 15.5809C635.847 18.75 633.278 21.3191 630.108 21.3191V25.3191C635.487 25.3191 639.847 20.9592 639.847 15.5809H635.847ZM630.108 21.3191H604.419V25.3191H630.108V21.3191ZM604.419 21.3191C604.972 21.3191 605.419 21.7668 605.419 22.3191H601.419C601.419 23.9759 602.763 25.3191 604.419 25.3191V21.3191ZM605.419 22.3191C605.419 22.8714 604.972 23.3191 604.419 23.3191V19.3191C602.763 19.3191 601.419 20.6622 601.419 22.3191H605.419ZM604.419 23.3191H630.108V19.3191H604.419V23.3191ZM630.108 23.3191C634.382 23.3191 637.847 19.8546 637.847 15.5809H633.847C633.847 17.6455 632.173 19.3191 630.108 19.3191V23.3191ZM637.847 15.5809C637.847 11.3073 634.382 7.84281 630.108 7.84281V11.8428C632.173 11.8428 633.847 13.5164 633.847 15.5809H637.847ZM630.108 7.84281C628.719 7.84281 627.411 8.2101 626.281 8.85462L628.262 12.3294C628.804 12.0203 629.431 11.8428 630.108 11.8428V7.84281ZM627.42 12.9267C628.127 12.6704 628.682 12.1721 629.02 11.5626L625.522 9.62146C625.635 9.41914 625.821 9.25137 626.056 9.16626L627.42 12.9267ZM623.949 11.8406C624.709 12.9148 626.119 13.3984 627.42 12.9267L626.056 9.16626C626.492 9.00839 626.96 9.17154 627.213 9.5291L623.949 11.8406ZM627.057 9.33532C627.089 9.37033 627.118 9.40732 627.145 9.44588L623.839 11.6987C623.92 11.8176 624.009 11.9297 624.105 12.0344L627.057 9.33532ZM627.145 9.44589C627.242 9.58855 627.299 9.75299 627.314 9.91923L623.331 10.2823C623.376 10.776 623.544 11.2651 623.839 11.6987L627.145 9.44589ZM617.684 6.99994C620.291 6.99994 622.532 8.59236 623.475 10.867L627.17 9.3346C625.628 5.61747 621.963 2.99994 617.684 2.99994V6.99994Z" fill="#96BCFE" mask="url(#path-23-inside-7)"/>
</g>
<g opacity="0.3">
<mask id="path-25-inside-8" fill="white">
<path fill-rule="evenodd" clip-rule="evenodd" d="M104.695 255.592C101.443 257.395 99.8818 261.069 100.614 264.528C100.777 264.758 100.843 265.056 100.769 265.351C100.696 265.643 100.502 265.872 100.254 265.999C100.172 266.049 100.081 266.088 99.9836 266.114C99.7171 266.183 99.4477 266.138 99.2274 266.009C98.2576 265.842 97.2283 265.992 96.3008 266.506C94.1395 267.704 93.3588 270.428 94.5572 272.589C94.825 273.072 94.6506 273.681 94.1675 273.949C93.6845 274.217 93.0759 274.042 92.8081 273.559C91.0741 270.432 92.2036 266.491 95.331 264.757C96.3353 264.2 97.4245 263.939 98.497 263.944C98.0597 259.956 99.9958 255.911 103.725 253.843C107.207 251.913 111.322 252.221 114.416 254.29C115.062 253.395 115.911 252.624 116.939 252.054C120.677 249.981 125.387 251.331 127.459 255.069C129.531 258.807 128.181 263.516 124.444 265.589L101.977 278.046C101.494 278.313 100.885 278.139 100.617 277.656C100.35 277.173 100.524 276.564 101.007 276.297L123.474 263.84C126.245 262.303 127.246 258.81 125.71 256.039C124.173 253.267 120.68 252.266 117.909 253.803C117.005 254.304 116.291 255.011 115.791 255.834C115.791 256.067 115.71 256.301 115.545 256.49C115.242 256.837 114.753 256.925 114.358 256.735C114.313 256.72 114.269 256.701 114.225 256.679C114.068 256.6 113.941 256.485 113.848 256.349C111.309 254.332 107.705 253.923 104.695 255.592Z"/>
</mask>
<path d="M100.614 264.528L98.6569 264.942L98.7429 265.349L98.984 265.688L100.614 264.528ZM100.769 265.351L102.709 265.837L102.709 265.837L100.769 265.351ZM100.254 265.999L99.3438 264.218L99.2761 264.253L99.2112 264.292L100.254 265.999ZM99.9836 266.114L100.487 268.049L100.487 268.049L99.9836 266.114ZM99.2274 266.009L100.237 264.282L99.924 264.1L99.5673 264.038L99.2274 266.009ZM98.497 263.944L98.4873 265.944L100.73 265.955L100.485 263.726L98.497 263.944ZM114.416 254.29L113.305 255.953L114.909 257.026L116.039 255.46L114.416 254.29ZM115.791 255.834L114.082 254.795L113.791 255.273L113.791 255.833L115.791 255.834ZM115.545 256.49L114.037 255.176L114.037 255.176L115.545 256.49ZM114.358 256.735L115.225 254.932L115.112 254.878L114.994 254.839L114.358 256.735ZM114.225 256.679L113.326 258.466L113.326 258.466L114.225 256.679ZM113.848 256.349L115.502 255.225L115.331 254.973L115.092 254.783L113.848 256.349ZM102.57 264.114C102.015 261.491 103.202 258.707 105.665 257.341L103.725 253.843C99.6837 256.084 97.7483 260.648 98.6569 264.942L102.57 264.114ZM102.709 265.837C102.931 264.95 102.731 264.055 102.243 263.369L98.984 265.688C98.8231 265.462 98.7549 265.161 98.829 264.866L102.709 265.837ZM101.163 267.78C101.904 267.402 102.49 266.712 102.709 265.837L98.829 264.866C98.9021 264.574 99.0996 264.343 99.3438 264.218L101.163 267.78ZM100.487 268.049C100.776 267.974 101.048 267.857 101.296 267.706L99.2112 264.292C99.295 264.241 99.386 264.202 99.4803 264.178L100.487 268.049ZM98.2183 267.736C98.8767 268.121 99.6879 268.257 100.487 268.049L99.4803 264.178C99.7463 264.109 100.019 264.155 100.237 264.282L98.2183 267.736ZM97.2706 268.255C97.7858 267.97 98.351 267.887 98.8876 267.98L99.5673 264.038C98.1642 263.796 96.6709 264.014 95.331 264.757L97.2706 268.255ZM96.3063 271.62C95.6436 270.424 96.0753 268.918 97.2706 268.255L95.331 264.757C92.2036 266.491 91.0741 270.432 92.8081 273.559L96.3063 271.62ZM95.1374 275.698C96.5864 274.895 97.1098 273.069 96.3063 271.62L92.8081 273.559C92.5403 273.076 92.7147 272.468 93.1977 272.2L95.1374 275.698ZM91.0589 274.529C91.8624 275.978 93.6883 276.501 95.1374 275.698L93.1977 272.2C93.6807 271.932 94.2894 272.106 94.5572 272.589L91.0589 274.529ZM94.3611 263.008C90.2678 265.277 88.7893 270.436 91.0589 274.529L94.5572 272.589C93.3588 270.428 94.1395 267.704 96.3008 266.506L94.3611 263.008ZM98.5067 261.944C97.1009 261.937 95.6731 262.28 94.3611 263.008L96.3008 266.506C96.9974 266.12 97.748 265.94 98.4873 265.944L98.5067 261.944ZM102.755 252.094C98.2966 254.566 95.9869 259.402 96.5089 264.162L100.485 263.726C100.132 260.511 101.695 257.255 104.695 255.592L102.755 252.094ZM115.528 252.628C111.836 250.159 106.918 249.786 102.755 252.094L104.695 255.592C107.496 254.039 110.809 254.284 113.305 255.953L115.528 252.628ZM116.039 255.46C116.516 254.798 117.144 254.227 117.909 253.803L115.969 250.305C114.678 251.021 113.609 251.991 112.794 253.12L116.039 255.46ZM117.909 253.803C120.68 252.266 124.173 253.267 125.71 256.039L129.208 254.099C126.6 249.396 120.673 247.697 115.969 250.305L117.909 253.803ZM125.71 256.039C127.246 258.81 126.245 262.303 123.474 263.84L125.413 267.338C130.117 264.73 131.816 258.803 129.208 254.099L125.71 256.039ZM123.474 263.84L101.007 276.297L102.947 279.795L125.413 267.338L123.474 263.84ZM101.007 276.297C101.49 276.029 102.099 276.203 102.367 276.686L98.8683 278.626C99.6717 280.075 101.498 280.598 102.947 279.795L101.007 276.297ZM102.367 276.686C102.634 277.169 102.46 277.778 101.977 278.046L100.037 274.547C98.5882 275.351 98.0649 277.177 98.8683 278.626L102.367 276.686ZM101.977 278.046L124.444 265.589L122.504 262.09L100.037 274.547L101.977 278.046ZM124.444 265.589C128.181 263.516 129.531 258.807 127.459 255.069L123.961 257.009C124.962 258.814 124.31 261.089 122.504 262.09L124.444 265.589ZM127.459 255.069C125.387 251.331 120.677 249.981 116.939 252.054L118.879 255.552C120.684 254.551 122.959 255.203 123.961 257.009L127.459 255.069ZM116.939 252.054C115.724 252.728 114.758 253.683 114.082 254.795L117.5 256.873C117.824 256.34 118.286 255.88 118.879 255.552L116.939 252.054ZM117.053 257.804C117.547 257.237 117.79 256.532 117.791 255.835L113.791 255.833C113.791 255.602 113.873 255.364 114.037 255.176L117.053 257.804ZM113.491 258.537C114.677 259.108 116.144 258.847 117.053 257.804L114.037 255.176C114.341 254.827 114.83 254.742 115.225 254.932L113.491 258.537ZM114.994 254.839C115.039 254.854 115.083 254.872 115.124 254.893L113.326 258.466C113.455 258.531 113.587 258.586 113.721 258.631L114.994 254.839ZM115.124 254.893C115.279 254.971 115.408 255.087 115.502 255.225L112.194 257.474C112.473 257.884 112.857 258.23 113.326 258.466L115.124 254.893ZM105.665 257.341C107.944 256.077 110.676 256.383 112.604 257.915L115.092 254.783C111.942 252.28 107.467 251.768 103.725 253.843L105.665 257.341Z" fill="#96BCFE" mask="url(#path-25-inside-8)"/>
</g>
<g opacity="0.78">
<mask id="path-27-inside-9" fill="white">
<path fill-rule="evenodd" clip-rule="evenodd" d="M1090.86 255.521C1086.87 253.236 1081.99 253.944 1078.81 256.944C1078.7 257.22 1078.48 257.446 1078.17 257.54C1077.88 257.629 1077.58 257.58 1077.34 257.429C1077.26 257.384 1077.17 257.326 1077.1 257.254C1076.89 257.053 1076.79 256.785 1076.8 256.519C1076.35 255.356 1075.52 254.335 1074.35 253.667C1071.67 252.127 1068.25 253.055 1066.71 255.739C1066.43 256.218 1065.82 256.383 1065.34 256.109C1064.86 255.834 1064.7 255.223 1064.97 254.744C1067.06 251.102 1071.71 249.843 1075.35 251.932C1076.59 252.645 1077.56 253.656 1078.21 254.822C1082 251.805 1087.39 251.229 1091.85 253.786C1096.01 256.171 1098.22 260.634 1097.94 265.111C1099.31 265.192 1100.68 265.581 1101.94 266.307C1106.31 268.815 1107.82 274.391 1105.32 278.763C1102.81 283.135 1097.23 284.646 1092.86 282.138L1083.97 277.037C1083.49 276.762 1083.32 276.151 1083.6 275.672C1083.87 275.193 1084.48 275.028 1084.96 275.302L1093.85 280.403C1097.27 282.362 1101.62 281.182 1103.58 277.768C1105.54 274.354 1104.36 270 1100.95 268.042C1099.81 267.392 1098.58 267.088 1097.37 267.096C1097.16 267.237 1096.9 267.301 1096.63 267.254C1096.17 267.174 1095.84 266.795 1095.81 266.354C1095.79 266.303 1095.79 266.251 1095.78 266.197C1095.77 266.011 1095.8 265.833 1095.88 265.677C1096.4 261.707 1094.54 257.635 1090.86 255.521Z"/>
</mask>
<path d="M1078.81 256.944L1077.44 255.49L1077.11 255.801L1076.94 256.223L1078.81 256.944ZM1078.17 257.54L1077.58 255.628L1077.58 255.628L1078.17 257.54ZM1077.34 257.429L1078.41 255.738L1078.33 255.689L1078.25 255.648L1077.34 257.429ZM1077.1 257.254L1075.7 258.686L1075.7 258.686L1077.1 257.254ZM1076.8 256.519L1078.8 256.557L1078.8 256.167L1078.67 255.803L1076.8 256.519ZM1078.21 254.822L1076.46 255.795L1077.61 257.856L1079.45 256.387L1078.21 254.822ZM1097.94 265.111L1095.95 264.987L1095.82 266.989L1097.83 267.108L1097.94 265.111ZM1097.37 267.096L1097.35 265.096L1096.74 265.099L1096.24 265.443L1097.37 267.096ZM1096.63 267.254L1096.29 269.224L1096.29 269.224L1096.63 267.254ZM1095.81 266.354L1097.8 266.186L1097.79 266.036L1097.75 265.889L1095.81 266.354ZM1095.78 266.197L1097.78 266.043L1097.78 266.042L1095.78 266.197ZM1095.88 265.677L1097.67 266.565L1097.82 266.267L1097.86 265.937L1095.88 265.677ZM1080.18 258.398C1082.74 255.987 1086.66 255.421 1089.86 257.256L1091.85 253.786C1087.08 251.05 1081.24 251.901 1077.44 255.49L1080.18 258.398ZM1078.76 259.451C1079.67 259.17 1080.36 258.488 1080.68 257.665L1076.94 256.223C1077.05 255.952 1077.28 255.722 1077.58 255.628L1078.76 259.451ZM1076.27 259.12C1076.99 259.569 1077.89 259.719 1078.76 259.451L1077.58 255.628C1077.87 255.539 1078.18 255.59 1078.41 255.738L1076.27 259.12ZM1075.7 258.686C1075.92 258.9 1076.17 259.075 1076.43 259.21L1078.25 255.648C1078.34 255.693 1078.42 255.752 1078.5 255.822L1075.7 258.686ZM1074.8 256.48C1074.78 257.276 1075.09 258.084 1075.7 258.686L1078.5 255.822C1078.7 256.023 1078.8 256.294 1078.8 256.557L1074.8 256.48ZM1073.36 255.402C1074.11 255.832 1074.64 256.486 1074.93 257.234L1078.67 255.803C1078.06 254.225 1076.93 252.837 1075.35 251.932L1073.36 255.402ZM1068.44 256.734C1069.43 255.008 1071.63 254.412 1073.36 255.402L1075.35 251.932C1071.71 249.843 1067.06 251.102 1064.97 254.744L1068.44 256.734ZM1064.35 257.844C1065.79 258.668 1067.62 258.171 1068.44 256.734L1064.97 254.744C1065.25 254.265 1065.86 254.099 1066.34 254.374L1064.35 257.844ZM1063.24 253.749C1062.41 255.186 1062.91 257.019 1064.35 257.844L1066.34 254.374C1066.82 254.649 1066.98 255.26 1066.71 255.739L1063.24 253.749ZM1076.35 250.197C1071.75 247.559 1065.88 249.149 1063.24 253.749L1066.71 255.739C1068.25 253.055 1071.67 252.127 1074.35 253.667L1076.35 250.197ZM1079.95 253.849C1079.13 252.374 1077.91 251.096 1076.35 250.197L1074.35 253.667C1075.27 254.193 1075.98 254.937 1076.46 255.795L1079.95 253.849ZM1092.85 252.051C1087.65 249.072 1081.37 249.747 1076.96 253.257L1079.45 256.387C1082.62 253.863 1087.13 253.385 1090.86 255.521L1092.85 252.051ZM1099.94 265.236C1100.27 260.028 1097.69 254.829 1092.85 252.051L1090.86 255.521C1094.33 257.512 1096.18 261.24 1095.95 264.987L1099.94 265.236ZM1097.83 267.108C1098.89 267.171 1099.96 267.474 1100.95 268.042L1102.94 264.572C1101.4 263.689 1099.73 263.213 1098.06 263.115L1097.83 267.108ZM1100.95 268.042C1104.36 270 1105.54 274.354 1103.58 277.768L1107.05 279.758C1110.11 274.428 1108.27 267.629 1102.94 264.572L1100.95 268.042ZM1103.58 277.768C1101.62 281.182 1097.27 282.362 1093.85 280.403L1091.86 283.873C1097.19 286.93 1103.99 285.088 1107.05 279.758L1103.58 277.768ZM1093.85 280.403L1084.96 275.302L1082.97 278.772L1091.86 283.873L1093.85 280.403ZM1084.96 275.302C1085.44 275.577 1085.61 276.188 1085.33 276.667L1081.86 274.677C1081.04 276.114 1081.53 277.948 1082.97 278.772L1084.96 275.302ZM1085.33 276.667C1085.06 277.146 1084.45 277.312 1083.97 277.037L1085.96 273.568C1084.52 272.743 1082.69 273.24 1081.86 274.677L1085.33 276.667ZM1083.97 277.037L1092.86 282.138L1094.85 278.669L1085.96 273.568L1083.97 277.037ZM1092.86 282.138C1097.23 284.646 1102.81 283.135 1105.32 278.763L1101.85 276.773C1100.44 279.228 1097.3 280.077 1094.85 278.669L1092.86 282.138ZM1105.32 278.763C1107.82 274.391 1106.31 268.815 1101.94 266.307L1099.95 269.776C1102.41 271.185 1103.25 274.317 1101.85 276.773L1105.32 278.763ZM1101.94 266.307C1100.49 265.477 1098.91 265.086 1097.35 265.096L1097.38 269.096C1098.25 269.09 1099.13 269.308 1099.95 269.776L1101.94 266.307ZM1096.29 269.224C1097.09 269.364 1097.87 269.171 1098.49 268.749L1096.24 265.443C1096.44 265.303 1096.71 265.237 1096.97 265.284L1096.29 269.224ZM1093.81 266.521C1093.92 267.846 1094.91 268.984 1096.29 269.224L1096.97 265.284C1097.43 265.364 1097.76 265.745 1097.8 266.186L1093.81 266.521ZM1097.75 265.889C1097.76 265.94 1097.77 265.991 1097.78 266.043L1093.79 266.352C1093.8 266.51 1093.82 266.666 1093.86 266.818L1097.75 265.889ZM1097.78 266.042C1097.79 266.226 1097.75 266.407 1097.67 266.565L1094.09 264.788C1093.86 265.258 1093.74 265.796 1093.79 266.352L1097.78 266.042ZM1089.86 257.256C1092.82 258.953 1094.32 262.223 1093.9 265.416L1097.86 265.937C1098.49 261.192 1096.26 256.317 1091.85 253.786L1089.86 257.256Z" fill="#96BCFE" mask="url(#path-27-inside-9)"/>
</g>
<path opacity="0.2" fill-rule="evenodd" clip-rule="evenodd" d="M483.756 94.0018C484.304 93.9349 484.694 93.4362 484.627 92.888C484.56 92.3398 484.062 91.9496 483.513 92.0165C480.173 92.4241 476.838 92.8492 473.509 93.2915C472.961 93.3643 472.576 93.867 472.649 94.4145C472.722 94.962 473.225 95.3468 473.772 95.2741C477.095 94.8327 480.422 94.4085 483.756 94.0018ZM735.144 94.6754C734.597 94.5968 734.09 94.9763 734.012 95.5229C733.933 96.0696 734.312 96.5765 734.859 96.655C738.183 97.1328 741.501 97.6278 744.813 98.14C745.359 98.2244 745.87 97.8504 745.954 97.3046C746.039 96.7588 745.665 96.2479 745.119 96.1635C741.799 95.6502 738.474 95.1541 735.144 94.6754ZM463.786 96.6551C464.333 96.5765 464.712 96.0696 464.634 95.523C464.555 94.9763 464.048 94.5968 463.502 94.6754C460.171 95.1541 456.846 95.6502 453.527 96.1636C452.981 96.248 452.607 96.7588 452.691 97.3046C452.776 97.8504 453.286 98.2245 453.832 98.1401C457.145 97.6278 460.463 97.1328 463.786 96.6551ZM755.094 97.7608C754.549 97.6706 754.034 98.0392 753.944 98.584C753.854 99.1289 754.223 99.6437 754.767 99.734C758.08 100.283 761.386 100.848 764.687 101.431C765.231 101.527 765.75 101.164 765.846 100.621C765.942 100.077 765.579 99.5579 765.035 99.4619C761.727 98.8776 758.414 98.3106 755.094 97.7608ZM443.878 99.734C444.423 99.6438 444.791 99.1289 444.701 98.584C444.611 98.0392 444.096 97.6706 443.551 97.7609C440.232 98.3106 436.918 98.8777 433.61 99.4619C433.066 99.5579 432.703 100.077 432.799 100.621C432.895 101.164 433.414 101.527 433.958 101.431C437.259 100.848 440.565 100.283 443.878 99.734ZM774.974 101.272C774.431 101.17 773.909 101.528 773.807 102.071C773.705 102.613 774.062 103.136 774.605 103.238C777.905 103.857 781.199 104.494 784.487 105.147C785.029 105.255 785.555 104.903 785.663 104.362C785.771 103.82 785.419 103.293 784.877 103.186C781.582 102.531 778.281 101.893 774.974 101.272ZM424.04 103.238C424.583 103.136 424.94 102.613 424.838 102.071C424.737 101.528 424.214 101.17 423.671 101.272C420.364 101.893 417.063 102.531 413.768 103.186C413.226 103.293 412.875 103.82 412.982 104.362C413.09 104.903 413.616 105.255 414.158 105.147C417.446 104.494 420.74 103.857 424.04 103.238ZM794.775 105.208C794.234 105.095 793.704 105.441 793.59 105.982C793.477 106.522 793.823 107.052 794.364 107.166C797.65 107.856 800.93 108.563 804.203 109.287C804.742 109.406 805.276 109.066 805.396 108.526C805.515 107.987 805.174 107.453 804.635 107.334C801.355 106.608 798.068 105.9 794.775 105.208ZM404.282 107.166C404.822 107.052 405.168 106.522 405.055 105.982C404.941 105.441 404.411 105.095 403.871 105.208C400.578 105.9 397.291 106.608 394.01 107.334C393.471 107.453 393.131 107.987 393.25 108.526C393.369 109.066 393.903 109.406 394.442 109.287C397.716 108.563 400.996 107.856 404.282 107.166ZM814.486 109.568C813.948 109.443 813.411 109.778 813.286 110.316C813.16 110.854 813.495 111.391 814.033 111.516C817.304 112.277 820.568 113.054 823.826 113.848C824.362 113.979 824.903 113.65 825.034 113.113C825.165 112.577 824.836 112.036 824.299 111.905C821.035 111.109 817.764 110.33 814.486 109.568ZM384.612 111.516C385.15 111.391 385.485 110.854 385.36 110.316C385.235 109.778 384.697 109.443 384.159 109.568C380.882 110.33 377.611 111.109 374.346 111.905C373.81 112.036 373.481 112.577 373.611 113.113C373.742 113.65 374.283 113.979 374.82 113.848C378.077 113.054 381.342 112.277 384.612 111.516ZM834.099 114.35C833.564 114.213 833.02 114.536 832.883 115.071C832.747 115.607 833.07 116.151 833.605 116.288C836.858 117.118 840.105 117.965 843.346 118.829C843.879 118.971 844.427 118.654 844.569 118.121C844.712 117.587 844.394 117.039 843.861 116.897C840.614 116.031 837.36 115.182 834.099 114.35ZM365.041 116.288C365.576 116.151 365.899 115.607 365.762 115.071C365.626 114.536 365.081 114.213 364.546 114.35C361.285 115.182 358.032 116.031 354.785 116.897C354.251 117.039 353.934 117.587 354.076 118.121C354.218 118.654 354.766 118.971 355.3 118.829C358.54 117.965 361.787 117.118 365.041 116.288ZM853.606 119.551C853.074 119.403 852.522 119.715 852.374 120.247C852.226 120.779 852.538 121.33 853.07 121.478C856.305 122.378 859.533 123.295 862.754 124.228C863.284 124.382 863.839 124.076 863.993 123.546C864.147 123.015 863.841 122.461 863.311 122.307C860.083 121.372 856.848 120.453 853.606 119.551ZM345.576 121.478C346.108 121.33 346.419 120.779 346.271 120.247C346.123 119.715 345.572 119.403 345.04 119.551C341.798 120.453 338.563 121.372 335.335 122.307C334.804 122.461 334.499 123.015 334.653 123.546C334.806 124.076 335.361 124.382 335.891 124.228C339.113 123.295 342.341 122.378 345.576 121.478ZM872.996 125.17C872.467 125.011 871.909 125.31 871.75 125.839C871.59 126.368 871.89 126.926 872.419 127.085C875.634 128.054 878.841 129.04 882.042 130.042C882.569 130.207 883.13 129.914 883.295 129.387C883.46 128.86 883.167 128.299 882.64 128.134C879.432 127.129 876.218 126.141 872.996 125.17ZM326.227 127.085C326.756 126.926 327.055 126.368 326.896 125.839C326.736 125.31 326.178 125.011 325.65 125.17C322.428 126.141 319.213 127.129 316.006 128.134C315.479 128.299 315.185 128.86 315.35 129.387C315.515 129.914 316.076 130.207 316.603 130.042C319.804 129.04 323.012 128.054 326.227 127.085ZM307.003 133.106C307.528 132.935 307.815 132.371 307.645 131.846C307.474 131.32 306.91 131.033 306.384 131.204C303.184 132.244 299.991 133.301 296.806 134.374C296.283 134.55 296.001 135.117 296.178 135.641C296.354 136.164 296.921 136.445 297.445 136.269C300.623 135.198 303.809 134.144 307.003 133.106ZM892.261 131.204C891.736 131.033 891.172 131.32 891.001 131.846C890.83 132.371 891.118 132.935 891.643 133.106C894.836 134.144 898.022 135.198 901.201 136.269C901.724 136.445 902.291 136.164 902.468 135.641C902.644 135.117 902.363 134.55 901.839 134.374C898.654 133.301 895.461 132.244 892.261 131.204ZM287.912 139.538C288.433 139.356 288.709 138.786 288.527 138.264C288.345 137.743 287.775 137.468 287.253 137.65C284.076 138.758 280.907 139.883 277.745 141.024C277.225 141.212 276.956 141.785 277.144 142.304C277.331 142.824 277.904 143.093 278.424 142.906C281.579 141.767 284.742 140.644 287.912 139.538ZM911.392 137.65C910.871 137.468 910.301 137.743 910.119 138.264C909.937 138.786 910.212 139.356 910.733 139.538C913.904 140.644 917.067 141.767 920.222 142.905C920.741 143.093 921.314 142.824 921.502 142.304C921.689 141.785 921.42 141.212 920.901 141.024C917.739 139.883 914.569 138.758 911.392 137.65ZM930.381 144.504C929.863 144.311 929.287 144.574 929.094 145.091C928.901 145.609 929.164 146.185 929.682 146.378C932.828 147.552 935.966 148.742 939.096 149.948C939.611 150.147 940.19 149.89 940.388 149.375C940.587 148.859 940.33 148.28 939.815 148.082C936.678 146.873 933.533 145.68 930.381 144.504ZM268.964 146.378C269.481 146.185 269.744 145.609 269.551 145.091C269.358 144.574 268.782 144.311 268.264 144.504C265.112 145.68 261.967 146.873 258.83 148.082C258.315 148.28 258.058 148.859 258.257 149.375C258.456 149.89 259.034 150.147 259.55 149.948C262.68 148.742 265.818 147.552 268.964 146.378ZM250.166 153.622C250.679 153.418 250.93 152.837 250.726 152.323C250.522 151.81 249.94 151.56 249.427 151.764C246.301 153.007 243.182 154.267 240.072 155.543C239.561 155.753 239.316 156.337 239.526 156.848C239.736 157.359 240.32 157.603 240.831 157.393C243.934 156.12 247.046 154.863 250.166 153.622ZM949.218 151.764C948.705 151.56 948.124 151.81 947.919 152.323C947.715 152.837 947.966 153.418 948.479 153.622C951.599 154.863 954.711 156.12 957.815 157.393C958.326 157.603 958.91 157.359 959.119 156.848C959.329 156.337 959.085 155.753 958.574 155.543C955.463 154.267 952.345 153.007 949.218 151.764ZM967.896 159.425C967.387 159.21 966.801 159.448 966.585 159.957C966.37 160.466 966.608 161.052 967.117 161.267C970.21 162.575 973.294 163.898 976.37 165.238C976.877 165.458 977.466 165.226 977.686 164.72C977.907 164.214 977.675 163.624 977.169 163.404C974.086 162.062 970.995 160.736 967.896 159.425ZM231.528 161.267C232.037 161.052 232.275 160.466 232.06 159.957C231.845 159.448 231.258 159.21 230.749 159.425C227.65 160.736 224.559 162.062 221.477 163.404C220.97 163.624 220.739 164.214 220.959 164.72C221.18 165.226 221.769 165.458 222.275 165.238C225.351 163.898 228.436 162.575 231.528 161.267ZM986.405 167.485C985.901 167.259 985.31 167.484 985.084 167.988C984.858 168.492 985.083 169.084 985.587 169.31C988.651 170.683 991.707 172.072 994.754 173.477C995.255 173.708 995.85 173.489 996.081 172.987C996.312 172.486 996.093 171.892 995.591 171.661C992.538 170.253 989.476 168.861 986.405 167.485ZM213.058 169.31C213.562 169.084 213.787 168.492 213.562 167.988C213.336 167.484 212.744 167.259 212.24 167.485C209.169 168.861 206.107 170.253 203.054 171.661C202.552 171.892 202.333 172.486 202.565 172.987C202.796 173.489 203.39 173.708 203.891 173.477C206.938 172.072 209.994 170.683 213.058 169.31ZM1004.74 175.937C1004.24 175.701 1003.64 175.914 1003.41 176.413C1003.17 176.912 1003.38 177.508 1003.88 177.745C1006.92 179.183 1009.94 180.637 1012.96 182.107C1013.45 182.349 1014.05 182.142 1014.29 181.646C1014.54 181.149 1014.33 180.551 1013.83 180.309C1010.81 178.836 1007.78 177.379 1004.74 175.937ZM194.764 177.745C195.263 177.508 195.476 176.912 195.239 176.413C195.002 175.914 194.406 175.701 193.907 175.937C190.866 177.379 187.835 178.836 184.812 180.309C184.315 180.551 184.109 181.149 184.351 181.646C184.593 182.142 185.191 182.349 185.688 182.107C188.704 180.637 191.73 179.183 194.764 177.745ZM1022.89 184.78C1022.39 184.532 1021.79 184.732 1021.54 185.226C1021.3 185.72 1021.5 186.321 1021.99 186.568C1024.99 188.071 1027.99 189.589 1030.97 191.123C1031.46 191.375 1032.07 191.182 1032.32 190.691C1032.57 190.199 1032.38 189.596 1031.89 189.344C1028.9 187.807 1025.9 186.286 1022.89 184.78ZM176.654 186.568C177.148 186.321 177.348 185.72 177.1 185.226C176.853 184.732 176.252 184.532 175.759 184.78C172.749 186.286 169.749 187.807 166.758 189.344C166.267 189.597 166.073 190.199 166.326 190.691C166.578 191.182 167.181 191.375 167.672 191.123C170.657 189.589 173.651 188.071 176.654 186.568ZM1040.84 194.006C1040.35 193.749 1039.75 193.936 1039.49 194.424C1039.23 194.913 1039.42 195.518 1039.91 195.775C1042.88 197.342 1045.84 198.924 1048.79 200.521C1049.28 200.784 1049.88 200.603 1050.15 200.117C1050.41 199.631 1050.23 199.025 1049.74 198.762C1046.79 197.161 1043.82 195.576 1040.84 194.006ZM158.736 195.776C159.224 195.518 159.411 194.913 159.154 194.425C158.896 193.936 158.291 193.749 157.803 194.006C154.826 195.576 151.859 197.161 148.901 198.762C148.415 199.025 148.235 199.631 148.498 200.117C148.76 200.603 149.367 200.784 149.853 200.521C152.805 198.924 155.766 197.342 158.736 195.776ZM1058.6 203.613C1058.12 203.345 1057.51 203.52 1057.24 204.003C1056.97 204.485 1057.14 205.094 1057.63 205.362C1060.56 206.991 1063.49 208.636 1066.41 210.295C1066.89 210.568 1067.5 210.401 1067.77 209.921C1068.04 209.441 1067.88 208.83 1067.4 208.557C1064.47 206.894 1061.54 205.246 1058.6 203.613ZM141.018 205.362C141.501 205.094 141.675 204.486 141.407 204.003C141.139 203.52 140.53 203.345 140.047 203.613C137.105 205.246 134.172 206.894 131.249 208.557C130.769 208.83 130.601 209.441 130.874 209.921C131.147 210.401 131.757 210.569 132.237 210.295C135.155 208.636 138.081 206.992 141.018 205.362ZM1076.15 213.595C1075.67 213.317 1075.06 213.479 1074.78 213.956C1074.5 214.433 1074.66 215.045 1075.14 215.323C1078.04 217.015 1080.93 218.721 1083.81 220.442C1084.29 220.725 1084.9 220.57 1085.18 220.096C1085.47 219.622 1085.31 219.008 1084.84 218.725C1081.95 217 1079.05 215.29 1076.15 213.595ZM123.507 215.323C123.984 215.045 124.146 214.433 123.868 213.956C123.589 213.479 122.977 213.317 122.5 213.596C119.593 215.29 116.696 217 113.808 218.725C113.334 219.008 113.179 219.622 113.462 220.096C113.746 220.57 114.359 220.725 114.834 220.442C117.715 218.721 120.606 217.015 123.507 215.323ZM1093.48 223.948C1093.01 223.659 1092.39 223.808 1092.1 224.279C1091.81 224.75 1091.96 225.365 1092.43 225.654C1095.3 227.406 1098.15 229.173 1101 230.955C1101.46 231.249 1102.08 231.107 1102.37 230.639C1102.67 230.171 1102.53 229.554 1102.06 229.26C1099.21 227.475 1096.35 225.704 1093.48 223.948ZM106.212 225.654C106.684 225.366 106.832 224.75 106.544 224.279C106.255 223.808 105.64 223.66 105.169 223.948C102.298 225.704 99.4377 227.475 96.5871 229.261C96.1191 229.554 95.9774 230.171 96.2706 230.639C96.5637 231.107 97.1808 231.249 97.6489 230.955C100.493 229.173 103.348 227.406 106.212 225.654ZM1110.58 234.665C1110.12 234.367 1109.5 234.502 1109.2 234.967C1108.91 235.432 1109.04 236.05 1109.51 236.348C1112.33 238.161 1115.15 239.988 1117.95 241.83C1118.42 242.133 1119.04 242.005 1119.34 241.543C1119.64 241.081 1119.51 240.461 1119.05 240.158C1116.24 238.313 1113.42 236.481 1110.58 234.665ZM89.1402 236.349C89.6051 236.05 89.7403 235.432 89.4422 234.967C89.144 234.502 88.5255 234.367 88.0605 234.665C85.2279 236.481 82.4054 238.313 79.5932 240.158C79.1315 240.461 79.0028 241.081 79.3059 241.543C79.6089 242.005 80.2289 242.133 80.6906 241.83C83.4969 239.989 86.3135 238.161 89.1402 236.349ZM1127.46 245.742C1127 245.434 1126.38 245.556 1126.07 246.014C1125.77 246.473 1125.89 247.094 1126.35 247.402C1129.13 249.274 1131.91 251.161 1134.68 253.061C1135.13 253.374 1135.76 253.259 1136.07 252.803C1136.38 252.348 1136.27 251.726 1135.81 251.413C1133.04 249.508 1130.26 247.618 1127.46 245.742ZM72.2981 247.402C72.7566 247.094 72.8787 246.473 72.5708 246.014C72.2629 245.556 71.6416 245.434 71.1831 245.742C68.3895 247.618 65.6063 249.508 62.8336 251.413C62.3784 251.726 62.2628 252.348 62.5756 252.804C62.8883 253.259 63.5108 253.374 63.966 253.062C66.733 251.161 69.5104 249.274 72.2981 247.402ZM1144.1 257.173C1143.65 256.855 1143.03 256.964 1142.71 257.416C1142.39 257.868 1142.5 258.492 1142.95 258.809C1145.7 260.74 1148.44 262.684 1151.16 264.643C1151.61 264.966 1152.24 264.863 1152.56 264.415C1152.88 263.966 1152.78 263.341 1152.33 263.019C1149.6 261.056 1146.85 259.107 1144.1 257.173ZM55.6933 258.809C56.1452 258.492 56.2542 257.868 55.9366 257.416C55.6191 256.964 54.9954 256.855 54.5435 257.173C51.7902 259.107 49.0475 261.056 46.3154 263.019C45.8669 263.342 45.7646 263.966 46.0868 264.415C46.4091 264.863 47.0339 264.966 47.4824 264.643C50.2088 262.685 52.9458 260.74 55.6933 258.809ZM1160.5 268.952C1160.05 268.625 1159.43 268.721 1159.1 269.166C1158.77 269.611 1158.87 270.237 1159.31 270.564C1162.02 272.552 1164.71 274.554 1167.4 276.57C1167.84 276.902 1168.47 276.813 1168.8 276.371C1169.13 275.929 1169.04 275.303 1168.6 274.971C1165.91 272.951 1163.21 270.944 1160.5 268.952ZM39.3329 270.564C39.778 270.237 39.8738 269.611 39.5468 269.166C39.2198 268.721 38.594 268.626 38.1489 268.952C35.437 270.945 32.7359 272.951 30.0458 274.971C29.6041 275.303 29.515 275.93 29.8466 276.371C30.1783 276.813 30.8051 276.902 31.2468 276.57C33.9313 274.554 36.6267 272.552 39.3329 270.564ZM1176.64 281.075C1176.2 280.739 1175.57 280.821 1175.24 281.259C1174.9 281.697 1174.98 282.325 1175.42 282.661C1178.08 284.706 1180.74 286.764 1183.38 288.836C1183.81 289.177 1184.44 289.101 1184.78 288.667C1185.12 288.232 1185.05 287.604 1184.61 287.263C1181.97 285.186 1179.31 283.124 1176.64 281.075ZM23.2239 282.662C23.662 282.325 23.7446 281.698 23.4083 281.259C23.072 280.821 22.4443 280.739 22.0062 281.075C19.3369 283.124 16.6786 285.187 14.0315 287.263C13.597 287.604 13.521 288.233 13.8619 288.667C14.2028 289.102 14.8314 289.178 15.2659 288.837C17.9075 286.765 20.5602 284.706 23.2239 282.662ZM1192.52 293.535C1192.09 293.189 1191.46 293.258 1191.12 293.689C1190.77 294.12 1190.84 294.75 1191.27 295.095C1191.85 295.555 1192.42 296.016 1192.99 296.478H1190.85C1190.3 296.478 1189.85 296.926 1189.85 297.478C1189.85 298.03 1190.3 298.478 1190.85 298.478H1195.82H1198.65L1196.45 296.701C1195.15 295.642 1193.84 294.587 1192.52 293.535ZM7.37313 295.095C7.80407 294.75 7.87339 294.121 7.52797 293.69C7.18255 293.259 6.55319 293.189 6.12226 293.535C4.80976 294.587 3.50006 295.642 2.19319 296.701L0 298.478H2.82272H7.79355C8.34584 298.478 8.79355 298.03 8.79355 297.478C8.79355 296.926 8.34584 296.478 7.79355 296.478H5.65207C6.22522 296.017 6.7989 295.556 7.37313 295.095ZM17.7352 296.478C17.1829 296.478 16.7352 296.926 16.7352 297.478C16.7352 298.03 17.1829 298.478 17.7352 298.478H27.6769C28.2292 298.478 28.6769 298.03 28.6769 297.478C28.6769 296.926 28.2292 296.478 27.6769 296.478H17.7352ZM37.6186 296.478C37.0663 296.478 36.6186 296.926 36.6186 297.478C36.6186 298.03 37.0663 298.478 37.6186 298.478H47.5602C48.1125 298.478 48.5602 298.03 48.5602 297.478C48.5602 296.926 48.1125 296.478 47.5602 296.478H37.6186ZM57.5019 296.478C56.9496 296.478 56.5019 296.926 56.5019 297.478C56.5019 298.03 56.9496 298.478 57.5019 298.478H67.4436C67.9958 298.478 68.4436 298.03 68.4436 297.478C68.4436 296.926 67.9958 296.478 67.4436 296.478H57.5019ZM77.3852 296.478C76.8329 296.478 76.3852 296.926 76.3852 297.478C76.3852 298.03 76.8329 298.478 77.3852 298.478H87.3269C87.8792 298.478 88.3269 298.03 88.3269 297.478C88.3269 296.926 87.8792 296.478 87.3269 296.478H77.3852ZM97.2686 296.478C96.7163 296.478 96.2686 296.926 96.2686 297.478C96.2686 298.03 96.7163 298.478 97.2686 298.478H107.21C107.762 298.478 108.21 298.03 108.21 297.478C108.21 296.926 107.762 296.478 107.21 296.478H97.2686ZM117.152 296.478C116.6 296.478 116.152 296.926 116.152 297.478C116.152 298.03 116.6 298.478 117.152 298.478H127.094C127.646 298.478 128.094 298.03 128.094 297.478C128.094 296.926 127.646 296.478 127.094 296.478H117.152ZM137.035 296.478C136.483 296.478 136.035 296.926 136.035 297.478C136.035 298.03 136.483 298.478 137.035 298.478H146.977C147.529 298.478 147.977 298.03 147.977 297.478C147.977 296.926 147.529 296.478 146.977 296.478H137.035ZM156.919 296.478C156.366 296.478 155.919 296.926 155.919 297.478C155.919 298.03 156.366 298.478 156.919 298.478H166.86C167.412 298.478 167.86 298.03 167.86 297.478C167.86 296.926 167.412 296.478 166.86 296.478H156.919ZM176.802 296.478C176.25 296.478 175.802 296.926 175.802 297.478C175.802 298.03 176.25 298.478 176.802 298.478H186.744C187.296 298.478 187.744 298.03 187.744 297.478C187.744 296.926 187.296 296.478 186.744 296.478H176.802ZM196.685 296.478C196.133 296.478 195.685 296.926 195.685 297.478C195.685 298.03 196.133 298.478 196.685 298.478H206.627C207.179 298.478 207.627 298.03 207.627 297.478C207.627 296.926 207.179 296.478 206.627 296.478H196.685ZM216.569 296.478C216.016 296.478 215.569 296.926 215.569 297.478C215.569 298.03 216.016 298.478 216.569 298.478H226.51C227.062 298.478 227.51 298.03 227.51 297.478C227.51 296.926 227.062 296.478 226.51 296.478H216.569ZM236.452 296.478C235.9 296.478 235.452 296.926 235.452 297.478C235.452 298.03 235.9 298.478 236.452 298.478H246.394C246.946 298.478 247.394 298.03 247.394 297.478C247.394 296.926 246.946 296.478 246.394 296.478H236.452ZM256.335 296.478C255.783 296.478 255.335 296.926 255.335 297.478C255.335 298.03 255.783 298.478 256.335 298.478H266.277C266.829 298.478 267.277 298.03 267.277 297.478C267.277 296.926 266.829 296.478 266.277 296.478H256.335ZM276.219 296.478C275.666 296.478 275.219 296.926 275.219 297.478C275.219 298.03 275.666 298.478 276.219 298.478H286.16C286.713 298.478 287.16 298.03 287.16 297.478C287.16 296.926 286.713 296.478 286.16 296.478H276.219ZM296.102 296.478C295.55 296.478 295.102 296.926 295.102 297.478C295.102 298.03 295.55 298.478 296.102 298.478H306.044C306.596 298.478 307.044 298.03 307.044 297.478C307.044 296.926 306.596 296.478 306.044 296.478H296.102ZM315.985 296.478C315.433 296.478 314.985 296.926 314.985 297.478C314.985 298.03 315.433 298.478 315.985 298.478H325.927C326.479 298.478 326.927 298.03 326.927 297.478C326.927 296.926 326.479 296.478 325.927 296.478H315.985ZM335.869 296.478C335.316 296.478 334.869 296.926 334.869 297.478C334.869 298.03 335.316 298.478 335.869 298.478H345.81C346.363 298.478 346.81 298.03 346.81 297.478C346.81 296.926 346.363 296.478 345.81 296.478H335.869ZM355.752 296.478C355.2 296.478 354.752 296.926 354.752 297.478C354.752 298.03 355.2 298.478 355.752 298.478H365.694C366.246 298.478 366.694 298.03 366.694 297.478C366.694 296.926 366.246 296.478 365.694 296.478H355.752ZM375.635 296.478C375.083 296.478 374.635 296.926 374.635 297.478C374.635 298.03 375.083 298.478 375.635 298.478H385.577C386.129 298.478 386.577 298.03 386.577 297.478C386.577 296.926 386.129 296.478 385.577 296.478H375.635ZM395.519 296.478C394.966 296.478 394.519 296.926 394.519 297.478C394.519 298.03 394.966 298.478 395.519 298.478H405.46C406.013 298.478 406.46 298.03 406.46 297.478C406.46 296.926 406.013 296.478 405.46 296.478H395.519ZM415.402 296.478C414.85 296.478 414.402 296.926 414.402 297.478C414.402 298.03 414.85 298.478 415.402 298.478H425.344C425.896 298.478 426.344 298.03 426.344 297.478C426.344 296.926 425.896 296.478 425.344 296.478H415.402ZM435.285 296.478C434.733 296.478 434.285 296.926 434.285 297.478C434.285 298.03 434.733 298.478 435.285 298.478H445.227C445.779 298.478 446.227 298.03 446.227 297.478C446.227 296.926 445.779 296.478 445.227 296.478H435.285ZM455.169 296.478C454.617 296.478 454.169 296.926 454.169 297.478C454.169 298.03 454.617 298.478 455.169 298.478H465.111C465.663 298.478 466.111 298.03 466.111 297.478C466.111 296.926 465.663 296.478 465.111 296.478H455.169ZM475.052 296.478C474.5 296.478 474.052 296.926 474.052 297.478C474.052 298.03 474.5 298.478 475.052 298.478H484.994C485.546 298.478 485.994 298.03 485.994 297.478C485.994 296.926 485.546 296.478 484.994 296.478H475.052ZM494.936 296.478C494.383 296.478 493.936 296.926 493.936 297.478C493.936 298.03 494.383 298.478 494.936 298.478H504.877C505.43 298.478 505.877 298.03 505.877 297.478C505.877 296.926 505.43 296.478 504.877 296.478H494.936ZM514.819 296.478C514.267 296.478 513.819 296.926 513.819 297.478C513.819 298.03 514.267 298.478 514.819 298.478H524.761C525.313 298.478 525.761 298.03 525.761 297.478C525.761 296.926 525.313 296.478 524.761 296.478H514.819ZM534.702 296.478C534.15 296.478 533.702 296.926 533.702 297.478C533.702 298.03 534.15 298.478 534.702 298.478H544.644C545.196 298.478 545.644 298.03 545.644 297.478C545.644 296.926 545.196 296.478 544.644 296.478H534.702ZM554.586 296.478C554.033 296.478 553.586 296.926 553.586 297.478C553.586 298.03 554.033 298.478 554.586 298.478H564.527C565.079 298.478 565.527 298.03 565.527 297.478C565.527 296.926 565.079 296.478 564.527 296.478H554.586ZM574.469 296.478C573.917 296.478 573.469 296.926 573.469 297.478C573.469 298.03 573.917 298.478 574.469 298.478H584.41C584.963 298.478 585.41 298.03 585.41 297.478C585.41 296.926 584.963 296.478 584.41 296.478H574.469ZM594.352 296.478C593.8 296.478 593.352 296.926 593.352 297.478C593.352 298.03 593.8 298.478 594.352 298.478H604.294C604.846 298.478 605.294 298.03 605.294 297.478C605.294 296.926 604.846 296.478 604.294 296.478H594.352ZM614.235 296.478C613.683 296.478 613.235 296.926 613.235 297.478C613.235 298.03 613.683 298.478 614.235 298.478H624.177C624.729 298.478 625.177 298.03 625.177 297.478C625.177 296.926 624.729 296.478 624.177 296.478H614.235ZM634.119 296.478C633.566 296.478 633.119 296.926 633.119 297.478C633.119 298.03 633.566 298.478 634.119 298.478H644.06C644.613 298.478 645.06 298.03 645.06 297.478C645.06 296.926 644.613 296.478 644.06 296.478H634.119ZM654.002 296.478C653.45 296.478 653.002 296.926 653.002 297.478C653.002 298.03 653.45 298.478 654.002 298.478H663.944C664.496 298.478 664.944 298.03 664.944 297.478C664.944 296.926 664.496 296.478 663.944 296.478H654.002ZM673.885 296.478C673.333 296.478 672.885 296.926 672.885 297.478C672.885 298.03 673.333 298.478 673.885 298.478H683.827C684.379 298.478 684.827 298.03 684.827 297.478C684.827 296.926 684.379 296.478 683.827 296.478H673.885ZM693.769 296.478C693.216 296.478 692.769 296.926 692.769 297.478C692.769 298.03 693.216 298.478 693.769 298.478H703.71C704.263 298.478 704.71 298.03 704.71 297.478C704.71 296.926 704.263 296.478 703.71 296.478H693.769ZM713.652 296.478C713.1 296.478 712.652 296.926 712.652 297.478C712.652 298.03 713.1 298.478 713.652 298.478H723.594C724.146 298.478 724.594 298.03 724.594 297.478C724.594 296.926 724.146 296.478 723.594 296.478H713.652ZM733.535 296.478C732.983 296.478 732.535 296.926 732.535 297.478C732.535 298.03 732.983 298.478 733.535 298.478H743.477C744.029 298.478 744.477 298.03 744.477 297.478C744.477 296.926 744.029 296.478 743.477 296.478H733.535ZM753.419 296.478C752.866 296.478 752.419 296.926 752.419 297.478C752.419 298.03 752.866 298.478 753.419 298.478H763.36C763.912 298.478 764.36 298.03 764.36 297.478C764.36 296.926 763.912 296.478 763.36 296.478H753.419ZM773.302 296.478C772.75 296.478 772.302 296.926 772.302 297.478C772.302 298.03 772.75 298.478 773.302 298.478H783.243C783.796 298.478 784.243 298.03 784.243 297.478C784.243 296.926 783.796 296.478 783.243 296.478H773.302ZM793.185 296.478C792.633 296.478 792.185 296.926 792.185 297.478C792.185 298.03 792.633 298.478 793.185 298.478H803.127C803.679 298.478 804.127 298.03 804.127 297.478C804.127 296.926 803.679 296.478 803.127 296.478H793.185ZM813.068 296.478C812.516 296.478 812.068 296.926 812.068 297.478C812.068 298.03 812.516 298.478 813.068 298.478H823.01C823.562 298.478 824.01 298.03 824.01 297.478C824.01 296.926 823.562 296.478 823.01 296.478H813.068ZM832.952 296.478C832.399 296.478 831.952 296.926 831.952 297.478C831.952 298.03 832.399 298.478 832.952 298.478H842.893C843.446 298.478 843.893 298.03 843.893 297.478C843.893 296.926 843.446 296.478 842.893 296.478H832.952ZM852.835 296.478C852.283 296.478 851.835 296.926 851.835 297.478C851.835 298.03 852.283 298.478 852.835 298.478H862.777C863.329 298.478 863.777 298.03 863.777 297.478C863.777 296.926 863.329 296.478 862.777 296.478H852.835ZM872.718 296.478C872.166 296.478 871.718 296.926 871.718 297.478C871.718 298.03 872.166 298.478 872.718 298.478H882.66C883.212 298.478 883.66 298.03 883.66 297.478C883.66 296.926 883.212 296.478 882.66 296.478H872.718ZM892.602 296.478C892.049 296.478 891.602 296.926 891.602 297.478C891.602 298.03 892.049 298.478 892.602 298.478H902.543C903.096 298.478 903.543 298.03 903.543 297.478C903.543 296.926 903.096 296.478 902.543 296.478H892.602ZM912.485 296.478C911.933 296.478 911.485 296.926 911.485 297.478C911.485 298.03 911.933 298.478 912.485 298.478H922.427C922.979 298.478 923.427 298.03 923.427 297.478C923.427 296.926 922.979 296.478 922.427 296.478H912.485ZM932.368 296.478C931.816 296.478 931.368 296.926 931.368 297.478C931.368 298.03 931.816 298.478 932.368 298.478H942.31C942.862 298.478 943.31 298.03 943.31 297.478C943.31 296.926 942.862 296.478 942.31 296.478H932.368ZM952.252 296.478C951.699 296.478 951.252 296.926 951.252 297.478C951.252 298.03 951.699 298.478 952.252 298.478H962.193C962.745 298.478 963.193 298.03 963.193 297.478C963.193 296.926 962.745 296.478 962.193 296.478H952.252ZM972.135 296.478C971.583 296.478 971.135 296.926 971.135 297.478C971.135 298.03 971.583 298.478 972.135 298.478H982.076C982.629 298.478 983.076 298.03 983.076 297.478C983.076 296.926 982.629 296.478 982.076 296.478H972.135ZM992.018 296.478C991.466 296.478 991.018 296.926 991.018 297.478C991.018 298.03 991.466 298.478 992.018 298.478H1001.96C1002.51 298.478 1002.96 298.03 1002.96 297.478C1002.96 296.926 1002.51 296.478 1001.96 296.478H992.018ZM1011.9 296.478C1011.35 296.478 1010.9 296.926 1010.9 297.478C1010.9 298.03 1011.35 298.478 1011.9 298.478H1021.84C1022.4 298.478 1022.84 298.03 1022.84 297.478C1022.84 296.926 1022.4 296.478 1021.84 296.478H1011.9ZM1031.78 296.478C1031.23 296.478 1030.78 296.926 1030.78 297.478C1030.78 298.03 1031.23 298.478 1031.78 298.478H1041.73C1042.28 298.478 1042.73 298.03 1042.73 297.478C1042.73 296.926 1042.28 296.478 1041.73 296.478H1031.78ZM1051.67 296.478C1051.12 296.478 1050.67 296.926 1050.67 297.478C1050.67 298.03 1051.12 298.478 1051.67 298.478H1061.61C1062.16 298.478 1062.61 298.03 1062.61 297.478C1062.61 296.926 1062.16 296.478 1061.61 296.478H1051.67ZM1071.55 296.478C1071 296.478 1070.55 296.926 1070.55 297.478C1070.55 298.03 1071 298.478 1071.55 298.478H1081.49C1082.05 298.478 1082.49 298.03 1082.49 297.478C1082.49 296.926 1082.05 296.478 1081.49 296.478H1071.55ZM1091.43 296.478C1090.88 296.478 1090.43 296.926 1090.43 297.478C1090.43 298.03 1090.88 298.478 1091.43 298.478H1101.38C1101.93 298.478 1102.38 298.03 1102.38 297.478C1102.38 296.926 1101.93 296.478 1101.38 296.478H1091.43ZM1111.32 296.478C1110.77 296.478 1110.32 296.926 1110.32 297.478C1110.32 298.03 1110.77 298.478 1111.32 298.478H1121.26C1121.81 298.478 1122.26 298.03 1122.26 297.478C1122.26 296.926 1121.81 296.478 1121.26 296.478H1111.32ZM1131.2 296.478C1130.65 296.478 1130.2 296.926 1130.2 297.478C1130.2 298.03 1130.65 298.478 1131.2 298.478H1141.14C1141.7 298.478 1142.14 298.03 1142.14 297.478C1142.14 296.926 1141.7 296.478 1141.14 296.478H1131.2ZM1151.08 296.478C1150.53 296.478 1150.08 296.926 1150.08 297.478C1150.08 298.03 1150.53 298.478 1151.08 298.478H1161.03C1161.58 298.478 1162.03 298.03 1162.03 297.478C1162.03 296.926 1161.58 296.478 1161.03 296.478H1151.08ZM1170.97 296.478C1170.42 296.478 1169.97 296.926 1169.97 297.478C1169.97 298.03 1170.42 298.478 1170.97 298.478H1180.91C1181.46 298.478 1181.91 298.03 1181.91 297.478C1181.91 296.926 1181.46 296.478 1180.91 296.478H1170.97Z" fill="#96BCFE"/>
<defs>
<filter id="filter0_f" x="70.623" y="51.5" width="1057.4" height="346" filterUnits="userSpaceOnUse" color-interpolation-filters="sRGB">
<feFlood flood-opacity="0" result="BackgroundImageFix"/>
<feBlend mode="normal" in="SourceGraphic" in2="BackgroundImageFix" result="shape"/>
<feGaussianBlur stdDeviation="45" result="effect1_foregroundBlur"/>
</filter>
</defs>
</svg>
