<svg width="330" height="63" viewBox="0 0 330 63" fill="none" xmlns="http://www.w3.org/2000/svg">
<g clip-path="url(#clip0)">
<path d="M22.5978 15.801L22.4468 20.401C19.5908 20.186 16.8998 20.079 14.3758 20.079C14.3468 22.784 14.3318 25.782 14.3318 29.102C14.3318 34.239 14.4098 39.102 14.5658 43.682H8.56877C8.75477 39.141 8.84677 34.278 8.84677 29.102C8.84677 25.84 8.81777 22.832 8.75877 20.079C6.74677 20.079 3.98377 20.196 0.467773 20.421L0.643773 15.802H22.5978V15.801Z" fill="#437ADA"/>
<path d="M46.5039 23.0961C46.5039 26.5141 45.2339 29.0341 42.6999 30.6641C40.1659 32.2851 37.0549 33.1051 33.3739 33.1051C32.6999 33.1051 32.2219 33.0851 31.9379 33.0561C31.9379 35.7421 32.0159 39.2861 32.1719 43.6811H26.1509C26.3369 39.5601 26.4289 34.6971 26.4289 29.1011C26.4289 23.9551 26.3359 19.5211 26.1509 15.8001H29.8809C30.4079 15.8001 31.4239 15.7711 32.9229 15.7321C34.4219 15.6931 35.7209 15.6641 36.8189 15.6641C39.5339 15.6641 41.8239 16.2791 43.6939 17.5101C45.5639 18.7411 46.5039 20.6051 46.5039 23.0961ZM40.9769 24.2771C40.9769 21.2201 38.9509 19.6971 34.8929 19.6971C33.8769 19.6971 32.8079 19.8041 31.6799 20.0191C31.8359 22.7141 31.9139 25.7711 31.9139 29.1791C32.2749 29.2081 32.6849 29.2281 33.1589 29.2281C38.3689 29.2291 40.9769 27.5781 40.9769 24.2771Z" fill="#437ADA"/>
<path d="M146.602 38.4479L146.236 43.3799C144.21 43.8679 142.208 44.1119 140.24 44.1119C135.343 44.1119 131.607 42.7549 129.044 40.0499C126.485 37.3449 125.201 34.0539 125.201 30.1869C125.201 26.1729 126.563 22.6769 129.283 19.7079C132.003 16.7389 135.733 15.2549 140.474 15.2549C142.217 15.2549 143.868 15.4599 145.42 15.8509L144.673 20.8019C142.988 20.2649 141.372 19.9909 139.829 19.9909C136.933 19.9909 134.775 20.9089 133.359 22.7449C131.948 24.5809 131.24 26.8069 131.24 29.4339C131.24 32.1199 132.08 34.4439 133.76 36.4159C135.435 38.3889 137.788 39.3749 140.816 39.3749C142.588 39.3749 144.512 39.0629 146.602 38.4479Z" fill="#437ADA"/>
<path d="M176.699 29.073C176.699 33.458 175.351 37.091 172.666 39.971C169.98 42.862 166.665 44.297 162.705 44.297C158.935 44.297 155.781 42.979 153.242 40.322C150.698 37.676 149.429 34.306 149.429 30.224C149.429 25.839 150.772 22.206 153.452 19.326C156.138 16.435 159.458 15 163.413 15C167.183 15 170.342 16.318 172.881 18.965C175.42 21.602 176.699 24.971 176.699 29.073ZM170.781 29.688C170.781 26.709 170.019 24.288 168.491 22.432C166.963 20.576 165.078 19.649 162.837 19.649C160.752 19.649 158.98 20.587 157.525 22.452C156.07 24.327 155.337 26.69 155.337 29.542C155.337 32.511 156.108 34.933 157.642 36.798C159.175 38.653 161.06 39.591 163.287 39.591C165.372 39.591 167.144 38.653 168.599 36.769C170.059 34.893 170.781 32.53 170.781 29.688Z" fill="#437ADA"/>
<path d="M204.414 43.526H199.121C199.121 42.94 197.158 39.854 193.232 34.258C189.121 28.36 186.777 24.326 186.211 22.149H185.859C186.22 25.284 186.396 28.106 186.396 30.635C186.396 34.16 186.494 38.457 186.699 43.526H181.426C181.641 39.102 181.748 34.239 181.748 28.946C181.748 23.731 181.641 19.298 181.426 15.645H187.793C187.793 16.397 189.551 19.415 193.086 24.698C196.836 30.313 198.994 34.122 199.551 36.114H199.873C199.531 32.93 199.355 30.079 199.355 27.55C199.355 23.683 199.257 19.708 199.062 15.646H204.414C204.209 19.181 204.111 23.615 204.111 28.947C204.111 34.307 204.209 39.17 204.414 43.526Z" fill="#437ADA"/>
<path d="M233.563 43.682H228.27C228.27 43.096 226.307 40.01 222.381 34.414C218.27 28.516 215.926 24.482 215.36 22.305H215.018C215.37 25.44 215.545 28.262 215.545 30.791C215.545 34.316 215.652 38.613 215.848 43.682H210.584C210.799 39.258 210.896 34.395 210.896 29.102C210.896 23.887 210.798 19.454 210.584 15.801H216.941C216.941 16.553 218.709 19.571 222.234 24.854C225.984 30.469 228.142 34.278 228.699 36.27H229.021C228.679 33.086 228.513 30.235 228.513 27.706C228.513 23.839 228.406 19.864 228.21 15.802H233.562C233.367 19.337 233.259 23.771 233.259 29.103C233.261 34.463 233.368 39.326 233.563 43.682Z" fill="#437ADA"/>
<path d="M258.135 38.975L257.959 43.682H239.736C239.922 39.375 240.009 34.512 240.009 29.102C240.009 23.897 239.921 19.463 239.736 15.801H257.129L256.895 20.489C252.608 20.255 248.721 20.147 245.235 20.147C245.381 22.129 245.45 24.473 245.45 27.168C248.438 27.168 251.632 27.09 255.03 26.934V31.407C251.69 31.27 248.497 31.202 245.45 31.202C245.45 34.093 245.509 36.807 245.626 39.337C249.541 39.336 253.711 39.219 258.135 38.975Z" fill="#437ADA"/>
<path d="M282.832 38.6039L282.471 43.5359C280.44 44.0239 278.438 44.2679 276.475 44.2679C271.573 44.2679 267.842 42.9109 265.284 40.2059C262.716 37.5009 261.436 34.2099 261.436 30.3429C261.436 26.3289 262.793 22.8329 265.518 19.8639C268.233 16.8949 271.963 15.4109 276.709 15.4109C278.447 15.4109 280.098 15.6159 281.65 16.0069L280.908 20.9579C279.219 20.4209 277.607 20.1469 276.064 20.1469C273.164 20.1469 271.005 21.0649 269.589 22.9009C268.183 24.7369 267.47 26.9629 267.47 29.5899C267.47 32.2759 268.31 34.5999 269.99 36.5719C271.67 38.5439 274.023 39.5309 277.051 39.5309C278.818 39.5309 280.752 39.2189 282.832 38.6039Z" fill="#437ADA"/>
<path d="M306.61 15.801L306.454 20.401C303.602 20.186 300.907 20.079 298.378 20.079C298.358 22.784 298.339 25.782 298.339 29.102C298.339 34.239 298.417 39.102 298.573 43.682H292.577C292.763 39.141 292.85 34.278 292.85 29.102C292.85 25.84 292.83 22.832 292.772 20.079C290.76 20.079 287.997 20.196 284.481 20.421L284.647 15.802H306.61V15.801Z" fill="#437ADA"/>
<path d="M328.368 36.084C328.368 41.66 324.354 44.453 316.337 44.453C313.603 44.453 311.073 44.131 308.73 43.467L309.775 38.692C312.089 39.493 314.277 39.893 316.337 39.893C318.612 39.893 320.263 39.668 321.259 39.229C322.255 38.79 322.763 38.047 322.763 37.002C322.763 35.918 322.284 35 321.347 34.258C320.527 33.604 318.886 32.744 316.396 31.69C314.14 30.723 312.46 29.659 311.367 28.516C309.98 27.08 309.287 25.303 309.287 23.184C309.287 20.733 310.195 18.809 312.021 17.422C313.837 16.035 316.455 15.342 319.863 15.342C322.666 15.342 325.019 15.586 326.914 16.055L326.123 20.811C324.199 20.108 322.109 19.756 319.863 19.756C316.494 19.756 314.814 20.654 314.814 22.461C314.814 23.418 315.205 24.19 315.996 24.795C316.68 25.303 318.164 26.025 320.469 26.953C322.91 27.939 324.737 29.023 325.948 30.215C327.567 31.797 328.368 33.75 328.368 36.084Z" fill="#437ADA"/>
<mask id="mask0" mask-type="alpha" maskUnits="userSpaceOnUse" x="52" y="2" width="50" height="50">
<circle cx="77" cy="27" r="25" fill="#C4C4C4"/>
</mask>
<g mask="url(#mask0)">
<path d="M113.218 24.9608C112.915 24.2578 112.471 23.5938 112.119 22.8998C111.885 22.4308 111.719 21.9428 111.704 21.3468C111.299 21.6888 110.835 21.6398 110.732 21.3268C110.615 20.9948 110.258 20.9168 110.058 20.7018C109.799 20.4288 109.462 20.3498 109.057 20.3988C108.403 20.4578 107.729 20.4188 107.153 20.2228C106.709 20.0668 106.333 19.9888 105.84 19.9788C105.396 19.9688 104.942 19.6758 104.736 19.2758C104.629 19.0708 104.458 18.9048 104.135 19.0808C103.827 19.2468 103.945 19.4229 104.15 19.5989C104.321 19.7359 104.472 19.8818 104.55 20.0778C104.589 20.1758 104.609 20.3418 104.877 20.1948C105.043 20.1068 105.126 20.3118 105.126 20.4388C105.126 20.7608 105.351 20.7118 105.624 20.6438C105.995 20.5658 106.171 20.2918 106.503 20.1358C106.581 20.4678 106.689 20.7318 107.211 20.8098C107.704 20.8878 107.758 21.3758 107.362 21.7478C107.089 22.0018 106.918 22.3438 106.483 22.4898C106.42 22.5098 106.4 22.6168 106.346 22.6358C105.36 22.8508 104.7 23.5738 103.621 23.6518C103.382 23.6718 103.142 23.8568 102.845 23.8078C102.62 23.4858 102.655 23.0658 102.23 22.8218C102.21 22.8018 102.201 22.7439 102.215 22.7239C102.347 22.5289 102.313 22.5378 102.205 22.3818C101.946 22.0008 101.419 21.7568 101.258 21.3368C101.033 20.7408 100.565 20.2628 100.101 19.7838C99.9636 19.6378 99.8126 19.5688 99.5876 19.6768C99.8756 20.2428 100.193 20.7898 100.609 21.3078C100.716 21.4348 100.819 21.5618 100.829 21.7278C100.849 22.1868 101.239 22.5288 101.522 22.8708C101.859 23.2708 102.386 23.5738 102.831 23.9258C102.841 24.3948 103.017 24.5118 103.578 24.3458C104.047 24.2088 104.555 24.2289 105.018 24.0819C105.272 23.9939 105.233 24.1598 105.233 24.2678C105.238 24.7168 104.945 25.0788 104.72 25.4688C104.183 26.3868 103.172 26.9918 102.342 27.7148C101.585 28.3788 101.238 29.0818 101.702 29.9418C101.946 30.4008 101.971 30.8888 101.922 31.3868C101.893 31.7188 101.702 31.9138 101.346 32.0408C101.136 32.1188 100.946 32.2168 100.76 32.3338C100.247 32.6558 99.9396 32.9788 100.218 33.5348C100.34 33.7888 100.198 34.1008 99.7876 34.2378C99.4896 34.3358 99.3286 34.4818 99.3436 34.7648C99.3586 35.0188 99.2116 35.2528 98.9436 35.4388C98.5286 35.7418 98.2406 36.1228 97.8306 36.4248C97.4596 36.7078 96.9906 36.7768 96.5316 36.8058C96.1996 36.8158 95.8776 36.8548 95.5546 36.9038C95.1446 36.9628 94.7046 36.7478 94.8126 36.4448C94.9006 36.2008 94.7586 36.0539 94.6666 35.8789C94.5106 35.5859 94.3496 35.3029 94.1536 35.0389C93.9726 34.7849 93.8556 34.5308 93.8806 34.2278C93.9346 33.6808 93.5436 33.2418 93.2506 32.7918C92.8896 32.2348 92.8896 31.6978 93.2216 31.1608C93.4656 30.7608 93.4656 30.3898 93.4076 29.9398C93.2906 29.1198 92.8026 28.4748 92.2356 27.8308C92.0896 27.6648 92.0456 27.5188 92.1676 27.3328C92.2356 27.2348 92.2796 27.1178 92.3046 27.0008C92.4506 26.2778 92.3336 26.1709 91.3916 26.1999C91.1766 26.1999 91.1086 26.1218 91.0206 26.0048C90.7276 25.5948 90.2246 25.4578 89.6876 25.6728C89.1746 25.8778 88.6916 26.1118 88.0716 25.9268C87.8906 25.8778 87.6026 25.9068 87.4416 25.9858C86.9826 26.2108 86.6606 26.0639 86.2946 25.8489C85.7866 25.5459 85.1906 25.3218 85.0496 24.7548C85.0256 24.6568 84.9076 24.5398 84.7906 24.4818C84.2536 24.2278 84.0626 23.8368 83.9606 23.3778C83.9116 23.1628 84.1026 23.0458 84.1806 22.9088C84.3856 22.5278 84.4196 22.1179 84.2296 21.8249C83.9416 21.3859 84.2886 21.0628 84.4836 20.7998C84.6986 20.5268 84.8986 20.2138 85.1626 19.9408C85.4606 19.6288 85.9586 19.5498 86.2566 19.2568C86.3786 19.1298 86.5006 19.0418 86.4856 18.8568C86.4566 18.5538 86.6466 18.3198 86.9836 18.1538C87.2426 18.0168 87.5106 17.8998 87.6326 17.6458C87.7836 17.3138 87.5886 17.0698 87.1496 17.0798C86.9296 17.0898 86.6806 16.6698 86.8026 16.4348C86.9586 16.1418 87.0416 15.8688 86.9786 15.5368C86.9396 15.3418 87.2476 15.2638 87.4716 15.3028C87.7986 15.3808 88.1256 15.3418 88.4576 15.3708C88.7266 15.3908 89.0876 15.4878 89.1996 15.1558C89.3116 14.8338 89.2236 14.5508 88.8876 14.3258C88.8286 14.2768 88.7456 14.2578 88.6726 14.2278C88.5556 14.1688 88.3206 14.1688 88.3606 14.0328C88.4096 13.8468 88.6586 13.9348 88.8196 13.8958C88.9416 13.8668 89.3076 14.1498 89.1906 13.7398C89.1616 13.6418 89.2976 13.7198 89.3666 13.7298C89.7766 13.7888 90.0356 13.6708 90.1186 13.3488H90.1086C90.5046 13.3488 90.8216 13.2608 90.9286 12.9288C91.0216 12.6358 91.3486 12.6648 91.6126 12.6358C91.9836 12.5968 92.2426 12.5378 91.9546 12.1868C91.8276 12.0408 91.8666 11.8548 92.0476 11.7378C92.2426 11.6008 92.4726 11.4348 92.5656 11.8158C92.5856 11.9038 92.5706 12.0988 92.8486 12.0108C93.0876 11.9328 93.0686 11.8058 92.9656 11.6688C92.9366 11.6198 92.8776 11.5808 92.8586 11.5418C92.7166 11.1808 92.5026 11.1808 92.1406 11.4048C91.7786 11.6288 91.4036 11.4828 91.3006 11.1218C91.1056 10.3698 91.3936 10.0768 92.3556 10.0868C92.5946 10.0968 92.6486 9.96985 92.7116 9.83285C92.7946 9.63785 92.9506 9.48085 93.1466 9.33485C93.2836 9.23685 93.7036 9.19785 93.3956 8.91485C93.3516 8.87585 93.5076 8.84685 93.5666 8.82685C94.3476 8.56285 95.1286 8.33885 96.0036 8.39685C96.2916 8.40685 96.5846 8.23085 96.8626 8.37685C97.6246 8.77685 98.5376 8.80685 99.3776 9.00185C99.5146 9.04085 99.7096 9.02185 99.7246 9.16785C99.7396 9.33385 99.5346 9.35385 99.3876 9.41185C98.9826 9.57785 98.5766 9.35285 98.1716 9.41185C98.2546 9.64585 98.3226 9.89085 98.7236 9.91985C98.8306 9.95885 98.9136 10.0568 99.0656 9.99785C99.0506 9.84185 98.8846 9.89085 98.7826 9.86085C98.8216 9.61685 99.0366 9.71485 99.1926 9.73385C99.3736 9.76285 99.4806 9.86085 99.6076 9.61685C99.7056 9.43085 100.072 9.30485 100.443 9.43085C100.336 9.22585 100.248 9.05985 100.145 8.85485C100.433 8.89385 100.799 8.73785 100.765 9.16685C100.75 9.33285 100.99 9.29385 101.097 9.21585C101.336 9.02985 101.654 8.99085 101.942 8.90385C102.128 8.83585 102.391 8.67885 102.523 8.98185C102.752 8.85485 103.05 8.90385 103.27 8.80585C103.91 8.50285 104.535 8.63985 105.165 8.80585C105.375 8.85485 105.585 8.91285 105.805 8.97185C105.854 8.76685 105.668 8.76685 105.551 8.71785C105.097 8.55185 105.014 8.03385 105.409 7.80985C105.536 7.74185 106.122 7.92685 106.151 8.07385C106.18 8.22085 106.234 8.30785 106.444 8.31785C106.429 8.54285 106.581 8.68885 106.815 8.79685C106.918 8.90385 106.991 9.00185 106.927 9.14885C106.898 9.21685 106.639 9.26585 106.839 9.37385C106.946 9.43285 107.108 9.40285 107.191 9.31485C107.279 9.21685 107.425 9.10985 107.259 8.98285C107.147 8.89485 107.015 8.81685 106.893 8.73885C106.756 8.59285 106.81 8.30885 106.434 8.31885C106.463 8.16285 106.683 8.00685 106.419 7.82085C106.78 7.86985 106.678 8.23085 106.995 8.26985C107.058 8.31885 107.166 8.35785 107.2 8.29885C107.249 8.20085 107.117 8.23985 107.058 8.22085C106.965 8.03485 107.087 7.97685 107.287 7.98685C107.448 7.98685 107.614 8.00685 107.761 8.00685C107.873 7.87985 107.6 7.84085 107.678 7.72385C107.815 7.66485 107.971 7.73385 108.108 7.69485C108.274 7.66585 108.64 7.86085 108.567 7.48985C108.562 7.46985 108.762 7.40185 108.87 7.39185C109.417 7.31385 109.959 7.18685 110.53 7.22585C110.745 7.23585 110.901 7.20585 111.072 7.04985C111.336 6.79585 111.829 6.77685 112.112 6.92285C112.444 7.08885 112.752 7.06885 113.079 7.07885C113.348 7.07885 113.601 7.12785 113.86 7.17685C114.163 7.22585 114.182 7.36285 113.977 7.52885C113.791 7.57785 113.616 7.63585 113.459 7.75385C113.718 7.81285 113.918 7.77385 114.06 7.59785C114.182 7.56885 114.309 7.51985 114.441 7.57785C115.129 7.87085 115.935 7.90985 116.629 7.82185C117.147 7.76285 117.601 7.77285 118.069 7.86085C118.469 7.92885 118.718 8.25185 119.143 8.31985C119.275 8.33985 119.416 8.45685 119.465 8.24185C119.494 8.09585 119.641 8.18285 119.738 8.18285C120.021 8.18285 120.304 8.19285 120.588 8.19285C120.7 8.19285 120.915 8.26085 120.764 8.03685C120.681 7.91985 120.881 7.93885 120.945 7.94885C121.59 7.98785 122.249 7.97785 122.869 8.09485C123.518 8.22185 124.158 8.30985 124.827 8.30985C125.315 8.30985 125.823 8.28985 126.223 8.59285C126.277 8.62185 126.384 8.62185 126.462 8.62185C127.268 8.62185 128.078 8.62185 128.869 8.78785C128.918 8.64185 128.679 8.63185 128.698 8.49485C129.914 8.59285 131.12 8.71985 132.292 9.01285C133.005 9.18885 133.742 9.28585 134.47 9.39385C134.616 9.41385 134.807 9.41385 134.846 9.57985C134.905 9.87285 134.851 9.90185 134.465 9.88285C134.084 9.87285 133.816 9.64885 133.449 9.58985C133.102 9.53085 132.936 9.64885 132.863 9.82385C132.78 10.0388 133.107 10.0288 133.259 10.0968C133.445 10.1948 133.713 10.1848 133.899 10.4188C133.22 10.2138 132.859 10.4478 132.595 10.8288C132.566 10.8778 132.527 10.9068 132.492 10.9458C132.165 10.7698 131.823 11.0048 131.501 10.9358C131.296 10.8768 131.022 10.9458 131.037 11.0138C131.066 11.1698 130.954 11.4338 131.31 11.4828C131.676 11.5218 131.779 11.8638 132.14 11.9128C131.92 12.1858 132.257 12.4698 132.14 12.7428C132.125 12.7818 132.067 12.8308 132.081 12.8498C132.164 12.9868 132.31 13.1718 132.086 13.2498C131.876 13.3278 131.73 13.1038 131.578 13.0058C131.168 12.7228 130.758 12.4398 130.372 12.1368C130.094 11.9318 129.913 11.7268 130.186 11.3848C130.552 10.9358 130.479 10.5838 130.088 10.3498C130.025 10.3788 130 10.4178 130.049 10.4668C130.195 10.6428 129.986 10.7008 129.878 10.7788C129.741 10.8668 129.644 10.7588 129.546 10.6908C129.448 10.6228 129.404 10.4958 129.258 10.4958C129.077 10.4958 128.858 10.3888 128.721 10.5638C128.589 10.7298 128.658 10.9348 128.921 11.1598C128.594 11.2088 128.32 11.2188 127.974 11.1598C127.325 11.0528 126.626 11.0918 125.953 11.1888C125.743 11.2278 125.724 11.4038 125.684 11.5408C125.63 11.7458 125.611 11.9608 125.406 12.1368C125.191 12.3228 125.465 12.3228 125.606 12.3518C125.792 12.4008 126.05 12.3318 126.124 12.5568C126.144 12.6058 126.217 12.6158 126.29 12.6058C126.954 12.4988 127.174 12.5668 127.525 12.9768C128.13 13.6698 128.34 14.4028 127.955 15.2038C127.833 15.4578 127.691 15.6238 127.271 15.5258C126.944 15.4478 126.827 15.6528 126.822 15.8478C126.822 16.0428 126.778 16.1898 126.583 16.3268C126.334 16.5028 126.627 16.5708 126.744 16.6388C127.1 16.8438 127.501 17.0099 127.608 17.3909C127.637 17.5179 127.662 17.6158 127.505 17.6938C127.31 17.7918 127.105 17.9089 126.875 17.8699C126.689 17.8309 126.802 17.6648 126.753 17.5768C126.611 17.3228 126.626 16.9618 126.118 16.9128C126.001 16.9028 125.903 16.8638 125.849 16.7668C125.585 16.2688 125.41 16.2488 124.848 16.6298C124.711 16.5708 124.711 16.4438 124.687 16.3468C124.663 16.2588 124.799 16.1318 124.599 16.1028C124.477 16.0738 124.404 16.1808 124.335 16.2488C124.301 16.2778 124.286 16.3268 124.247 16.3368C123.622 16.6008 123.983 16.7668 124.32 16.9818C124.452 17.0598 124.506 17.0208 124.608 16.9918C124.95 16.8848 124.95 16.8939 125.448 17.0019C125.316 17.0799 125.204 17.1289 125.106 17.2069C124.691 17.5189 124.745 17.5778 125.121 17.8998C125.458 18.1828 125.985 18.4268 125.863 18.9248C125.853 18.9738 125.892 19.0128 125.931 19.0028C126.444 18.9048 126.151 19.1888 126.136 19.2958C126.053 19.9108 125.784 20.4778 125.145 20.8878C124.774 21.1318 124.31 21.2588 123.846 21.3758C123.631 21.4248 123.397 21.4148 123.338 21.6398C123.235 21.6008 123.221 21.4838 123.084 21.4838C122.586 21.2298 122.361 21.5618 122.098 21.7668C121.825 21.9918 121.986 22.1968 122.196 22.3818C122.406 22.5578 122.631 22.7338 122.845 22.9088C123.114 23.1338 123.304 23.3778 123.348 23.6898C123.392 24.0318 123.304 24.2948 122.85 24.4318C122.523 24.5388 122.459 24.8809 122.083 24.9499C121.868 24.4709 121.434 24.1488 120.848 23.9248C120.506 23.7978 120.511 23.7878 120.394 24.1108C120.213 24.6088 120.443 25.0779 120.97 25.4289C121.346 25.6629 121.732 25.9168 121.707 26.3668C121.697 26.6308 122.078 26.8258 122.01 27.1678C121.649 26.9428 121.326 26.7379 121.009 26.5229C120.872 26.4349 120.755 26.3178 120.76 26.1618C120.77 25.7228 120.54 25.4198 120.047 25.1758C119.774 25.0388 119.959 24.7068 119.998 24.4918C120.091 23.8868 119.725 23.3688 119.539 22.8218C119.456 22.5878 119.275 22.8118 119.168 22.8608C119.002 22.9288 118.885 23.0948 118.65 22.9778C118.44 22.8898 118.513 22.7338 118.528 22.5968C118.567 22.2748 118.196 22.1278 118.025 21.8938C117.957 21.7958 117.756 21.7378 117.737 21.6398C117.625 21.1708 117.283 21.1908 116.843 21.3368C116.711 21.3858 116.579 21.4248 116.418 21.3468C116.315 21.2978 116.154 21.3568 116.125 21.4348C115.866 22.0798 115.021 22.3428 114.606 22.8798C114.513 22.9968 114.25 22.9578 114.162 23.1048C114.001 23.2908 114.016 23.4468 114.265 23.5738C114.265 23.6228 114.27 23.6808 114.27 23.7298C113.904 23.9548 114.236 24.2568 114.099 24.5108H114.104C113.826 24.5108 113.914 24.6768 113.889 24.7938C113.874 24.8138 113.85 24.8228 113.826 24.8228C113.758 24.8328 113.723 24.8618 113.733 24.9208H113.743C113.606 24.9108 113.601 24.9888 113.611 25.0578H113.377H113.382C113.369 24.9898 113.301 24.9708 113.218 24.9608ZM94.4086 16.4359C94.3056 16.4359 94.2036 16.4458 94.0966 16.4458C94.0816 16.4358 94.0726 16.4168 94.0766 16.4068L93.9736 16.3088C93.8666 16.2408 93.7786 16.1628 93.6616 16.1138C93.1146 15.9088 92.6316 15.6648 92.3626 15.2058C92.2796 15.0598 92.0986 15.1078 91.9376 15.1858C91.7326 15.2838 91.5326 15.4788 91.2886 15.4398C90.8586 15.3618 90.5126 15.3028 90.4386 15.7618C90.4236 15.8208 90.2626 15.8688 90.1656 15.9078C90.0236 15.9758 89.8436 16.0148 89.7796 16.1418C89.4816 16.7378 89.0566 17.2158 88.1436 17.2748C88.1336 17.2848 88.1196 17.2949 88.1046 17.3039C88.0016 17.3529 87.9146 17.4208 87.9286 17.5188C87.9436 17.6358 88.0996 17.6558 88.1976 17.6458C88.5536 17.6458 88.9446 17.7828 89.2376 17.4698C89.3496 17.3528 89.5646 17.3038 89.7696 17.2838C90.4676 17.2158 91.1656 17.1278 91.8696 17.0688C92.5186 17.0098 92.7926 17.2838 92.5676 17.7618C92.4896 17.9178 92.5676 17.9668 92.6706 18.0738C92.9436 18.3568 93.4466 18.1808 93.6916 18.4058C94.0576 18.7378 94.5946 18.7478 95.0396 18.9238C95.2296 19.0018 95.3476 18.9628 95.3426 18.7778C95.3276 18.3868 95.7286 18.1629 96.2016 18.2799C96.4656 18.3479 96.7486 18.4068 96.9776 18.5238C97.7486 18.9148 98.5936 18.6119 99.3896 18.6999C99.4436 18.7099 99.5166 18.6709 99.5706 18.6409C99.8536 18.4849 100.167 17.7128 100.103 17.4398C100.049 17.1958 99.8336 17.1468 99.6586 17.2638C99.1996 17.5858 98.7356 17.1658 98.2186 17.3128C97.9306 17.4008 97.3246 17.1078 97.2376 16.6288C97.1886 16.3648 97.1546 15.8578 96.5096 16.3068C96.4996 16.3168 96.4506 16.2968 96.4216 16.2868C96.1286 16.2088 96.2216 16.3549 96.2796 16.4429C96.3426 16.5309 96.4696 16.5888 96.5386 16.6678C96.7676 16.9508 96.2796 16.9708 96.2266 17.1658C96.2066 17.2438 95.9286 17.1658 95.8946 17.0488C95.8266 16.8238 95.6356 16.7168 95.4116 16.5998C95.2656 16.5318 95.1336 16.3848 95.1726 16.2388C95.2606 15.9168 95.0066 15.7998 94.7186 15.6818C94.2206 15.4868 93.7716 15.2518 93.4786 14.8708C93.4296 14.8028 93.3806 14.6758 93.2246 14.7538C93.0786 14.8218 93.0386 14.9588 93.1266 15.0658C93.3416 15.3098 93.5126 15.5928 93.9026 15.7398C94.1806 15.8468 94.4396 15.9938 94.6736 16.1008C94.6876 16.3088 94.0576 16.0839 94.4086 16.4359ZM99.7066 14.8928C99.3356 15.0488 98.9986 15.1468 98.7886 14.7948C98.6326 14.5408 98.4076 14.4728 98.1836 14.6678C97.9736 14.8438 97.8076 15.0488 97.6856 15.2728C97.4316 15.7418 97.6026 15.9568 98.2516 15.9958C98.3976 15.9958 98.4956 15.9368 98.6176 15.8978C99.0766 15.7808 99.5206 15.6638 99.9896 15.8978C100.307 16.0638 100.703 15.9758 101.054 16.0438C101.225 16.0638 101.327 15.9458 101.41 15.8578C101.522 15.7308 101.351 15.6818 101.264 15.6138C101.074 15.4768 100.878 15.3308 100.668 15.2138C100.458 15.0868 100.116 15.0378 100.019 14.8918C99.9406 14.7648 100.302 14.5888 100.327 14.3648C100.019 14.4328 99.6816 14.4038 99.5116 14.6678C99.4136 14.8238 99.6776 14.7848 99.7066 14.8928ZM96.0446 9.58985C95.7516 9.61885 95.3466 9.43385 95.2196 9.76585C95.1466 9.96085 95.0196 10.0298 94.8096 10.0878C94.4776 10.1858 94.2826 10.3908 94.2236 10.6638C94.1646 10.9278 94.6876 10.9078 94.6486 11.1128C94.6146 11.2988 94.1506 11.2988 94.1456 11.5428C94.1356 11.7378 94.2086 11.9138 93.8626 11.9918C93.6476 12.0308 93.5156 12.2848 93.2086 12.1478C93.1356 12.1188 93.0476 12.1678 93.0186 12.2358C92.9746 12.3238 93.0866 12.3138 93.1406 12.3528C93.5016 12.5968 93.8436 12.4898 94.2006 12.3428C94.3076 12.3038 94.4106 12.2448 94.5666 12.3038C95.0206 12.4698 95.2746 12.3328 95.2596 11.9618C95.2446 11.6298 95.4016 11.5318 95.7336 11.6498C95.8366 11.6888 95.9096 11.7958 96.0116 11.6698C96.0946 11.5628 96.0896 11.4838 95.9526 11.3968C95.8796 11.3578 95.7626 11.3288 95.8306 11.2108C95.9766 11.1818 96.1336 11.1328 96.2896 11.1128C96.4166 11.1028 96.5586 11.1128 96.6856 11.1228C96.8366 11.1328 96.9836 11.1428 97.0906 11.0348C97.1396 10.9858 97.1496 10.9368 97.0906 10.8978C96.9536 10.8298 96.8026 10.8588 96.6606 10.8778C96.3826 10.9168 96.1086 10.9658 95.8356 11.0048C95.5816 11.0438 95.3616 10.9948 95.2306 10.8288C95.0406 10.5848 95.2016 10.1748 95.5236 9.99885C95.7176 9.89285 95.9376 9.80485 96.0446 9.58985ZM104.683 17.2168C105.127 17.2168 105.162 17.1488 105.162 16.8168C105.167 16.6018 105.02 16.5048 104.84 16.3868C104.723 16.3088 104.571 16.1718 104.894 16.1328C105.011 16.1228 105.211 16.1618 105.109 15.9868C105.06 15.8988 104.982 15.7138 104.757 15.8498C104.664 15.9088 104.552 15.9568 104.562 15.8298C104.586 15.5468 104.25 15.4878 104.074 15.3418C103.737 15.0588 103.727 15.0198 104.216 14.8928C104.358 14.8538 104.377 14.7858 104.416 14.7068C104.46 14.6188 104.436 14.5408 104.318 14.5208C104.132 14.4818 103.957 14.3058 103.771 14.4528C103.493 14.6778 102.995 14.6968 102.843 15.0488C102.833 15.0778 102.858 15.1168 102.882 15.1558C103.082 15.4488 103.263 15.7608 103.644 15.9468C104.03 16.1228 103.966 16.3668 103.805 16.6008C103.732 16.7078 103.624 16.8548 103.776 16.9038C104.092 16.9818 104.316 17.2268 104.683 17.2168Z" fill="#437ADA"/>
<path d="M113.218 24.9608C112.915 24.2578 112.471 23.5938 112.119 22.8998C111.885 22.4308 111.719 21.9428 111.704 21.3468C111.299 21.6888 110.835 21.6398 110.732 21.3268C110.615 20.9948 110.258 20.9168 110.058 20.7018C109.799 20.4288 109.462 20.3498 109.057 20.3988C108.403 20.4578 107.729 20.4188 107.153 20.2228C106.709 20.0668 106.333 19.9888 105.84 19.9788C105.396 19.9688 104.942 19.6758 104.736 19.2758C104.629 19.0708 104.458 18.9048 104.135 19.0808C103.827 19.2468 103.945 19.4229 104.15 19.5989C104.321 19.7359 104.472 19.8818 104.55 20.0778C104.589 20.1758 104.609 20.3418 104.877 20.1948C105.043 20.1068 105.126 20.3118 105.126 20.4388C105.126 20.7608 105.351 20.7118 105.624 20.6438C105.995 20.5658 106.171 20.2918 106.503 20.1358C106.581 20.4678 106.689 20.7318 107.211 20.8098C107.704 20.8878 107.758 21.3758 107.362 21.7478C107.089 22.0018 106.918 22.3438 106.483 22.4898C106.42 22.5098 106.4 22.6168 106.346 22.6358C105.36 22.8508 104.7 23.5738 103.621 23.6518C103.382 23.6718 103.142 23.8568 102.845 23.8078C102.62 23.4858 102.655 23.0658 102.23 22.8218C102.21 22.8018 102.201 22.7439 102.215 22.7239C102.347 22.5289 102.313 22.5378 102.205 22.3818C101.946 22.0008 101.419 21.7568 101.258 21.3368C101.033 20.7408 100.565 20.2628 100.101 19.7838C99.9636 19.6378 99.8126 19.5688 99.5876 19.6768C99.8756 20.2428 100.193 20.7898 100.609 21.3078C100.716 21.4348 100.819 21.5618 100.829 21.7278C100.849 22.1868 101.239 22.5288 101.522 22.8708C101.859 23.2708 102.386 23.5738 102.831 23.9258C102.841 24.3948 103.017 24.5118 103.578 24.3458C104.047 24.2088 104.555 24.2289 105.018 24.0819C105.272 23.9939 105.233 24.1598 105.233 24.2678C105.238 24.7168 104.945 25.0788 104.72 25.4688C104.183 26.3868 103.172 26.9918 102.342 27.7148C101.585 28.3788 101.238 29.0818 101.702 29.9418C101.946 30.4008 101.971 30.8888 101.922 31.3868C101.893 31.7188 101.702 31.9138 101.346 32.0408C101.136 32.1188 100.946 32.2168 100.76 32.3338C100.247 32.6558 99.9396 32.9788 100.218 33.5348C100.34 33.7888 100.198 34.1008 99.7876 34.2378C99.4896 34.3358 99.3286 34.4818 99.3436 34.7648C99.3586 35.0188 99.2116 35.2528 98.9436 35.4388C98.5286 35.7418 98.2406 36.1228 97.8306 36.4248C97.4596 36.7078 96.9906 36.7768 96.5316 36.8058C96.1996 36.8158 95.8776 36.8548 95.5546 36.9038C95.1446 36.9628 94.7046 36.7478 94.8126 36.4448C94.9006 36.2008 94.7586 36.0539 94.6666 35.8789C94.5106 35.5859 94.3496 35.3029 94.1536 35.0389C93.9726 34.7849 93.8556 34.5308 93.8806 34.2278C93.9346 33.6808 93.5436 33.2418 93.2506 32.7918C92.8896 32.2348 92.8896 31.6978 93.2216 31.1608C93.4656 30.7608 93.4656 30.3898 93.4076 29.9398C93.2906 29.1198 92.8026 28.4748 92.2356 27.8308C92.0896 27.6648 92.0456 27.5188 92.1676 27.3328C92.2356 27.2348 92.2796 27.1178 92.3046 27.0008C92.4506 26.2778 92.3336 26.1709 91.3916 26.1999C91.1766 26.1999 91.1086 26.1218 91.0206 26.0048C90.7276 25.5948 90.2246 25.4578 89.6876 25.6728C89.1746 25.8778 88.6916 26.1118 88.0716 25.9268C87.8906 25.8778 87.6026 25.9068 87.4416 25.9858C86.9826 26.2108 86.6606 26.0639 86.2946 25.8489C85.7866 25.5459 85.1906 25.3218 85.0496 24.7548C85.0256 24.6568 84.9076 24.5398 84.7906 24.4818C84.2536 24.2278 84.0626 23.8368 83.9606 23.3778C83.9116 23.1628 84.1026 23.0458 84.1806 22.9088C84.3856 22.5278 84.4196 22.1179 84.2296 21.8249C83.9416 21.3859 84.2886 21.0628 84.4836 20.7998C84.6986 20.5268 84.8986 20.2138 85.1626 19.9408C85.4606 19.6288 85.9586 19.5498 86.2566 19.2568C86.3786 19.1298 86.5006 19.0418 86.4856 18.8568C86.4566 18.5538 86.6466 18.3198 86.9836 18.1538C87.2426 18.0168 87.5106 17.8998 87.6326 17.6458C87.7836 17.3138 87.5886 17.0698 87.1496 17.0798C86.9296 17.0898 86.6806 16.6698 86.8026 16.4348C86.9586 16.1418 87.0416 15.8688 86.9786 15.5368C86.9396 15.3418 87.2476 15.2638 87.4716 15.3028C87.7986 15.3808 88.1256 15.3418 88.4576 15.3708C88.7266 15.3908 89.0876 15.4878 89.1996 15.1558C89.3116 14.8338 89.2236 14.5508 88.8876 14.3258C88.8286 14.2768 88.7456 14.2578 88.6726 14.2278C88.5556 14.1688 88.3206 14.1688 88.3606 14.0328C88.4096 13.8468 88.6586 13.9348 88.8196 13.8958C88.9416 13.8668 89.3076 14.1498 89.1906 13.7398C89.1616 13.6418 89.2976 13.7198 89.3666 13.7298C89.7766 13.7888 90.0356 13.6708 90.1186 13.3488H90.1086C90.5046 13.3488 90.8216 13.2608 90.9286 12.9288C91.0216 12.6358 91.3486 12.6648 91.6126 12.6358C91.9836 12.5968 92.2426 12.5378 91.9546 12.1868C91.8276 12.0408 91.8666 11.8548 92.0476 11.7378C92.2426 11.6008 92.4726 11.4348 92.5656 11.8158C92.5856 11.9038 92.5706 12.0988 92.8486 12.0108C93.0876 11.9328 93.0686 11.8058 92.9656 11.6688C92.9366 11.6198 92.8776 11.5808 92.8586 11.5418C92.7166 11.1808 92.5026 11.1808 92.1406 11.4048C91.7786 11.6288 91.4036 11.4828 91.3006 11.1218C91.1056 10.3698 91.3936 10.0768 92.3556 10.0868C92.5946 10.0968 92.6486 9.96985 92.7116 9.83285C92.7946 9.63785 92.9506 9.48085 93.1466 9.33485C93.2836 9.23685 93.7036 9.19785 93.3956 8.91485C93.3516 8.87585 93.5076 8.84685 93.5666 8.82685C94.3476 8.56285 95.1286 8.33885 96.0036 8.39685C96.2916 8.40685 96.5846 8.23085 96.8626 8.37685C97.6246 8.77685 98.5376 8.80685 99.3776 9.00185C99.5146 9.04085 99.7096 9.02185 99.7246 9.16785C99.7396 9.33385 99.5346 9.35385 99.3876 9.41185C98.9826 9.57785 98.5766 9.35285 98.1716 9.41185C98.2546 9.64585 98.3226 9.89085 98.7236 9.91985C98.8306 9.95885 98.9136 10.0568 99.0656 9.99785C99.0506 9.84185 98.8846 9.89085 98.7826 9.86085C98.8216 9.61685 99.0366 9.71485 99.1926 9.73385C99.3736 9.76285 99.4806 9.86085 99.6076 9.61685C99.7056 9.43085 100.072 9.30485 100.443 9.43085C100.336 9.22585 100.248 9.05985 100.145 8.85485C100.433 8.89385 100.799 8.73785 100.765 9.16685C100.75 9.33285 100.99 9.29385 101.097 9.21585C101.336 9.02985 101.654 8.99085 101.942 8.90385C102.128 8.83585 102.391 8.67885 102.523 8.98185C102.752 8.85485 103.05 8.90385 103.27 8.80585C103.91 8.50285 104.535 8.63985 105.165 8.80585C105.375 8.85485 105.585 8.91285 105.805 8.97185C105.854 8.76685 105.668 8.76685 105.551 8.71785C105.097 8.55185 105.014 8.03385 105.409 7.80985C105.536 7.74185 106.122 7.92685 106.151 8.07385C106.18 8.22085 106.234 8.30785 106.444 8.31785C106.429 8.54285 106.581 8.68885 106.815 8.79685C106.918 8.90385 106.991 9.00185 106.927 9.14885C106.898 9.21685 106.639 9.26585 106.839 9.37385C106.946 9.43285 107.108 9.40285 107.191 9.31485C107.279 9.21685 107.425 9.10985 107.259 8.98285C107.147 8.89485 107.015 8.81685 106.893 8.73885C106.756 8.59285 106.81 8.30885 106.434 8.31885C106.463 8.16285 106.683 8.00685 106.419 7.82085C106.78 7.86985 106.678 8.23085 106.995 8.26985C107.058 8.31885 107.166 8.35785 107.2 8.29885C107.249 8.20085 107.117 8.23985 107.058 8.22085C106.965 8.03485 107.087 7.97685 107.287 7.98685C107.448 7.98685 107.614 8.00685 107.761 8.00685C107.873 7.87985 107.6 7.84085 107.678 7.72385C107.815 7.66485 107.971 7.73385 108.108 7.69485C108.274 7.66585 108.64 7.86085 108.567 7.48985C108.562 7.46985 108.762 7.40185 108.87 7.39185C109.417 7.31385 109.959 7.18685 110.53 7.22585C110.745 7.23585 110.901 7.20585 111.072 7.04985C111.336 6.79585 111.829 6.77685 112.112 6.92285C112.444 7.08885 112.752 7.06885 113.079 7.07885C113.348 7.07885 113.601 7.12785 113.86 7.17685C114.163 7.22585 114.182 7.36285 113.977 7.52885C113.791 7.57785 113.616 7.63585 113.459 7.75385C113.718 7.81285 113.918 7.77385 114.06 7.59785C114.182 7.56885 114.309 7.51985 114.441 7.57785C115.129 7.87085 115.935 7.90985 116.629 7.82185C117.147 7.76285 117.601 7.77285 118.069 7.86085C118.469 7.92885 118.718 8.25185 119.143 8.31985C119.275 8.33985 119.416 8.45685 119.465 8.24185C119.494 8.09585 119.641 8.18285 119.738 8.18285C120.021 8.18285 120.304 8.19285 120.588 8.19285C120.7 8.19285 120.915 8.26085 120.764 8.03685C120.681 7.91985 120.881 7.93885 120.945 7.94885C121.59 7.98785 122.249 7.97785 122.869 8.09485C123.518 8.22185 124.158 8.30985 124.827 8.30985C125.315 8.30985 125.823 8.28985 126.223 8.59285C126.277 8.62185 126.384 8.62185 126.462 8.62185C127.268 8.62185 128.078 8.62185 128.869 8.78785C128.918 8.64185 128.679 8.63185 128.698 8.49485C129.914 8.59285 131.12 8.71985 132.292 9.01285C133.005 9.18885 133.742 9.28585 134.47 9.39385C134.616 9.41385 134.807 9.41385 134.846 9.57985C134.905 9.87285 134.851 9.90185 134.465 9.88285C134.084 9.87285 133.816 9.64885 133.449 9.58985C133.102 9.53085 132.936 9.64885 132.863 9.82385C132.78 10.0388 133.107 10.0288 133.259 10.0968C133.445 10.1948 133.713 10.1848 133.899 10.4188C133.22 10.2138 132.859 10.4478 132.595 10.8288C132.566 10.8778 132.527 10.9068 132.492 10.9458C132.165 10.7698 131.823 11.0048 131.501 10.9358C131.296 10.8768 131.022 10.9458 131.037 11.0138C131.066 11.1698 130.954 11.4338 131.31 11.4828C131.676 11.5218 131.779 11.8638 132.14 11.9128C131.92 12.1858 132.257 12.4698 132.14 12.7428C132.125 12.7818 132.067 12.8308 132.081 12.8498C132.164 12.9868 132.31 13.1718 132.086 13.2498C131.876 13.3278 131.73 13.1038 131.578 13.0058C131.168 12.7228 130.758 12.4398 130.372 12.1368C130.094 11.9318 129.913 11.7268 130.186 11.3848C130.552 10.9358 130.479 10.5838 130.088 10.3498C130.025 10.3788 130 10.4178 130.049 10.4668C130.195 10.6428 129.986 10.7008 129.878 10.7788C129.741 10.8668 129.644 10.7588 129.546 10.6908C129.448 10.6228 129.404 10.4958 129.258 10.4958C129.077 10.4958 128.858 10.3888 128.721 10.5638C128.589 10.7298 128.658 10.9348 128.921 11.1598C128.594 11.2088 128.32 11.2188 127.974 11.1598C127.325 11.0528 126.626 11.0918 125.953 11.1888C125.743 11.2278 125.724 11.4038 125.684 11.5408C125.63 11.7458 125.611 11.9608 125.406 12.1368C125.191 12.3228 125.465 12.3228 125.606 12.3518C125.792 12.4008 126.05 12.3318 126.124 12.5568C126.144 12.6058 126.217 12.6158 126.29 12.6058C126.954 12.4988 127.174 12.5668 127.525 12.9768C128.13 13.6698 128.34 14.4028 127.955 15.2038C127.833 15.4578 127.691 15.6238 127.271 15.5258C126.944 15.4478 126.827 15.6528 126.822 15.8478C126.822 16.0428 126.778 16.1898 126.583 16.3268C126.334 16.5028 126.627 16.5708 126.744 16.6388C127.1 16.8438 127.501 17.0099 127.608 17.3909C127.637 17.5179 127.662 17.6158 127.505 17.6938C127.31 17.7918 127.105 17.9089 126.875 17.8699C126.689 17.8309 126.802 17.6648 126.753 17.5768C126.611 17.3228 126.626 16.9618 126.118 16.9128C126.001 16.9028 125.903 16.8638 125.849 16.7668C125.585 16.2688 125.41 16.2488 124.848 16.6298C124.711 16.5708 124.711 16.4438 124.687 16.3468C124.663 16.2588 124.799 16.1318 124.599 16.1028C124.477 16.0738 124.404 16.1808 124.335 16.2488C124.301 16.2778 124.286 16.3268 124.247 16.3368C123.622 16.6008 123.983 16.7668 124.32 16.9818C124.452 17.0598 124.506 17.0208 124.608 16.9918C124.95 16.8848 124.95 16.8939 125.448 17.0019C125.316 17.0799 125.204 17.1289 125.106 17.2069C124.691 17.5189 124.745 17.5778 125.121 17.8998C125.458 18.1828 125.985 18.4268 125.863 18.9248C125.853 18.9738 125.892 19.0128 125.931 19.0028C126.444 18.9048 126.151 19.1888 126.136 19.2958C126.053 19.9108 125.784 20.4778 125.145 20.8878C124.774 21.1318 124.31 21.2588 123.846 21.3758C123.631 21.4248 123.397 21.4148 123.338 21.6398C123.235 21.6008 123.221 21.4838 123.084 21.4838C122.586 21.2298 122.361 21.5618 122.098 21.7668C121.825 21.9918 121.986 22.1968 122.196 22.3818C122.406 22.5578 122.631 22.7338 122.845 22.9088C123.114 23.1338 123.304 23.3778 123.348 23.6898C123.392 24.0318 123.304 24.2948 122.85 24.4318C122.523 24.5388 122.459 24.8809 122.083 24.9499C121.868 24.4709 121.434 24.1488 120.848 23.9248C120.506 23.7978 120.511 23.7878 120.394 24.1108C120.213 24.6088 120.443 25.0779 120.97 25.4289C121.346 25.6629 121.732 25.9168 121.707 26.3668C121.697 26.6308 122.078 26.8258 122.01 27.1678C121.649 26.9428 121.326 26.7379 121.009 26.5229C120.872 26.4349 120.755 26.3178 120.76 26.1618C120.77 25.7228 120.54 25.4198 120.047 25.1758C119.774 25.0388 119.959 24.7068 119.998 24.4918C120.091 23.8868 119.725 23.3688 119.539 22.8218C119.456 22.5878 119.275 22.8118 119.168 22.8608C119.002 22.9288 118.885 23.0948 118.65 22.9778C118.44 22.8898 118.513 22.7338 118.528 22.5968C118.567 22.2748 118.196 22.1278 118.025 21.8938C117.957 21.7958 117.756 21.7378 117.737 21.6398C117.625 21.1708 117.283 21.1908 116.843 21.3368C116.711 21.3858 116.579 21.4248 116.418 21.3468C116.315 21.2978 116.154 21.3568 116.125 21.4348C115.866 22.0798 115.021 22.3428 114.606 22.8798C114.513 22.9968 114.25 22.9578 114.162 23.1048C114.001 23.2908 114.016 23.4468 114.265 23.5738C114.265 23.6228 114.27 23.6808 114.27 23.7298C113.904 23.9548 114.236 24.2568 114.099 24.5108H114.104C113.826 24.5108 113.914 24.6768 113.889 24.7938C113.874 24.8138 113.85 24.8228 113.826 24.8228C113.758 24.8328 113.723 24.8618 113.733 24.9208H113.743C113.606 24.9108 113.601 24.9888 113.611 25.0578H113.377H113.382C113.369 24.9898 113.301 24.9708 113.218 24.9608ZM94.4086 16.4359C94.3056 16.4359 94.2036 16.4458 94.0966 16.4458C94.0816 16.4358 94.0726 16.4168 94.0766 16.4068L93.9736 16.3088C93.8666 16.2408 93.7786 16.1628 93.6616 16.1138C93.1146 15.9088 92.6316 15.6648 92.3626 15.2058C92.2796 15.0598 92.0986 15.1078 91.9376 15.1858C91.7326 15.2838 91.5326 15.4788 91.2886 15.4398C90.8586 15.3618 90.5126 15.3028 90.4386 15.7618C90.4236 15.8208 90.2626 15.8688 90.1656 15.9078C90.0236 15.9758 89.8436 16.0148 89.7796 16.1418C89.4816 16.7378 89.0566 17.2158 88.1436 17.2748C88.1336 17.2848 88.1196 17.2949 88.1046 17.3039C88.0016 17.3529 87.9146 17.4208 87.9286 17.5188C87.9436 17.6358 88.0996 17.6558 88.1976 17.6458C88.5536 17.6458 88.9446 17.7828 89.2376 17.4698C89.3496 17.3528 89.5646 17.3038 89.7696 17.2838C90.4676 17.2158 91.1656 17.1278 91.8696 17.0688C92.5186 17.0098 92.7926 17.2838 92.5676 17.7618C92.4896 17.9178 92.5676 17.9668 92.6706 18.0738C92.9436 18.3568 93.4466 18.1808 93.6916 18.4058C94.0576 18.7378 94.5946 18.7478 95.0396 18.9238C95.2296 19.0018 95.3476 18.9628 95.3426 18.7778C95.3276 18.3868 95.7286 18.1629 96.2016 18.2799C96.4656 18.3479 96.7486 18.4068 96.9776 18.5238C97.7486 18.9148 98.5936 18.6119 99.3896 18.6999C99.4436 18.7099 99.5166 18.6709 99.5706 18.6409C99.8536 18.4849 100.167 17.7128 100.103 17.4398C100.049 17.1958 99.8336 17.1468 99.6586 17.2638C99.1996 17.5858 98.7356 17.1658 98.2186 17.3128C97.9306 17.4008 97.3246 17.1078 97.2376 16.6288C97.1886 16.3648 97.1546 15.8578 96.5096 16.3068C96.4996 16.3168 96.4506 16.2968 96.4216 16.2868C96.1286 16.2088 96.2216 16.3549 96.2796 16.4429C96.3426 16.5309 96.4696 16.5888 96.5386 16.6678C96.7676 16.9508 96.2796 16.9708 96.2266 17.1658C96.2066 17.2438 95.9286 17.1658 95.8946 17.0488C95.8266 16.8238 95.6356 16.7168 95.4116 16.5998C95.2656 16.5318 95.1336 16.3848 95.1726 16.2388C95.2606 15.9168 95.0066 15.7998 94.7186 15.6818C94.2206 15.4868 93.7716 15.2518 93.4786 14.8708C93.4296 14.8028 93.3806 14.6758 93.2246 14.7538C93.0786 14.8218 93.0386 14.9588 93.1266 15.0658C93.3416 15.3098 93.5126 15.5928 93.9026 15.7398C94.1806 15.8468 94.4396 15.9938 94.6736 16.1008C94.6876 16.3088 94.0576 16.0839 94.4086 16.4359ZM99.7066 14.8928C99.3356 15.0488 98.9986 15.1468 98.7886 14.7948C98.6326 14.5408 98.4076 14.4728 98.1836 14.6678C97.9736 14.8438 97.8076 15.0488 97.6856 15.2728C97.4316 15.7418 97.6026 15.9568 98.2516 15.9958C98.3976 15.9958 98.4956 15.9368 98.6176 15.8978C99.0766 15.7808 99.5206 15.6638 99.9896 15.8978C100.307 16.0638 100.703 15.9758 101.054 16.0438C101.225 16.0638 101.327 15.9458 101.41 15.8578C101.522 15.7308 101.351 15.6818 101.264 15.6138C101.074 15.4768 100.878 15.3308 100.668 15.2138C100.458 15.0868 100.116 15.0378 100.019 14.8918C99.9406 14.7648 100.302 14.5888 100.327 14.3648C100.019 14.4328 99.6816 14.4038 99.5116 14.6678C99.4136 14.8238 99.6776 14.7848 99.7066 14.8928ZM96.0446 9.58985C95.7516 9.61885 95.3466 9.43385 95.2196 9.76585C95.1466 9.96085 95.0196 10.0298 94.8096 10.0878C94.4776 10.1858 94.2826 10.3908 94.2236 10.6638C94.1646 10.9278 94.6876 10.9078 94.6486 11.1128C94.6146 11.2988 94.1506 11.2988 94.1456 11.5428C94.1356 11.7378 94.2086 11.9138 93.8626 11.9918C93.6476 12.0308 93.5156 12.2848 93.2086 12.1478C93.1356 12.1188 93.0476 12.1678 93.0186 12.2358C92.9746 12.3238 93.0866 12.3138 93.1406 12.3528C93.5016 12.5968 93.8436 12.4898 94.2006 12.3428C94.3076 12.3038 94.4106 12.2448 94.5666 12.3038C95.0206 12.4698 95.2746 12.3328 95.2596 11.9618C95.2446 11.6298 95.4016 11.5318 95.7336 11.6498C95.8366 11.6888 95.9096 11.7958 96.0116 11.6698C96.0946 11.5628 96.0896 11.4838 95.9526 11.3968C95.8796 11.3578 95.7626 11.3288 95.8306 11.2108C95.9766 11.1818 96.1336 11.1328 96.2896 11.1128C96.4166 11.1028 96.5586 11.1128 96.6856 11.1228C96.8366 11.1328 96.9836 11.1428 97.0906 11.0348C97.1396 10.9858 97.1496 10.9368 97.0906 10.8978C96.9536 10.8298 96.8026 10.8588 96.6606 10.8778C96.3826 10.9168 96.1086 10.9658 95.8356 11.0048C95.5816 11.0438 95.3616 10.9948 95.2306 10.8288C95.0406 10.5848 95.2016 10.1748 95.5236 9.99885C95.7176 9.89285 95.9376 9.80485 96.0446 9.58985ZM104.683 17.2168C105.127 17.2168 105.162 17.1488 105.162 16.8168C105.167 16.6018 105.02 16.5048 104.84 16.3868C104.723 16.3088 104.571 16.1718 104.894 16.1328C105.011 16.1228 105.211 16.1618 105.109 15.9868C105.06 15.8988 104.982 15.7138 104.757 15.8498C104.664 15.9088 104.552 15.9568 104.562 15.8298C104.586 15.5468 104.25 15.4878 104.074 15.3418C103.737 15.0588 103.727 15.0198 104.216 14.8928C104.358 14.8538 104.377 14.7858 104.416 14.7068C104.46 14.6188 104.436 14.5408 104.318 14.5208C104.132 14.4818 103.957 14.3058 103.771 14.4528C103.493 14.6778 102.995 14.6968 102.843 15.0488C102.833 15.0778 102.858 15.1168 102.882 15.1558C103.082 15.4488 103.263 15.7608 103.644 15.9468C104.03 16.1228 103.966 16.3668 103.805 16.6008C103.732 16.7078 103.624 16.8548 103.776 16.9038C104.092 16.9818 104.316 17.2268 104.683 17.2168Z" stroke="#437ADA" stroke-width="0.609" stroke-miterlimit="10"/>
<path d="M74.8535 14.5509C74.1555 14.9609 73.3785 14.9709 72.5975 14.9319C72.2555 14.9119 71.9525 14.9709 71.7085 15.2539C71.8115 15.2639 71.8945 15.2739 71.9675 15.2639C72.1285 15.2439 72.3045 15.2149 72.3975 15.3519C72.4905 15.4979 72.3535 15.6349 72.2655 15.7429C72.0895 15.9479 72.0015 16.1529 72.2555 16.3289C72.4995 16.4849 72.7735 16.4949 72.9975 16.2609C73.0365 16.2219 73.0655 16.1829 73.1095 16.1629C73.1825 16.1139 73.2655 15.9769 73.3485 16.1239C73.3975 16.2019 73.4855 16.3389 73.3095 16.4069C72.7525 16.6409 72.1865 16.8659 71.6205 17.0809C71.4785 17.1399 71.3325 17.0609 71.3815 16.9349C71.5325 16.5439 71.2395 16.7199 71.1275 16.7689C70.7365 16.9549 70.0875 16.9249 69.9895 17.3449C69.8335 18.0189 69.2225 17.9019 68.8425 18.1649C68.2855 18.5459 67.6075 18.8389 67.4895 19.6299C67.4405 19.9419 67.0845 20.1669 66.7615 20.3429C66.2585 20.6259 65.7705 20.9189 65.3795 21.3489C65.1255 21.6319 65.0675 21.9059 65.1595 22.2469C65.2525 22.6179 65.2765 22.9789 65.1055 23.3409C65.0075 23.5359 64.9105 23.5359 64.7735 23.3799C64.5445 23.1359 64.4565 22.8529 64.5095 22.5209C64.5775 22.0719 64.4555 21.9449 63.9435 21.9739C63.7095 21.9839 63.6455 21.7009 63.3965 21.7689C63.0495 21.8569 62.6295 21.6809 62.3565 22.0419C62.3075 22.1009 62.1365 22.1399 62.0635 22.1009C61.0965 21.6419 60.4425 22.3259 59.9545 22.8139C59.5345 23.2239 59.4665 23.9959 59.3445 24.6109C59.2765 24.9529 59.4765 25.3039 59.7255 25.5969C59.8965 25.7919 60.0725 25.9969 60.3705 25.8899C60.7415 25.7439 61.2785 25.8799 61.4445 25.3719C61.5225 25.1469 61.6005 24.9519 61.8835 24.8839C62.1275 24.8249 62.4055 24.7859 62.5765 24.9229C62.7085 25.0209 62.5035 25.2349 62.4445 25.3919C62.2785 25.8309 62.0925 26.2709 61.8785 26.7879C62.1815 26.7879 62.4305 26.7979 62.6845 26.7879C63.5245 26.7589 63.6565 26.9149 63.4415 27.6959C63.3485 28.0279 63.2465 28.3599 63.4215 28.6919C63.6605 29.1409 64.0415 29.2879 64.5985 29.1019C64.2375 29.2389 64.6085 29.8149 64.1595 29.7269C63.9155 29.6879 63.5785 29.5509 63.4075 29.4049C63.0705 29.1319 62.6405 28.9169 62.5095 28.4089C62.4215 28.0769 62.1825 27.7059 61.6555 27.6279C61.1525 27.5689 60.6545 27.4129 60.3465 26.9439C60.2095 26.7289 59.9365 26.6509 59.6585 26.7579C59.3555 26.8849 59.0825 26.8069 58.8135 26.6799C58.1735 26.4069 57.5685 26.0649 56.9925 25.6739C56.7385 25.5079 56.6165 25.3319 56.7675 25.0289C56.9045 24.7359 56.8305 24.4719 56.5865 24.2279C55.8685 23.5049 55.4925 22.6069 55.2435 21.6689C55.1895 21.4829 55.1215 21.3469 54.9115 21.3659C54.6965 21.3859 54.7405 21.5809 54.7305 21.7179C54.7065 21.9909 54.8625 22.2159 54.9645 22.4499C55.2135 22.9679 55.2765 23.5439 55.5845 24.0419C55.6435 24.1399 55.6525 24.2369 55.5455 24.2959C55.3945 24.3739 55.3745 24.2279 55.3405 24.1499C55.2085 23.8769 54.7935 23.7299 54.9255 23.3199C54.9455 23.2609 54.8035 23.1339 54.7205 23.0659C54.5155 22.8709 54.1245 22.7439 54.5055 22.3919C54.0265 21.7869 54.6325 20.7709 53.6465 20.3509C53.5435 20.3019 53.4805 20.2339 53.4655 20.1259C53.4065 19.6569 53.3045 19.1879 53.3045 18.7199C53.3045 18.0749 53.7535 17.5769 54.1105 17.0789C54.3645 16.7179 54.7115 16.4149 54.8725 15.9849C55.0095 15.6429 55.2335 15.3309 54.7505 15.0569C54.6285 14.9889 54.5945 14.7449 54.7065 14.7349C55.2975 14.6859 54.9655 14.2959 55.0285 14.0509C55.0675 13.8949 55.0485 13.7289 55.0625 13.5719C55.0675 13.4939 55.1065 13.3669 55.0085 13.3669C54.2805 13.3669 54.6815 12.8789 54.6865 12.6349C54.6965 12.0099 54.5935 11.9419 53.9735 11.7459C53.2945 11.5209 52.6845 11.5509 52.0445 11.7949C51.8445 11.8729 51.6145 11.9319 51.3905 11.8339V11.8439C51.4535 11.8049 51.5125 11.7659 51.5765 11.7269C51.6155 11.6779 51.7525 11.6679 51.6835 11.5899C51.6345 11.5219 51.5465 11.5799 51.4935 11.6389C51.1955 11.7169 50.9225 11.7069 50.6975 12.0389C50.4635 12.3999 49.9115 12.3709 49.4525 12.3509C49.3695 12.3119 49.2915 12.2729 49.2085 12.2339C49.2035 12.1749 49.2325 12.0679 49.1495 12.0879C48.7735 12.1759 48.5785 11.9119 48.3385 11.7459C48.1775 11.6389 48.2895 11.5119 48.3485 11.4039C48.5535 11.0719 48.9105 10.8959 49.2665 10.8179C49.6665 10.7299 50.0525 10.5639 50.4775 10.5739C50.6145 10.5839 50.7805 10.5739 50.7755 10.3979C50.7705 10.2119 50.5945 10.3099 50.4975 10.2909C50.2925 10.2319 49.9455 10.3299 49.9115 10.1249C49.8575 9.78293 50.2485 9.82193 50.4775 9.76393C50.7605 9.69593 51.0295 9.51993 51.3615 9.70493C51.5035 9.77293 51.7765 9.74393 51.6495 9.44093C51.5225 9.11893 51.7175 9.05993 52.0015 9.01093C52.3875 8.94293 52.7825 8.85493 53.1485 8.72793C54.2375 8.32793 55.3315 8.19093 56.4635 8.55193C56.9905 8.72793 57.5965 8.53193 58.0945 8.72793C59.0025 9.06993 59.8815 8.85493 60.7405 8.70793C61.8145 8.53193 62.8055 8.82493 63.8265 8.98093C63.9295 8.99093 64.0555 9.00994 63.9335 9.22494C63.8355 9.39094 64.1535 9.30293 64.2945 9.31293C64.9095 9.43993 65.4275 9.15694 65.9695 8.96094C66.4285 9.42994 67.0095 9.26393 67.5665 9.23393C67.6105 9.23393 67.6835 9.20493 67.6935 9.17493C67.8885 8.62793 68.3285 8.75493 68.7485 8.83293C69.0025 8.81293 68.9775 8.66693 68.9245 8.51093L68.9345 8.50094C69.1205 8.55994 69.2325 8.50093 69.2565 8.31493H69.2515C69.4805 8.41293 69.6475 8.03193 69.8965 8.24693C70.0085 8.45193 69.8135 8.76493 70.2525 8.89193C70.5555 8.97993 70.0665 9.19493 70.1495 9.42893C70.5845 9.37993 70.8865 9.11693 71.1705 8.85293C71.3995 8.65793 71.1555 8.59893 70.9845 8.57993C70.5885 8.51193 70.6475 8.31593 70.8525 8.11093C71.1215 7.84693 71.4825 7.57393 71.8295 7.62293C72.5525 7.71093 73.2695 7.56393 73.9825 7.65193C74.0455 7.66193 74.1335 7.69093 74.1635 7.72993C74.4225 8.12993 74.8815 8.23793 75.2915 8.41393C75.5405 8.52093 75.6525 8.66794 75.4725 8.90194C75.3215 9.10694 75.3895 9.20493 75.6335 9.21393C75.9705 9.22393 76.1215 9.47793 76.3655 9.63393C76.1365 9.78993 75.9115 9.87793 75.7255 9.99493C75.4615 10.1709 75.3295 10.0929 75.1735 9.89694C75.0905 9.78994 75.0075 9.61393 74.8175 9.77993C74.6665 9.91693 74.7445 10.0629 74.8665 10.1609C75.1305 10.3759 75.0085 10.5219 74.8375 10.7469C74.5985 11.0499 74.4955 10.6789 74.3245 10.6979C74.2905 10.6779 74.2565 10.6589 74.2175 10.6299C74.1735 10.6009 74.1245 10.5419 74.0805 10.6199C74.0705 10.6299 74.1195 10.6789 74.1435 10.7079C74.1775 10.7369 74.2065 10.7759 74.2365 10.8149C74.2265 10.9029 74.4125 11.0979 74.2125 11.0689C73.8265 11.0009 73.3585 11.0009 73.1185 10.6199C72.9035 10.2979 72.6795 10.0729 72.2545 10.3469C72.1225 10.4249 71.9615 10.4249 71.9125 10.2689C71.8685 10.1129 72.0395 10.0639 72.1665 10.0249C72.2265 9.99993 72.3095 9.99994 72.3675 10.0199C72.9925 10.2349 73.2515 9.64893 73.6955 9.47293C73.8855 9.40493 73.8275 9.16993 73.5445 9.13093C73.5735 9.04293 73.6615 8.94493 73.4665 8.93593C73.4375 8.92593 73.4225 8.90693 73.4225 8.88693C73.4175 8.80893 73.3735 8.76993 73.3005 8.77993H73.3345L73.3005 8.78993C73.3005 8.66293 73.2125 8.65293 73.1145 8.65293C73.0265 8.66293 72.9435 8.69194 72.8605 8.69194C72.2455 8.60394 71.8255 8.75994 71.6305 9.38494C71.5325 9.66794 70.6585 9.83393 70.3125 9.70693C69.8735 9.81393 69.5365 10.0779 69.1995 10.3319L69.2045 10.3219C69.0535 10.3019 68.9065 10.2729 68.8675 10.4679C68.0815 10.8979 67.1975 11.1609 66.4995 11.7179C66.2015 11.9519 66.3725 12.4989 66.7585 12.5769C67.1545 12.6649 67.3835 13.0069 67.7745 13.1139C67.8625 13.1429 67.9405 13.2209 68.0475 13.2309C68.3695 13.2409 68.7165 13.2109 68.3945 13.6899C68.3115 13.8069 68.4725 14.0319 68.3015 14.1979C68.2865 14.2079 68.3555 14.5009 68.4965 14.4909C68.6915 14.4809 68.9795 14.3739 68.9845 14.1979C68.9945 13.4359 69.6585 13.2999 70.1755 13.0069C70.4585 12.8509 70.7325 12.6459 70.4785 12.2839C70.4155 12.1859 70.4295 12.1279 70.5025 12.0689C70.8685 11.8439 70.9715 11.4539 71.1765 11.1219C71.2355 11.0239 71.2745 10.8969 71.4255 10.9069C72.0265 10.9169 72.6265 10.9359 73.0855 11.3859C73.2315 11.5319 73.0415 11.5809 73.0075 11.6689C72.9395 11.8349 72.9295 11.9719 73.0855 12.1079C73.2315 12.2349 73.3585 12.1859 73.5105 12.1279C73.8325 12.0009 74.0765 11.7669 74.4385 11.5519C74.5015 11.9129 74.6485 12.2549 74.5845 12.5579C74.4965 12.9579 74.7015 13.1239 74.9755 13.2999C75.4295 13.5929 75.4835 13.8859 75.2735 14.3839C75.1515 14.6769 74.8585 15.0769 75.5515 15.2039C75.6935 15.2239 75.6975 15.6339 75.6245 15.8389C75.5755 15.9759 75.4245 16.0929 75.1505 15.8979C74.8235 15.6639 74.3355 15.7909 73.8665 15.7419C74.1305 15.2629 74.6085 14.9999 74.9015 14.5899C74.9405 14.5799 74.9895 14.5699 74.9555 14.5219C74.9505 14.5119 74.8925 14.5409 74.8535 14.5509ZM71.9775 7.86093C71.9625 7.88093 71.9535 7.89993 71.9385 7.91993L72.0115 7.89093C72.0455 7.87093 72.0745 7.83194 72.1045 7.81294C72.1045 7.80294 72.0705 7.77394 72.0705 7.77394C72.0355 7.80294 72.0065 7.83193 71.9775 7.86093Z" fill="#437ADA"/>
<path d="M74.8535 14.5509C74.1555 14.9609 73.3785 14.9709 72.5975 14.9319C72.2555 14.9119 71.9525 14.9709 71.7085 15.2539C71.8115 15.2639 71.8945 15.2739 71.9675 15.2639C72.1285 15.2439 72.3045 15.2149 72.3975 15.3519C72.4905 15.4979 72.3535 15.6349 72.2655 15.7429C72.0895 15.9479 72.0015 16.1529 72.2555 16.3289C72.4995 16.4849 72.7735 16.4949 72.9975 16.2609C73.0365 16.2219 73.0655 16.1829 73.1095 16.1629C73.1825 16.1139 73.2655 15.9769 73.3485 16.1239C73.3975 16.2019 73.4855 16.3389 73.3095 16.4069C72.7525 16.6409 72.1865 16.8659 71.6205 17.0809C71.4785 17.1399 71.3325 17.0609 71.3815 16.9349C71.5325 16.5439 71.2395 16.7199 71.1275 16.7689C70.7365 16.9549 70.0875 16.9249 69.9895 17.3449C69.8335 18.0189 69.2225 17.9019 68.8425 18.1649C68.2855 18.5459 67.6075 18.8389 67.4895 19.6299C67.4405 19.9419 67.0845 20.1669 66.7615 20.3429C66.2585 20.6259 65.7705 20.9189 65.3795 21.3489C65.1255 21.6319 65.0675 21.9059 65.1595 22.2469C65.2525 22.6179 65.2765 22.9789 65.1055 23.3409C65.0075 23.5359 64.9105 23.5359 64.7735 23.3799C64.5445 23.1359 64.4565 22.8529 64.5095 22.5209C64.5775 22.0719 64.4555 21.9449 63.9435 21.9739C63.7095 21.9839 63.6455 21.7009 63.3965 21.7689C63.0495 21.8569 62.6295 21.6809 62.3565 22.0419C62.3075 22.1009 62.1365 22.1399 62.0635 22.1009C61.0965 21.6419 60.4425 22.3259 59.9545 22.8139C59.5345 23.2239 59.4665 23.9959 59.3445 24.6109C59.2765 24.9529 59.4765 25.3039 59.7255 25.5969C59.8965 25.7919 60.0725 25.9969 60.3705 25.8899C60.7415 25.7439 61.2785 25.8799 61.4445 25.3719C61.5225 25.1469 61.6005 24.9519 61.8835 24.8839C62.1275 24.8249 62.4055 24.7859 62.5765 24.9229C62.7085 25.0209 62.5035 25.2349 62.4445 25.3919C62.2785 25.8309 62.0925 26.2709 61.8785 26.7879C62.1815 26.7879 62.4305 26.7979 62.6845 26.7879C63.5245 26.7589 63.6565 26.9149 63.4415 27.6959C63.3485 28.0279 63.2465 28.3599 63.4215 28.6919C63.6605 29.1409 64.0415 29.2879 64.5985 29.1019C64.2375 29.2389 64.6085 29.8149 64.1595 29.7269C63.9155 29.6879 63.5785 29.5509 63.4075 29.4049C63.0705 29.1319 62.6405 28.9169 62.5095 28.4089C62.4215 28.0769 62.1825 27.7059 61.6555 27.6279C61.1525 27.5689 60.6545 27.4129 60.3465 26.9439C60.2095 26.7289 59.9365 26.6509 59.6585 26.7579C59.3555 26.8849 59.0825 26.8069 58.8135 26.6799C58.1735 26.4069 57.5685 26.0649 56.9925 25.6739C56.7385 25.5079 56.6165 25.3319 56.7675 25.0289C56.9045 24.7359 56.8305 24.4719 56.5865 24.2279C55.8685 23.5049 55.4925 22.6069 55.2435 21.6689C55.1895 21.4829 55.1215 21.3469 54.9115 21.3659C54.6965 21.3859 54.7405 21.5809 54.7305 21.7179C54.7065 21.9909 54.8625 22.2159 54.9645 22.4499C55.2135 22.9679 55.2765 23.5439 55.5845 24.0419C55.6435 24.1399 55.6525 24.2369 55.5455 24.2959C55.3945 24.3739 55.3745 24.2279 55.3405 24.1499C55.2085 23.8769 54.7935 23.7299 54.9255 23.3199C54.9455 23.2609 54.8035 23.1339 54.7205 23.0659C54.5155 22.8709 54.1245 22.7439 54.5055 22.3919C54.0265 21.7869 54.6325 20.7709 53.6465 20.3509C53.5435 20.3019 53.4805 20.2339 53.4655 20.1259C53.4065 19.6569 53.3045 19.1879 53.3045 18.7199C53.3045 18.0749 53.7535 17.5769 54.1105 17.0789C54.3645 16.7179 54.7115 16.4149 54.8725 15.9849C55.0095 15.6429 55.2335 15.3309 54.7505 15.0569C54.6285 14.9889 54.5945 14.7449 54.7065 14.7349C55.2975 14.6859 54.9655 14.2959 55.0285 14.0509C55.0675 13.8949 55.0485 13.7289 55.0625 13.5719C55.0675 13.4939 55.1065 13.3669 55.0085 13.3669C54.2805 13.3669 54.6815 12.8789 54.6865 12.6349C54.6965 12.0099 54.5935 11.9419 53.9735 11.7459C53.2945 11.5209 52.6845 11.5509 52.0445 11.7949C51.8445 11.8729 51.6145 11.9319 51.3905 11.8339V11.8439C51.4535 11.8049 51.5125 11.7659 51.5765 11.7269C51.6155 11.6779 51.7525 11.6679 51.6835 11.5899C51.6345 11.5219 51.5465 11.5799 51.4935 11.6389C51.1955 11.7169 50.9225 11.7069 50.6975 12.0389C50.4635 12.3999 49.9115 12.3709 49.4525 12.3509C49.3695 12.3119 49.2915 12.2729 49.2085 12.2339C49.2035 12.1749 49.2325 12.0679 49.1495 12.0879C48.7735 12.1759 48.5785 11.9119 48.3385 11.7459C48.1775 11.6389 48.2895 11.5119 48.3485 11.4039C48.5535 11.0719 48.9105 10.8959 49.2665 10.8179C49.6665 10.7299 50.0525 10.5639 50.4775 10.5739C50.6145 10.5839 50.7805 10.5739 50.7755 10.3979C50.7705 10.2119 50.5945 10.3099 50.4975 10.2909C50.2925 10.2319 49.9455 10.3299 49.9115 10.1249C49.8575 9.78293 50.2485 9.82193 50.4775 9.76393C50.7605 9.69593 51.0295 9.51993 51.3615 9.70493C51.5035 9.77293 51.7765 9.74393 51.6495 9.44093C51.5225 9.11893 51.7175 9.05993 52.0015 9.01093C52.3875 8.94293 52.7825 8.85493 53.1485 8.72793C54.2375 8.32793 55.3315 8.19093 56.4635 8.55193C56.9905 8.72793 57.5965 8.53193 58.0945 8.72793C59.0025 9.06993 59.8815 8.85493 60.7405 8.70793C61.8145 8.53193 62.8055 8.82493 63.8265 8.98093C63.9295 8.99093 64.0555 9.00994 63.9335 9.22494C63.8355 9.39094 64.1535 9.30293 64.2945 9.31293C64.9095 9.43993 65.4275 9.15694 65.9695 8.96094C66.4285 9.42994 67.0095 9.26393 67.5665 9.23393C67.6105 9.23393 67.6835 9.20493 67.6935 9.17493C67.8885 8.62793 68.3285 8.75493 68.7485 8.83293C69.0025 8.81293 68.9775 8.66693 68.9245 8.51093L68.9345 8.50094C69.1205 8.55994 69.2325 8.50093 69.2565 8.31493H69.2515C69.4805 8.41293 69.6475 8.03193 69.8965 8.24693C70.0085 8.45193 69.8135 8.76493 70.2525 8.89193C70.5555 8.97993 70.0665 9.19493 70.1495 9.42893C70.5845 9.37993 70.8865 9.11693 71.1705 8.85293C71.3995 8.65793 71.1555 8.59893 70.9845 8.57993C70.5885 8.51193 70.6475 8.31593 70.8525 8.11093C71.1215 7.84693 71.4825 7.57393 71.8295 7.62293C72.5525 7.71093 73.2695 7.56393 73.9825 7.65193C74.0455 7.66193 74.1335 7.69093 74.1635 7.72993C74.4225 8.12993 74.8815 8.23793 75.2915 8.41393C75.5405 8.52093 75.6525 8.66794 75.4725 8.90194C75.3215 9.10694 75.3895 9.20493 75.6335 9.21393C75.9705 9.22393 76.1215 9.47793 76.3655 9.63393C76.1365 9.78993 75.9115 9.87793 75.7255 9.99493C75.4615 10.1709 75.3295 10.0929 75.1735 9.89694C75.0905 9.78994 75.0075 9.61393 74.8175 9.77993C74.6665 9.91693 74.7445 10.0629 74.8665 10.1609C75.1305 10.3759 75.0085 10.5219 74.8375 10.7469C74.5985 11.0499 74.4955 10.6789 74.3245 10.6979C74.2905 10.6779 74.2565 10.6589 74.2175 10.6299C74.1735 10.6009 74.1245 10.5419 74.0805 10.6199C74.0705 10.6299 74.1195 10.6789 74.1435 10.7079C74.1775 10.7369 74.2065 10.7759 74.2365 10.8149C74.2265 10.9029 74.4125 11.0979 74.2125 11.0689C73.8265 11.0009 73.3585 11.0009 73.1185 10.6199C72.9035 10.2979 72.6795 10.0729 72.2545 10.3469C72.1225 10.4249 71.9615 10.4249 71.9125 10.2689C71.8685 10.1129 72.0395 10.0639 72.1665 10.0249C72.2265 9.99993 72.3095 9.99994 72.3675 10.0199C72.9925 10.2349 73.2515 9.64893 73.6955 9.47293C73.8855 9.40493 73.8275 9.16993 73.5445 9.13093C73.5735 9.04293 73.6615 8.94493 73.4665 8.93593C73.4375 8.92593 73.4225 8.90693 73.4225 8.88693C73.4175 8.80893 73.3735 8.76993 73.3005 8.77993H73.3345L73.3005 8.78993C73.3005 8.66293 73.2125 8.65293 73.1145 8.65293C73.0265 8.66293 72.9435 8.69194 72.8605 8.69194C72.2455 8.60394 71.8255 8.75994 71.6305 9.38494C71.5325 9.66794 70.6585 9.83393 70.3125 9.70693C69.8735 9.81393 69.5365 10.0779 69.1995 10.3319L69.2045 10.3219C69.0535 10.3019 68.9065 10.2729 68.8675 10.4679C68.0815 10.8979 67.1975 11.1609 66.4995 11.7179C66.2015 11.9519 66.3725 12.4989 66.7585 12.5769C67.1545 12.6649 67.3835 13.0069 67.7745 13.1139C67.8625 13.1429 67.9405 13.2209 68.0475 13.2309C68.3695 13.2409 68.7165 13.2109 68.3945 13.6899C68.3115 13.8069 68.4725 14.0319 68.3015 14.1979C68.2865 14.2079 68.3555 14.5009 68.4965 14.4909C68.6915 14.4809 68.9795 14.3739 68.9845 14.1979C68.9945 13.4359 69.6585 13.2999 70.1755 13.0069C70.4585 12.8509 70.7325 12.6459 70.4785 12.2839C70.4155 12.1859 70.4295 12.1279 70.5025 12.0689C70.8685 11.8439 70.9715 11.4539 71.1765 11.1219C71.2355 11.0239 71.2745 10.8969 71.4255 10.9069C72.0265 10.9169 72.6265 10.9359 73.0855 11.3859C73.2315 11.5319 73.0415 11.5809 73.0075 11.6689C72.9395 11.8349 72.9295 11.9719 73.0855 12.1079C73.2315 12.2349 73.3585 12.1859 73.5105 12.1279C73.8325 12.0009 74.0765 11.7669 74.4385 11.5519C74.5015 11.9129 74.6485 12.2549 74.5845 12.5579C74.4965 12.9579 74.7015 13.1239 74.9755 13.2999C75.4295 13.5929 75.4835 13.8859 75.2735 14.3839C75.1515 14.6769 74.8585 15.0769 75.5515 15.2039C75.6935 15.2239 75.6975 15.6339 75.6245 15.8389C75.5755 15.9759 75.4245 16.0929 75.1505 15.8979C74.8235 15.6639 74.3355 15.7909 73.8665 15.7419C74.1305 15.2629 74.6085 14.9999 74.9015 14.5899C74.9405 14.5799 74.9895 14.5699 74.9555 14.5219C74.9505 14.5119 74.8925 14.5409 74.8535 14.5509ZM71.9775 7.86093C71.9625 7.88093 71.9535 7.89993 71.9385 7.91993L72.0115 7.89093C72.0455 7.87093 72.0745 7.83194 72.1045 7.81294C72.1045 7.80294 72.0705 7.77394 72.0705 7.77394C72.0355 7.80294 72.0065 7.83193 71.9775 7.86093Z" stroke="#437ADA" stroke-width="0.609" stroke-miterlimit="10"/>
<path d="M68.9883 28.1539C69.0953 28.1049 69.1983 28.0859 69.2813 28.1829C69.5843 28.5439 69.8823 28.3199 69.9603 28.0849C70.0923 27.6749 70.3953 27.5379 70.7903 27.4399C70.9853 27.3909 71.0983 27.1859 71.3473 27.1959C71.4063 27.3619 71.1323 27.4889 71.2983 27.6549C71.5273 27.6259 71.6063 27.4009 71.7523 27.3029C72.2703 27.7029 72.8853 27.8109 73.4903 27.6839C73.9933 27.5859 74.1393 27.9279 74.4283 28.0939C74.8533 28.3479 75.1263 28.7579 75.5663 28.9919C75.7763 29.1089 75.9963 29.1579 76.2453 29.1679C76.9243 29.2069 77.2463 29.4799 77.4463 30.0369C77.5973 30.4569 77.8513 30.8279 78.1693 31.1699C78.2323 31.2289 78.2623 31.1799 78.3153 31.1699C78.7543 31.0919 79.0623 31.2579 79.3313 31.5509C79.5603 31.7949 79.9413 31.8049 80.2153 31.7459C80.7183 31.6389 80.9863 31.8919 81.2993 32.1169C81.5193 32.2829 81.7243 32.4389 81.9923 32.5559C82.3003 32.7019 82.3683 33.0249 82.2753 33.3269C82.2363 33.4539 82.1723 33.5709 82.0853 33.6689C81.2313 34.6159 81.1333 35.7689 80.9623 36.9009C80.8843 37.4189 80.5713 37.7799 79.9713 37.9169C79.5413 38.0149 79.2243 38.2879 78.8633 38.4929C78.6343 38.6199 78.6683 38.8049 78.6923 39.0199C78.7313 39.4499 78.6973 39.8599 78.1793 40.0839C78.0913 40.1229 78.0763 40.1819 78.0573 40.2499C78.0333 40.3379 78.0083 40.4159 77.9793 40.4939C77.6713 41.3829 77.4323 41.5099 76.4703 41.2849C76.5823 41.4219 76.6123 41.5879 76.7533 41.7049C77.0703 41.9779 76.9343 42.4569 76.5093 42.5739C76.3773 42.6129 76.2313 42.6419 76.0893 42.6419C75.8203 42.6319 75.6453 42.6809 75.7133 42.9639C75.7723 43.1889 75.6103 43.2569 75.4013 43.3059C75.2843 43.3259 75.0693 43.1689 75.0543 43.3839C75.0493 43.5299 75.1713 43.6769 75.3763 43.7059C75.4203 43.7159 75.4643 43.7349 75.5423 43.7549C75.2103 44.0279 75.3173 44.4189 75.1073 44.7409C74.9853 44.9169 75.2533 45.0529 75.3903 45.1799C75.4683 45.2479 75.6053 45.2579 75.5363 45.4339C75.1063 46.4399 75.3023 46.7909 76.4393 47.1819C76.5073 47.2109 76.6003 47.2109 76.6343 47.3189C76.4833 47.4459 76.3223 47.5829 76.0773 47.5439C75.3203 47.4069 74.5683 47.2609 74.0703 46.6649C73.8013 46.3529 73.5333 46.0299 73.2693 45.7179C73.1813 45.6009 73.0743 45.4929 73.1763 45.3269C73.2353 45.2489 73.1963 45.1709 73.1223 45.1119C72.8443 44.8579 72.8343 44.5549 73.0543 44.2329C73.1863 44.0379 73.0743 43.8419 72.9913 43.6469C72.8103 43.6759 73.0063 43.8809 72.8203 43.8809C72.6933 43.8809 72.6933 43.7639 72.6833 43.6859C72.5763 43.0019 72.1753 42.3579 72.3273 41.6449C72.5133 40.7469 72.1073 39.8869 72.1413 38.9989C72.1653 38.2669 72.1513 37.5339 71.9413 36.8109C71.8923 36.6549 71.8873 36.4889 71.7073 36.4199C70.4373 35.8829 69.8813 34.8179 69.2223 33.8319C68.9833 33.4709 68.8363 33.0609 68.4753 32.7679C68.4023 32.7089 68.4213 32.5629 68.3583 32.4949C68.0463 32.1529 68.8073 31.9089 68.4313 31.4789C68.2413 31.2539 68.5383 30.8149 68.8563 30.5409C69.6333 29.8729 69.6723 28.9259 68.9883 28.1539Z" fill="#437ADA"/>
<path d="M68.9883 28.1539C69.0953 28.1049 69.1983 28.0859 69.2813 28.1829C69.5843 28.5439 69.8823 28.3199 69.9603 28.0849C70.0923 27.6749 70.3953 27.5379 70.7903 27.4399C70.9853 27.3909 71.0983 27.1859 71.3473 27.1959C71.4063 27.3619 71.1323 27.4889 71.2983 27.6549C71.5273 27.6259 71.6063 27.4009 71.7523 27.3029C72.2703 27.7029 72.8853 27.8109 73.4903 27.6839C73.9933 27.5859 74.1393 27.9279 74.4283 28.0939C74.8533 28.3479 75.1263 28.7579 75.5663 28.9919C75.7763 29.1089 75.9963 29.1579 76.2453 29.1679C76.9243 29.2069 77.2463 29.4799 77.4463 30.0369C77.5973 30.4569 77.8513 30.8279 78.1693 31.1699C78.2323 31.2289 78.2623 31.1799 78.3153 31.1699C78.7543 31.0919 79.0623 31.2579 79.3313 31.5509C79.5603 31.7949 79.9413 31.8049 80.2153 31.7459C80.7183 31.6389 80.9863 31.8919 81.2993 32.1169C81.5193 32.2829 81.7243 32.4389 81.9923 32.5559C82.3003 32.7019 82.3683 33.0249 82.2753 33.3269C82.2363 33.4539 82.1723 33.5709 82.0853 33.6689C81.2313 34.6159 81.1333 35.7689 80.9623 36.9009C80.8843 37.4189 80.5713 37.7799 79.9713 37.9169C79.5413 38.0149 79.2243 38.2879 78.8633 38.4929C78.6343 38.6199 78.6683 38.8049 78.6923 39.0199C78.7313 39.4499 78.6973 39.8599 78.1793 40.0839C78.0913 40.1229 78.0763 40.1819 78.0573 40.2499C78.0333 40.3379 78.0083 40.4159 77.9793 40.4939C77.6713 41.3829 77.4323 41.5099 76.4703 41.2849C76.5823 41.4219 76.6123 41.5879 76.7533 41.7049C77.0703 41.9779 76.9343 42.4569 76.5093 42.5739C76.3773 42.6129 76.2313 42.6419 76.0893 42.6419C75.8203 42.6319 75.6453 42.6809 75.7133 42.9639C75.7723 43.1889 75.6103 43.2569 75.4013 43.3059C75.2843 43.3259 75.0693 43.1689 75.0543 43.3839C75.0493 43.5299 75.1713 43.6769 75.3763 43.7059C75.4203 43.7159 75.4643 43.7349 75.5423 43.7549C75.2103 44.0279 75.3173 44.4189 75.1073 44.7409C74.9853 44.9169 75.2533 45.0529 75.3903 45.1799C75.4683 45.2479 75.6053 45.2579 75.5363 45.4339C75.1063 46.4399 75.3023 46.7909 76.4393 47.1819C76.5073 47.2109 76.6003 47.2109 76.6343 47.3189C76.4833 47.4459 76.3223 47.5829 76.0773 47.5439C75.3203 47.4069 74.5683 47.2609 74.0703 46.6649C73.8013 46.3529 73.5333 46.0299 73.2693 45.7179C73.1813 45.6009 73.0743 45.4929 73.1763 45.3269C73.2353 45.2489 73.1963 45.1709 73.1223 45.1119C72.8443 44.8579 72.8343 44.5549 73.0543 44.2329C73.1863 44.0379 73.0743 43.8419 72.9913 43.6469C72.8103 43.6759 73.0063 43.8809 72.8203 43.8809C72.6933 43.8809 72.6933 43.7639 72.6833 43.6859C72.5763 43.0019 72.1753 42.3579 72.3273 41.6449C72.5133 40.7469 72.1073 39.8869 72.1413 38.9989C72.1653 38.2669 72.1513 37.5339 71.9413 36.8109C71.8923 36.6549 71.8873 36.4889 71.7073 36.4199C70.4373 35.8829 69.8813 34.8179 69.2223 33.8319C68.9833 33.4709 68.8363 33.0609 68.4753 32.7679C68.4023 32.7089 68.4213 32.5629 68.3583 32.4949C68.0463 32.1529 68.8073 31.9089 68.4313 31.4789C68.2413 31.2539 68.5383 30.8149 68.8563 30.5409C69.6333 29.8729 69.6723 28.9259 68.9883 28.1539Z" stroke="#437ADA" stroke-width="0.609" stroke-miterlimit="10"/>
<path d="M90.1164 13.3499C89.6284 13.4959 89.0614 13.3009 88.5834 13.5359C88.5394 13.5559 88.4124 13.5359 88.4324 13.4869C88.4864 13.3309 88.6084 13.1839 88.3644 13.0669C88.6764 13.0669 88.4764 12.7549 88.7604 12.7059C89.0684 12.6469 88.8634 12.3939 88.7944 12.3939C88.5454 12.3839 88.4524 12.1689 88.2134 12.1889H88.2234C88.2184 11.6129 88.2184 11.6129 89.1904 11.2219C89.2294 11.3679 89.0094 11.4169 88.9754 11.5539C89.2094 11.5829 89.5464 11.5739 89.2004 11.8569C89.1514 11.8959 89.1274 11.9549 89.1854 11.9939C89.5664 12.2279 89.6054 12.6779 90.1034 12.8339C90.2494 12.8729 90.2544 12.9799 90.1574 13.0489C90.0204 13.1469 90.0794 13.2439 90.1084 13.3519H90.1164V13.3499Z" fill="#3766B0"/>
<path d="M90.1164 13.3499C89.6284 13.4959 89.0614 13.3009 88.5834 13.5359C88.5394 13.5559 88.4124 13.5359 88.4324 13.4869C88.4864 13.3309 88.6084 13.1839 88.3644 13.0669C88.6764 13.0669 88.4764 12.7549 88.7604 12.7059C89.0684 12.6469 88.8634 12.3939 88.7944 12.3939C88.5454 12.3839 88.4524 12.1689 88.2134 12.1889H88.2234C88.2184 11.6129 88.2184 11.6129 89.1904 11.2219C89.2294 11.3679 89.0094 11.4169 88.9754 11.5539C89.2094 11.5829 89.5464 11.5739 89.2004 11.8569C89.1514 11.8959 89.1274 11.9549 89.1854 11.9939C89.5664 12.2279 89.6054 12.6779 90.1034 12.8339C90.2494 12.8729 90.2544 12.9799 90.1574 13.0489C90.0204 13.1469 90.0794 13.2439 90.1084 13.3519H90.1164V13.3499Z" stroke="#437ADA" stroke-width="0.609" stroke-miterlimit="10"/>
<path d="M67.0556 24.863C66.6946 25.097 66.3476 25.039 66.0106 25.058C65.8786 25.058 65.8686 24.931 65.8396 24.824C65.7416 24.531 65.0286 24.101 64.7266 24.16C64.5606 24.189 64.5016 24.346 64.3946 24.453C64.3456 24.492 64.2966 24.541 64.2386 24.492C64.1706 24.443 64.1606 24.355 64.2186 24.297C64.3796 24.131 64.5266 23.975 64.7996 24.004C65.4486 24.063 66.1036 24.072 66.5916 24.609C66.6846 24.717 66.8506 24.756 67.0556 24.863Z" fill="#3766B0"/>
<path d="M67.0556 24.863C66.6946 25.097 66.3476 25.039 66.0106 25.058C65.8786 25.058 65.8686 24.931 65.8396 24.824C65.7416 24.531 65.0286 24.101 64.7266 24.16C64.5606 24.189 64.5016 24.346 64.3946 24.453C64.3456 24.492 64.2966 24.541 64.2386 24.492C64.1706 24.443 64.1606 24.355 64.2186 24.297C64.3796 24.131 64.5266 23.975 64.7996 24.004C65.4486 24.063 66.1036 24.072 66.5916 24.609C66.6846 24.717 66.8506 24.756 67.0556 24.863Z" stroke="#437ADA" stroke-width="0.609" stroke-miterlimit="10"/>
<path d="M87.6943 5.54688C87.8553 5.38088 88.0263 5.26388 88.2703 5.43988C88.4603 5.58588 88.6803 5.49888 88.8853 5.47888C89.1243 5.45888 89.3643 5.41988 89.6083 5.41088C89.7303 5.41088 89.8423 5.48888 89.8773 5.61588C89.9063 5.73288 89.8383 5.84088 89.7403 5.87988C89.4423 5.97788 89.1393 6.06588 88.8323 6.14388C88.4763 6.25088 88.2803 6.03688 88.1043 5.77288C88.0173 5.63488 87.7723 5.74188 87.6943 5.54688Z" fill="#3766B0"/>
<path d="M87.6943 5.54688C87.8553 5.38088 88.0263 5.26388 88.2703 5.43988C88.4603 5.58588 88.6803 5.49888 88.8853 5.47888C89.1243 5.45888 89.3643 5.41988 89.6083 5.41088C89.7303 5.41088 89.8423 5.48888 89.8773 5.61588C89.9063 5.73288 89.8383 5.84088 89.7403 5.87988C89.4423 5.97788 89.1393 6.06588 88.8323 6.14388C88.4763 6.25088 88.2803 6.03688 88.1043 5.77288C88.0173 5.63488 87.7723 5.74188 87.6943 5.54688Z" stroke="#437ADA" stroke-width="0.609" stroke-miterlimit="10"/>
<path d="M70.6835 8.2128C70.4685 8.0078 70.3175 8.3588 70.1175 8.2718C70.1515 8.0468 69.9665 8.0958 69.8835 8.1348C69.6445 8.2518 69.5275 8.1058 69.4005 7.9588C69.3515 7.9098 69.2495 7.8908 69.2935 7.7928C69.3325 7.7048 69.4395 7.7538 69.4835 7.7338C69.7915 7.5388 70.1135 7.4308 70.4845 7.5088C70.5335 7.6458 70.3085 7.8208 70.4845 7.9088C70.6455 7.9868 70.7285 7.7718 70.8265 7.6648C71.1145 7.3718 71.4755 7.5188 71.8865 7.4788C71.6475 7.7328 71.4225 7.8398 71.1495 7.8788C70.9415 7.9098 70.7075 7.9198 70.6835 8.2128Z" fill="#3766B0"/>
<path d="M70.6835 8.2128C70.4685 8.0078 70.3175 8.3588 70.1175 8.2718C70.1515 8.0468 69.9665 8.0958 69.8835 8.1348C69.6445 8.2518 69.5275 8.1058 69.4005 7.9588C69.3515 7.9098 69.2495 7.8908 69.2935 7.7928C69.3325 7.7048 69.4395 7.7538 69.4835 7.7338C69.7915 7.5388 70.1135 7.4308 70.4845 7.5088C70.5335 7.6458 70.3085 7.8208 70.4845 7.9088C70.6455 7.9868 70.7285 7.7718 70.8265 7.6648C71.1145 7.3718 71.4755 7.5188 71.8865 7.4788C71.6475 7.7328 71.4225 7.8398 71.1495 7.8788C70.9415 7.9098 70.7075 7.9198 70.6835 8.2128Z" stroke="#437ADA" stroke-width="0.609" stroke-miterlimit="10"/>
<path d="M88.2126 12.188C88.3836 12.657 87.9046 13.174 87.2846 13.194C87.1676 13.204 87.0456 13.194 86.9726 13.116C86.8796 13.009 87.0166 12.96 87.0946 12.901C87.1336 12.881 87.1826 12.862 87.1976 12.823C87.3346 12.325 87.5586 12.188 88.2226 12.188H88.2126V12.188Z" fill="#3766B0"/>
<path d="M88.2126 12.188C88.3836 12.657 87.9046 13.174 87.2846 13.194C87.1676 13.204 87.0456 13.194 86.9726 13.116C86.8796 13.009 87.0166 12.96 87.0946 12.901C87.1336 12.881 87.1826 12.862 87.1976 12.823C87.3346 12.325 87.5586 12.188 88.2226 12.188H88.2126V12.188Z" stroke="#437ADA" stroke-width="0.609" stroke-miterlimit="10"/>
<path d="M66.8115 25.5468C67.0845 25.4098 67.4755 25.4588 67.3925 25.0288C67.6615 25.0288 67.9295 24.9998 68.1885 25.0488C68.3495 25.0778 68.5205 25.1948 68.5985 25.3708C68.6275 25.4388 68.5985 25.5168 68.5255 25.5078C67.9785 25.4878 67.4455 25.8888 66.8115 25.5468Z" fill="#3766B0"/>
<path d="M66.8115 25.5468C67.0845 25.4098 67.4755 25.4588 67.3925 25.0288C67.6615 25.0288 67.9295 24.9998 68.1885 25.0488C68.3495 25.0778 68.5205 25.1948 68.5985 25.3708C68.6275 25.4388 68.5985 25.5168 68.5255 25.5078C67.9785 25.4878 67.4455 25.8888 66.8115 25.5468Z" stroke="#437ADA" stroke-width="0.609" stroke-miterlimit="10"/>
<path d="M52.5196 11.9238C52.5876 11.9528 52.6616 11.9918 52.7346 12.0308C51.9096 12.5778 51.0016 12.8708 50.0346 12.9778C50.0196 12.9388 50.0106 12.8998 49.9956 12.8708C50.8346 12.5488 51.6796 12.2358 52.5196 11.9238Z" fill="#3766B0"/>
<path d="M52.5196 11.9238C52.5876 11.9528 52.6616 11.9918 52.7346 12.0308C51.9096 12.5778 51.0016 12.8708 50.0346 12.9778C50.0196 12.9388 50.0106 12.8998 49.9956 12.8708C50.8346 12.5488 51.6796 12.2358 52.5196 11.9238Z" stroke="#437ADA" stroke-width="0.609" stroke-miterlimit="10"/>
<path d="M70.0728 10.1368C70.3708 9.9028 70.6638 9.6578 71.0498 9.5708C71.0258 9.8438 71.3038 9.8738 71.4408 10.0098C71.5238 10.0978 71.6608 10.1658 71.5968 10.3028C71.5288 10.4488 71.3768 10.4098 71.2848 10.3418C71.0848 10.1858 70.9288 10.2538 70.7628 10.3908C70.6698 10.4688 70.5578 10.5078 70.4358 10.4108C70.2458 10.2548 70.4898 10.1958 70.4948 10.0788C70.3268 9.9798 70.2148 10.1658 70.0728 10.1368Z" fill="#3766B0"/>
<path d="M70.0728 10.1368C70.3708 9.9028 70.6638 9.6578 71.0498 9.5708C71.0258 9.8438 71.3038 9.8738 71.4408 10.0098C71.5238 10.0978 71.6608 10.1658 71.5968 10.3028C71.5288 10.4488 71.3768 10.4098 71.2848 10.3418C71.0848 10.1858 70.9288 10.2538 70.7628 10.3908C70.6698 10.4688 70.5578 10.5078 70.4358 10.4108C70.2458 10.2548 70.4898 10.1958 70.4948 10.0788C70.3268 9.9798 70.2148 10.1658 70.0728 10.1368Z" stroke="#437ADA" stroke-width="0.609" stroke-miterlimit="10"/>
<path d="M73.8177 8.83789C73.9887 8.84789 73.9107 8.94489 73.8857 9.02389C73.7397 9.13089 73.6077 9.24889 73.4467 9.33589C73.3687 9.37489 73.2177 9.36489 73.1777 9.24789C73.1377 9.13089 73.2407 9.06189 73.3537 9.03289C73.5157 8.99389 73.7297 9.06189 73.8177 8.83789Z" fill="#3766B0"/>
<path d="M73.8177 8.83789C73.9887 8.84789 73.9107 8.94489 73.8857 9.02389C73.7397 9.13089 73.6077 9.24889 73.4467 9.33589C73.3687 9.37489 73.2177 9.36489 73.1777 9.24789C73.1377 9.13089 73.2407 9.06189 73.3537 9.03289C73.5157 8.99389 73.7297 9.06189 73.8177 8.83789Z" stroke="#437ADA" stroke-width="0.609" stroke-miterlimit="10"/>
<path d="M69.8337 8.45679C69.8827 8.60279 69.8967 8.73979 69.6777 8.74979C69.7457 8.66179 69.7117 8.51579 69.8337 8.45679Z" fill="#3766B0"/>
<path d="M69.8337 8.45679C69.8827 8.60279 69.8967 8.73979 69.6777 8.74979C69.7457 8.66179 69.7117 8.51579 69.8337 8.45679Z" stroke="#437ADA" stroke-width="0.609" stroke-miterlimit="10"/>
<path d="M69.7793 10.2729C69.8133 10.0869 69.9453 10.1169 70.0773 10.1359C69.9943 10.2249 69.8963 10.2729 69.7793 10.2729Z" fill="#3766B0"/>
<path d="M69.7793 10.2729C69.8133 10.0869 69.9453 10.1169 70.0773 10.1359C69.9943 10.2249 69.8963 10.2729 69.7793 10.2729Z" stroke="#437ADA" stroke-width="0.609" stroke-miterlimit="10"/>
<path d="M70.1267 8.271C70.0977 8.438 69.9998 8.496 69.8438 8.447C69.9118 8.35 70.0097 8.301 70.1267 8.271Z" fill="#3766B0"/>
<path d="M70.1267 8.271C70.0977 8.438 69.9998 8.496 69.8438 8.447C69.9118 8.35 70.0097 8.301 70.1267 8.271Z" stroke="#437ADA" stroke-width="0.609" stroke-miterlimit="10"/>
<path d="M73.5107 8.58383C73.5987 8.57383 73.6767 8.59383 73.6717 8.70083C73.6177 8.66183 73.5637 8.62283 73.5107 8.58383Z" fill="#3766B0"/>
<path d="M73.5107 8.58383C73.5987 8.57383 73.6767 8.59383 73.6717 8.70083C73.6177 8.66183 73.5637 8.62283 73.5107 8.58383Z" stroke="#437ADA" stroke-width="0.609" stroke-miterlimit="10"/>
<path d="M73.6714 8.70078C73.7394 8.69078 73.7744 8.72978 73.7784 8.78878C73.7444 8.75978 73.7104 8.72978 73.6714 8.70078Z" fill="#3766B0"/>
<path d="M73.6714 8.70078C73.7394 8.69078 73.7744 8.72978 73.7784 8.78878C73.7444 8.75978 73.7104 8.72978 73.6714 8.70078Z" stroke="#437ADA" stroke-width="0.609" stroke-miterlimit="10"/>
<path d="M54.4336 11.543L54.4426 11.572L54.4336 11.553V11.543Z" fill="#3766B0"/>
<path d="M54.4336 11.543L54.4426 11.572L54.4336 11.553V11.543Z" stroke="#437ADA" stroke-width="0.609" stroke-miterlimit="10"/>
<path d="M54.5205 11.3568C54.5695 11.3078 54.6525 11.2588 54.6915 11.3178C54.7545 11.3958 54.6285 11.3958 54.5935 11.4448C54.5695 11.4158 54.5455 11.3868 54.5205 11.3568Z" fill="#3766B0"/>
<path d="M54.5205 11.3568C54.5695 11.3078 54.6525 11.2588 54.6915 11.3178C54.7545 11.3958 54.6285 11.3958 54.5935 11.4448C54.5695 11.4158 54.5455 11.3868 54.5205 11.3568Z" stroke="#437ADA" stroke-width="0.609" stroke-miterlimit="10"/>
<path d="M75.0386 14.072C75.0676 14.062 75.1266 14.043 75.1266 14.043C75.1556 14.092 75.1166 14.102 75.0776 14.111C75.0676 14.102 75.0536 14.092 75.0386 14.072Z" fill="#3766B0"/>
<path d="M75.0386 14.072C75.0676 14.062 75.1266 14.043 75.1266 14.043C75.1556 14.092 75.1166 14.102 75.0776 14.111C75.0676 14.102 75.0536 14.092 75.0386 14.072Z" stroke="#437ADA" stroke-width="0.609" stroke-miterlimit="10"/>
<path d="M72.5486 7.8808C72.5196 7.8908 72.4996 7.8908 72.4756 7.9008C72.4906 7.8808 72.4996 7.8618 72.5146 7.8418C72.5236 7.8518 72.5336 7.8608 72.5486 7.8808Z" fill="#3766B0"/>
<path d="M72.5486 7.8808C72.5196 7.8908 72.4996 7.8908 72.4756 7.9008C72.4906 7.8808 72.4996 7.8618 72.5146 7.8418C72.5236 7.8518 72.5336 7.8608 72.5486 7.8808Z" stroke="#437ADA" stroke-width="0.609" stroke-miterlimit="10"/>
<path d="M65.6396 7.98785C65.6736 7.97785 65.7326 7.94885 65.7426 7.95885C65.7816 8.00785 65.7326 8.02685 65.6986 8.04685C65.6786 8.02685 65.6586 8.00785 65.6396 7.98785Z" fill="#3766B0"/>
<path d="M65.6396 7.98785C65.6736 7.97785 65.7326 7.94885 65.7426 7.95885C65.7816 8.00785 65.7326 8.02685 65.6986 8.04685C65.6786 8.02685 65.6586 8.00785 65.6396 7.98785Z" stroke="#437ADA" stroke-width="0.609" stroke-miterlimit="10"/>
</g>
<path d="M121.05 17.7439C121.143 17.8809 121.148 18.0369 121.143 18.1929C121.123 18.6719 120.997 19.1109 120.738 19.5109C120.665 19.6279 120.582 19.7449 120.494 19.8429C120.265 20.1259 120.035 20.4089 119.806 20.6829C119.625 20.9079 119.445 21.1219 119.259 21.3369C118.947 21.7179 118.629 22.0989 118.312 22.4699C118.244 22.5579 118.219 22.6459 118.244 22.7529C118.591 24.3839 118.937 26.0049 119.289 27.6359C119.523 28.7489 119.763 29.8629 120.002 30.9759C120.022 31.0639 120.007 31.1319 119.948 31.2009C119.631 31.5719 119.328 31.9429 119.015 32.3239C119.005 32.3339 118.995 32.3439 118.986 32.3529C117.79 30.2339 116.593 28.1149 115.397 25.9859C115.392 25.9959 115.387 25.9959 115.382 25.9959C115.25 26.1619 115.113 26.3179 114.982 26.4839C114.894 26.5909 114.806 26.6989 114.718 26.8059C114.479 27.0889 114.239 27.3719 114 27.6559C113.878 27.7929 113.746 27.9099 113.614 28.0369C113.599 28.0659 113.585 28.0469 113.565 28.0369C113.492 27.9779 113.419 27.9099 113.34 27.8509C113.194 27.7339 113.047 27.6069 112.905 27.4899C112.656 27.2849 112.407 27.0799 112.153 26.8649C112.202 26.7869 112.241 26.7189 112.29 26.6499C112.363 26.5619 112.436 26.4639 112.51 26.3769C112.954 25.8399 113.404 25.3029 113.853 24.7659C113.858 24.7559 113.868 24.7459 113.882 24.7269C111.572 23.9359 109.268 23.1449 106.963 22.3539C106.973 22.3339 106.983 22.3339 106.992 22.3249C107.285 21.9639 107.583 21.6019 107.881 21.2509C107.901 21.2219 107.92 21.2019 107.94 21.1829C107.994 21.1339 108.057 21.1049 108.13 21.1049C109.395 21.1439 110.659 21.1729 111.919 21.2119C113.052 21.2409 114.18 21.2709 115.313 21.3099C115.713 21.3199 116.114 21.3299 116.514 21.3389C116.646 21.3489 116.748 21.2999 116.826 21.2019C117.314 20.6059 117.803 20.0109 118.296 19.4249C118.555 19.1129 118.818 18.7999 119.087 18.4869C119.463 18.0569 119.941 17.7839 120.503 17.6569C120.552 17.6469 120.606 17.6369 120.654 17.6279C120.761 17.6179 120.864 17.6279 120.957 17.6669C120.991 17.6949 121.021 17.7249 121.05 17.7439Z" fill="#437ADA"/>
<path d="M116.221 24.1699C114.346 25.5369 107.178 34.7749 99.2577 41.4359C89.5017 49.6389 84.4137 51.3679 76.7777 51.7969C63.4427 52.5489 52.5977 40.7809 52.5977 27.1969C52.5977 13.6029 63.4227 2.58789 76.7777 2.58789C90.1277 2.58789 100.953 13.6039 100.953 27.1969C100.953 29.9309 100.514 31.7279 99.6977 34.1889C99.6587 34.2959 97.9257 35.2629 97.8857 35.3799" stroke="#437ADA" stroke-width="1.384" stroke-miterlimit="10"/>
<path d="M113 27L108.856 27.5778" stroke="#437ADA" stroke-miterlimit="10"/>
<path d="M113.5 27.5L113.5 31" stroke="#437ADA" stroke-miterlimit="10"/>
<path d="M109.16 60.576H108.139V52.832H109.16V60.576Z" fill="#062862"/>
<path d="M115.4 58.555H112.148L111.42 60.576H110.365L113.329 52.832H114.223L117.187 60.576H116.137L115.4 58.555ZM112.461 57.715H115.093L113.775 54.092L112.461 57.715Z" fill="#062862"/>
<path d="M122.9 53.662H120.41V60.576H119.389V53.662H116.904V52.832H122.9V53.662Z" fill="#062862"/>
<path d="M127.915 58.555H124.668L123.936 60.576H122.886L125.845 52.832H126.739L129.703 60.576H128.653L127.915 58.555ZM124.976 57.715H127.613L126.29 54.092L124.976 57.715Z" fill="#062862"/>
<path d="M139.404 60.576H138.379L134.473 54.609V60.576H133.448V52.832H134.473L138.389 58.828V52.832H139.405V60.576H139.404Z" fill="#062862"/>
<path d="M141.221 60.576V52.832H143.409C144.083 52.832 144.679 52.978 145.196 53.281C145.714 53.574 146.114 53.994 146.397 54.551C146.68 55.098 146.822 55.733 146.827 56.446V56.944C146.827 57.667 146.685 58.311 146.402 58.858C146.119 59.415 145.718 59.835 145.196 60.128C144.669 60.421 144.058 60.577 143.365 60.577H141.221V60.576ZM142.241 53.662V59.746H143.315C144.106 59.746 144.716 59.502 145.156 59.014C145.595 58.516 145.81 57.823 145.81 56.914V56.465C145.81 55.586 145.605 54.903 145.195 54.404C144.78 53.916 144.194 53.672 143.432 53.662H142.241Z" fill="#062862"/>
<path d="M154.071 58.1249C153.973 58.9449 153.671 59.5699 153.163 60.0199C152.65 60.4689 151.976 60.6839 151.132 60.6839C150.214 60.6839 149.482 60.3619 148.93 59.7069C148.378 59.0429 148.105 58.1639 148.105 57.0699V56.3179C148.105 55.6049 148.232 54.9699 148.486 54.4229C148.745 53.8759 149.111 53.4559 149.58 53.1629C150.054 52.8699 150.601 52.7239 151.221 52.7239C152.046 52.7239 152.705 52.9489 153.203 53.4079C153.701 53.8669 153.989 54.5119 154.072 55.3219H153.042C152.954 54.6969 152.764 54.2579 152.466 53.9739C152.168 53.7009 151.753 53.5539 151.221 53.5539C150.567 53.5539 150.059 53.7979 149.688 54.2859C149.317 54.7649 149.131 55.4479 149.131 56.3469V57.0999C149.131 57.9399 149.307 58.6039 149.658 59.1019C150.009 59.5999 150.498 59.8539 151.133 59.8539C151.699 59.8539 152.134 59.7269 152.437 59.4629C152.745 59.2089 152.945 58.7599 153.042 58.1249H154.071V58.1249Z" fill="#062862"/>
<path d="M163.867 58.1249C163.769 58.9449 163.467 59.5699 162.959 60.0199C162.451 60.4699 161.772 60.6839 160.928 60.6839C160.01 60.6839 159.278 60.3619 158.726 59.7069C158.174 59.0429 157.901 58.1639 157.901 57.0699V56.3179C157.901 55.6049 158.028 54.9699 158.287 54.4229C158.541 53.8759 158.907 53.4559 159.381 53.1629C159.85 52.8699 160.397 52.7239 161.017 52.7239C161.842 52.7239 162.501 52.9489 162.999 53.4079C163.497 53.8669 163.785 54.5119 163.868 55.3219H162.838C162.75 54.6969 162.56 54.2579 162.262 53.9739C161.964 53.7009 161.554 53.5539 161.017 53.5539C160.368 53.5539 159.855 53.7979 159.484 54.2859C159.113 54.7649 158.927 55.4479 158.927 56.3469V57.0999C158.927 57.9399 159.103 58.6039 159.454 59.1019C159.805 59.5999 160.299 59.8539 160.929 59.8539C161.495 59.8539 161.935 59.7269 162.238 59.4629C162.541 59.2089 162.741 58.7599 162.839 58.1249H163.867V58.1249Z" fill="#062862"/>
<path d="M167.5 60.6838C166.719 60.6838 166.079 60.4298 165.591 59.9218C165.103 59.4038 164.859 58.7208 164.859 57.8608V57.6748C164.859 57.1088 164.966 56.6008 165.186 56.1518C165.401 55.7028 165.708 55.3508 166.099 55.0968C166.495 54.8428 166.914 54.7158 167.373 54.7158C168.125 54.7158 168.706 54.9598 169.121 55.4478C169.531 55.9458 169.746 56.6488 169.746 57.5768V57.9768H165.84C165.855 58.5528 166.021 59.0118 166.338 59.3538C166.655 59.7058 167.061 59.8808 167.549 59.8808C167.901 59.8808 168.194 59.8128 168.433 59.6658C168.677 59.5288 168.887 59.3338 169.068 59.0998L169.669 59.5688C169.185 60.3118 168.462 60.6838 167.5 60.6838ZM167.373 55.5268C166.977 55.5268 166.645 55.6638 166.372 55.9568C166.103 56.2498 165.937 56.6498 165.874 57.1778H168.76V57.0998C168.731 56.6018 168.594 56.2108 168.355 55.9378C168.116 55.6648 167.788 55.5268 167.373 55.5268Z" fill="#062862"/>
<path d="M173.672 55.703C173.516 55.683 173.36 55.664 173.184 55.664C172.539 55.664 172.1 55.937 171.866 56.494V60.576H170.88V54.824H171.847L171.857 55.488C172.179 54.97 172.638 54.717 173.234 54.717C173.42 54.717 173.566 54.737 173.673 54.785V55.703H173.672Z" fill="#062862"/>
<path d="M176.172 53.428V54.824H177.246V55.586H176.172V59.16C176.172 59.394 176.221 59.56 176.309 59.678C176.407 59.795 176.573 59.854 176.807 59.854C176.914 59.854 177.071 59.834 177.276 59.786V60.587C177.012 60.655 176.758 60.685 176.514 60.685C176.075 60.685 175.743 60.558 175.518 60.294C175.293 60.021 175.186 59.649 175.186 59.151V55.587H174.141V54.825H175.186V53.429H176.172V53.428Z" fill="#062862"/>
<path d="M178.397 53.2909C178.397 53.1349 178.446 52.9979 178.543 52.8909C178.641 52.7739 178.787 52.7249 178.982 52.7249C179.168 52.7249 179.314 52.7739 179.412 52.8909C179.51 52.9979 179.568 53.1349 179.568 53.2909C179.568 53.4569 179.509 53.5839 179.412 53.6909C179.315 53.7979 179.168 53.8469 178.982 53.8469C178.787 53.8469 178.64 53.7979 178.543 53.6909C178.446 53.5839 178.397 53.4569 178.397 53.2909ZM179.462 60.5759H178.476V54.8239H179.462V60.5759Z" fill="#062862"/>
<path d="M181.367 60.5759V55.5859H180.458V54.8239H181.367V54.3359C181.367 53.6909 181.552 53.1839 181.923 52.8319C182.284 52.4709 182.813 52.2949 183.477 52.2949C183.877 52.2949 184.374 52.4019 184.99 52.6169L184.824 53.4469C184.375 53.2709 183.955 53.1829 183.554 53.1829C183.134 53.1829 182.831 53.2709 182.636 53.4659C182.45 53.6519 182.363 53.9449 182.363 54.3159V54.8239H183.535V55.5859H182.363V60.5759H181.367V60.5759ZM185.479 60.5759H184.482V54.8239H185.479V60.5759Z" fill="#062862"/>
<path d="M189.473 60.6838C188.692 60.6838 188.057 60.4298 187.559 59.9218C187.071 59.4038 186.827 58.7208 186.827 57.8608V57.6748C186.827 57.1088 186.934 56.6008 187.159 56.1518C187.374 55.7028 187.677 55.3508 188.077 55.0968C188.468 54.8428 188.888 54.7158 189.347 54.7158C190.099 54.7158 190.675 54.9598 191.095 55.4478C191.505 55.9458 191.72 56.6488 191.72 57.5768V57.9768H187.814C187.834 58.5528 188 59.0118 188.312 59.3538C188.634 59.7058 189.035 59.8808 189.523 59.8808C189.875 59.8808 190.168 59.8128 190.412 59.6658C190.646 59.5288 190.861 59.3338 191.037 59.0998L191.642 59.5688C191.162 60.3118 190.43 60.6838 189.473 60.6838ZM189.346 55.5268C188.946 55.5268 188.614 55.6638 188.35 55.9568C188.077 56.2498 187.911 56.6498 187.842 57.1778H190.733V57.0998C190.704 56.6018 190.567 56.2108 190.323 55.9378C190.088 55.6638 189.756 55.5268 189.346 55.5268Z" fill="#062862"/>
<path d="M192.617 57.6559C192.617 56.7669 192.822 56.0539 193.242 55.5169C193.662 54.9799 194.209 54.7159 194.892 54.7159C195.566 54.7159 196.093 54.9409 196.494 55.4089V52.4009H197.48V60.5749H196.572L196.523 59.9599C196.132 60.4479 195.576 60.6829 194.882 60.6829C194.208 60.6829 193.661 60.4099 193.241 59.8629C192.821 59.3159 192.616 58.6029 192.616 57.7239V57.6559H192.617ZM193.604 57.7639C193.604 58.4179 193.731 58.9259 194.004 59.2969C194.277 59.6679 194.649 59.8539 195.127 59.8539C195.752 59.8539 196.201 59.5709 196.494 59.0139V56.3679C196.191 55.8209 195.742 55.5479 195.137 55.5479C194.649 55.5479 194.278 55.7339 194.004 56.1139C193.73 56.4839 193.604 57.0309 193.604 57.7639Z" fill="#062862"/>
<path d="M202.949 60.576H201.933V52.832H202.949V60.576Z" fill="#062862"/>
<path d="M210.029 53.662H207.539V60.576H206.514V53.662H204.034V52.832H210.03V53.662H210.029Z" fill="#062862"/>
<path d="M214.688 57.549V60.576H213.672V52.832H216.524C217.374 52.832 218.038 53.047 218.516 53.477C219.004 53.916 219.239 54.483 219.239 55.196C219.239 55.948 219.005 56.534 218.536 56.934C218.067 57.344 217.393 57.549 216.515 57.549H214.688V57.549ZM214.688 56.709H216.524C217.071 56.709 217.491 56.582 217.784 56.328C218.077 56.064 218.223 55.693 218.223 55.205C218.223 54.746 218.077 54.375 217.784 54.101C217.491 53.818 217.091 53.671 216.583 53.662H214.688V56.709Z" fill="#062862"/>
<path d="M222.949 55.703C222.793 55.683 222.637 55.664 222.461 55.664C221.816 55.664 221.377 55.937 221.143 56.494V60.576H220.166V54.824H221.123L221.133 55.488C221.465 54.97 221.914 54.717 222.51 54.717C222.705 54.717 222.852 54.737 222.949 54.785V55.703V55.703Z" fill="#062862"/>
<path d="M223.359 57.646C223.359 57.08 223.476 56.572 223.691 56.123C223.916 55.674 224.228 55.322 224.619 55.078C225.019 54.834 225.469 54.717 225.976 54.717C226.757 54.717 227.392 54.99 227.88 55.528C228.359 56.075 228.603 56.798 228.603 57.696V57.764C228.603 58.33 228.496 58.828 228.281 59.278C228.066 59.717 227.763 60.069 227.363 60.313C226.963 60.567 226.504 60.684 225.986 60.684C225.205 60.684 224.57 60.42 224.091 59.873C223.603 59.326 223.359 58.613 223.359 57.715V57.646V57.646ZM224.355 57.764C224.355 58.399 224.501 58.916 224.794 59.307C225.097 59.688 225.487 59.883 225.985 59.883C226.483 59.883 226.883 59.688 227.176 59.297C227.469 58.906 227.615 58.35 227.615 57.647C227.615 57.012 227.469 56.504 227.166 56.114C226.873 55.723 226.473 55.528 225.975 55.528C225.487 55.528 225.096 55.714 224.803 56.104C224.502 56.494 224.355 57.041 224.355 57.764Z" fill="#062862"/>
<path d="M231.513 59.248L232.939 54.824H233.945L231.884 60.576H231.132L229.042 54.824H230.048L231.513 59.248Z" fill="#062862"/>
<path d="M234.667 53.2909C234.667 53.1349 234.716 52.9979 234.813 52.8909C234.911 52.7739 235.057 52.7249 235.252 52.7249C235.438 52.7249 235.584 52.7739 235.682 52.8909C235.78 52.9979 235.838 53.1349 235.838 53.2909C235.838 53.4569 235.779 53.5839 235.682 53.6909C235.585 53.7979 235.438 53.8469 235.252 53.8469C235.057 53.8469 234.91 53.7979 234.813 53.6909C234.716 53.5839 234.667 53.4569 234.667 53.2909ZM235.731 60.5759H234.745V54.8239H235.731V60.5759Z" fill="#062862"/>
<path d="M236.846 57.6559C236.846 56.7669 237.051 56.0539 237.471 55.5169C237.891 54.9799 238.438 54.7159 239.112 54.7159C239.786 54.7159 240.323 54.9409 240.723 55.4089V52.4009H241.7V60.5749H240.802L240.753 59.9599C240.353 60.4479 239.806 60.6829 239.103 60.6829C238.439 60.6829 237.892 60.4099 237.472 59.8629C237.052 59.3159 236.847 58.6029 236.847 57.7239V57.6559H236.846ZM237.822 57.7639C237.822 58.4179 237.959 58.9259 238.232 59.2969C238.496 59.6679 238.877 59.8539 239.345 59.8539C239.97 59.8539 240.429 59.5709 240.722 59.0139V56.3679C240.419 55.8209 239.97 55.5479 239.355 55.5479C238.876 55.5479 238.496 55.7339 238.232 56.1139C237.959 56.4839 237.822 57.0309 237.822 57.7639Z" fill="#062862"/>
<path d="M245.391 60.6838C244.61 60.6838 243.975 60.4298 243.487 59.9218C242.999 59.4038 242.755 58.7208 242.755 57.8608V57.6748C242.755 57.1088 242.862 56.6008 243.077 56.1518C243.302 55.7028 243.604 55.3508 243.995 55.0968C244.386 54.8428 244.815 54.7158 245.274 54.7158C246.016 54.7158 246.602 54.9598 247.012 55.4478C247.432 55.9458 247.637 56.6488 247.637 57.5768V57.9768H243.741C243.751 58.5528 243.917 59.0118 244.239 59.3538C244.551 59.7058 244.952 59.8808 245.45 59.8808C245.792 59.8808 246.085 59.8128 246.329 59.6658C246.573 59.5288 246.778 59.3338 246.964 59.0998L247.56 59.5688C247.08 60.3118 246.357 60.6838 245.391 60.6838ZM245.273 55.5268C244.873 55.5268 244.541 55.6638 244.267 55.9568C244.003 56.2498 243.828 56.6498 243.769 57.1778H246.65V57.0998C246.621 56.6018 246.484 56.2108 246.25 55.9378C246.006 55.6638 245.684 55.5268 245.273 55.5268Z" fill="#062862"/>
<path d="M251.328 55.703C251.182 55.683 251.025 55.664 250.849 55.664C250.204 55.664 249.765 55.937 249.531 56.494V60.576H248.545V54.824H249.512L249.522 55.488C249.844 54.97 250.303 54.717 250.899 54.717C251.094 54.717 251.231 54.737 251.329 54.785V55.703H251.328Z" fill="#062862"/>
<path d="M258.262 60.576C258.203 60.469 258.164 60.264 258.125 59.971C257.666 60.45 257.119 60.684 256.484 60.684C255.918 60.684 255.449 60.528 255.088 60.205C254.727 59.882 254.541 59.473 254.541 58.984C254.541 58.379 254.775 57.92 255.225 57.588C255.684 57.256 256.329 57.09 257.149 57.09H258.106V56.631C258.106 56.289 258.008 56.016 257.803 55.811C257.598 55.606 257.295 55.508 256.895 55.508C256.543 55.508 256.25 55.596 256.006 55.772C255.772 55.948 255.654 56.163 255.654 56.417H254.658C254.658 56.134 254.765 55.851 254.97 55.587C255.165 55.314 255.449 55.108 255.8 54.952C256.142 54.796 256.532 54.718 256.952 54.718C257.616 54.718 258.134 54.884 258.505 55.216C258.886 55.548 259.081 55.997 259.091 56.583V59.239C259.091 59.766 259.159 60.186 259.296 60.499V60.577H258.262V60.576ZM256.631 59.834C256.943 59.834 257.227 59.746 257.51 59.59C257.783 59.434 257.989 59.219 258.106 58.965V57.783H257.335C256.134 57.783 255.528 58.144 255.528 58.847C255.528 59.15 255.635 59.394 255.84 59.57C256.045 59.746 256.309 59.834 256.631 59.834Z" fill="#062862"/>
<path d="M261.572 54.824L261.601 55.547C262.04 54.99 262.617 54.717 263.33 54.717C264.541 54.717 265.156 55.401 265.166 56.778V60.577H264.18V56.768C264.18 56.358 264.082 56.045 263.897 55.85C263.711 55.645 263.428 55.547 263.028 55.547C262.716 55.547 262.432 55.635 262.188 55.801C261.944 55.977 261.758 56.201 261.622 56.475V60.577H260.645V54.825H261.572V54.824Z" fill="#062862"/>
<path d="M266.416 57.6559C266.416 56.7669 266.621 56.0539 267.041 55.5169C267.461 54.9799 268.008 54.7159 268.691 54.7159C269.365 54.7159 269.892 54.9409 270.293 55.4089V52.4009H271.279V60.5749H270.371L270.322 59.9599C269.931 60.4479 269.384 60.6829 268.681 60.6829C268.007 60.6829 267.47 60.4099 267.04 59.8629C266.62 59.3159 266.415 58.6029 266.415 57.7239V57.6559H266.416ZM267.402 57.7639C267.402 58.4179 267.539 58.9259 267.802 59.2969C268.075 59.6679 268.447 59.8539 268.925 59.8539C269.55 59.8539 269.999 59.5709 270.292 59.0139V56.3679C269.999 55.8209 269.54 55.5479 268.935 55.5479C268.447 55.5479 268.076 55.7339 267.802 56.1139C267.539 56.4839 267.402 57.0309 267.402 57.7639Z" fill="#062862"/>
<path d="M279.941 58.555H276.689L275.957 60.576H274.902L277.871 52.832H278.76L281.729 60.576H280.674L279.941 58.555ZM277.002 57.715H279.629L278.311 54.092L277.002 57.715Z" fill="#062862"/>
<path d="M282.383 57.656C282.383 56.758 282.588 56.035 283.008 55.508C283.418 54.981 283.965 54.717 284.658 54.717C285.361 54.717 285.908 54.961 286.299 55.459L286.348 54.824H287.246V60.439C287.246 61.191 287.021 61.777 286.582 62.207C286.143 62.637 285.547 62.852 284.805 62.852C284.385 62.852 283.985 62.764 283.584 62.579C283.184 62.403 282.881 62.159 282.676 61.856L283.184 61.26C283.604 61.787 284.122 62.041 284.737 62.041C285.216 62.041 285.587 61.914 285.86 61.641C286.124 61.368 286.26 60.987 286.26 60.498V60.01C285.86 60.459 285.322 60.684 284.649 60.684C283.965 60.684 283.428 60.42 283.008 59.873C282.588 59.326 282.383 58.594 282.383 57.656ZM283.369 57.764C283.369 58.418 283.506 58.926 283.769 59.297C284.032 59.668 284.404 59.854 284.882 59.854C285.507 59.854 285.966 59.571 286.259 59.004V56.377C285.956 55.82 285.497 55.547 284.902 55.547C284.423 55.547 284.043 55.733 283.779 56.113C283.506 56.484 283.369 57.031 283.369 57.764Z" fill="#062862"/>
<path d="M288.496 57.656C288.496 56.758 288.701 56.035 289.121 55.508C289.531 54.981 290.088 54.717 290.771 54.717C291.474 54.717 292.021 54.961 292.412 55.459L292.461 54.824H293.359V60.439C293.359 61.191 293.144 61.777 292.695 62.207C292.256 62.637 291.67 62.852 290.918 62.852C290.508 62.852 290.098 62.764 289.697 62.579C289.306 62.403 289.004 62.159 288.789 61.856L289.297 61.26C289.727 61.787 290.235 62.041 290.85 62.041C291.329 62.041 291.7 61.914 291.973 61.641C292.237 61.368 292.373 60.987 292.373 60.498V60.01C291.982 60.459 291.445 60.684 290.762 60.684C290.088 60.684 289.541 60.42 289.121 59.873C288.711 59.326 288.496 58.594 288.496 57.656ZM289.492 57.764C289.492 58.418 289.619 58.926 289.883 59.297C290.156 59.668 290.528 59.854 291.006 59.854C291.631 59.854 292.08 59.571 292.373 59.004V56.377C292.07 55.82 291.621 55.547 291.016 55.547C290.537 55.547 290.166 55.733 289.893 56.113C289.619 56.484 289.492 57.031 289.492 57.764Z" fill="#062862"/>
<path d="M297.637 55.703C297.481 55.683 297.324 55.664 297.148 55.664C296.503 55.664 296.065 55.937 295.831 56.494V60.576H294.854V54.824H295.811L295.821 55.488C296.143 54.97 296.602 54.717 297.198 54.717C297.393 54.717 297.54 54.737 297.637 54.785V55.703V55.703Z" fill="#062862"/>
<path d="M300.83 60.6838C300.049 60.6838 299.414 60.4298 298.926 59.9218C298.438 59.4038 298.194 58.7208 298.194 57.8608V57.6748C298.194 57.1088 298.301 56.6008 298.516 56.1518C298.741 55.7028 299.043 55.3508 299.434 55.0968C299.825 54.8428 300.254 54.7158 300.713 54.7158C301.455 54.7158 302.041 54.9598 302.451 55.4478C302.871 55.9458 303.076 56.6488 303.076 57.5768V57.9768H299.18C299.19 58.5528 299.356 59.0118 299.668 59.3538C299.99 59.7058 300.391 59.8808 300.879 59.8808C301.231 59.8808 301.524 59.8128 301.768 59.6658C302.012 59.5288 302.217 59.3338 302.403 59.0998L302.999 59.5688C302.52 60.3118 301.797 60.6838 300.83 60.6838ZM300.713 55.5268C300.313 55.5268 299.981 55.6638 299.707 55.9568C299.433 56.2498 299.268 56.6498 299.209 57.1778H302.09V57.0998C302.061 56.6018 301.934 56.2108 301.69 55.9378C301.446 55.6648 301.123 55.5268 300.713 55.5268Z" fill="#062862"/>
<path d="M303.984 57.656C303.984 56.758 304.189 56.035 304.609 55.508C305.019 54.981 305.566 54.717 306.259 54.717C306.952 54.717 307.509 54.961 307.9 55.459L307.949 54.824H308.847V60.439C308.847 61.191 308.622 61.777 308.183 62.207C307.744 62.637 307.148 62.852 306.406 62.852C305.986 62.852 305.586 62.764 305.185 62.579C304.785 62.403 304.482 62.159 304.277 61.856L304.785 61.26C305.205 61.787 305.723 62.041 306.338 62.041C306.817 62.041 307.188 61.914 307.461 61.641C307.725 61.368 307.861 60.987 307.861 60.498V60.01C307.461 60.459 306.923 60.684 306.24 60.684C305.566 60.684 305.019 60.42 304.609 59.873C304.189 59.326 303.984 58.594 303.984 57.656ZM304.971 57.764C304.971 58.418 305.108 58.926 305.371 59.297C305.634 59.668 306.016 59.854 306.494 59.854C307.109 59.854 307.568 59.571 307.861 59.004V56.377C307.558 55.82 307.109 55.547 306.504 55.547C306.025 55.547 305.645 55.733 305.381 56.113C305.107 56.484 304.971 57.031 304.971 57.764Z" fill="#062862"/>
<path d="M313.887 60.576C313.828 60.469 313.789 60.264 313.75 59.971C313.291 60.45 312.744 60.684 312.109 60.684C311.543 60.684 311.074 60.528 310.713 60.205C310.352 59.882 310.166 59.473 310.166 58.984C310.166 58.379 310.4 57.92 310.85 57.588C311.309 57.256 311.954 57.09 312.774 57.09H313.731V56.631C313.731 56.289 313.633 56.016 313.428 55.811C313.223 55.606 312.92 55.508 312.52 55.508C312.168 55.508 311.875 55.596 311.631 55.772C311.397 55.948 311.279 56.163 311.279 56.417H310.283C310.283 56.134 310.39 55.851 310.595 55.587C310.79 55.314 311.074 55.108 311.425 54.952C311.767 54.796 312.157 54.718 312.577 54.718C313.241 54.718 313.759 54.884 314.13 55.216C314.511 55.548 314.706 55.997 314.716 56.583V59.239C314.716 59.766 314.784 60.186 314.921 60.499V60.577H313.887V60.576ZM312.256 59.834C312.568 59.834 312.861 59.746 313.135 59.59C313.409 59.434 313.614 59.219 313.731 58.965V57.783H312.969C311.758 57.783 311.153 58.144 311.153 58.847C311.153 59.15 311.26 59.394 311.465 59.57C311.67 59.746 311.934 59.834 312.256 59.834Z" fill="#062862"/>
<path d="M317.597 53.428V54.824H318.671V55.586H317.597V59.16C317.597 59.394 317.646 59.56 317.743 59.678C317.84 59.796 318.007 59.854 318.231 59.854C318.348 59.854 318.504 59.834 318.7 59.786V60.587C318.446 60.655 318.192 60.685 317.948 60.685C317.509 60.685 317.177 60.558 316.952 60.294C316.727 60.021 316.61 59.649 316.61 59.151V55.587H315.565V54.825H316.61V53.429H317.597V53.428Z" fill="#062862"/>
<path d="M319.463 57.646C319.463 57.08 319.58 56.572 319.795 56.123C320.02 55.674 320.332 55.322 320.723 55.078C321.123 54.834 321.573 54.717 322.08 54.717C322.861 54.717 323.496 54.99 323.984 55.528C324.472 56.075 324.707 56.798 324.707 57.696V57.764C324.707 58.33 324.6 58.828 324.385 59.278C324.17 59.717 323.867 60.069 323.467 60.313C323.067 60.567 322.608 60.684 322.09 60.684C321.309 60.684 320.674 60.42 320.195 59.873C319.707 59.326 319.463 58.613 319.463 57.715V57.646ZM320.459 57.764C320.459 58.399 320.605 58.916 320.898 59.307C321.201 59.688 321.591 59.883 322.089 59.883C322.587 59.883 322.987 59.688 323.28 59.297C323.573 58.906 323.729 58.35 323.729 57.647C323.729 57.012 323.573 56.504 323.28 56.114C322.977 55.723 322.577 55.528 322.079 55.528C321.591 55.528 321.2 55.714 320.907 56.104C320.605 56.494 320.459 57.041 320.459 57.764Z" fill="#062862"/>
<path d="M328.73 55.703C328.584 55.683 328.418 55.664 328.242 55.664C327.597 55.664 327.158 55.937 326.933 56.494V60.576H325.947V54.824H326.904L326.924 55.488C327.246 54.97 327.705 54.717 328.291 54.717C328.486 54.717 328.633 54.737 328.73 54.785V55.703Z" fill="#062862"/>
</g>
<defs>
<clipPath id="clip0">
<rect width="330" height="62.852" fill="white"/>
</clipPath>
</defs>
</svg>
