<svg width="24" height="14" viewBox="0 0 24 14" fill="none" xmlns="http://www.w3.org/2000/svg">
<path d="M5.74307 11.515C6.93609 11.2046 8.23574 10.8297 9.27731 10.5198L9.23928 10.6128C8.85094 11.5625 9.75616 12.5299 10.7295 12.2055L11.7714 11.8581L11.7714 11.8581C11.9482 11.7992 12.1088 11.7 12.2405 11.5683L16.0889 7.71989C16.4813 7.52807 17.5524 7.00261 17.975 6.77454C18.885 6.28339 19.5556 5.90433 20.1023 5.59368C20.1522 5.5653 20.201 5.53757 20.2487 5.51045C20.7268 5.23863 21.0972 5.02804 21.4657 4.83408C22.2583 4.41695 22.7239 3.66693 22.6256 2.85437C22.5331 2.08987 21.9083 1.39451 21 1.39454C20.9584 1.39454 20.8561 1.38169 20.6362 1.32813C20.5796 1.31433 20.498 1.29321 20.4056 1.26929C20.2454 1.22783 20.0526 1.17793 19.9003 1.14298C19.369 1.02113 18.5765 0.882861 17.8015 1.16843C15.8724 1.87918 9.28553 4.99377 7.517 5.83369L4.06442 4.0603C3.66774 3.85655 3.19079 3.88957 2.82598 4.14605L3.35556 4.89931L2.82598 4.14605L1.61948 4.99428C1.00989 5.42285 0.934193 6.29756 1.46111 6.82448L3.54892 8.91229C3.45812 9.00363 3.36803 9.09873 3.28405 9.19433C3.14036 9.35789 2.95911 9.58417 2.84051 9.83441C2.78182 9.95825 2.70277 10.1607 2.6981 10.4082C2.69274 10.6915 2.78916 11.0258 3.06819 11.2828C3.58009 11.7543 4.18924 11.7999 4.63348 11.757C4.96929 11.7246 5.33564 11.6251 5.59765 11.554C5.65079 11.5396 5.69964 11.5263 5.74307 11.515L5.49128 10.5472L5.74307 11.515ZM4.13537 9.49874C4.13519 9.49857 4.13502 9.49839 4.13484 9.49821L4.13537 9.49874L4.69752 8.93659L4.13537 9.49874Z" stroke="#7688A8" stroke-width="2"/>
</svg>
